<?xml version="1.0" standalone="no"?>
<!DOCTYPE svg PUBLIC "-//W3C//DTD SVG 1.1//EN" "http://www.w3.org/Graphics/SVG/1.1/DTD/svg11.dtd" >
<svg>
<metadata>
Created by FontForge 20120731 at Mon Jul  4 14:17:49 2016
 By Apache
Copyright (c) 2012 by The League of Moveable Type
</metadata>
<defs>
<font id="LeagueGothic-CondensedItalic" horiz-adv-x="232" >
  <font-face 
    font-family="League Gothic"
    font-weight="400"
    font-style="italic"
    font-stretch="condensed"
    units-per-em="1000"
    panose-1="0 0 5 6 0 0 0 0 0 0"
    ascent="735"
    descent="-265"
    x-height="547"
    cap-height="735"
    bbox="-89 -250 526.998 952"
    underline-thickness="50"
    underline-position="-50"
    stemh="82"
    stemv="61"
    unicode-range="U+000D-FB02"
  />
<missing-glyph horiz-adv-x="92" 
 />
    <glyph glyph-name=".notdef" horiz-adv-x="92" 
 />
    <glyph glyph-name="CR" unicode="&#xd;" horiz-adv-x="108" 
 />
    <glyph glyph-name="space" unicode=" " horiz-adv-x="108" 
 />
    <glyph glyph-name="Acircumflex" unicode="&#xc2;" horiz-adv-x="254" 
d="M214 890h81l22 -90h-65l-8 39l-26 -39h-65zM30 0h-80l222 735h97l-90 -735h-81l21 150h-46zM136 264l46 292l-77 -292h31z" />
    <glyph glyph-name="Adieresis" unicode="&#xc4;" horiz-adv-x="254" 
d="M150 800l21 98h74l-21 -98h-74zM247 800l21 98h73l-21 -98h-73zM30 0h-80l222 735h97l-90 -735h-81l20 150h-44zM135 264l41 262l-70 -262h29z" />
    <glyph glyph-name="Agrave" unicode="&#xc0;" horiz-adv-x="254" 
d="M174 890h80l13 -90h-64zM30 0h-80l222 735h97l-90 -735h-81l21 150h-46zM136 264l46 292l-77 -292h31z" />
    <glyph glyph-name="Amacron" unicode="&#x100;" horiz-adv-x="254" 
d="M174 830l16 79h134l-16 -79h-134zM29 0h-80l222 735h97l-90 -735h-81l21 150h-46zM135 264l46 292l-77 -292h31z" />
    <glyph glyph-name="Aogonek" unicode="&#x104;" horiz-adv-x="254" 
d="M197 0h-29c-10 -13 -22 -30 -32 -50c-5 -10 -9 -21 -11 -33c-6 -29 3 -38 13 -38c5 0 21 9 38 20l-20 -75c-18 -9 -29 -12 -42 -12c-45 0 -62 40 -52 85c5 24 22 53 36 72l3 3c5 7 13 17 23 28h-8l21 150h-46l-43 -150h-80l223 735h97zM155 264l46 292l-77 -292h31z" />
    <glyph glyph-name="Aring" unicode="&#xc5;" horiz-adv-x="254" 
d="M192 860c9 41 39 70 69 70c29 0 47 -29 38 -70s-39 -70 -68 -70c-30 0 -48 29 -39 70zM231 860c-4 -19 1 -32 8 -32c6 0 18 13 22 32s-3 31 -9 31c-7 0 -17 -12 -21 -31zM28 0h-80l222 735h97l-90 -735h-81l20 150h-44zM133 264l41 262l-70 -262h29z" />
    <glyph glyph-name="Atilde" unicode="&#xc3;" horiz-adv-x="254" 
d="M164 783l18 86c12 13 31 21 46 21c23 0 30 -17 49 -17c13 0 38 19 46 29l-17 -83c-11 -13 -28 -25 -46 -25c-23 0 -30 19 -50 19c-12 0 -40 -23 -46 -30zM30 0h-80l222 735h97l-90 -735h-81l20 150h-46zM136 264l46 292l-77 -292h31z" />
    <glyph glyph-name="AE" unicode="&#xc6;" horiz-adv-x="352" 
d="M113 0l32 150h-49l-58 -150h-81l279 735h200l-24 -111h-83l-41 -193h60l-25 -118h-60l-43 -202h83l-24 -111h-166zM228 538l-90 -274h32c9 45 47 221 58 274z" />
    <glyph glyph-name="B" unicode="B" horiz-adv-x="248" 
d="M84 0h-108l156 735h73c42 0 63 -14 77 -43c14 -32 16 -81 1 -152c-7 -35 -17 -71 -28 -95c-12 -22 -25 -43 -47 -57c14 -16 25 -31 26 -72c0 -23 -9 -72 -16 -108c-12 -55 -33 -121 -47 -145s-44 -63 -87 -63zM192 628l-42 -196c5 0 16 0 22 6c10 11 19 39 30 92
s14 81 9 92c-5 6 -13 6 -19 6zM129 333l-48 -226c4 0 15 -1 21 5c11 11 21 45 34 108c13 62 20 98 12 108c-5 6 -14 5 -19 5z" />
    <glyph glyph-name="C" unicode="C" horiz-adv-x="238" 
d="M139 252h81l-24 -111c-16 -77 -54 -149 -130 -149c-77 0 -79 84 -66 149l96 453c14 65 54 149 129 149c80 0 79 -97 68 -149l-24 -111h-81l24 111c3 13 8 44 -8 44c-13 0 -19 -24 -22 -40l-98 -457c-3 -14 -7 -44 5 -44c16 0 23 30 26 44z" />
    <glyph glyph-name="Cacute" unicode="&#x106;" horiz-adv-x="238" 
d="M226 915h80l-67 -90h-63zM130 252h81l-24 -111c-16 -77 -54 -149 -130 -149c-77 0 -79 84 -66 149l96 453c13 65 54 149 129 149c80 0 79 -97 68 -149l-24 -111h-81l24 111c2 13 8 44 -8 44c-13 0 -19 -24 -23 -40l-97 -457c-3 -14 -7 -44 5 -44c16 0 23 30 26 44z" />
    <glyph glyph-name="Ccaron" unicode="&#x10c;" horiz-adv-x="238" 
d="M274 825h-81l-23 90h65l9 -39l25 39h65zM130 252h81l-24 -111c-16 -77 -54 -149 -130 -149c-77 0 -79 84 -66 149l96 453c13 65 54 149 129 149c80 0 79 -97 68 -149l-24 -111h-81l24 111c2 13 8 44 -8 44c-13 0 -19 -24 -23 -40l-97 -457c-3 -14 -7 -44 5 -44
c16 0 23 30 26 44z" />
    <glyph glyph-name="Ccedilla" unicode="&#xc7;" horiz-adv-x="238" 
d="M149 252h81l-24 -111c-16 -77 -55 -149 -131 -149c-77 0 -79 84 -66 149l96 453c14 65 55 149 130 149c80 0 78 -97 67 -149l-23 -111h-81l23 111c3 13 9 44 -7 44c-13 0 -19 -24 -23 -40l-97 -457c-3 -14 -7 -44 5 -44c16 0 23 30 26 44zM97 -54l-15 -69l-27 -65h-49
l26 65h-18l15 69h68z" />
    <glyph glyph-name="Ccircumflex" unicode="&#x108;" horiz-adv-x="238" 
d="M206 890h81l22 -90h-65l-9 39l-25 -39h-65zM131 252h81l-23 -111c-17 -77 -55 -149 -131 -149c-77 0 -79 84 -65 149l95 453c14 65 55 149 130 149c80 0 78 -97 67 -149l-24 -111h-81l24 111c3 13 8 44 -8 44c-13 0 -19 -24 -22 -40l-97 -457c-3 -14 -8 -44 4 -44
c16 0 24 30 27 44z" />
    <glyph glyph-name="Cdotaccent" unicode="&#x10a;" horiz-adv-x="238" 
d="M191 822l21 101h79l-21 -101h-79zM129 252h81l-23 -111c-16 -77 -55 -149 -131 -149c-77 0 -79 84 -65 149l95 453c14 65 55 149 130 149c80 0 78 -97 67 -149l-23 -111h-81l23 111c3 13 9 44 -7 44c-13 0 -20 -24 -23 -40l-97 -457c-3 -14 -7 -44 5 -44
c16 0 23 30 26 44z" />
    <glyph glyph-name="D" unicode="D" horiz-adv-x="253" 
d="M55 0h-79l156 735h69c66 0 87 -20 94 -76c5 -56 -13 -148 -43 -292c-31 -144 -55 -258 -80 -302c-21 -39 -51 -65 -117 -65zM192 627l-111 -519c13 0 25 -4 36 24c8 24 27 116 46 204c32 151 49 222 54 267c2 26 -13 23 -25 24z" />
    <glyph glyph-name="Eth" unicode="&#xd0;" horiz-adv-x="253" 
d="M26 320l23 111h18l65 304h60c136 0 125 -62 60 -368c-64 -301 -83 -367 -217 -367h-59l68 320h-18zM192 627l-42 -196h15l-23 -111h-15l-46 -212c11 2 31 6 41 35c7 17 16 48 24 83s18 82 31 142c12 60 22 107 29 142c7 34 11 65 12 83c1 30 -15 33 -26 34z" />
    <glyph glyph-name="Dcaron" unicode="&#x10e;" horiz-adv-x="253" 
d="M276 825h-81l-23 90h65l9 -39l25 39h65zM46 0h-79l155 735h69c66 0 88 -20 94 -76c5 -56 -12 -148 -43 -292s-55 -258 -79 -302c-22 -39 -51 -65 -117 -65zM182 627l-110 -519c13 0 24 -4 35 24c8 24 28 116 46 204c32 151 50 222 54 267c3 26 -13 23 -25 24z" />
    <glyph glyph-name="Dcroat" unicode="&#x110;" horiz-adv-x="253" 
d="M55 0h-79l70 331h-35l17 79h35l69 325h69c66 0 87 -20 94 -76c5 -56 -13 -148 -43 -292c-31 -144 -55 -258 -80 -302c-21 -39 -51 -65 -117 -65zM192 627l-46 -217h16l-17 -79h-16l-48 -223c13 0 25 -4 36 24c8 24 27 116 46 204c32 151 49 222 54 267
c2 26 -13 23 -25 24z" />
    <glyph glyph-name="E" unicode="E" horiz-adv-x="214" 
d="M-24 0l156 735h166l-24 -111h-83l-41 -193h60l-25 -118h-60l-43 -202h83l-24 -111h-165z" />
    <glyph glyph-name="Eacute" unicode="&#xc9;" horiz-adv-x="214" 
d="M232 890h80l-66 -90h-64zM-32 0l155 735h166l-23 -111h-83l-41 -193h60l-25 -118h-60l-43 -202h83l-24 -111h-165z" />
    <glyph glyph-name="Ebreve" unicode="&#x114;" horiz-adv-x="214" 
d="M275 928l27 -58c-11 -14 -27 -28 -50 -39h1c-9 -5 -22 -7 -35 -7c-27 0 -41 11 -51 23c-7 10 -12 19 -13 23l54 59c6 -18 10 -30 15 -32c3 -2 7 -3 10 -3c6 0 15 5 23 11zM-34 0l155 735h166l-23 -111h-83l-41 -193h60l-25 -118h-60l-43 -202h83l-24 -111h-165z" />
    <glyph glyph-name="Ecaron" unicode="&#x11a;" horiz-adv-x="214" 
d="M264 825h-81l-23 90h65l9 -39l25 39h65zM-33 0l155 735h166l-23 -111h-83l-41 -193h60l-26 -118h-60l-42 -202h83l-24 -111h-165z" />
    <glyph glyph-name="Ecircumflex" unicode="&#xca;" horiz-adv-x="214" 
d="M201 890h81l22 -90h-65l-8 39l-26 -39h-65zM-32 0l155 735h166l-23 -111h-83l-41 -193h60l-25 -118h-60l-43 -202h83l-24 -111h-165z" />
    <glyph glyph-name="Edieresis" unicode="&#xcb;" horiz-adv-x="214" 
d="M137 800l21 98h74l-21 -98h-74zM234 800l21 98h73l-21 -98h-73zM-32 0l155 735h166l-24 -111h-83l-41 -193h60l-25 -118h-60l-43 -202h83l-23 -111h-165z" />
    <glyph glyph-name="Edotaccent" unicode="&#x116;" horiz-adv-x="214" 
d="M178 822l22 101h79l-22 -101h-79zM-33 0l155 735h166l-24 -111h-83l-41 -193h60l-25 -118h-60l-43 -202h83l-23 -111h-165z" />
    <glyph glyph-name="Egrave" unicode="&#xc8;" horiz-adv-x="214" 
d="M165 890h80l13 -90h-64zM-32 0l155 735h166l-23 -111h-83l-41 -193h60l-25 -118h-60l-43 -202h83l-24 -111h-165z" />
    <glyph glyph-name="Emacron" unicode="&#x112;" horiz-adv-x="214" 
d="M154 830l16 79h134l-16 -79h-134zM-33 0l155 735h166l-23 -111h-83l-41 -193h60l-25 -118h-60l-43 -202h83l-24 -111h-165z" />
    <glyph glyph-name="Eogonek" unicode="&#x118;" horiz-adv-x="214" 
d="M151 0h-29c-10 -11 -20 -28 -31 -50c-5 -10 -9 -21 -11 -33c-6 -29 3 -38 13 -38c5 0 21 9 38 20l-21 -75c-18 -9 -28 -12 -42 -12c-45 0 -62 40 -52 85c4 23 22 53 36 72l3 3c5 6 14 17 25 28h-94l156 735h166l-24 -111h-83l-41 -193h60l-25 -118h-60l-43 -202h83z" />
    <glyph glyph-name="F" unicode="F" horiz-adv-x="211" 
d="M304 735l-24 -111h-89l-41 -193h60l-23 -111h-60l-69 -320h-82l156 735h172z" />
    <glyph glyph-name="G" unicode="G" horiz-adv-x="246" 
d="M268 471h-83l26 123c3 15 7 44 -7 44c-11 0 -20 -26 -24 -44l-98 -462c-5 -23 -5 -44 7 -44c18 0 26 26 30 44l30 143h-18l19 91h95l-78 -366h-43l-3 27c-13 -18 -44 -35 -62 -35c-73 0 -70 97 -59 149l96 453c14 66 55 149 130 149c80 0 80 -90 68 -149z" />
    <glyph glyph-name="Gbreve" unicode="&#x11e;" horiz-adv-x="246" 
d="M292 927l27 -56c-24 -28 -53 -48 -84 -48s-57 22 -64 48l53 57s8 -32 26 -32c16 0 42 31 42 31zM258 471h-83l26 123c3 15 7 44 -7 44c-11 0 -20 -26 -24 -44l-98 -462c-5 -23 -5 -44 7 -44c18 0 26 26 30 44l30 143h-18l19 91h95l-77 -366h-43l-4 27
c-12 -18 -44 -35 -62 -35c-73 0 -69 97 -58 149l95 453c14 66 56 149 131 149c80 0 79 -90 67 -149z" />
    <glyph glyph-name="Gcircumflex" unicode="&#x11c;" horiz-adv-x="246" 
d="M209 890h81l22 -90h-65l-9 39l-25 -39h-65zM260 471h-83l26 123c3 15 7 44 -7 44c-11 0 -20 -26 -24 -44l-98 -462c-5 -23 -5 -44 7 -44c18 0 26 26 30 44l30 143h-18l19 91h95l-77 -366h-43l-4 27c-12 -18 -44 -35 -62 -35c-73 0 -69 97 -58 149l95 453
c14 66 56 149 131 149c80 0 79 -90 67 -149z" />
    <glyph glyph-name="Gcommaaccent" unicode="&#x122;" horiz-adv-x="246" 
d="M277 471h-83l26 123c4 15 8 44 -6 44c-11 0 -21 -26 -25 -44l-98 -462c-5 -23 -4 -44 8 -44c18 0 25 26 29 44l31 143h-18l19 91h95l-78 -366h-43l-3 27c-13 -18 -45 -35 -63 -35c-73 0 -69 97 -59 149l96 453c14 66 56 149 131 149c80 0 80 -90 67 -149zM97 -54l-15 -69
l-27 -65h-49l30 65h-22l15 69h68z" />
    <glyph glyph-name="Gdotaccent" unicode="&#x120;" horiz-adv-x="246" 
d="M196 822l21 101h78l-21 -101h-78zM258 471h-83l26 123c3 15 8 44 -6 44c-11 0 -21 -26 -25 -44l-98 -462c-5 -23 -4 -44 8 -44c18 0 25 26 29 44l30 143h-18l20 91h95l-78 -366h-43l-3 27c-13 -18 -45 -35 -63 -35c-73 0 -69 97 -58 149l95 453c14 66 56 149 131 149
c80 0 80 -90 67 -149z" />
    <glyph glyph-name="H" unicode="H" horiz-adv-x="258" 
d="M90 0l69 320h-32l-69 -320h-82l156 735h83l-65 -304h32l65 304h83l-157 -735h-83z" />
    <glyph glyph-name="Hbar" unicode="&#x126;" horiz-adv-x="258" 
d="M331 627l-17 -79h-24l-117 -548h-83l69 320h-32l-69 -320h-82l116 548h-23l17 79h23l23 108h83l-23 -108h32l23 108h83l-23 -108h24zM182 431l25 117h-32l-25 -117h32z" />
    <glyph glyph-name="Hcircumflex" unicode="&#x124;" horiz-adv-x="258" 
d="M216 890h81l22 -90h-65l-8 39l-26 -39h-65zM82 0l68 320h-32l-68 -320h-82l155 735h83l-64 -304h32l64 304h83l-156 -735h-83z" />
    <glyph glyph-name="I" unicode="I" horiz-adv-x="143" 
d="M-24 0l156 735h83l-157 -735h-82z" />
    <glyph glyph-name="IJ" unicode="&#x132;" horiz-adv-x="267" 
d="M-23 0l155 735h83l-156 -735h-82zM76 -6l22 108c32 -7 44 31 48 51l124 582h83l-127 -599c-18 -85 -58 -151 -150 -142z" />
    <glyph glyph-name="Iacute" unicode="&#xcd;" horiz-adv-x="148" 
d="M188 890h80l-66 -90h-64zM-32 0l155 735h83l-156 -735h-82z" />
    <glyph glyph-name="Ibreve" unicode="&#x12c;" horiz-adv-x="143" 
d="M239 928l28 -56c-24 -28 -54 -48 -85 -48s-56 22 -63 48l53 57s8 -32 26 -32c16 0 41 31 41 31zM-34 0l155 735h83l-156 -735h-82z" />
    <glyph glyph-name="Icircumflex" unicode="&#xce;" horiz-adv-x="139" 
d="M154 890h81l22 -90h-65l-8 39l-26 -39h-65zM-34 0l155 735h82l-156 -735h-81z" />
    <glyph glyph-name="Idieresis" unicode="&#xcf;" horiz-adv-x="139" 
d="M93 800l21 98h74l-21 -98h-74zM190 800l21 98h73l-21 -98h-73zM-34 0l155 735h83l-156 -735h-82z" />
    <glyph glyph-name="Idotaccent" unicode="&#x130;" horiz-adv-x="143" 
d="M143 822l22 101h79l-22 -101h-79zM-33 0l155 735h83l-156 -735h-82z" />
    <glyph glyph-name="Igrave" unicode="&#xcc;" horiz-adv-x="148" 
d="M131 890h80l12 -90h-63zM-27 0l155 735h83l-156 -735h-82z" />
    <glyph glyph-name="Imacron" unicode="&#x12a;" horiz-adv-x="143" 
d="M118 830l16 79h134l-16 -79h-134zM-33 0l155 735h83l-156 -735h-82z" />
    <glyph glyph-name="Iogonek" unicode="&#x12e;" horiz-adv-x="143" 
d="M68 0h-29c-10 -13 -22 -30 -32 -50c-5 -10 -8 -21 -10 -33c-6 -29 3 -38 12 -38c5 0 21 9 38 20l-20 -75c-18 -9 -28 -12 -41 -12c-45 0 -62 40 -52 85c5 24 22 53 36 72l3 3c5 7 13 17 23 28h-10l156 735h83z" />
    <glyph glyph-name="Itilde" unicode="&#x128;" horiz-adv-x="143" 
d="M112 810l19 86c11 13 30 21 45 21c23 0 30 -17 49 -17c13 0 39 19 47 29l-18 -83c-11 -13 -27 -25 -45 -25c-23 0 -30 19 -50 19c-12 0 -40 -23 -47 -30zM-34 0l155 735h83l-156 -735h-82z" />
    <glyph glyph-name="J" unicode="J" horiz-adv-x="154" 
d="M-43 -6l22 108c31 -7 43 31 47 51l124 582h83l-127 -599c-18 -85 -58 -151 -149 -142z" />
    <glyph glyph-name="Jcircumflex" unicode="&#x134;" horiz-adv-x="154" 
d="M170 890h81l22 -90h-65l-9 39l-25 -39h-65zM-55 -6l23 108c32 -7 43 31 47 51l124 582h83l-127 -599c-19 -85 -59 -151 -150 -142z" />
    <glyph glyph-name="K" unicode="K" horiz-adv-x="255" 
d="M132 735h80l-45 -211l99 211h81l-130 -269l-29 -466h-81l23 350l-75 -350h-79z" />
    <glyph glyph-name="Kcommaaccent" unicode="&#x136;" horiz-adv-x="255" 
d="M142 735h80l-45 -211l99 211h81l-130 -269l-29 -466h-81l23 350l-75 -350h-79zM97 -54l-15 -69l-26 -65h-49l25 65h-18l15 69h68z" />
    <glyph glyph-name="L" unicode="L" horiz-adv-x="207" 
d="M-24 0l156 735h83l-135 -635h86l-22 -100h-168z" />
    <glyph glyph-name="Lacute" unicode="&#x139;" horiz-adv-x="207" 
d="M209 915h80l-66 -90h-64zM-33 0l155 735h83l-135 -635h86l-21 -100h-168z" />
    <glyph glyph-name="Lcaron" unicode="&#x13d;" horiz-adv-x="237" 
d="M347 848l-24 -111l-61 -130h-48l49 130h-21l24 111h81zM-30 0l156 735h83l-135 -635h86l-22 -100h-168z" />
    <glyph glyph-name="Lcommaaccent" unicode="&#x13b;" horiz-adv-x="207" 
d="M-14 0l156 735h83l-135 -635h86l-22 -100h-168zM97 -54l-15 -69l-26 -65h-49l25 65h-18l15 69h68z" />
    <glyph glyph-name="Ldot" unicode="&#x13f;" horiz-adv-x="223" 
d="M-24 0l156 735h83l-135 -635h86l-22 -100h-168zM153 329l24 111h81l-24 -111h-81z" />
    <glyph glyph-name="Lslash" unicode="&#x141;" horiz-adv-x="214" 
d="M13 250l28 132l30 30h-1l69 323h83l-47 -222l44 46l-27 -128l-46 -48h1l-60 -283h86l-22 -100h-168l60 283c-2 -1 -30 -33 -30 -33z" />
    <glyph glyph-name="M" unicode="M" horiz-adv-x="320" 
d="M128 0h-45l46 362l-77 -362h-76l156 735h92l-36 -347l112 347h92l-157 -735h-77l75 362z" />
    <glyph glyph-name="N" unicode="N" horiz-adv-x="267" 
d="M112 0l16 357l-76 -357h-76l156 735h70l-14 -347l74 347h77l-157 -735h-70z" />
    <glyph glyph-name="Nacute" unicode="&#x143;" horiz-adv-x="267" 
d="M239 915h80l-66 -90h-64zM103 0l16 357l-76 -357h-76l155 735h70l-14 -347l74 347h77l-156 -735h-70z" />
    <glyph glyph-name="Ncaron" unicode="&#x147;" horiz-adv-x="267" 
d="M286 825h-81l-23 90h65l9 -39l25 39h65zM103 0l16 357l-76 -357h-76l155 735h70l-14 -347l74 347h77l-156 -735h-70z" />
    <glyph glyph-name="Ncommaaccent" unicode="&#x145;" horiz-adv-x="267" 
d="M122 0l16 357l-76 -357h-76l156 735h70l-14 -347l74 347h77l-157 -735h-70zM97 -54l-15 -69l-26 -65h-49l25 65h-18l15 69h68z" />
    <glyph glyph-name="Eng" unicode="&#x14a;" horiz-adv-x="267" 
d="M268 735h77l-156 -735c-8 -31 -20 -61 -36 -84c-18 -26 -49 -42 -91 -36l23 104c11 -4 20 4 28 16l21 352l-75 -352h-76l155 735h71l-15 -349z" />
    <glyph glyph-name="Ntilde" unicode="&#xd1;" horiz-adv-x="267" 
d="M169 783l18 86c12 13 31 21 46 21c23 0 30 -17 49 -17c13 0 38 19 46 29l-17 -83c-11 -13 -28 -25 -46 -25c-23 0 -30 19 -50 19c-12 0 -40 -23 -46 -30zM104 0l15 357l-75 -357h-76l155 735h70l-14 -347l74 347h77l-156 -735h-70z" />
    <glyph glyph-name="O" unicode="O" horiz-adv-x="242" 
d="M297 594l-97 -453c-16 -76 -55 -149 -131 -149c-77 0 -83 79 -69 149l96 453c16 76 57 149 132 149c80 0 82 -89 69 -149zM117 141l97 453c5 23 4 44 -7 44s-21 -20 -26 -44l-97 -453c-5 -27 -1 -44 8 -44c10 0 21 21 25 44z" />
    <glyph glyph-name="Oacute" unicode="&#xd3;" horiz-adv-x="242" 
d="M248 890h80l-67 -90h-64zM289 594l-96 -453c-17 -76 -56 -149 -132 -149c-77 0 -83 79 -68 149l95 453c16 76 58 149 133 149c80 0 81 -89 68 -149zM110 141l96 453c5 23 4 44 -7 44s-21 -20 -26 -44l-96 -453c-6 -27 -2 -44 7 -44c10 0 21 21 26 44z" />
    <glyph glyph-name="Obreve" unicode="&#x14e;" horiz-adv-x="242" 
d="M290 928l27 -56c-24 -28 -53 -48 -84 -48s-57 22 -64 48l53 57s8 -32 26 -32c16 0 42 31 42 31zM287 594l-96 -453c-17 -76 -56 -149 -132 -149c-77 0 -83 79 -68 149l95 453c16 76 58 149 133 149c80 0 81 -89 68 -149zM108 141l96 453c5 23 4 44 -7 44s-21 -20 -26 -44
l-96 -453c-6 -27 -2 -44 7 -44c10 0 21 21 26 44z" />
    <glyph glyph-name="Ocircumflex" unicode="&#xd4;" horiz-adv-x="242" 
d="M211 890h81l22 -90h-65l-9 39l-25 -39h-65zM289 594l-96 -453c-17 -76 -56 -149 -132 -149c-77 0 -83 79 -68 149l95 453c16 76 58 149 133 149c80 0 81 -89 68 -149zM110 141l96 453c5 23 4 44 -7 44s-21 -20 -26 -44l-96 -453c-6 -27 -2 -44 7 -44c10 0 21 21 26 44z
" />
    <glyph glyph-name="Odieresis" unicode="&#xd6;" horiz-adv-x="242" 
d="M147 800l21 98h74l-21 -98h-74zM244 800l21 98h73l-21 -98h-73zM288 594l-96 -453c-16 -76 -55 -149 -131 -149c-77 0 -84 79 -69 149l95 453c17 76 58 149 133 149c80 0 81 -89 68 -149zM109 141l96 453c5 23 5 44 -6 44s-21 -20 -27 -44l-96 -453c-6 -27 -1 -44 8 -44
c10 0 20 21 25 44z" />
    <glyph glyph-name="Ograve" unicode="&#xd2;" horiz-adv-x="242" 
d="M169 890h80l13 -90h-64zM289 594l-96 -453c-17 -76 -56 -149 -132 -149c-77 0 -83 79 -68 149l95 453c16 76 58 149 133 149c80 0 81 -89 68 -149zM110 141l96 453c5 23 4 44 -7 44s-21 -20 -26 -44l-96 -453c-6 -27 -2 -44 7 -44c10 0 21 21 26 44z" />
    <glyph glyph-name="Ohungarumlaut" unicode="&#x150;" horiz-adv-x="242" 
d="M184 915h80l-67 -90h-63zM293 915h80l-67 -90h-64zM288 594l-97 -453c-16 -76 -55 -149 -131 -149c-77 0 -84 79 -69 149l96 453c16 76 57 149 132 149c80 0 81 -89 69 -149zM108 141l97 453c5 23 4 44 -7 44s-21 -20 -26 -44l-97 -453c-5 -27 -1 -44 8 -44
c10 0 20 21 25 44z" />
    <glyph glyph-name="Omacron" unicode="&#x14c;" horiz-adv-x="242" 
d="M168 830l17 79h134l-17 -79h-134zM288 594l-96 -453c-17 -76 -56 -149 -132 -149c-77 0 -83 79 -68 149l95 453c16 76 58 149 133 149c80 0 81 -89 68 -149zM109 141l96 453c5 23 4 44 -7 44s-21 -20 -26 -44l-96 -453c-6 -27 -2 -44 7 -44c10 0 21 21 26 44z" />
    <glyph glyph-name="Oslash" unicode="&#xd8;" horiz-adv-x="242" 
d="M300 594l-97 -453c-16 -76 -55 -149 -131 -149c-19 0 -33 5 -45 12l-6 -14h-47l26 63c-6 26 -3 58 2 88l97 453c16 76 57 149 132 149c19 0 33 -5 45 -13l6 15h46l-26 -63c7 -28 3 -61 -2 -88zM213 576l4 18c5 23 4 44 -7 44s-21 -20 -26 -44l-40 -186zM93 165l-6 -24
c-5 -27 -1 -44 8 -44c10 0 21 21 25 44l42 195z" />
    <glyph glyph-name="Otilde" unicode="&#xd5;" horiz-adv-x="242" 
d="M157 783l19 86c11 13 30 21 45 21c23 0 31 -17 50 -17c13 0 38 19 46 29l-18 -83c-11 -13 -27 -25 -45 -25c-23 0 -30 19 -50 19c-12 0 -40 -23 -47 -30zM288 594l-96 -453c-16 -76 -56 -149 -132 -149c-77 0 -83 79 -68 149l95 453c16 76 58 149 133 149
c80 0 81 -89 68 -149zM109 141l96 453c5 23 5 44 -6 44s-22 -20 -27 -44l-96 -453c-6 -27 -1 -44 8 -44c10 0 20 21 25 44z" />
    <glyph glyph-name="OE" unicode="&#x152;" horiz-adv-x="318" 
d="M255 0h-184c-74 4 -84 66 -67 151l92 433c18 87 58 151 132 151h184l-24 -111h-83l-41 -193h60l-25 -118h-60l-43 -202h83zM122 151l92 433c2 11 6 54 -7 54c-10 0 -25 -38 -28 -54l-92 -433c-6 -27 -5 -54 5 -54c15 0 28 46 30 54z" />
    <glyph glyph-name="P" unicode="P" horiz-adv-x="241" 
d="M-24 0l156 735h84c33 0 54 -10 68 -44c15 -35 16 -93 -2 -176s-44 -144 -73 -179c-25 -30 -58 -41 -88 -42l-63 -294h-82zM192 627l-48 -223c8 0 22 2 29 12c11 16 19 54 28 95s19 87 14 105c-2 11 -14 11 -23 11z" />
    <glyph glyph-name="Thorn" unicode="&#xde;" horiz-adv-x="242" 
d="M-24 0l156 735h82l-24 -118c28 -2 53 -16 67 -46c14 -35 18 -91 0 -174s-44 -138 -74 -173c-26 -29 -57 -45 -87 -48l-38 -176h-82zM166 507l-47 -221c10 2 20 6 28 20c11 16 18 46 27 87s15 73 10 91c-2 15 -9 21 -18 23z" />
    <glyph glyph-name="Q" unicode="Q" horiz-adv-x="244" 
d="M295 594l-96 -453c-6 -30 -19 -61 -33 -87c-1 -1 0 -2 -1 -1v-1c4 -9 10 -15 19 -18l-19 -90c-47 0 -65 24 -70 52h-1c-3 -1 -6 -2 -9 -2l-13 -2h-8c-2 0 -2 1 -3 1c-71 5 -72 84 -59 148l96 453c16 76 54 149 129 149c80 0 81 -89 68 -149zM114 141l96 453
c5 23 7 44 -4 44s-18 -20 -23 -44l-96 -453c-5 -23 -5 -44 4 -44c10 0 19 24 23 44z" />
    <glyph glyph-name="R" unicode="R" horiz-adv-x="247" 
d="M182 0h-81l26 320l-69 -320h-82l156 735h84c78 0 94 -73 65 -212c-15 -70 -41 -136 -74 -167zM192 628l-47 -223c7 0 17 3 24 11c12 13 21 50 32 103c11 54 17 87 12 99c-5 11 -16 10 -21 10z" />
    <glyph glyph-name="Racute" unicode="&#x154;" horiz-adv-x="247" 
d="M229 915h80l-66 -90h-64zM173 0h-81l25 320l-68 -320h-82l155 735h84c78 0 95 -73 65 -212c-15 -70 -41 -136 -73 -167zM182 628l-47 -223c7 0 18 3 24 11c12 13 21 50 32 103c12 54 18 87 12 99c-4 11 -16 10 -21 10z" />
    <glyph glyph-name="Rcaron" unicode="&#x158;" horiz-adv-x="247" 
d="M276 825h-81l-23 90h65l9 -39l25 39h65zM173 0h-81l25 320l-68 -320h-82l155 735h84c78 0 95 -73 65 -212c-15 -70 -41 -136 -73 -167zM182 628l-47 -223c7 0 18 3 24 11c12 13 21 50 32 103c12 54 18 87 12 99c-4 11 -16 10 -21 10z" />
    <glyph glyph-name="Rcommaaccent" unicode="&#x156;" horiz-adv-x="247" 
d="M192 0h-81l26 320l-69 -320h-82l156 735h84c78 0 94 -73 65 -212c-15 -70 -41 -136 -74 -167zM202 628l-47 -223c7 0 17 3 24 11c12 13 21 50 32 103c11 54 17 87 12 99c-5 11 -16 10 -21 10zM97 -54l-15 -69l-26 -65h-49l25 65h-18l15 69h68z" />
    <glyph glyph-name="S" unicode="S" horiz-adv-x="236" 
d="M281 549l-84 -12c5 26 22 107 6 107c-12 0 -20 -30 -29 -73c-10 -48 -1 -100 12 -173c17 -87 30 -157 14 -231c-15 -70 -50 -175 -136 -175c-104 0 -71 146 -58 213l84 12c-5 -23 -27 -126 -5 -126c15 0 22 24 32 71c13 62 2 117 -19 220c-10 59 -17 132 -5 189
c13 64 49 170 129 172c97 2 72 -133 59 -194z" />
    <glyph glyph-name="Sacute" unicode="&#x15a;" horiz-adv-x="236" 
d="M225 915h80l-67 -90h-64zM272 549l-85 -12c6 26 23 107 7 107c-12 0 -20 -30 -29 -73c-10 -48 -2 -100 12 -173c17 -87 30 -157 14 -231c-15 -70 -50 -175 -136 -175c-104 0 -71 146 -57 213l82 12c-4 -23 -26 -126 -4 -126c15 0 22 24 32 71c13 62 2 117 -19 220
c-10 59 -17 132 -5 189c13 64 49 170 129 172c97 2 72 -133 59 -194z" />
    <glyph glyph-name="Scaron" unicode="&#x160;" horiz-adv-x="236" 
d="M267 800h-81l-23 90h65l9 -39l25 39h65zM273 549l-84 -12c5 26 23 107 7 107c-12 0 -21 -30 -30 -73c-10 -48 -1 -100 12 -173c18 -87 30 -157 14 -231c-15 -70 -50 -175 -136 -175c-104 0 -71 146 -57 213l83 12c-5 -23 -27 -126 -5 -126c15 0 22 24 32 71
c13 62 2 117 -19 220c-10 59 -17 132 -5 189c14 64 49 170 130 172c96 2 71 -133 58 -194z" />
    <glyph glyph-name="Scedilla" unicode="&#x15e;" horiz-adv-x="236" 
d="M291 549l-85 -12c6 26 23 107 7 107c-12 0 -21 -30 -30 -73c-10 -48 -1 -100 13 -173c17 -87 29 -157 13 -231c-14 -70 -50 -175 -136 -175c-104 0 -72 146 -57 213l83 12c-5 -23 -27 -126 -5 -126c15 0 22 24 32 71c14 62 2 117 -19 220c-9 59 -17 132 -5 189
c14 64 49 170 130 172c96 2 72 -133 59 -194zM96 -54l-14 -69l-27 -65h-49l26 65h-18l14 69h68z" />
    <glyph glyph-name="Scircumflex" unicode="&#x15c;" horiz-adv-x="236" 
d="M206 890h81l22 -90h-65l-9 39l-25 -39h-65zM273 549l-84 -12c5 26 23 107 7 107c-12 0 -21 -30 -30 -73c-10 -48 -1 -100 12 -173c18 -87 30 -157 14 -231c-15 -70 -50 -175 -136 -175c-104 0 -71 146 -57 213l83 12c-5 -23 -27 -126 -5 -126c15 0 22 24 32 71
c13 62 2 117 -19 220c-10 59 -17 132 -5 189c14 64 49 170 130 172c96 2 71 -133 58 -194z" />
    <glyph glyph-name="T" unicode="T" horiz-adv-x="220" 
d="M146 624h-61l24 111h205l-24 -111h-61l-133 -624h-83z" />
    <glyph glyph-name="Tbar" unicode="&#x166;" horiz-adv-x="220" 
d="M290 624h-61l-16 -74h28l-16 -79h-28l-101 -471h-83l101 471h-23l16 79h23l16 74h-61l24 111h205z" />
    <glyph glyph-name="Tcaron" unicode="&#x164;" horiz-adv-x="220" 
d="M263 825h-81l-23 90h65l9 -39l25 39h65zM137 624h-61l23 111h205l-23 -111h-61l-133 -624h-83z" />
    <glyph glyph-name="uni021A" unicode="&#x21a;" horiz-adv-x="220" 
d="M156 624h-61l24 111h205l-24 -111h-61l-133 -624h-83zM97 -54l-15 -69l-26 -65h-49l25 65h-18l15 69h68z" />
    <glyph glyph-name="U" unicode="U" horiz-adv-x="250" 
d="M239 735h83l-126 -594c-18 -83 -55 -149 -130 -149c-79 0 -82 74 -66 149l125 594h83l-126 -594c-6 -28 -6 -44 7 -44c12 0 19 20 24 44z" />
    <glyph glyph-name="Uacute" unicode="&#xda;" horiz-adv-x="250" 
d="M254 890h80l-66 -90h-64zM231 735h83l-126 -594c-18 -83 -55 -149 -130 -149c-79 0 -82 74 -66 149l125 594h83l-126 -594c-6 -28 -7 -44 6 -44c12 0 20 20 25 44z" />
    <glyph glyph-name="Ubreve" unicode="&#x16c;" horiz-adv-x="250" 
d="M293 928l27 -56c-24 -28 -53 -48 -84 -48s-57 22 -64 48l53 57s8 -32 26 -32c16 0 42 31 42 31zM229 735h83l-126 -594c-18 -83 -55 -149 -130 -149c-79 0 -82 74 -66 149l125 594h83l-126 -594c-6 -28 -7 -44 6 -44c12 0 19 20 25 44z" />
    <glyph glyph-name="Ucircumflex" unicode="&#xdb;" horiz-adv-x="250" 
d="M206 890h81l22 -90h-65l-9 39l-25 -39h-65zM231 735h83l-126 -594c-18 -83 -55 -149 -130 -149c-79 0 -82 74 -66 149l125 594h83l-126 -594c-6 -28 -7 -44 6 -44c12 0 20 20 25 44z" />
    <glyph glyph-name="Udieresis" unicode="&#xdc;" horiz-adv-x="250" 
d="M143 800l21 98h74l-21 -98h-74zM240 800l21 98h73l-21 -98h-73zM230 735h83l-126 -594c-17 -83 -54 -149 -129 -149c-79 0 -83 74 -67 149l125 594h83l-126 -594c-6 -28 -6 -44 7 -44c12 0 19 20 24 44z" />
    <glyph glyph-name="Ugrave" unicode="&#xd9;" horiz-adv-x="250" 
d="M177 890h80l12 -90h-64zM231 735h83l-126 -594c-18 -83 -55 -149 -130 -149c-79 0 -82 74 -66 149l125 594h83l-126 -594c-6 -28 -7 -44 6 -44c12 0 20 20 25 44z" />
    <glyph glyph-name="Uhungarumlaut" unicode="&#x170;" horiz-adv-x="250" 
d="M187 915h80l-66 -90h-64zM296 915h80l-66 -90h-64zM230 735h83l-127 -594c-17 -83 -54 -149 -129 -149c-79 0 -83 74 -67 149l126 594h83l-127 -594c-6 -28 -6 -44 7 -44c12 0 19 20 24 44z" />
    <glyph glyph-name="Umacron" unicode="&#x16a;" horiz-adv-x="250" 
d="M171 830l17 79h135l-17 -79h-135zM230 735h83l-126 -594c-18 -83 -55 -149 -130 -149c-79 0 -82 74 -66 149l125 594h83l-126 -594c-6 -28 -7 -44 6 -44c12 0 20 20 25 44z" />
    <glyph glyph-name="Uogonek" unicode="&#x172;" horiz-adv-x="250" 
d="M249 735h83l-127 -594c-14 -66 -40 -121 -88 -141h29c-10 -12 -19 -26 -31 -50c-5 -10 -9 -21 -11 -33c-6 -29 3 -38 13 -38c5 0 21 9 38 20l-20 -75c-18 -9 -29 -12 -42 -12c-45 0 -62 40 -52 85c5 24 22 53 36 72c3 5 11 14 20 24c-5 -1 -11 -1 -18 -1h-4
c-78 1 -81 74 -67 149l127 594h83l-127 -594c-5 -25 -4 -41 5 -44c0 0 17 -2 27 46z" />
    <glyph glyph-name="Uring" unicode="&#x16e;" horiz-adv-x="250" 
d="M194 882c9 41 39 70 69 70s47 -29 38 -70s-38 -70 -68 -70s-48 29 -39 70zM235 882c-4 -19 -2 -35 5 -35c6 0 17 16 21 35s0 35 -6 35c-7 0 -16 -16 -20 -35zM228 735h83l-127 -594c-17 -83 -54 -149 -129 -149c-79 0 -83 74 -67 149l126 594h83l-127 -594
c-6 -28 -6 -44 7 -44c12 0 19 20 24 44z" />
    <glyph glyph-name="Utilde" unicode="&#x168;" horiz-adv-x="250" 
d="M166 811l18 86c12 13 31 21 46 21c23 0 30 -17 49 -17c13 0 38 19 46 29l-17 -83c-11 -13 -28 -25 -46 -25c-23 0 -30 19 -50 19c-12 0 -40 -23 -46 -30zM229 735h83l-127 -594c-17 -83 -54 -149 -129 -149c-79 0 -82 74 -67 149l126 594h83l-127 -594
c-5 -28 -6 -44 7 -44c12 0 19 20 24 44z" />
    <glyph glyph-name="V" unicode="V" horiz-adv-x="240" 
d="M113 735h81l-52 -376l108 376h81l-225 -735h-82z" />
    <glyph glyph-name="W" unicode="W" horiz-adv-x="334" 
d="M140 0l47 352l-103 -352h-70l101 735h78l-53 -345l98 345h61l-48 -344c29 108 64 236 93 344h78l-211 -735h-71z" />
    <glyph glyph-name="Wcircumflex" unicode="&#x174;" horiz-adv-x="334" 
d="M250 890h81l22 -90h-65l-8 39l-26 -39h-65zM131 0l47 352l-103 -352h-70l100 735h78l-52 -345l97 345h61l-48 -344c29 108 64 236 93 344h78l-210 -735h-71z" />
    <glyph glyph-name="X" unicode="X" horiz-adv-x="246" 
d="M99 0l13 203l-75 -203h-80l153 386c0 55 0 119 2 174l2 175h82l-9 -178c21 59 45 119 67 178h82l-144 -349c-1 -41 -3 -84 -4 -126l-8 -260h-81z" />
    <glyph glyph-name="Y" unicode="Y" horiz-adv-x="235" 
d="M197 735l-18 -214c24 71 50 142 75 214h82l-159 -422l-67 -313h-83l67 313l21 422h82z" />
    <glyph glyph-name="Yacute" unicode="&#xdd;" horiz-adv-x="236" 
d="M238 890h80l-67 -90h-64zM188 735l-17 -214c24 71 50 142 74 214h82l-158 -422l-67 -313h-83l67 313l20 422h82z" />
    <glyph glyph-name="Ycircumflex" unicode="&#x176;" horiz-adv-x="235" 
d="M208 890h81l22 -90h-65l-8 39l-26 -39h-65zM188 735l-17 -214c24 71 50 142 74 214h82l-158 -422l-67 -313h-83l67 313l20 422h82z" />
    <glyph glyph-name="Ydieresis" unicode="&#x178;" horiz-adv-x="236" 
d="M145 800l21 98h74l-21 -98h-74zM242 800l21 98h73l-21 -98h-73zM188 735l-17 -214c24 71 50 142 74 214h82l-159 -422l-66 -313h-83l66 313l21 422h82z" />
    <glyph glyph-name="Z" unicode="Z" horiz-adv-x="214" 
d="M-42 0l25 116l209 512h-87l23 107h176l-23 -107l-215 -521h104l-23 -107h-189z" />
    <glyph glyph-name="Zacute" unicode="&#x179;" horiz-adv-x="214" 
d="M213 915h80l-67 -90h-63zM-51 0l25 116l208 512h-87l23 107h176l-23 -107l-214 -521h104l-23 -107h-189z" />
    <glyph glyph-name="Zcaron" unicode="&#x17d;" horiz-adv-x="214" 
d="M262 800h-81l-23 90h65l9 -39l25 39h65zM-50 0l25 116l209 512h-87l22 107h176l-22 -107l-215 -521h104l-23 -107h-189z" />
    <glyph glyph-name="Zdotaccent" unicode="&#x17b;" horiz-adv-x="214" 
d="M184 822l22 101h79l-22 -101h-79zM-51 0l24 116l209 512h-87l23 107h176l-23 -107l-215 -521h104l-22 -107h-189z" />
    <glyph glyph-name="a" unicode="a" horiz-adv-x="230" 
d="M161 363l12 59c4 17 6 46 -3 46c-10 0 -21 -32 -24 -46l-7 -36h-76l7 33c13 61 55 136 121 136c61 0 71 -73 58 -124l-71 -336c-11 -49 -13 -71 -16 -95h-67c-1 5 -5 27 -4 33c-13 -21 -36 -41 -60 -41c-53 0 -35 101 -29 135c17 76 52 149 118 197c16 11 35 28 41 39z
M109 124l27 127c-23 -23 -52 -79 -61 -123c-1 -3 -9 -41 5 -41c13 0 25 18 29 37z" />
    <glyph glyph-name="aacute" unicode="&#xe1;" horiz-adv-x="230" 
d="M207 727h80l-67 -90h-64zM152 363l12 59c4 17 6 46 -3 46c-10 0 -21 -32 -24 -46l-8 -36h-76l7 33c13 61 56 136 122 136c61 0 71 -73 58 -124l-71 -336c-11 -49 -14 -71 -16 -95h-67c-2 5 -5 27 -5 33c-12 -21 -35 -41 -59 -41c-53 0 -35 101 -28 135
c15 76 51 149 117 197c16 11 35 28 41 39zM100 124l27 127c-23 -23 -52 -79 -61 -123c-1 -3 -9 -41 5 -41c13 0 25 18 29 37z" />
    <glyph glyph-name="abreve" unicode="&#x103;" horiz-adv-x="230" 
d="M255 739l27 -56c-24 -28 -53 -48 -84 -48s-57 22 -64 48l53 57s8 -32 26 -32c16 0 42 31 42 31zM151 363l12 59c4 17 6 46 -3 46c-10 0 -21 -32 -24 -46l-7 -36h-76l7 33c13 61 56 136 122 136c61 0 70 -73 57 -124l-71 -336c-11 -49 -13 -71 -15 -95h-67
c-2 5 -6 27 -5 33c-13 -21 -36 -41 -60 -41c-53 0 -35 101 -27 135c15 76 50 149 116 197c16 11 35 28 41 39zM99 124l27 127c-23 -23 -52 -79 -61 -123c-1 -3 -9 -41 5 -41c13 0 25 18 29 37z" />
    <glyph glyph-name="acircumflex" unicode="&#xe2;" horiz-adv-x="230" 
d="M176 727h81l22 -90h-65l-9 39l-25 -39h-65zM152 363l12 59c4 17 6 46 -3 46c-10 0 -21 -32 -24 -46l-8 -36h-76l7 33c13 61 56 136 122 136c61 0 71 -73 58 -124l-71 -336c-11 -49 -14 -71 -16 -95h-67c-2 5 -5 27 -5 33c-12 -21 -35 -41 -59 -41c-53 0 -35 101 -28 135
c15 76 51 149 117 197c16 11 35 28 41 39zM100 124l27 127c-23 -23 -52 -79 -61 -123c-1 -3 -9 -41 5 -41c13 0 25 18 29 37z" />
    <glyph glyph-name="adieresis" unicode="&#xe4;" horiz-adv-x="230" 
d="M113 637l21 98h74l-21 -98h-74zM210 637l21 98h73l-21 -98h-73zM151 363l13 59c3 17 5 46 -4 46c-10 0 -20 -32 -23 -46l-8 -36h-76l7 33c13 61 56 136 122 136c61 0 70 -73 58 -124l-72 -336c-10 -49 -13 -71 -15 -95h-67c-2 5 -5 27 -5 33c-13 -21 -36 -41 -60 -41
c-53 0 -34 101 -27 135c15 76 51 149 117 197c15 11 35 28 40 39zM99 124l27 127c-23 -23 -52 -79 -61 -123c-1 -3 -9 -41 5 -41c13 0 25 18 29 37z" />
    <glyph glyph-name="agrave" unicode="&#xe0;" horiz-adv-x="230" 
d="M148 727h80l12 -90h-64zM152 363l12 59c4 17 6 46 -3 46c-10 0 -21 -32 -24 -46l-8 -36h-76l7 33c13 61 56 136 122 136c61 0 71 -73 58 -124l-71 -336c-11 -49 -14 -71 -16 -95h-67c-2 5 -5 27 -5 33c-12 -21 -35 -41 -59 -41c-53 0 -35 101 -28 135
c15 76 51 149 117 197c16 11 35 28 41 39zM100 124l27 127c-23 -23 -52 -79 -61 -123c-1 -3 -9 -41 5 -41c13 0 25 18 29 37z" />
    <glyph glyph-name="amacron" unicode="&#x101;" horiz-adv-x="230" 
d="M132 642l17 79h134l-17 -79h-134zM152 363l12 59c4 17 6 46 -3 46c-10 0 -21 -32 -24 -46l-7 -36h-76l7 33c13 61 56 136 122 136c61 0 70 -73 57 -124l-71 -336c-11 -49 -13 -71 -15 -95h-67c-2 5 -6 27 -5 33c-13 -21 -36 -41 -60 -41c-53 0 -35 101 -27 135
c15 76 50 149 117 197c15 11 34 28 40 39zM100 124l27 127c-23 -23 -52 -79 -61 -123c-1 -3 -9 -41 5 -41c13 0 25 18 29 37z" />
    <glyph glyph-name="aogonek" unicode="&#x105;" horiz-adv-x="230" 
d="M170 363l13 59c3 17 6 46 -3 46c-10 0 -21 -32 -24 -46l-8 -36h-76l7 33c13 61 56 136 122 136c61 0 71 -73 58 -124l-72 -336c-10 -49 -13 -71 -15 -95h-31c-11 -13 -22 -30 -33 -50c-5 -10 -8 -21 -11 -33c-6 -29 3 -38 13 -38c5 0 21 9 39 20l-21 -75
c-19 -10 -30 -12 -42 -12c-45 0 -61 40 -52 85c6 26 20 52 35 72c7 8 26 29 36 31c-2 5 -5 27 -5 33c-12 -21 -36 -41 -60 -41c-53 0 -35 101 -28 135c16 76 52 149 118 197c15 11 35 28 40 39zM118 124l27 127c-22 -23 -51 -79 -61 -123c0 -3 -8 -41 6 -41
c13 0 24 18 28 37z" />
    <glyph glyph-name="aring" unicode="&#xe5;" horiz-adv-x="230" 
d="M154 694c9 41 39 70 69 70c29 0 47 -29 38 -70s-39 -70 -68 -70c-30 0 -48 29 -39 70zM193 694c-4 -19 1 -32 8 -32c6 0 18 13 22 32s-3 31 -9 31c-7 0 -17 -12 -21 -31zM149 363l13 59c4 17 6 46 -3 46c-10 0 -21 -32 -24 -46l-8 -36h-76l7 33c13 61 56 136 122 136
c61 0 71 -73 58 -124l-71 -336c-11 -49 -14 -71 -16 -95h-67c-2 5 -5 27 -5 33c-12 -21 -35 -41 -59 -41c-53 0 -35 101 -28 135c15 76 51 149 117 197c16 11 35 28 40 39zM98 124l27 127c-23 -23 -52 -79 -61 -123c-1 -3 -9 -41 5 -41c13 0 25 18 29 37z" />
    <glyph glyph-name="atilde" unicode="&#xe3;" horiz-adv-x="230" 
d="M124 619l19 86c11 13 30 21 45 21c23 0 30 -17 49 -17c13 0 38 19 47 29l-18 -83c-11 -13 -27 -25 -45 -25c-23 0 -30 19 -50 19c-12 0 -40 -23 -47 -30zM151 363l12 59c4 17 6 46 -3 46c-10 0 -21 -32 -24 -46l-7 -36h-76l7 33c13 61 56 136 122 136
c61 0 70 -73 57 -124l-71 -336c-11 -49 -13 -71 -15 -95h-67c-2 5 -6 27 -5 33c-13 -21 -36 -41 -60 -41c-53 0 -35 101 -27 135c15 76 50 149 117 197c15 11 35 28 40 39zM99 124l27 127c-23 -23 -52 -79 -61 -123c-1 -3 -9 -41 5 -41c13 0 25 18 29 37z" />
    <glyph glyph-name="ae" unicode="&#xe6;" horiz-adv-x="333" 
d="M240 196h75l-15 -69c-15 -71 -50 -135 -127 -135c-27 0 -44 10 -53 27c-17 -17 -45 -27 -69 -27c-65 0 -53 101 -47 135c17 76 52 149 118 197c16 11 35 28 41 39l12 59c4 17 6 46 -3 46c-10 0 -21 -32 -24 -46l-7 -36h-76l7 33c13 61 55 136 121 136c21 0 36 -9 46 -22
c17 13 35 22 58 22c84 0 79 -74 65 -137l-34 -163h-109l-26 -119c-4 -22 -7 -55 4 -55c16 0 26 36 30 55zM252 411l-17 -77h34l17 77c6 27 9 56 -8 56c-13 0 -23 -40 -26 -56zM111 124l27 127c-23 -23 -52 -79 -61 -123c-1 -3 -9 -41 5 -41c13 0 25 18 29 37z" />
    <glyph glyph-name="b" unicode="b" horiz-adv-x="231" 
d="M-23 0l155 735h79l-45 -211c6 13 34 31 48 31c51 0 48 -62 38 -107l-74 -349c-9 -39 -19 -107 -68 -107c-26 0 -46 26 -49 38l-6 -30h-78zM147 431l-66 -306c-4 -19 -4 -38 6 -38c11 0 18 18 22 38l66 306c4 19 2 36 -7 36c-10 0 -18 -20 -21 -36z" />
    <glyph glyph-name="c" unicode="c" horiz-adv-x="219" 
d="M150 427l-64 -301c-4 -20 -4 -43 6 -43s18 10 25 43l16 76h76l-13 -63c-17 -77 -38 -147 -126 -147c-77 0 -70 95 -59 152l55 259c15 63 49 152 125 152c90 0 77 -76 62 -147l-11 -53h-76l15 72c7 33 3 40 -6 40s-21 -20 -25 -40z" />
    <glyph glyph-name="cacute" unicode="&#x107;" horiz-adv-x="219" 
d="M186 727h80l-66 -90h-64zM141 427l-64 -301c-4 -20 -4 -43 6 -43s18 10 25 43l16 76h76l-13 -63c-17 -77 -38 -147 -126 -147c-77 0 -70 95 -59 152l55 259c14 63 49 152 125 152c90 0 77 -76 62 -147l-11 -53h-76l15 72c7 33 3 40 -6 40s-21 -20 -25 -40z" />
    <glyph glyph-name="ccaron" unicode="&#x10d;" horiz-adv-x="219" 
d="M235 637h-81l-23 90h65l9 -39l25 39h65zM141 427l-64 -301c-4 -20 -4 -43 6 -43s18 10 25 43l16 76h76l-13 -63c-17 -77 -38 -147 -126 -147c-77 0 -70 95 -59 152l55 259c14 63 49 152 125 152c90 0 77 -76 62 -147l-11 -53h-76l15 72c7 33 3 40 -6 40s-21 -20 -25 -40z
" />
    <glyph glyph-name="ccedilla" unicode="&#xe7;" horiz-adv-x="219" 
d="M160 427l-64 -301c-4 -20 -4 -43 6 -43s18 10 25 43l16 76h76l-13 -63c-18 -77 -39 -147 -127 -147c-78 0 -70 95 -58 152l55 259c14 63 49 152 125 152c90 0 77 -76 62 -147l-11 -53h-76l15 72c7 33 2 40 -7 40s-20 -20 -24 -40zM98 -54l-15 -69l-27 -65h-49l26 65h-18
l15 69h68z" />
    <glyph glyph-name="ccircumflex" unicode="&#x109;" horiz-adv-x="219" 
d="M179 727h81l22 -90h-65l-9 39l-25 -39h-65zM141 427l-64 -301c-4 -20 -4 -43 6 -43s18 10 25 43l16 76h76l-13 -63c-17 -77 -38 -147 -126 -147c-77 0 -70 95 -59 152l55 259c14 63 49 152 125 152c90 0 77 -76 62 -147l-11 -53h-76l15 72c7 33 3 40 -6 40
s-21 -20 -25 -40z" />
    <glyph glyph-name="cdotaccent" unicode="&#x10b;" horiz-adv-x="219" 
d="M162 634l21 101h78l-21 -101h-78zM141 427l-64 -301c-5 -20 -4 -43 6 -43s18 10 25 43l16 76h76l-14 -63c-17 -77 -38 -147 -126 -147c-77 0 -70 95 -58 152l55 259c14 63 49 152 125 152c90 0 77 -76 62 -147l-12 -53h-76l16 72c7 33 2 40 -7 40s-20 -20 -24 -40z" />
    <glyph glyph-name="d" unicode="d" horiz-adv-x="231" 
d="M319 735l-156 -735h-79l6 30c-7 -12 -39 -38 -65 -38c-48 0 -28 68 -22 107l74 349c10 45 33 107 84 107c14 0 34 -18 34 -31l45 211h79zM110 125l66 306c3 16 3 36 -7 36c-9 0 -17 -17 -21 -36l-66 -306c-4 -20 -5 -38 6 -38c10 0 18 19 22 38z" />
    <glyph glyph-name="eth" unicode="&#xf0;" horiz-adv-x="227" 
d="M177 687l55 64c2 -8 9 -33 9 -33l36 40l12 -44l-37 -43c8 -48 17 -121 -4 -218l-68 -320c-12 -57 -53 -141 -122 -141c-72 0 -73 83 -60 144l59 283c11 49 35 136 94 136c11 0 22 -7 31 -17c2 21 3 46 3 62l-27 -31l-13 43l41 45c-2 14 -10 29 -9 30zM103 126l63 295
c5 25 4 46 -7 46s-25 -38 -27 -46l-63 -295c-4 -22 -4 -45 8 -45c9 0 23 29 26 45z" />
    <glyph glyph-name="dcaron" unicode="&#x10f;" horiz-adv-x="322" 
d="M303 735l-156 -735h-79l3 13c-4 -3 -15 -12 -18 -14c-7 -4 -18 -7 -26 -7c-21 0 -32 17 -35 37c-4 20 -1 47 4 70l73 349c5 23 14 50 26 71c11 18 31 36 52 36c16 0 26 -10 35 -20l42 200h79zM406 735l-23 -111l-61 -130h-48l53 130h-25l23 111h81zM93 120l66 307
c3 16 2 33 -2 33s-10 -14 -14 -33l-66 -307c-4 -19 -4 -33 0 -33s12 14 16 33z" />
    <glyph glyph-name="dcroat" unicode="&#x111;" horiz-adv-x="231" 
d="M308 692l-20 -95h-14l-127 -597h-79l3 13c-4 -3 -15 -12 -18 -14c-7 -4 -18 -7 -26 -7c-21 0 -32 17 -35 37c-4 20 -1 47 4 70l73 349c5 23 14 50 26 71c11 18 31 36 52 36c16 0 26 -10 35 -20l13 62h-12l20 95h12l9 43h79l-9 -43h14zM93 120l66 307c3 16 2 33 -2 33
s-10 -14 -14 -33l-66 -307c-4 -19 -4 -33 0 -33s12 14 16 33z" />
    <glyph glyph-name="e" unicode="e" horiz-adv-x="223" 
d="M133 196h75l-15 -69c-15 -71 -50 -135 -127 -135c-69 0 -70 75 -58 138l61 285c14 65 54 140 121 140c84 0 79 -74 65 -137l-34 -163h-109l-26 -119c-4 -22 -7 -55 4 -55c16 0 26 36 30 55zM145 411l-17 -77h34l17 77c6 27 9 56 -8 56c-13 0 -23 -40 -26 -56z" />
    <glyph glyph-name="eacute" unicode="&#xe9;" horiz-adv-x="223" 
d="M216 727h80l-67 -90h-64zM124 196h75l-15 -69c-15 -71 -50 -135 -127 -135c-69 0 -70 75 -57 138l60 285c13 65 54 140 121 140c84 0 79 -74 65 -137l-34 -163h-109l-26 -119c-4 -22 -7 -55 4 -55c16 0 26 36 30 55zM136 411l-17 -77h34l17 77c5 27 9 56 -8 56
c-13 0 -23 -40 -26 -56z" />
    <glyph glyph-name="ebreve" unicode="&#x115;" horiz-adv-x="223" 
d="M257 740l27 -56c-24 -28 -53 -48 -84 -48s-57 22 -64 48l53 57s8 -32 26 -32c16 0 42 31 42 31zM123 196h75l-14 -69c-15 -71 -51 -135 -128 -135c-69 0 -70 75 -57 138l60 285c14 65 55 140 122 140c84 0 78 -74 64 -137l-34 -163h-109l-25 -119c-5 -22 -8 -55 3 -55
c16 0 26 36 31 55zM135 411l-16 -77h34l16 77c6 27 9 56 -8 56c-13 0 -23 -40 -26 -56z" />
    <glyph glyph-name="ecaron" unicode="&#x11b;" horiz-adv-x="223" 
d="M240 637h-81l-23 90h65l9 -39l25 39h65zM124 196h75l-15 -69c-15 -71 -50 -135 -127 -135c-69 0 -70 75 -57 138l60 285c13 65 54 140 121 140c84 0 79 -74 65 -137l-34 -163h-109l-26 -119c-4 -22 -7 -55 4 -55c16 0 26 36 30 55zM136 411l-17 -77h34l17 77
c5 27 9 56 -8 56c-13 0 -23 -40 -26 -56z" />
    <glyph glyph-name="ecircumflex" unicode="&#xea;" horiz-adv-x="223" 
d="M178 727h81l22 -90h-65l-9 39l-25 -39h-65zM124 196h75l-15 -69c-15 -71 -50 -135 -127 -135c-69 0 -70 75 -57 138l60 285c13 65 54 140 121 140c84 0 79 -74 65 -137l-34 -163h-109l-26 -119c-4 -22 -7 -55 4 -55c16 0 26 36 30 55zM136 411l-17 -77h34l17 77
c5 27 9 56 -8 56c-13 0 -23 -40 -26 -56z" />
    <glyph glyph-name="edieresis" unicode="&#xeb;" horiz-adv-x="223" 
d="M114 637l21 98h74l-21 -98h-74zM211 637l21 98h73l-21 -98h-73zM124 196h75l-15 -69c-15 -71 -51 -135 -128 -135c-69 0 -70 75 -56 138l59 285c14 65 55 140 122 140c84 0 78 -74 65 -137l-35 -163h-109l-25 -119c-5 -22 -8 -55 3 -55c16 0 27 36 31 55zM135 411
l-16 -77h34l16 77c6 27 9 56 -8 56c-13 0 -22 -40 -26 -56z" />
    <glyph glyph-name="edotaccent" unicode="&#x117;" horiz-adv-x="223" 
d="M161 634l21 101h79l-21 -101h-79zM124 196h75l-15 -69c-15 -71 -51 -135 -128 -135c-69 0 -70 75 -56 138l59 285c14 65 55 140 122 140c84 0 78 -74 65 -137l-35 -163h-109l-25 -119c-5 -22 -8 -55 3 -55c16 0 27 36 31 55zM135 411l-16 -77h34l16 77c6 27 9 56 -8 56
c-13 0 -22 -40 -26 -56z" />
    <glyph glyph-name="egrave" unicode="&#xe8;" horiz-adv-x="223" 
d="M138 727h80l12 -90h-64zM124 196h75l-15 -69c-15 -71 -50 -135 -127 -135c-69 0 -70 75 -57 138l60 285c13 65 54 140 121 140c84 0 79 -74 65 -137l-34 -163h-109l-26 -119c-4 -22 -7 -55 4 -55c16 0 26 36 30 55zM136 411l-17 -77h34l17 77c5 27 9 56 -8 56
c-13 0 -23 -40 -26 -56z" />
    <glyph glyph-name="emacron" unicode="&#x113;" horiz-adv-x="223" 
d="M135 642l17 79h134l-17 -79h-134zM124 196h75l-14 -69c-15 -71 -51 -135 -128 -135c-69 0 -70 75 -57 138l60 285c14 65 55 140 122 140c84 0 78 -74 65 -137l-35 -163h-109l-25 -119c-5 -22 -8 -55 3 -55c16 0 27 36 31 55zM136 411l-16 -77h34l16 77c6 27 9 56 -8 56
c-13 0 -23 -40 -26 -56z" />
    <glyph glyph-name="eogonek" unicode="&#x119;" horiz-adv-x="223" 
d="M143 196h75l-15 -69c-12 -56 -37 -108 -84 -127h18c-12 -14 -22 -28 -33 -50c-5 -10 -8 -21 -11 -33c-6 -29 3 -38 13 -38c5 0 21 9 39 20l-21 -75c-19 -10 -30 -12 -42 -12c-45 0 -62 40 -53 85c5 24 22 53 36 72c5 7 14 17 19 23c-3 -1 -4 0 -9 0h-4
c-66 3 -66 76 -53 138l60 285c14 65 55 140 122 140c84 0 78 -74 65 -137l-35 -163h-109l-25 -119c-5 -22 -8 -55 3 -55c16 0 27 36 31 55zM154 411l-16 -77h34l16 77c6 27 9 56 -8 56c-13 0 -22 -40 -26 -56z" />
    <glyph glyph-name="f" unicode="f" horiz-adv-x="169" 
d="M66 0h-77l96 456h-31l20 91h31l6 32c16 67 39 160 112 160c13 0 25 -3 35 -10l-17 -83c-10 7 -22 6 -28 1c-11 -10 -17 -37 -22 -62l-8 -38h31l-20 -91h-31z" />
    <glyph glyph-name="g" unicode="g" horiz-adv-x="245" 
d="M263 429l-35 -165c-16 -58 -58 -135 -126 -135h-5c-4 -5 -9 -14 -11 -24c-4 -20 18 -30 33 -34c20 -6 41 -13 53 -31c13 -22 20 -51 11 -96c-16 -73 -61 -140 -143 -140c-68 0 -96 42 -83 106c8 38 40 64 69 83h1c-21 11 -35 32 -27 73c6 30 33 63 58 82
c-17 38 -23 73 -13 119l32 149c13 58 53 139 120 139c30 0 48 -12 55 -34c21 20 43 34 70 34l-19 -90c-19 0 -33 -5 -39 -12c1 -4 0 -18 -1 -24zM150 262l33 155c5 22 9 50 -4 50c-10 0 -20 -30 -24 -50l-33 -155c-4 -19 -7 -49 3 -49c13 0 22 35 25 49zM86 -35l-22 8
c-11 -10 -24 -25 -28 -46c-5 -21 1 -38 23 -38s40 17 45 37c5 24 -6 34 -18 39z" />
    <glyph glyph-name="gbreve" unicode="&#x11f;" horiz-adv-x="235" 
d="M270 740l27 -56c-24 -28 -53 -48 -84 -48s-57 22 -64 48l53 57s8 -32 26 -32c16 0 42 31 42 31zM253 429l-35 -165c-16 -58 -58 -135 -126 -135h-5c-4 -5 -9 -14 -11 -24c-4 -20 19 -30 33 -34c20 -6 41 -13 53 -31c13 -22 20 -51 11 -96c-16 -73 -61 -140 -143 -140
c-68 0 -96 42 -83 106c9 38 40 64 69 83h1c-20 11 -35 32 -26 73c6 30 32 63 57 82c-17 38 -22 73 -13 119l32 149c13 58 54 139 121 139c30 0 47 -12 54 -34c22 20 44 34 71 34l-20 -90c-19 0 -33 -5 -39 -12c1 -4 0 -18 -1 -24zM140 262l33 155c5 22 9 50 -4 50
c-10 0 -20 -30 -24 -50l-33 -155c-4 -19 -7 -49 3 -49c13 0 22 35 25 49zM76 -35l-22 8c-11 -10 -23 -25 -28 -46c-4 -21 1 -38 23 -38s41 17 45 37c5 24 -6 34 -18 39z" />
    <glyph glyph-name="gcircumflex" unicode="&#x11d;" horiz-adv-x="235" 
d="M188 727h81l22 -90h-65l-9 39l-25 -39h-65zM254 429l-36 -165c-15 -58 -57 -135 -125 -135h-5c-4 -5 -9 -14 -11 -24c-5 -20 18 -30 32 -34c21 -6 42 -13 54 -31c13 -22 20 -51 10 -96c-15 -73 -60 -140 -142 -140c-68 0 -96 42 -83 106c8 38 40 64 69 83h1
c-20 11 -35 32 -27 73c7 30 33 63 58 82c-17 38 -23 73 -13 119l32 149c13 58 53 139 120 139c30 0 48 -12 55 -34c21 20 43 34 70 34l-19 -90c-19 0 -33 -5 -39 -12c1 -4 0 -18 -1 -24zM141 262l33 155c5 22 9 50 -4 50c-10 0 -20 -30 -24 -50l-33 -155
c-4 -19 -7 -49 3 -49c13 0 22 35 25 49zM77 -35l-22 8c-12 -10 -24 -25 -28 -46c-5 -21 1 -38 23 -38s40 17 45 37c5 24 -6 34 -18 39z" />
    <glyph glyph-name="gcommaaccent" unicode="&#x123;" horiz-adv-x="235" 
d="M170 682l23 111l61 130h48l-49 -130h21l-23 -111h-81zM243 429l-35 -165c-15 -58 -58 -135 -126 -135h-5c-4 -5 -9 -14 -11 -24c-4 -20 19 -30 33 -34c21 -6 41 -13 53 -31c14 -22 21 -51 11 -96c-15 -73 -61 -140 -143 -140c-68 0 -96 42 -82 106c8 38 39 64 68 83h1
c-19 11 -35 32 -26 73c6 30 32 63 57 82c-17 38 -22 73 -12 119l31 149c14 58 54 139 121 139c30 0 47 -12 55 -34c21 20 43 34 70 34l-19 -90c-19 0 -33 -5 -40 -12c1 -4 0 -18 -1 -24zM131 262l33 155c4 22 8 50 -5 50c-10 0 -19 -30 -23 -50l-33 -155
c-4 -19 -8 -49 2 -49c13 0 23 35 26 49zM66 -35l-22 8c-11 -10 -23 -25 -28 -46c-4 -21 1 -38 23 -38s41 17 45 37c5 24 -6 34 -18 39z" />
    <glyph glyph-name="gdotaccent" unicode="&#x121;" horiz-adv-x="235" 
d="M170 634l21 101h79l-21 -101h-79zM253 429l-35 -165c-15 -58 -58 -135 -126 -135h-5c-4 -5 -9 -14 -11 -24c-4 -20 19 -30 33 -34c21 -6 41 -13 53 -31c14 -22 21 -51 11 -96c-16 -73 -61 -140 -143 -140c-68 0 -96 42 -82 106c8 38 39 64 68 83h1c-19 11 -35 32 -26 73
c6 30 32 63 57 82c-17 38 -22 73 -12 119l31 149c14 58 54 139 121 139c30 0 47 -12 55 -34c21 20 43 34 70 34l-19 -90c-19 0 -33 -5 -40 -12c1 -4 0 -18 -1 -24zM141 262l33 155c4 22 8 50 -5 50c-10 0 -19 -30 -23 -50l-33 -155c-4 -19 -8 -49 2 -49c13 0 23 35 26 49z
M76 -35l-22 8c-11 -10 -23 -25 -28 -46c-4 -21 1 -38 23 -38s41 17 45 37c5 24 -6 34 -18 39z" />
    <glyph glyph-name="h" unicode="h" horiz-adv-x="229" 
d="M146 431l-92 -431h-78l156 735h79l-45 -211c5 13 32 31 49 31c50 0 43 -74 36 -107l-96 -448h-75l92 431c3 12 7 36 -5 36c-11 0 -18 -23 -21 -36z" />
    <glyph glyph-name="hbar" unicode="&#x127;" 
d="M146 431l-92 -431h-78l130 612h-23l16 79h23l10 44h79l-10 -44h33l-16 -79h-33l-19 -87c6 13 32 30 49 30c50 0 43 -74 36 -107l-96 -448h-75l92 431c3 12 7 36 -5 36c-11 0 -18 -23 -21 -36z" />
    <glyph glyph-name="hcircumflex" unicode="&#x125;" 
d="M201 657l-11 -18l-24 -114c6 13 32 30 49 30c50 0 43 -74 36 -107l-96 -448h-75l92 431c3 12 7 36 -5 36c-11 0 -18 -23 -21 -36l-92 -431h-78l156 735h79l-2 -8h49l22 -90h-72z" />
    <glyph glyph-name="i" unicode="i" horiz-adv-x="132" 
d="M110 634l22 101h79l-22 -101h-79zM54 0h-78l116 547h79z" />
    <glyph glyph-name="dotlessi" unicode="&#x131;" horiz-adv-x="139" 
d="M64 0h-78l116 547h79z" />
    <glyph glyph-name="iacute" unicode="&#xed;" horiz-adv-x="139" 
d="M161 727h80l-66 -90h-64zM55 0h-78l115 547h79z" />
    <glyph glyph-name="ibreve" unicode="&#x12d;" horiz-adv-x="139" 
d="M210 740l28 -56c-24 -28 -54 -48 -85 -48s-56 22 -63 48l53 57s8 -32 26 -32c16 0 41 31 41 31zM54 0h-78l115 547h79z" />
    <glyph glyph-name="icircumflex" unicode="&#xee;" horiz-adv-x="139" 
d="M130 727h81l22 -90h-65l-8 39l-26 -39h-65zM55 0h-78l115 547h79z" />
    <glyph glyph-name="idieresis" unicode="&#xef;" horiz-adv-x="139" 
d="M66 637l21 98h74l-21 -98h-74zM163 637l21 98h73l-21 -98h-73zM54 0h-78l116 547h79z" />
    <glyph glyph-name="igrave" unicode="&#xec;" horiz-adv-x="139" 
d="M97 727h80l13 -90h-64zM55 0h-78l115 547h79z" />
    <glyph glyph-name="ij" unicode="&#x133;" horiz-adv-x="245" 
d="M120 634l22 101h79l-22 -101h-79zM228 634l22 101h79l-22 -101h-79zM64 0h-78l116 547h79zM210 547h79l-119 -561c-6 -28 -16 -72 -32 -108c-17 -35 -46 -66 -84 -66c-11 0 -20 1 -34 8l22 91c33 -12 39 30 44 53z" />
    <glyph glyph-name="imacron" unicode="&#x12b;" horiz-adv-x="139" 
d="M86 642l16 79h134l-16 -79h-134zM55 0h-78l116 547h79z" />
    <glyph glyph-name="iogonek" unicode="&#x12f;" horiz-adv-x="139" 
d="M221 735l-22 -101h-79l22 101h79zM64 0h-11c-10 -13 -22 -30 -32 -50c-5 -10 -9 -21 -11 -33c-6 -29 3 -38 13 -38c5 0 21 9 38 20l-21 -75c-19 -10 -29 -12 -40 -12c-45 0 -62 40 -52 85c5 24 21 53 35 72l5 6c5 6 12 14 22 25h-24l116 547h79z" />
    <glyph glyph-name="itilde" unicode="&#x129;" horiz-adv-x="139" 
d="M80 623l19 86c12 13 30 21 45 21c23 0 31 -17 50 -17c13 0 38 19 46 29l-18 -83c-11 -13 -27 -25 -45 -25c-23 0 -30 19 -50 19c-12 0 -40 -23 -47 -30zM54 0h-78l115 547h79z" />
    <glyph glyph-name="j" unicode="j" horiz-adv-x="137" 
d="M118 634l22 101h79l-22 -101h-79zM100 547h79l-119 -561c-6 -28 -16 -72 -32 -108c-17 -35 -45 -66 -83 -66c-11 0 -20 1 -34 8l22 91c33 -12 39 30 44 53z" />
    <glyph glyph-name="jcircumflex" unicode="&#x135;" horiz-adv-x="137" 
d="M244 645h-44l-3 -11h-79l3 11h-41l60 90h81zM180 547h-79l-123 -583c-5 -23 -11 -65 -44 -53l-22 -91c14 -7 23 -8 34 -8c38 0 66 31 83 66c16 36 26 80 32 108z" />
    <glyph glyph-name="k" unicode="k" horiz-adv-x="218" 
d="M132 735h76l-64 -302l61 114h76l-107 -188l-12 -359h-76l15 232l-50 -232h-75z" />
    <glyph glyph-name="kcommaaccent" unicode="&#x137;" horiz-adv-x="218" 
d="M142 735h76l-64 -302l61 114h76l-107 -188l-12 -359h-76l15 232l-50 -232h-75zM97 -54l-15 -69l-26 -65h-49l25 65h-18l15 69h68z" />
    <glyph glyph-name="kgreenlandic" unicode="&#x138;" horiz-adv-x="218" 
d="M132 735h76l-64 -302l61 114h76l-107 -188l-12 -359h-76l15 232l-50 -232h-75z" />
    <glyph glyph-name="l" unicode="l" horiz-adv-x="137" 
d="M54 0h-78l156 735h79z" />
    <glyph glyph-name="lacute" unicode="&#x13a;" horiz-adv-x="139" 
d="M163 838h80l-66 -90h-64zM49 0h-78l155 735h79z" />
    <glyph glyph-name="lcaron" unicode="&#x13e;" horiz-adv-x="229" 
d="M54 0h-78l156 735h79zM329 735l-24 -111l-61 -130h-48l49 130h-21l24 111h81z" />
    <glyph glyph-name="lcommaaccent" unicode="&#x13c;" horiz-adv-x="139" 
d="M64 0h-78l155 735h79zM50 -47l-15 -69l-26 -65h-48l25 65h-18l15 69h67z" />
    <glyph glyph-name="ldot" unicode="&#x140;" horiz-adv-x="223" 
d="M54 0h-78l156 735h79zM152 317l23 111h81l-23 -111h-81z" />
    <glyph glyph-name="lslash" unicode="&#x142;" horiz-adv-x="167" 
d="M68 0h-78l61 290c-11 -12 -28 -28 -37 -38l27 128l39 40h-1l67 315h79l-46 -214c12 12 28 28 37 38l-27 -128l-38 -40h1z" />
    <glyph glyph-name="m" unicode="m" horiz-adv-x="329" 
d="M257 431l-92 -431h-72l92 433c5 21 2 34 -8 34c-9 0 -17 -17 -21 -36l-92 -431h-78l115 547h79l-6 -29c16 20 43 37 62 37c22 0 32 -20 30 -40c14 22 48 40 70 40c50 0 34 -74 27 -107l-95 -448h-73l92 431c4 21 3 36 -8 36s-20 -24 -22 -36z" />
    <glyph glyph-name="n" unicode="n" 
d="M156 431l-92 -431h-78l115 547h79l-6 -28c14 15 44 36 61 36c50 0 38 -74 31 -107l-95 -448h-78l92 432c4 21 2 35 -8 35s-17 -15 -21 -36z" />
    <glyph glyph-name="nacute" unicode="&#x144;" 
d="M192 727h80l-67 -90h-63zM147 431l-92 -431h-78l115 547h79l-6 -28c13 15 44 36 61 36c50 0 38 -74 31 -107l-95 -448h-78l92 432c4 21 2 35 -8 35s-17 -15 -21 -36z" />
    <glyph glyph-name="napostrophe" unicode="&#x149;" 
d="M173 704l-15 -69l-28 -65h-48l26 65h-19l15 69h69zM148 431l-92 -431h-78l115 547h79l-6 -28c14 15 44 36 61 36c50 0 38 -74 31 -107l-95 -448h-78l92 432c4 21 2 35 -8 35s-17 -15 -21 -36z" />
    <glyph glyph-name="ncaron" unicode="&#x148;" 
d="M237 637h-81l-23 90h65l9 -39l25 39h65zM147 431l-92 -431h-78l115 547h79l-6 -28c13 15 44 36 61 36c50 0 38 -74 31 -107l-95 -448h-78l92 432c4 21 2 35 -8 35s-17 -15 -21 -36z" />
    <glyph glyph-name="ncommaaccent" unicode="&#x146;" 
d="M166 431l-92 -431h-78l115 547h79l-6 -28c14 15 44 36 61 36c50 0 38 -74 31 -107l-95 -448h-78l92 432c4 21 2 35 -8 35s-17 -15 -21 -36zM107 -54l-15 -69l-27 -65h-49l26 65h-18l15 69h68z" />
    <glyph glyph-name="eng" unicode="&#x14b;" 
d="M163 431l-92 -431h-78l115 547h79l-6 -28c14 15 44 36 61 36c50 0 38 -74 31 -107l-99 -467c-6 -28 -19 -59 -38 -81c-20 -22 -51 -36 -96 -32l19 87c12 -3 23 1 31 10h-1c3 5 7 16 10 29l93 439c4 20 2 34 -8 34s-17 -15 -21 -36z" />
    <glyph glyph-name="ntilde" unicode="&#xf1;" 
d="M126 623l19 86c12 13 30 21 45 21c23 0 31 -17 50 -17c13 0 38 19 46 29l-18 -83c-11 -13 -27 -25 -45 -25c-23 0 -30 19 -50 19c-12 0 -40 -23 -47 -30zM146 431l-92 -431h-78l115 547h79l-6 -28c14 15 44 36 61 36c50 0 38 -74 31 -107l-95 -448h-78l92 432
c4 21 2 35 -8 35s-17 -15 -21 -36z" />
    <glyph glyph-name="o" unicode="o" horiz-adv-x="223" 
d="M253 414l-59 -281c-18 -84 -51 -141 -123 -141c-78 0 -75 76 -62 144l59 275c16 76 50 144 124 144c80 0 78 -64 61 -141zM117 126l63 295c6 25 9 46 -7 46c-14 0 -22 -19 -28 -46l-63 -295c-5 -22 -6 -45 8 -45c16 0 26 36 27 45z" />
    <glyph glyph-name="oacute" unicode="&#xf3;" horiz-adv-x="223" 
d="M214 727h80l-66 -90h-64zM244 414l-59 -281c-18 -84 -51 -141 -123 -141c-78 0 -75 76 -62 144l59 275c16 76 50 144 124 144c80 0 78 -64 61 -141zM108 126l63 295c6 25 9 46 -7 46c-14 0 -22 -19 -28 -46l-63 -295c-6 -22 -6 -45 8 -45c16 0 26 36 27 45z" />
    <glyph glyph-name="obreve" unicode="&#x14f;" horiz-adv-x="223" 
d="M250 740l27 -56c-24 -28 -53 -48 -84 -48s-57 22 -64 48l53 57s8 -32 26 -32c16 0 42 31 42 31zM244 414l-60 -281c-18 -84 -51 -141 -123 -141c-78 0 -75 76 -61 144l58 275c16 76 51 144 125 144c80 0 77 -64 61 -141zM107 126l63 295c6 25 9 46 -7 46
c-14 0 -22 -19 -28 -46l-63 -295c-5 -22 -6 -45 8 -45c16 0 26 36 27 45z" />
    <glyph glyph-name="ocircumflex" unicode="&#xf4;" horiz-adv-x="223" 
d="M178 727h81l22 -90h-65l-9 39l-25 -39h-65zM244 414l-59 -281c-18 -84 -51 -141 -123 -141c-78 0 -75 76 -62 144l59 275c16 76 50 144 124 144c80 0 78 -64 61 -141zM108 126l63 295c6 25 9 46 -7 46c-14 0 -22 -19 -28 -46l-63 -295c-6 -22 -6 -45 8 -45
c16 0 26 36 27 45z" />
    <glyph glyph-name="odieresis" unicode="&#xf6;" horiz-adv-x="223" 
d="M114 637l21 98h74l-21 -98h-74zM211 637l21 98h73l-21 -98h-73zM244 414l-60 -281c-18 -84 -51 -141 -123 -141c-78 0 -75 76 -61 144l58 275c16 76 51 144 125 144c80 0 77 -64 61 -141zM108 126l62 295c7 25 9 46 -7 46c-14 0 -22 -19 -28 -46l-62 -295
c-6 -22 -7 -45 7 -45c16 0 27 36 28 45z" />
    <glyph glyph-name="ograve" unicode="&#xf2;" horiz-adv-x="223" 
d="M137 727h80l12 -90h-64zM244 414l-59 -281c-18 -84 -51 -141 -123 -141c-78 0 -75 76 -62 144l59 275c16 76 50 144 124 144c80 0 78 -64 61 -141zM108 126l63 295c6 25 9 46 -7 46c-14 0 -22 -19 -28 -46l-63 -295c-6 -22 -6 -45 8 -45c16 0 26 36 27 45z" />
    <glyph glyph-name="ohungarumlaut" unicode="&#x151;" horiz-adv-x="223" 
d="M144 727h80l-67 -90h-64zM252 727h80l-66 -90h-64zM244 414l-59 -281c-18 -84 -51 -141 -123 -141c-78 0 -75 76 -62 144l59 275c16 76 50 144 124 144c80 0 78 -64 61 -141zM108 126l63 295c6 25 9 46 -7 46c-14 0 -22 -19 -28 -46l-63 -295c-6 -22 -6 -45 8 -45
c16 0 26 36 27 45z" />
    <glyph glyph-name="omacron" unicode="&#x14d;" horiz-adv-x="223" 
d="M128 642l17 79h134l-17 -79h-134zM245 414l-60 -281c-18 -84 -51 -141 -123 -141c-78 0 -75 76 -61 144l58 275c16 76 51 144 125 144c80 0 77 -64 61 -141zM108 126l63 295c6 25 9 46 -7 46c-14 0 -22 -19 -28 -46l-63 -295c-5 -22 -6 -45 8 -45c16 0 27 36 27 45z" />
    <glyph glyph-name="oslash" unicode="&#xf8;" horiz-adv-x="229" 
d="M228 550l15 34h43l-27 -63c12 -26 6 -65 -3 -107l-59 -281c-18 -84 -51 -141 -123 -141c-11 0 -21 2 -29 5l-13 -34h-44l24 63c-12 28 -8 70 0 110l59 275c16 76 50 144 124 144c13 0 24 -2 33 -5zM119 283l68 168c0 10 -2 16 -11 16c-14 0 -22 -19 -28 -46zM144 238
l-62 -150c2 -4 6 -7 11 -7c16 0 26 36 27 45z" />
    <glyph glyph-name="otilde" unicode="&#xf5;" horiz-adv-x="223" 
d="M122 622l18 86c12 13 31 21 46 21c23 0 30 -17 49 -17c13 0 38 19 46 29l-18 -83c-10 -13 -27 -25 -45 -25c-23 0 -30 19 -50 19c-12 0 -40 -23 -46 -30zM244 414l-60 -281c-18 -84 -51 -141 -123 -141c-78 0 -75 76 -61 144l58 275c16 76 51 144 125 144
c80 0 77 -64 61 -141zM107 126l63 295c6 25 9 46 -7 46c-14 0 -22 -19 -28 -46l-63 -295c-5 -22 -6 -45 8 -45c16 0 26 36 27 45z" />
    <glyph glyph-name="oe" unicode="&#x153;" horiz-adv-x="322" 
d="M246 196h75l-15 -69c-15 -71 -50 -135 -127 -135c-22 0 -37 7 -46 18c-17 -11 -37 -18 -61 -18c-78 0 -75 76 -62 144l59 275c16 76 50 144 124 144c26 0 44 -7 55 -20c16 12 34 20 55 20c84 0 79 -74 65 -137l-34 -163h-109l-26 -119c-4 -22 -7 -55 4 -55
c16 0 26 36 30 55zM118 126l63 295c6 25 9 46 -7 46c-14 0 -22 -19 -28 -46l-63 -295c-5 -22 -6 -45 8 -45c16 0 26 36 27 45zM258 411l-17 -77h34l17 77c6 27 9 56 -8 56c-13 0 -23 -40 -26 -56z" />
    <glyph glyph-name="p" unicode="p" horiz-adv-x="231" 
d="M-44 -188l155 735h79l-6 -28c12 18 42 36 60 36c51 0 40 -72 32 -107l-74 -349c-9 -39 -29 -107 -78 -107c-18 0 -38 18 -43 40l-47 -220h-78zM165 430l-65 -310c-5 -23 -2 -33 8 -33s16 11 21 33l65 310c4 19 5 37 -6 37s-19 -18 -23 -37z" />
    <glyph glyph-name="thorn" unicode="&#xfe;" horiz-adv-x="231" 
d="M-54 -188l195 923h79l-45 -211c6 13 33 31 47 31c51 0 48 -62 39 -107l-74 -349c-10 -39 -19 -107 -68 -107c-26 0 -47 26 -49 38l-46 -218h-78zM155 431l-65 -306c-4 -19 -4 -38 6 -38c11 0 18 18 22 38l65 306c4 19 3 36 -6 36c-10 0 -19 -20 -22 -36z" />
    <glyph glyph-name="q" unicode="q" horiz-adv-x="231" 
d="M297 547l-156 -735h-79l47 220c-15 -22 -43 -40 -61 -40c-48 0 -39 68 -32 107l74 349c8 35 27 107 78 107c18 0 40 -18 44 -36l6 28h79zM128 120l65 310c4 19 4 37 -7 37s-18 -18 -22 -37l-65 -310c-5 -22 -3 -33 7 -33s17 10 22 33z" />
    <glyph glyph-name="r" unicode="r" horiz-adv-x="178" 
d="M247 555l-25 -120c-42 27 -70 -12 -79 -55l-81 -380h-76l115 547h77l-6 -30c15 19 41 38 75 38z" />
    <glyph glyph-name="racute" unicode="&#x155;" horiz-adv-x="178" 
d="M165 727h80l-67 -90h-63zM238 555l-26 -120c-41 27 -69 -12 -78 -55l-81 -380h-76l115 547h77l-6 -30c15 19 41 38 75 38z" />
    <glyph glyph-name="rcaron" unicode="&#x159;" horiz-adv-x="178" 
d="M212 637h-81l-23 90h65l9 -39l25 39h65zM238 555l-26 -120c-41 27 -69 -12 -78 -55l-81 -380h-76l115 547h77l-6 -30c15 19 41 38 75 38z" />
    <glyph glyph-name="rcommaaccent" unicode="&#x157;" horiz-adv-x="178" 
d="M257 555l-26 -120c-41 27 -69 -12 -78 -55l-81 -380h-76l115 547h77l-6 -30c15 19 41 38 75 38zM59 -48l-15 -69l-27 -65h-48l26 65h-19l15 69h68z" />
    <glyph glyph-name="s" unicode="s" horiz-adv-x="215" 
d="M243 407h-68c4 17 11 64 -4 64c-13 0 -22 -36 -27 -57c-9 -43 6 -80 15 -109c17 -43 38 -103 22 -181c-10 -47 -41 -132 -119 -132c-84 0 -70 93 -56 167h72c-7 -35 -12 -83 2 -83s21 24 30 66c7 35 -5 76 -16 118c-15 52 -36 94 -21 165c15 70 53 130 113 130
c82 0 68 -94 57 -148z" />
    <glyph glyph-name="sacute" unicode="&#x15b;" horiz-adv-x="215" 
d="M184 727h80l-66 -90h-64zM234 407h-68c3 17 10 64 -5 64c-13 0 -21 -36 -26 -57c-9 -43 6 -80 15 -109c17 -43 38 -103 22 -181c-10 -47 -41 -132 -119 -132c-84 0 -71 93 -55 167h71c-7 -35 -12 -83 2 -83s21 24 30 66c7 35 -5 76 -16 118c-15 52 -36 94 -21 165
c15 70 53 130 113 130c82 0 68 -94 57 -148z" />
    <glyph glyph-name="scaron" unicode="&#x161;" horiz-adv-x="215" 
d="M229 637h-81l-23 90h65l9 -39l25 39h65zM234 407h-68c3 17 10 64 -5 64c-13 0 -21 -36 -26 -57c-9 -43 6 -80 15 -109c17 -43 38 -103 22 -181c-10 -47 -41 -132 -119 -132c-84 0 -71 93 -55 167h71c-7 -35 -12 -83 2 -83s21 24 30 66c7 35 -5 76 -16 118
c-15 52 -36 94 -21 165c15 70 53 130 113 130c82 0 68 -94 57 -148z" />
    <glyph glyph-name="scedilla" unicode="&#x15f;" horiz-adv-x="215" 
d="M253 407h-68c3 17 10 64 -5 64c-13 0 -21 -36 -26 -57c-9 -43 6 -80 15 -109c17 -43 38 -103 21 -181c-10 -47 -41 -132 -119 -132c-84 0 -71 93 -55 167h72c-8 -35 -13 -83 1 -83s21 24 30 66c8 35 -5 76 -16 118c-15 52 -36 94 -21 165c15 70 54 130 114 130
c82 0 68 -94 57 -148zM96 -54l-15 -69l-27 -65h-49l26 65h-18l15 69h68z" />
    <glyph glyph-name="scircumflex" unicode="&#x15d;" horiz-adv-x="215" 
d="M170 727h81l22 -90h-65l-9 39l-25 -39h-65zM234 407h-68c3 17 10 64 -5 64c-13 0 -21 -36 -26 -57c-9 -43 6 -80 15 -109c17 -43 38 -103 22 -181c-10 -47 -41 -132 -119 -132c-84 0 -71 93 -55 167h71c-7 -35 -12 -83 2 -83s21 24 30 66c7 35 -5 76 -16 118
c-15 52 -36 94 -21 165c15 70 53 130 113 130c82 0 68 -94 57 -148z" />
    <glyph glyph-name="germandbls" unicode="&#xdf;" horiz-adv-x="251" 
d="M171 478l14 69c14 0 31 22 38 57c6 27 1 49 -16 49c-15 0 -26 -20 -33 -50l-128 -603h-78l127 603c15 71 60 140 131 140c78 0 83 -76 69 -139c-7 -33 -24 -63 -47 -85c12 -16 20 -41 20 -73c0 -38 -8 -92 -23 -165c-26 -121 -49 -192 -75 -232c-25 -40 -58 -49 -101 -49
l20 94c12 0 24 6 36 33s25 74 42 154c18 85 25 134 25 162s-9 35 -21 35z" />
    <glyph glyph-name="longs" unicode="&#x17f;" horiz-adv-x="169" 
d="M27 0h-63l121 573c25 121 66 154 117 154c15 0 32 -3 50 -10l-25 -80c-13 6 -23 8 -32 8c-23 0 -35 -17 -48 -80z" />
    <glyph glyph-name="t" unicode="t" horiz-adv-x="175" 
d="M143 682h77l-28 -135h42l-20 -91h-42l-97 -456h-76l96 456h-33l20 91h33z" />
    <glyph glyph-name="tbar" unicode="&#x167;" horiz-adv-x="177" 
d="M240 642h-30l-20 -95h42l-20 -91h-42l-97 -456h-76l96 456h-33l20 91h33l20 95h-28l16 79h135z" />
    <glyph glyph-name="tcaron" unicode="&#x165;" horiz-adv-x="281" 
d="M376 735l-24 -111l-61 -130h-48l53 130h-25l24 111h81zM140 682h77l-28 -135h42l-20 -91h-42l-97 -456h-76l96 456h-33l20 91h33z" />
    <glyph glyph-name="uni021B" unicode="&#x21b;" horiz-adv-x="177" 
d="M153 682h77l-28 -135h42l-20 -91h-42l-97 -456h-77l97 456h-33l20 91h33zM100 -54l-15 -69l-27 -65h-49l26 65h-18l15 69h68z" />
    <glyph glyph-name="u" unicode="u" 
d="M114 116l91 431h79l-116 -547h-79l6 28c-13 -15 -44 -36 -61 -36c-49 0 -37 74 -31 107l95 448h78l-92 -432c-4 -21 -2 -35 8 -35s17 15 22 36z" />
    <glyph glyph-name="uacute" unicode="&#xfa;" 
d="M219 727h80l-67 -90h-64zM104 116l92 431h79l-117 -547h-79l6 28c-13 -15 -43 -36 -60 -36c-49 0 -38 74 -31 107l95 448h78l-92 -432c-5 -21 -3 -35 7 -35s18 15 22 36z" />
    <glyph glyph-name="ubreve" unicode="&#x16d;" 
d="M255 740l27 -56c-24 -28 -53 -48 -84 -48s-57 22 -64 48l53 57s8 -32 26 -32c16 0 42 31 42 31zM103 116l92 431h79l-116 -547h-79l6 28c-14 -15 -44 -36 -61 -36c-49 0 -37 74 -30 107l94 448h78l-92 -432c-4 -21 -2 -35 8 -35s17 15 21 36z" />
    <glyph glyph-name="ucircumflex" unicode="&#xfb;" 
d="M178 727h81l22 -90h-65l-9 39l-25 -39h-65zM104 116l92 431h79l-117 -547h-79l6 28c-13 -15 -43 -36 -60 -36c-49 0 -38 74 -31 107l95 448h78l-92 -432c-5 -21 -3 -35 7 -35s18 15 22 36z" />
    <glyph glyph-name="udieresis" unicode="&#xfc;" 
d="M113 637l21 98h74l-21 -98h-74zM210 637l21 98h73l-21 -98h-73zM104 116l91 431h79l-116 -547h-79l6 28c-13 -15 -44 -36 -61 -36c-49 0 -37 74 -30 107l94 448h78l-92 -432c-4 -21 -2 -35 8 -35s17 15 22 36z" />
    <glyph glyph-name="ugrave" unicode="&#xf9;" 
d="M141 727h80l12 -90h-64zM104 116l92 431h79l-117 -547h-79l6 28c-13 -15 -43 -36 -60 -36c-49 0 -38 74 -31 107l95 448h78l-92 -432c-5 -21 -3 -35 7 -35s18 15 22 36z" />
    <glyph glyph-name="uhungarumlaut" unicode="&#x171;" 
d="M148 727h80l-66 -90h-64zM257 727h80l-66 -90h-64zM104 116l92 431h79l-117 -547h-79l6 28c-13 -15 -43 -36 -60 -36c-49 0 -38 74 -31 107l95 448h78l-92 -432c-5 -21 -3 -35 7 -35s18 15 22 36z" />
    <glyph glyph-name="umacron" unicode="&#x16b;" 
d="M133 642l17 79h134l-17 -79h-134zM104 116l92 431h79l-116 -547h-79l6 28c-14 -15 -44 -36 -61 -36c-49 0 -37 74 -30 107l94 448h78l-92 -432c-4 -21 -2 -35 8 -35s17 15 21 36z" />
    <glyph glyph-name="uogonek" unicode="&#x173;" 
d="M123 116l92 431h79l-117 -547h-30c-10 -11 -20 -28 -31 -50c-5 -10 -9 -21 -11 -33c-6 -29 3 -38 13 -38c5 0 21 9 38 20l-21 -75c-18 -9 -28 -12 -42 -12c-45 0 -62 40 -52 85c4 23 22 53 36 72l3 3c5 6 14 17 25 28h-7l6 28c-13 -15 -43 -36 -60 -36
c-49 0 -38 74 -31 107l95 448h78l-92 -432c-5 -21 -3 -35 7 -35s18 15 22 36z" />
    <glyph glyph-name="uring" unicode="&#x16f;" 
d="M155 694c9 41 39 70 69 70s47 -29 38 -70s-38 -70 -68 -70s-48 29 -39 70zM196 694c-4 -19 -2 -35 5 -35c6 0 17 16 21 35s0 35 -6 35c-7 0 -16 -16 -20 -35zM102 116l92 431h79l-117 -547h-79l6 28c-13 -15 -43 -36 -60 -36c-49 0 -38 74 -31 107l95 448h78l-92 -432
c-5 -21 -3 -35 7 -35s18 15 22 36z" />
    <glyph glyph-name="utilde" unicode="&#x169;" 
d="M126 623l18 86c12 13 31 21 46 21c23 0 30 -17 49 -17c13 0 38 19 46 29l-17 -83c-11 -13 -28 -25 -46 -25c-23 0 -30 19 -50 19c-12 0 -40 -23 -46 -30zM103 116l92 431h79l-117 -547h-79l6 28c-13 -15 -43 -36 -60 -36c-49 0 -37 74 -30 107l94 448h78l-92 -432
c-5 -21 -2 -35 8 -35s17 15 21 36z" />
    <glyph glyph-name="v" unicode="v" horiz-adv-x="206" 
d="M102 0h-78l59 547h74l-45 -321l92 321h74z" />
    <glyph glyph-name="w" unicode="w" horiz-adv-x="295" 
d="M190 0h-65l33 260l-78 -260h-64l68 547h71l-35 -251l76 251h48l-33 -251l73 251h71z" />
    <glyph glyph-name="wcircumflex" unicode="&#x175;" horiz-adv-x="295" 
d="M206 727h81l22 -90h-65l-8 39l-26 -39h-65zM181 0h-65l32 260l-77 -260h-64l67 547h71l-34 -251l75 251h48l-32 -251l72 251h71z" />
    <glyph glyph-name="x" unicode="x" horiz-adv-x="217" 
d="M-23 0l115 282l-4 265h74l-4 -137l56 137h74l-119 -265l-4 -282h-73l10 148c-13 -33 -39 -115 -52 -148h-73z" />
    <glyph glyph-name="y" unicode="y" horiz-adv-x="228" 
d="M-48 -193l19 89c14 -6 26 -5 35 5c21 24 30 58 36 83l53 563h77l-39 -323c21 75 74 249 94 323h78l-193 -588c-10 -36 -28 -78 -50 -106c-32 -43 -75 -61 -110 -46z" />
    <glyph glyph-name="yacute" unicode="&#xfd;" horiz-adv-x="226" 
d="M221 727h80l-66 -90h-64zM-58 -193l19 89c14 -6 26 -5 36 5c21 24 30 58 35 83l54 563h77l-40 -323c21 75 74 249 95 323h78l-193 -588c-11 -36 -29 -78 -51 -106c-32 -43 -75 -61 -110 -46z" />
    <glyph glyph-name="ycircumflex" unicode="&#x177;" horiz-adv-x="216" 
d="M190 727h81l22 -90h-65l-9 39l-25 -39h-65zM-58 -193l19 89c14 -6 26 -5 36 5c21 24 30 58 35 83l54 563h77l-40 -323c21 75 74 249 95 323h78l-193 -588c-11 -36 -29 -78 -51 -106c-32 -43 -75 -61 -110 -46z" />
    <glyph glyph-name="ydieresis" unicode="&#xff;" horiz-adv-x="216" 
d="M123 637l21 98h74l-21 -98h-74zM220 637l21 98h73l-21 -98h-73zM-58 -193l19 89c14 -6 26 -5 36 5c20 24 29 58 35 83l53 563h77l-39 -323c21 75 74 249 94 323h78l-193 -588c-10 -36 -28 -78 -50 -106c-32 -43 -75 -61 -110 -46z" />
    <glyph glyph-name="z" unicode="z" horiz-adv-x="186" 
d="M-34 0l18 82l161 373h-70l20 92h152l-18 -82l-162 -373h83l-20 -92h-164z" />
    <glyph glyph-name="zacute" unicode="&#x17a;" horiz-adv-x="186" 
d="M169 727h80l-66 -90h-64zM-43 0l17 82l162 373h-70l19 92h152l-17 -82l-163 -373h83l-19 -92h-164z" />
    <glyph glyph-name="zcaron" unicode="&#x17e;" horiz-adv-x="186" 
d="M217 637h-81l-23 90h65l9 -39l25 39h65zM-43 0l17 82l162 373h-70l19 92h152l-17 -82l-163 -373h83l-19 -92h-164z" />
    <glyph glyph-name="zdotaccent" unicode="&#x17c;" horiz-adv-x="186" 
d="M141 634l22 101h78l-22 -101h-78zM-44 0l18 82l161 373h-70l20 92h152l-18 -82l-162 -373h83l-20 -92h-164z" />
    <glyph glyph-name="fi" unicode="&#xfb01;" horiz-adv-x="256" 
d="M66 0h-77l96 456h-31l20 91h31l6 32c16 67 39 160 112 160c13 0 25 -3 35 -10l-17 -83c-10 7 -22 6 -28 1c-11 -10 -17 -37 -22 -62l-8 -38h109l-117 -547h-78l97 456h-31z" />
    <glyph glyph-name="fl" unicode="&#xfb02;" horiz-adv-x="256" 
d="M176 0h-79l97 456h-31l-97 -456h-77l96 456h-31l20 91h31l6 32c16 67 39 160 112 160c13 0 31 -4 31 -4h79zM214 547l21 102c-8 3 -17 2 -22 -2c-11 -10 -17 -37 -22 -62l-8 -38h31z" />
    <glyph glyph-name="zero" unicode="0" horiz-adv-x="242" 
d="M297 594l-97 -453c-16 -76 -55 -149 -131 -149c-77 0 -83 79 -69 149l96 453c16 76 57 149 132 149c80 0 82 -89 69 -149zM117 141l97 453c5 23 4 44 -7 44s-21 -20 -26 -44l-97 -453c-5 -27 -1 -44 8 -44c10 0 21 21 25 44z" />
    <glyph glyph-name="one" unicode="1" horiz-adv-x="169" 
d="M124 576h-43l14 67c26 9 51 34 68 54c7 10 15 25 21 38h57l-157 -735h-83z" />
    <glyph glyph-name="two" unicode="2" horiz-adv-x="244" 
d="M159 502h-83l11 51c16 73 50 190 140 190c93 0 72 -119 58 -183c-28 -133 -133 -332 -204 -453h103l-23 -107h-193l23 107c91 156 179 302 213 446c5 23 16 90 2 90c-16 0 -34 -78 -36 -90z" />
    <glyph glyph-name="three" unicode="3" horiz-adv-x="231" 
d="M13 212h81c-10 -44 -26 -125 -9 -125c16 0 31 68 38 100c22 111 19 142 -28 145l19 89c59 4 69 66 82 127c6 29 21 97 6 97c-16 0 -35 -80 -44 -122h-82c15 74 53 220 145 220c81 0 77 -107 65 -164c-23 -107 -45 -157 -94 -204c29 -23 35 -80 12 -187
c-20 -96 -54 -196 -139 -196c-97 0 -65 159 -52 220z" />
    <glyph glyph-name="four" unicode="4" horiz-adv-x="234" 
d="M74 0l35 160h-112l19 95l205 480h81l-102 -480h30l-20 -95h-30l-35 -160h-71zM131 255l48 227l-93 -227h45z" />
    <glyph glyph-name="five" unicode="5" horiz-adv-x="236" 
d="M124 164l39 184c6 31 3 54 -7 54c-16 0 -30 -44 -32 -54h-72l82 387h174l-23 -107h-100l-33 -157c5 13 33 29 49 29c71 0 54 -98 43 -152l-37 -174c-17 -74 -53 -182 -142 -182c-99 0 -59 160 -46 222h82l-10 -49c-8 -37 -12 -79 -2 -79s22 20 35 78z" />
    <glyph glyph-name="six" unicode="6" horiz-adv-x="235" 
d="M239 321l-39 -180c-15 -66 -59 -149 -137 -149c-79 0 -73 97 -63 149l93 434c16 72 49 168 134 168c88 0 75 -108 63 -168l-11 -52h-80c7 33 26 126 8 126c-16 0 -29 -65 -31 -74l-29 -136c3 6 23 17 38 17c77 0 65 -83 54 -135zM126 342l-45 -213c-3 -14 -6 -43 9 -43
c16 0 25 29 28 43l45 210c1 9 4 33 -12 33c-15 0 -21 -19 -25 -30z" />
    <glyph glyph-name="seven" unicode="7" horiz-adv-x="203" 
d="M-13 0l199 628h-98l23 107h182l-23 -108l-199 -627h-84z" />
    <glyph glyph-name="eight" unicode="8" horiz-adv-x="234" 
d="M231 283l-34 -156c-13 -62 -55 -135 -126 -135c-72 0 -80 79 -70 135l34 156c11 52 36 82 64 105c-18 23 -29 47 -19 95l30 142c12 57 55 118 120 118c70 0 82 -65 70 -118l-30 -142c-10 -48 -28 -73 -59 -95c23 -15 31 -53 20 -105zM202 530c10 44 13 59 17 80
c5 21 4 41 -8 41c-15 0 -22 -22 -26 -42c-4 -19 -10 -48 -17 -79c-8 -38 -10 -46 -14 -67c-5 -21 0 -34 10 -34c8 0 20 14 24 33s7 34 14 68zM132 200c9 44 15 69 19 90c5 21 4 42 -8 42c-15 0 -22 -23 -26 -43c-4 -19 -12 -58 -19 -89c-8 -38 -12 -56 -16 -77
c-5 -21 -1 -34 9 -34c8 0 20 14 24 33s10 44 17 78z" />
    <glyph glyph-name="nine" unicode="9" horiz-adv-x="235" 
d="M50 414l39 180c15 66 59 149 137 149c80 0 74 -97 63 -149l-92 -434c-17 -72 -50 -168 -135 -168c-87 0 -74 108 -62 168l11 52h80c-7 -33 -27 -126 -9 -126c16 0 30 65 32 74l28 136c-3 -6 -23 -17 -38 -17c-77 0 -65 83 -54 135zM163 393l45 213c3 14 6 43 -9 43
c-16 0 -25 -29 -28 -43l-44 -210c-2 -9 -4 -33 12 -33c15 0 21 19 24 30z" />
    <glyph glyph-name="asterisk" unicode="*" horiz-adv-x="229" 
d="M148 659l11 76h63l-21 -77l52 24v-69l-57 -19l29 -65l-58 -49l-18 61l-43 -61l-39 49l61 65l-52 19l29 69z" />
    <glyph glyph-name="backslash" unicode="\" horiz-adv-x="262" 
d="M195 826l-14 -914h-67l15 914h66z" />
    <glyph glyph-name="bullet" unicode="&#x2022;" horiz-adv-x="224" 
d="M55 401c10 46 56 84 102 84s76 -38 66 -84s-56 -84 -102 -84s-76 38 -66 84z" />
    <glyph glyph-name="colon" unicode=":" horiz-adv-x="136" 
d="M76 436l24 111h81l-24 -111h-81zM-16 0l23 111h81l-24 -111h-80z" />
    <glyph glyph-name="comma" unicode="," horiz-adv-x="121" 
d="M109 111l-24 -111l-60 -130h-47l51 130h-25l24 111h81z" />
    <glyph glyph-name="ellipsis" unicode="&#x2026;" horiz-adv-x="318" 
d="M1 0l23 111h81l-23 -111h-81zM105 0l23 111h81l-23 -111h-81zM209 0l23 111h81l-23 -111h-81z" />
    <glyph glyph-name="exclam" unicode="!" horiz-adv-x="143" 
d="M32 198l98 537h88l-130 -537h-56zM-23 0l23 111h81l-24 -111h-80z" />
    <glyph glyph-name="exclamdown" unicode="&#xa1;" horiz-adv-x="143" 
d="M89 436l24 111h81l-24 -111h-81zM-45 -188l129 537h56l-98 -537h-87z" />
    <glyph glyph-name="numbersign" unicode="#" horiz-adv-x="391" 
d="M11 214l28 95h58c5 19 12 43 19 63l19 63h-57l27 95h58c9 32 20 68 30 102l31 103h75l-60 -205h58c9 32 20 68 30 102l31 103h75l-61 -205h57l-28 -95h-56l-19 -63c-7 -21 -14 -43 -19 -63h56l-28 -95h-56l-32 -107c-10 -36 -21 -72 -31 -107h-76l63 214h-58l-32 -107
c-10 -36 -21 -72 -31 -107h-76l64 214h-59zM211 435l-38 -126h58c5 19 12 43 19 63l19 63h-58z" />
    <glyph glyph-name="period" unicode="." horiz-adv-x="124" 
d="M1 0l23 111h81l-23 -111h-81z" />
    <glyph glyph-name="periodcentered" unicode="&#xb7;" horiz-adv-x="93" 
d="M18 317l24 111h81l-24 -111h-81z" />
    <glyph glyph-name="question" unicode="?" horiz-adv-x="153" 
d="M118 198h-71l27 125c11 53 31 96 48 132s35 64 50 89c13 21 60 101 16 101c-13 0 -24 -12 -35 -27c-12 -16 -20 -35 -25 -44l-51 41c6 16 25 47 48 75c23 27 52 49 85 49c79 0 76 -76 65 -130c-9 -41 -31 -81 -54 -117c-6 -10 -13 -21 -20 -32c-15 -24 -30 -52 -42 -84
c-6 -17 -10 -34 -14 -53zM1 0l24 111h81l-24 -111h-81z" />
    <glyph glyph-name="questiondown" unicode="&#xbf;" horiz-adv-x="219" 
d="M227 547l-24 -111h-81l24 111h81zM110 349h71l-27 -125c-11 -53 -31 -96 -48 -132c-16 -36 -34 -64 -50 -89c-13 -21 -59 -101 -16 -101c13 0 24 12 36 27c11 16 19 35 24 44l51 -41c-6 -16 -25 -47 -48 -75c-22 -27 -52 -49 -85 -49c-78 0 -75 76 -63 130
c8 41 31 81 52 117c7 10 13 21 20 32c15 24 30 52 42 84c7 17 10 34 14 53z" />
    <glyph glyph-name="quotedbl" unicode="&#x22;" horiz-adv-x="226" 
d="M139 466h-63l48 269h81zM240 466h-63l48 269h81z" />
    <glyph glyph-name="quotesingle" unicode="'" horiz-adv-x="97" 
d="M140 466h-63l48 269h81z" />
    <glyph glyph-name="semicolon" unicode=";" horiz-adv-x="136" 
d="M83 436l24 111h81l-24 -111h-81zM95 111l-24 -111l-60 -130h-47l51 130h-24l23 111h81z" />
    <glyph glyph-name="slash" unicode="/" horiz-adv-x="241" 
d="M-57 -72l330 807h66l-329 -807h-67z" />
    <glyph glyph-name="underscore" unicode="_" horiz-adv-x="354" 
d="M-8 -159l17 84h299l-18 -84h-298z" />
    <glyph glyph-name="braceleft" unicode="{" 
d="M324 743l-18 -84c-68 -2 -80 -41 -92 -96l-41 -194c-10 -48 -43 -99 -73 -108c25 -19 37 -61 27 -108l-41 -194c-11 -63 -13 -96 51 -96l-18 -84c-131 0 -133 64 -109 180l41 194c2 7 4 22 1 38c-1 15 -8 29 -24 30l17 80c16 0 29 13 37 29c9 15 14 32 15 39l41 194
c28 121 60 183 186 180z" />
    <glyph glyph-name="braceright" unicode="}" 
d="M120 659l18 84c126 3 132 -59 108 -180l-41 -194c-1 -7 -4 -24 -1 -39c2 -16 9 -29 25 -29l-17 -80c-16 -1 -29 -15 -38 -30c-9 -16 -13 -31 -15 -38l-41 -194c-25 -116 -53 -180 -184 -180l18 84c63 0 75 33 90 96l41 194c10 47 40 89 73 108c-26 9 -37 60 -27 108
l41 194c12 55 16 94 -50 96z" />
    <glyph glyph-name="bracketleft" unicode="[" horiz-adv-x="188" 
d="M272 735l-20 -96h-59l-138 -647h59l-20 -96h-134l177 839h135z" />
    <glyph glyph-name="bracketright" unicode="]" horiz-adv-x="188" 
d="M110 639l20 96h135l-178 -839h-134l20 96h58l138 647h-59z" />
    <glyph glyph-name="parenleft" unicode="(" horiz-adv-x="194" 
d="M232 786l50 -53c-42 -67 -78 -145 -115 -247c-19 -51 -35 -108 -48 -171c-27 -125 -31 -228 -27 -303c2 -44 6 -81 12 -114l-71 -52c-16 89 -20 183 -15 292c3 54 12 115 25 177c26 121 72 240 112 324c23 49 53 106 77 147z" />
    <glyph glyph-name="parenright" unicode=")" horiz-adv-x="194" 
d="M126 733l72 53c14 -88 19 -182 14 -293c-3 -55 -12 -116 -25 -178c-27 -125 -72 -240 -112 -324c-22 -46 -48 -94 -77 -145l-49 52c41 64 77 149 115 247c17 50 35 109 48 170c25 119 29 229 26 303c-2 40 -6 86 -12 115z" />
    <glyph glyph-name="emdash" unicode="&#x2014;" horiz-adv-x="315" 
d="M41 317l20 95h259l-20 -95h-259z" />
    <glyph glyph-name="endash" unicode="&#x2013;" horiz-adv-x="266" 
d="M41 317l20 95h211l-20 -95h-211z" />
    <glyph glyph-name="hyphen" unicode="-" horiz-adv-x="160" 
d="M31 222l20 95h105l-20 -95h-105z" />
    <glyph glyph-name="quotedblbase" unicode="&#x201e;" horiz-adv-x="213" 
d="M112 111l-24 -111l-60 -130h-47l47 130h-21l24 111h81zM200 111l-24 -111l-60 -130h-48l48 130h-21l24 111h81z" />
    <glyph glyph-name="quotedblleft" unicode="&#x201c;" 
d="M46 494l24 111l60 130h48l-48 -130h21l-24 -111h-81zM154 494l24 111l60 130h48l-48 -130h21l-24 -111h-81z" />
    <glyph glyph-name="quotedblright" unicode="&#x201d;" horiz-adv-x="228" 
d="M178 735l-23 -111l-61 -130h-48l49 130h-21l23 111h81zM286 735l-23 -111l-61 -130h-48l49 130h-21l23 111h81z" />
    <glyph glyph-name="quoteleft" unicode="&#x2018;" horiz-adv-x="121" 
d="M44 494l24 111l60 130h48l-48 -130h21l-24 -111h-81z" />
    <glyph glyph-name="quoteright" unicode="&#x2019;" horiz-adv-x="121" 
d="M175 735l-23 -111l-61 -130h-48l49 130h-21l23 111h81z" />
    <glyph glyph-name="quotesinglbase" unicode="&#x201a;" horiz-adv-x="121" 
d="M109 111l-24 -111l-60 -130h-47l47 130h-21l24 111h81z" />
    <glyph glyph-name="Abreve" unicode="&#x102;" horiz-adv-x="254" 
d="M296 925l27 -56c-24 -28 -53 -48 -84 -48s-57 22 -64 48l53 57s8 -32 26 -32c16 0 42 31 42 31zM28 0h-80l223 735h97l-91 -735h-81l21 150h-46zM134 264l46 292l-77 -292h31z" />
    <glyph glyph-name="Euro" unicode="&#x20ac;" horiz-adv-x="268" 
d="M53 401l14 67h31l25 116c6 29 16 56 27 79c9 17 22 38 39 55c15 15 36 25 62 25c27 0 43 -10 52 -25c11 -19 14 -38 16 -55c2 -23 0 -50 -5 -79l-9 -41h-79l9 41c4 20 3 35 0 46h1c-2 4 -5 8 -6 8c-3 0 -10 -14 -16 -27c-3 -8 -6 -17 -8 -27l-25 -116h68l-14 -67h-68
l-15 -67h68l-14 -67h-68l-24 -116c-5 -22 -4 -36 -1 -46h-1c1 -3 3 -8 3 -8c6 0 14 14 20 27c2 7 6 18 8 27l8 41h79l-8 -41c-8 -30 -18 -57 -28 -80c-10 -17 -24 -37 -40 -54c-15 -15 -35 -25 -62 -25c-25 0 -43 10 -52 25c-8 16 -15 38 -15 54c-3 23 -1 50 6 80l24 116
h-31l14 67h31l15 67h-31z" />
    <glyph glyph-name="cent" unicode="&#xa2;" horiz-adv-x="217" 
d="M159 522l-64 -301c-4 -20 -4 -43 6 -43s18 10 25 43l16 76h76l-13 -63c-16 -69 -34 -131 -99 -145l-32 -149h-54l33 147c-51 19 -43 106 -33 152l55 259c10 48 39 131 96 149l25 118h54l-25 -117c62 -13 50 -82 37 -145l-11 -53h-76l15 72c7 33 3 40 -6 40
s-21 -20 -25 -40z" />
    <glyph glyph-name="dollar" unicode="$" horiz-adv-x="234" 
d="M220 795h42l-13 -61c27 -4 41 -22 49 -47c7 -25 7 -58 2 -91l-68 -12c4 33 3 62 -19 61c-11 0 -19 -10 -27 -25s-15 -34 -19 -54c-6 -28 -3 -57 2 -84c5 -28 14 -56 22 -81c5 -15 9 -31 14 -48c10 -34 17 -71 17 -110c0 -20 -2 -41 -7 -62c-9 -44 -23 -86 -43 -118
c-21 -33 -47 -57 -79 -62l-22 -106h-42l22 108c-29 8 -44 30 -51 61c-6 31 -5 70 3 111l66 6c-4 -24 -5 -47 -1 -63c3 -17 10 -28 26 -28c12 0 22 11 31 28c8 16 15 38 20 62c6 28 4 57 -2 85c-3 14 -6 28 -10 41c-9 26 -16 51 -26 86c-8 35 -16 71 -16 111c0 20 1 40 6 61
c7 36 20 72 38 103c17 31 41 55 71 64z" />
    <glyph glyph-name="sterling" unicode="&#xa3;" horiz-adv-x="269" 
d="M298 547h-81c5 20 22 96 0 96c-20 0 -37 -76 -39 -82c-10 -46 -12 -101 -14 -177h61l-15 -67h-51c-1 -31 -5 -64 -10 -85c-5 -27 -20 -68 -41 -107c5 -6 12 -15 24 -28l12 21c8 13 16 37 25 73l70 -14c-31 -122 -78 -185 -123 -185c-34 0 -52 50 -69 50
c-5 0 -14 -13 -21 -25c-6 -9 -12 -21 -19 -37l-46 53c13 29 29 53 52 80c8 9 23 18 31 22c13 31 25 69 31 97c5 23 8 57 9 85h-55l15 67h44c-1 10 -1 20 -1 31c2 54 4 109 12 146c9 41 24 87 45 122c22 35 51 59 90 60c46 1 67 -24 74 -60c6 -37 1 -87 -10 -136z" />
    <glyph glyph-name="yen" unicode="&#xa5;" horiz-adv-x="241" 
d="M15 166l14 67h51l14 67h-51l15 67h43l14 368h82l-15 -214c21 58 59 156 79 214h82l-143 -368h44l-15 -67h-52l-14 -67h52l-14 -67h-52l-36 -166h-83l36 166h-51z" />
    <glyph glyph-name="asciitilde" unicode="~" horiz-adv-x="405" 
d="M135 623l-47 40c20 50 48 89 81 124c16 15 36 23 57 23c34 0 58 -25 72 -45l4 -5c13 -19 26 -35 38 -35s28 21 42 44c7 9 15 26 22 42c1 3 4 9 4 11l49 -39c-23 -51 -49 -91 -81 -125c-16 -15 -34 -23 -55 -23c-39 0 -57 24 -75 49c-13 19 -26 36 -39 36s-31 -22 -46 -44
c-8 -14 -17 -30 -26 -53z" />
    <glyph glyph-name="equal" unicode="=" horiz-adv-x="340" 
d="M63 422l18 84h285l-18 -84h-285zM23 233l18 84h285l-18 -84h-285z" />
    <glyph glyph-name="greater" unicode="&#x3e;" horiz-adv-x="340" 
d="M343 392l-15 -72l-337 -248l22 107l244 177l-169 177l23 107z" />
    <glyph glyph-name="less" unicode="&#x3c;" horiz-adv-x="340" 
d="M43 320l15 72l338 248l-23 -107l-246 -177c26 -28 57 -59 85 -88l86 -89l-23 -107z" />
    <glyph glyph-name="minus" unicode="&#x2212;" horiz-adv-x="257" 
d="M42 317l18 84h202l-18 -84h-202z" />
    <glyph glyph-name="percent" unicode="%" horiz-adv-x="409" 
d="M270 658l-45 -213c-12 -48 -45 -86 -92 -86c-51 0 -66 42 -57 86l45 213c11 48 47 85 93 85c53 0 62 -43 56 -85zM104 0h-67l367 735h64zM165 445l45 213c3 13 4 27 -8 27c-13 0 -18 -16 -21 -27l-45 -213c-3 -11 -8 -27 9 -27c15 0 18 16 20 27zM428 290l-45 -213
c-12 -47 -46 -85 -92 -85c-50 0 -66 41 -57 85l45 213c10 48 47 86 93 86c51 0 62 -44 56 -86zM323 77l45 213c3 13 4 27 -8 27c-13 0 -18 -15 -21 -27l-45 -213c-4 -12 -4 -28 9 -28c14 0 18 18 20 28z" />
    <glyph glyph-name="plus" unicode="+" horiz-adv-x="341" 
d="M42 317l18 84h108l36 169h69l-36 -169h108l-18 -84h-108l-36 -169h-69l36 169h-108z" />
    <glyph glyph-name="ampersand" unicode="&#x26;" horiz-adv-x="280" 
d="M221 329l64 -12c-16 -67 -53 -131 -86 -191c2 -9 16 -22 29 -30l-22 -104c-41 13 -44 28 -54 53c-22 -38 -57 -53 -90 -53c-84 0 -86 97 -74 150c15 75 71 167 106 225c-5 69 -1 142 14 216c15 62 46 160 122 160c77 0 64 -105 53 -157c-17 -79 -62 -148 -105 -215
c3 -52 5 -107 8 -132c13 22 30 66 35 90zM213 586c8 31 11 71 -3 71s-27 -43 -33 -71c-4 -19 -13 -78 -9 -110c17 32 38 79 45 110zM133 127c-11 48 -17 106 -19 137c-25 -58 -39 -87 -46 -121c-6 -30 -4 -64 16 -64c8 0 27 1 49 48z" />
    <glyph glyph-name="at" unicode="@" horiz-adv-x="338" 
d="M392 578l-82 -388h-67l-7 31c-8 -18 -37 -38 -59 -38c-34 0 -44 41 -33 92l49 233c11 49 35 90 83 90c16 0 25 -7 32 -14c1 11 1 27 -4 38c-5 15 -21 26 -48 26s-45 -11 -56 -26c-12 -14 -21 -33 -24 -44l-90 -426c-3 -12 -1 -29 5 -41c5 -14 18 -27 45 -27
c32 0 52 13 71 35l60 -50c-35 -43 -80 -80 -151 -80c-59 0 -91 30 -108 64c-15 35 -11 76 -7 99l90 426c5 24 19 66 50 103c32 36 76 65 136 65c62 0 93 -29 110 -65c15 -36 10 -79 5 -103zM246 281l47 219c2 10 -3 17 -10 17c-5 0 -12 -7 -14 -17l-47 -219
c-2 -10 4 -17 9 -17c7 0 13 5 15 17z" />
    <glyph glyph-name="bar" unicode="|" horiz-adv-x="134" 
d="M5 -250h-73l227 1076h74z" />
    <glyph glyph-name="copyright" unicode="&#xa9;" horiz-adv-x="512" 
d="M46 367c21 103 66 197 123 266c54 68 123 110 190 110s117 -42 144 -110c27 -69 32 -163 11 -266c-22 -102 -67 -196 -124 -265c-55 -68 -123 -110 -190 -110s-118 42 -144 110c-27 69 -32 163 -10 265zM98 367c-19 -88 -15 -166 8 -223c23 -58 58 -94 106 -94
c47 0 100 36 147 94c45 57 83 135 102 223c18 88 14 168 -7 225c-22 58 -60 93 -107 93c-48 0 -98 -35 -146 -93c-47 -57 -85 -137 -103 -225zM270 299h58l-13 -61c-9 -33 -23 -60 -42 -81c-9 -9 -25 -15 -42 -15c-36 0 -47 24 -49 48c-1 14 0 30 4 48l55 259
c7 34 21 59 42 81c10 10 26 15 44 15c35 0 44 -24 46 -48c1 -14 1 -30 -3 -48l-13 -61h-58l13 61c3 11 3 20 2 26c-1 0 -1 1 -1 2l-5 -10c0 -1 -1 -2 -2 -3c-2 -4 -4 -11 -5 -15l-55 -259c-3 -13 -2 -21 0 -28c1 -2 -1 -3 -1 -3c2 0 4 8 8 15c2 4 4 12 4 16z" />
    <glyph glyph-name="registered" unicode="&#xae;" horiz-adv-x="512" 
d="M46 367c21 103 66 197 123 266c54 68 123 110 190 110s117 -42 144 -110c27 -69 32 -163 11 -266c-22 -102 -67 -196 -124 -265c-55 -68 -123 -110 -190 -110s-118 42 -144 110c-27 69 -32 163 -10 265zM98 367c-19 -88 -15 -166 8 -223c23 -58 58 -94 106 -94
c47 0 100 36 147 94c45 57 83 135 102 223c18 88 14 168 -7 225c-22 58 -60 93 -107 93c-48 0 -98 -35 -146 -93c-47 -57 -85 -137 -103 -225zM258 582h67c54 0 66 -47 49 -126c-8 -41 -16 -71 -49 -108h1l-10 -195h-63l10 165l-35 -165h-61zM310 519h-4l-27 -126h4
c6 0 14 8 19 20c7 12 11 27 14 42s6 31 4 43c0 12 -4 21 -10 21z" />
    <glyph glyph-name="trademark" unicode="&#x2122;" horiz-adv-x="305" 
d="M128 684h-30l10 51h112l-10 -51h-31l-61 -283h-51zM243 401h-19l20 176l-38 -176h-42l71 334h50l-8 -137c10 29 43 108 52 137h46l-71 -334h-43l38 176c-6 -17 -51 -159 -56 -176z" />
    <glyph glyph-name="asciicircum" unicode="^" horiz-adv-x="353" 
d="M214 735h87l38 -340h-76l-28 238l-129 -238h-76z" />
    <glyph glyph-name="acute" unicode="&#xb4;" horiz-adv-x="330" 
d="M224 727h80l-67 -90h-64z" />
    <glyph glyph-name="breve" unicode="&#x2d8;" horiz-adv-x="330" 
d="M269 740l27 -56c-24 -28 -53 -48 -84 -48s-57 22 -64 48l53 57s8 -32 26 -32c16 0 42 31 42 31z" />
    <glyph glyph-name="caron" unicode="&#x2c7;" horiz-adv-x="329" 
d="M253 637h-81l-22 90h65l8 -39l26 39h65z" />
    <glyph glyph-name="cedilla" unicode="&#xb8;" horiz-adv-x="330" 
d="M185 -54l-15 -69l-27 -65h-49l30 65h-22l15 69h68z" />
    <glyph glyph-name="circumflex" unicode="&#x2c6;" horiz-adv-x="329" 
d="M192 727h81l21 -90h-65l-8 39l-26 -39h-65z" />
    <glyph glyph-name="dieresis" unicode="&#xa8;" horiz-adv-x="330" 
d="M123 637l21 98h74l-21 -98h-74zM227 637l21 98h74l-21 -98h-74z" />
    <glyph glyph-name="dotaccent" unicode="&#x2d9;" horiz-adv-x="329" 
d="M172 634l21 101h79l-21 -101h-79z" />
    <glyph glyph-name="grave" unicode="`" horiz-adv-x="330" 
d="M160 727h80l11 -90h-64z" />
    <glyph glyph-name="hungarumlaut" unicode="&#x2dd;" horiz-adv-x="330" 
d="M167 727h80l-67 -90h-64zM276 727h80l-67 -90h-64z" />
    <glyph glyph-name="macron" unicode="&#xaf;" horiz-adv-x="330" 
d="M147 642l16 79h134l-16 -79h-134z" />
    <glyph glyph-name="ogonek" unicode="&#x2db;" horiz-adv-x="330" 
d="M145 0h41c-10 -12 -20 -27 -30 -50c-5 -10 -10 -21 -12 -33c-6 -29 4 -38 13 -38c5 0 19 7 39 18l-21 -73c-18 -9 -29 -12 -42 -12c-45 0 -62 40 -52 85c4 23 22 53 36 72l3 3c5 6 13 16 25 28z" />
    <glyph glyph-name="ring" unicode="&#x2da;" horiz-adv-x="329" 
d="M169 694c9 41 39 70 69 70c29 0 47 -29 38 -70c-8 -41 -39 -70 -68 -70c-30 0 -47 29 -39 70zM208 694c-4 -19 1 -32 8 -32c6 0 18 13 22 32s-2 31 -8 31c-7 0 -18 -12 -22 -31z" />
    <glyph glyph-name="tilde" unicode="&#x2dc;" horiz-adv-x="330" 
d="M142 623l19 86c11 13 30 21 45 21c23 0 31 -17 50 -17c13 0 38 19 46 29l-18 -83c-11 -13 -27 -25 -45 -25c-23 0 -30 19 -50 19c-12 0 -40 -23 -47 -30z" />
    <glyph glyph-name="uni201F" unicode="&#x201f;" horiz-adv-x="228" 
d="M97 735h81l-23 -111h-25l-3 -130h-48l-5 130zM215 735h81l-23 -111h-25l-3 -130h-48l-5 130z" />
    <glyph glyph-name="perthousand" unicode="&#x2030;" horiz-adv-x="833" 
 />
    <glyph glyph-name="A" unicode="A" horiz-adv-x="254" 
d="M38 0h-80l223 735h97l-91 -735h-81l21 150h-46zM145 264l46 292l-77 -292h31z" />
    <glyph glyph-name="Aacute" unicode="&#xc1;" horiz-adv-x="254" 
d="M249 890h80l-66 -90h-64zM30 0h-80l222 735h97l-90 -735h-81l21 150h-46zM136 264l46 292l-77 -292h31z" />
    <glyph glyph-name="uni0093" 
d="M46 494l24 111l60 130h48l-48 -130h21l-24 -111h-81zM154 494l24 111l60 130h48l-48 -130h21l-24 -111h-81z" />
    <glyph glyph-name="uni0094" horiz-adv-x="228" 
d="M178 735l-23 -111l-61 -130h-48l49 130h-21l23 111h81zM286 735l-23 -111l-61 -130h-48l49 130h-21l23 111h81z" />
    </font>
</defs>
</svg>
