<?xml version="1.0" standalone="no"?>
<!DOCTYPE svg PUBLIC "-//W3C//DTD SVG 1.1//EN" "http://www.w3.org/Graphics/SVG/1.1/DTD/svg11.dtd" >
<svg>
<metadata>
Created by FontForge 20120731 at Mon Jul  4 14:17:14 2016
 By Apache
2009 - 2011, The League of Moveable Type
</metadata>
<defs>
<font id="LeagueGothic-Italic" horiz-adv-x="337" >
  <font-face 
    font-family="League Gothic"
    font-weight="400"
    font-style="italic"
    font-stretch="normal"
    units-per-em="1000"
    panose-1="0 0 5 0 0 0 0 0 0 0"
    ascent="735"
    descent="-265"
    x-height="547"
    cap-height="735"
    bbox="-60 -250 864.028 952"
    underline-thickness="50"
    underline-position="-25"
    unicode-range="U+000D-FB02"
  />
<missing-glyph horiz-adv-x="154" 
 />
    <glyph glyph-name=".notdef" horiz-adv-x="154" 
 />
    <glyph glyph-name="NULL" horiz-adv-x="0" 
 />
    <glyph glyph-name="NULL" horiz-adv-x="0" 
 />
    <glyph glyph-name="uni000D" unicode="&#xd;" horiz-adv-x="154" 
 />
    <glyph glyph-name="space" unicode=" " horiz-adv-x="154" 
 />
    <glyph glyph-name="Acircumflex" unicode="&#xc2;" horiz-adv-x="374" 
d="M430 890h-107l-88 -90h92l37 35l24 -35h92zM10 0h105l51 150h104l-11 -150h105l45 735h-132zM298 496l-18 -232h-74l80 232l7 19h6z" />
    <glyph glyph-name="Adieresis" unicode="&#xc4;" horiz-adv-x="374" 
d="M260 898l-20 -98h93l20 98h-93zM401 898l-20 -98h93l20 98h-93zM10 0h105l51 150h104l-11 -150h105l45 735h-132zM298 496l-18 -232h-74l80 232l7 19h6z" />
    <glyph glyph-name="Agrave" unicode="&#xc0;" horiz-adv-x="374" 
d="M363 890h-105l60 -90h78zM10 0h105l51 150h104l-11 -150h105l45 735h-132zM298 496l-18 -232h-74l80 232l7 19h6z" />
    <glyph glyph-name="Aring" unicode="&#xc5;" horiz-adv-x="374" 
d="M295 860c-8 -41 19 -70 60 -70s81 29 89 70c9 41 -18 70 -59 70s-81 -29 -90 -70zM333 860c4 19 26 35 45 35s33 -16 29 -35s-25 -35 -44 -35s-34 16 -30 35zM10 0h105l51 150h104l-11 -150h105l45 735h-132zM298 496l-18 -232h-74l80 232l7 19h6z" />
    <glyph glyph-name="Atilde" unicode="&#xc3;" horiz-adv-x="374" 
d="M275 871l-16 -74c3 1 6 3 9 4s6 3 9 4c11 4 23 8 38 8c17 -1 31 -5 43 -10c12 -6 26 -9 41 -9c7 0 14 1 21 3c15 3 27 9 36 16l16 74c-3 -1 -6 -3 -9 -4s-6 -3 -9 -4c-12 -4 -23 -8 -38 -8c-14 1 -28 4 -42 11c-14 5 -28 8 -42 8c-8 0 -15 -1 -21 -3
c-13 -4 -25 -9 -36 -16zM10 0h105l51 150h104l-11 -150h105l45 735h-132zM298 496l-18 -232h-74l80 232l7 19h6z" />
    <glyph glyph-name="AE" unicode="&#xc6;" horiz-adv-x="537" 
d="M301 150l-31 -150h247l23 111h-139l43 202h100l25 118h-100l41 193h139l24 111h-304l-361 -735h107l75 150h111zM248 264l126 251h5l-53 -251h-78z" />
    <glyph glyph-name="B" unicode="B" horiz-adv-x="364" 
d="M40 0h133c64 3 111 27 146 66c33 39 53 86 65 142c16 72 10 151 -37 180c31 23 51 43 67 67s25 50 32 85c16 73 10 121 -17 152s-74 43 -138 43h-95zM239 432l42 196c5 0 12 0 21 -1c18 -1 34 -12 41 -39c3 -13 2 -33 -3 -58c-11 -51 -30 -75 -50 -87
c-21 -12 -42 -11 -51 -11zM170 107l48 226h21c19 -1 35 -13 41 -44c3 -16 1 -39 -6 -69c-12 -60 -33 -89 -53 -102c-21 -13 -42 -11 -51 -11z" />
    <glyph glyph-name="C" unicode="C" horiz-adv-x="346" 
d="M374 252h-101l-21 -101c-3 -12 -7 -21 -10 -27c-8 -15 -20 -27 -43 -27c-9 0 -15 3 -19 8c-8 11 -10 27 -7 46l92 433c3 11 7 20 10 27c8 13 20 27 39 27c11 0 19 -3 23 -8c9 -11 11 -27 7 -46l-22 -101h101l22 101c5 31 5 57 -2 79c-4 20 -14 40 -31 55s-42 25 -78 25
s-66 -10 -89 -25s-39 -35 -54 -55c-16 -24 -27 -50 -34 -79l-92 -433c-6 -31 -6 -57 1 -80c4 -20 13 -39 30 -54c18 -17 44 -25 79 -25s64 8 88 25c23 15 40 34 55 54c15 23 27 50 35 80z" />
    <glyph glyph-name="Ccedilla" unicode="&#xc7;" horiz-adv-x="346" 
d="M374 252h-101l-21 -101c-3 -12 -7 -21 -10 -27c-8 -15 -20 -27 -43 -27c-9 0 -15 3 -19 8c-8 11 -10 27 -7 46l92 433c3 11 7 20 10 27c8 13 20 27 39 27c11 0 19 -3 23 -8c9 -11 11 -27 7 -46l-22 -101h101l22 101c5 31 5 57 -2 79c-4 20 -14 40 -31 55s-42 25 -78 25
s-66 -10 -89 -25s-39 -35 -54 -55c-16 -24 -27 -50 -34 -79l-92 -433c-6 -31 -6 -57 1 -80c4 -20 13 -39 30 -54c18 -17 44 -25 79 -25s64 8 88 25c23 15 40 34 55 54c15 23 27 50 35 80zM188 -123l15 69h-84l-15 -69h31l-33 -65h51z" />
    <glyph glyph-name="D" unicode="D" horiz-adv-x="372" 
d="M40 0h85c100 0 158 20 199 76c40 56 63 147 94 291c31 145 46 236 30 292c-19 56 -67 76 -167 76h-85zM170 108l111 519c37 0 57 -4 60 -39c4 -36 -8 -92 -18 -139c-5 -24 -11 -51 -17 -81c-7 -30 -12 -57 -17 -80c-10 -48 -24 -107 -41 -140c-19 -36 -41 -40 -78 -40z
" />
    <glyph glyph-name="E" unicode="E" horiz-adv-x="307" 
d="M196 735l-156 -735h247l23 111h-139l43 202h100l25 118h-100l41 193h139l24 111h-247z" />
    <glyph glyph-name="Eacute" unicode="&#xc9;" horiz-adv-x="307" 
d="M461 890h-105l-71 -90h78zM196 735l-156 -735h247l23 111h-139l43 202h100l25 118h-100l41 193h139l24 111h-247z" />
    <glyph glyph-name="Ecircumflex" unicode="&#xca;" horiz-adv-x="307" 
d="M406 890h-107l-88 -90h92l37 35l24 -35h92zM196 735l-156 -735h247l23 111h-139l43 202h100l25 118h-100l41 193h139l24 111h-247z" />
    <glyph glyph-name="Edieresis" unicode="&#xcb;" horiz-adv-x="307" 
d="M236 898l-20 -98h93l20 98h-93zM377 898l-20 -98h93l20 98h-93zM196 735l-156 -735h247l23 111h-139l43 202h100l25 118h-100l41 193h139l24 111h-247z" />
    <glyph glyph-name="Egrave" unicode="&#xc8;" horiz-adv-x="307" 
d="M348 890h-105l60 -90h78zM196 735l-156 -735h247l23 111h-139l43 202h100l25 118h-100l41 193h139l24 111h-247z" />
    <glyph glyph-name="F" unicode="F" horiz-adv-x="301" 
d="M429 624l24 111h-257l-156 -735h108l68 320h100l23 111h-100l41 193h149z" />
    <glyph glyph-name="G" unicode="G" horiz-adv-x="360" 
d="M313 471h108l24 113c5 31 5 57 -2 79c-4 20 -14 40 -31 55s-42 25 -78 25s-66 -10 -89 -25s-39 -35 -54 -55c-16 -24 -27 -50 -34 -79l-92 -433c-8 -31 -10 -57 -5 -80c3 -20 11 -39 26 -54c15 -16 37 -25 72 -25s68 18 93 43l6 -35h64l77 366h-151l-19 -91h43l-28 -133
c-3 -12 -7 -21 -10 -27c-7 -15 -19 -27 -38 -27c-9 0 -15 3 -19 8c-8 11 -10 27 -5 46l94 442c2 10 5 19 9 27c7 13 19 27 38 27c9 0 16 -3 20 -8c7 -11 9 -26 5 -46z" />
    <glyph glyph-name="H" unicode="H" horiz-adv-x="380" 
d="M300 320l-68 -320h108l156 735h-108l-65 -304h-84l65 304h-108l-156 -735h108l68 320h84z" />
    <glyph glyph-name="I" unicode="I" horiz-adv-x="188" 
d="M196 735l-156 -735h108l156 735h-108z" />
    <glyph glyph-name="Iacute" unicode="&#xcd;" horiz-adv-x="196" 
d="M388 890h-105l-71 -90h78zM196 735l-156 -735h108l156 735h-108z" />
    <glyph glyph-name="Icircumflex" unicode="&#xce;" horiz-adv-x="181" 
d="M333 890h-107l-88 -90h92l37 35l24 -35h92zM192 735l-156 -735h108l156 735h-108z" />
    <glyph glyph-name="Idieresis" unicode="&#xcf;" horiz-adv-x="182" 
d="M164 898l-20 -98h93l20 98h-93zM305 898l-20 -98h93l20 98h-93zM193 735l-156 -735h108l156 735h-108z" />
    <glyph glyph-name="Igrave" unicode="&#xcc;" horiz-adv-x="196" 
d="M291 890h-105l60 -90h78zM204 735l-156 -735h108l156 735h-108z" />
    <glyph glyph-name="J" unicode="J" horiz-adv-x="207" 
d="M27 99l-23 -106c64 -4 108 12 139 39s49 64 57 104l128 599h-108l-124 -582c-4 -18 -10 -30 -17 -36c-14 -15 -31 -21 -52 -18z" />
    <glyph glyph-name="K" unicode="K" horiz-adv-x="375" 
d="M304 735h-108l-156 -735h108l55 260l38 60l9 15h3v-15l7 -320h105l-8 493l151 242h-105l-142 -245l-8 -12h-4z" />
    <glyph glyph-name="L" unicode="L" horiz-adv-x="295" 
d="M196 735l-156 -735h251l21 100h-143l135 635h-108z" />
    <glyph glyph-name="M" unicode="M" horiz-adv-x="484" 
d="M219 0h46l167 462l10 31h6l-104 -493h100l156 735h-132l-136 -336l-13 -39h-2l3 39l8 336h-132l-156 -735h100l104 493h6l-2 -31z" />
    <glyph glyph-name="N" unicode="N" horiz-adv-x="395" 
d="M235 383l24 -383h96l156 735h-99l-89 -417h-6l-2 34l-23 383h-96l-156 -735h99l88 417h6z" />
    <glyph glyph-name="Ntilde" unicode="&#xd1;" horiz-adv-x="395" 
d="M286 871l-16 -74c3 1 6 3 9 4s6 3 9 4c11 4 23 8 38 8c17 -1 31 -5 43 -10c12 -6 26 -9 41 -9c7 0 14 1 21 3c15 3 27 9 36 16l16 74c-3 -1 -6 -3 -9 -4s-6 -3 -9 -4c-12 -4 -23 -8 -38 -8c-14 1 -28 4 -42 11c-14 5 -28 8 -42 8c-8 0 -15 -1 -21 -3
c-13 -4 -25 -9 -36 -16zM235 383l24 -383h96l156 735h-99l-89 -417h-6l-2 34l-23 383h-96l-156 -735h99l88 417h6z" />
    <glyph glyph-name="O" unicode="O" horiz-adv-x="354" 
d="M353 151l92 433c5 31 5 57 -2 79c-4 20 -14 40 -31 55s-42 25 -78 25s-66 -10 -89 -25s-39 -35 -54 -55c-16 -24 -27 -50 -34 -79l-92 -433c-6 -31 -6 -57 1 -80c4 -20 13 -39 30 -54c18 -17 44 -25 79 -25s64 8 88 25c23 15 40 34 55 54c15 23 27 50 35 80zM337 584
l-92 -433c-3 -12 -7 -21 -10 -27c-7 -15 -19 -27 -38 -27c-9 0 -15 3 -19 8c-8 11 -10 27 -5 46l92 433c2 10 5 19 9 27c7 13 19 27 38 27c9 0 16 -3 20 -8c7 -11 9 -26 5 -46z" />
    <glyph glyph-name="Oacute" unicode="&#xd3;" horiz-adv-x="354" 
d="M485 890h-105l-71 -90h78zM353 151l92 433c5 31 5 57 -2 79c-4 20 -14 40 -31 55s-42 25 -78 25s-66 -10 -89 -25s-39 -35 -54 -55c-16 -24 -27 -50 -34 -79l-92 -433c-6 -31 -6 -57 1 -80c4 -20 13 -39 30 -54c18 -17 44 -25 79 -25s64 8 88 25c23 15 40 34 55 54
c15 23 27 50 35 80zM337 584l-92 -433c-3 -12 -7 -21 -10 -27c-7 -15 -19 -27 -38 -27c-9 0 -15 3 -19 8c-8 11 -10 27 -5 46l92 433c2 10 5 19 9 27c7 13 19 27 38 27c9 0 16 -3 20 -8c7 -11 9 -26 5 -46z" />
    <glyph glyph-name="Ocircumflex" unicode="&#xd4;" horiz-adv-x="354" 
d="M420 890h-107l-88 -90h92l37 35l24 -35h92zM353 151l92 433c5 31 5 57 -2 79c-4 20 -14 40 -31 55s-42 25 -78 25s-66 -10 -89 -25s-39 -35 -54 -55c-16 -24 -27 -50 -34 -79l-92 -433c-6 -31 -6 -57 1 -80c4 -20 13 -39 30 -54c18 -17 44 -25 79 -25s64 8 88 25
c23 15 40 34 55 54c15 23 27 50 35 80zM337 584l-92 -433c-3 -12 -7 -21 -10 -27c-7 -15 -19 -27 -38 -27c-9 0 -15 3 -19 8c-8 11 -10 27 -5 46l92 433c2 10 5 19 9 27c7 13 19 27 38 27c9 0 16 -3 20 -8c7 -11 9 -26 5 -46z" />
    <glyph glyph-name="Odieresis" unicode="&#xd6;" horiz-adv-x="354" 
d="M250 898l-20 -98h93l20 98h-93zM391 898l-20 -98h93l20 98h-93zM353 151l92 433c5 31 5 57 -2 79c-4 20 -14 40 -31 55s-42 25 -78 25s-66 -10 -89 -25s-39 -35 -54 -55c-16 -24 -27 -50 -34 -79l-92 -433c-6 -31 -6 -57 1 -80c4 -20 13 -39 30 -54c18 -17 44 -25 79 -25
s64 8 88 25c23 15 40 34 55 54c15 23 27 50 35 80zM337 584l-92 -433c-3 -12 -7 -21 -10 -27c-7 -15 -19 -27 -38 -27c-9 0 -15 3 -19 8c-8 11 -10 27 -5 46l92 433c2 10 5 19 9 27c7 13 19 27 38 27c9 0 16 -3 20 -8c7 -11 9 -26 5 -46z" />
    <glyph glyph-name="Ograve" unicode="&#xd2;" horiz-adv-x="354" 
d="M353 890h-105l60 -90h78zM353 151l92 433c5 31 5 57 -2 79c-4 20 -14 40 -31 55s-42 25 -78 25s-66 -10 -89 -25s-39 -35 -54 -55c-16 -24 -27 -50 -34 -79l-92 -433c-6 -31 -6 -57 1 -80c4 -20 13 -39 30 -54c18 -17 44 -25 79 -25s64 8 88 25c23 15 40 34 55 54
c15 23 27 50 35 80zM337 584l-92 -433c-3 -12 -7 -21 -10 -27c-7 -15 -19 -27 -38 -27c-9 0 -15 3 -19 8c-8 11 -10 27 -5 46l92 433c2 10 5 19 9 27c7 13 19 27 38 27c9 0 16 -3 20 -8c7 -11 9 -26 5 -46z" />
    <glyph glyph-name="Oslash" unicode="&#xd8;" horiz-adv-x="354" 
d="M26 -10h63l12 23c18 -14 43 -21 74 -21c35 0 64 8 88 25c23 15 40 34 55 54c15 23 27 50 35 80l92 433c1 5 2 9 2 14c0 4 0 9 1 14c0 17 0 39 -7 60l38 73h-60l-12 -23c-18 14 -42 21 -73 21c-36 0 -66 -10 -89 -25s-39 -35 -54 -55c-16 -24 -27 -50 -34 -79l-92 -433
c-1 -5 -2 -9 -2 -13c-1 -5 -1 -9 -2 -14c-1 -16 -2 -37 5 -57zM216 355l49 229c2 10 5 19 9 27c7 13 19 27 38 27c16 0 23 -9 26 -20c1 -13 1 -23 0 -29zM295 389l-50 -238c-3 -12 -7 -21 -10 -27c-7 -15 -19 -27 -38 -27c-9 0 -15 3 -19 8c-8 11 -10 27 -5 46z" />
    <glyph glyph-name="Otilde" unicode="&#xd5;" horiz-adv-x="354" 
d="M265 871l-16 -74c3 1 6 3 9 4s6 3 9 4c11 4 23 8 38 8c17 -1 31 -5 43 -10c12 -6 26 -9 41 -9c7 0 14 1 21 3c15 3 27 9 36 16l16 74c-3 -1 -6 -3 -9 -4s-6 -3 -9 -4c-12 -4 -23 -8 -38 -8c-14 1 -28 4 -42 11c-14 5 -28 8 -42 8c-8 0 -15 -1 -21 -3
c-13 -4 -25 -9 -36 -16zM353 151l92 433c5 31 5 57 -2 79c-4 20 -14 40 -31 55s-42 25 -78 25s-66 -10 -89 -25s-39 -35 -54 -55c-16 -24 -27 -50 -34 -79l-92 -433c-6 -31 -6 -57 1 -80c4 -20 13 -39 30 -54c18 -17 44 -25 79 -25s64 8 88 25c23 15 40 34 55 54
c15 23 27 50 35 80zM337 584l-92 -433c-3 -12 -7 -21 -10 -27c-7 -15 -19 -27 -38 -27c-9 0 -15 3 -19 8c-8 11 -10 27 -5 46l92 433c2 10 5 19 9 27c7 13 19 27 38 27c9 0 16 -3 20 -8c7 -11 9 -26 5 -46z" />
    <glyph glyph-name="OE" unicode="&#x152;" horiz-adv-x="480" 
d="M177 0h283l23 111h-139l43 202h100l25 118h-100l41 193h139l24 111h-283c-36 0 -66 -8 -89 -23s-40 -34 -53 -53c-15 -21 -27 -46 -34 -75l-92 -433c-12 -55 1 -100 33 -127c17 -15 43 -24 79 -24zM338 591l-93 -440c-3 -12 -7 -21 -10 -27c-7 -15 -19 -27 -38 -27
c-9 0 -15 3 -19 8c-8 11 -10 27 -5 46l92 433c2 10 5 19 9 27c7 13 19 27 38 27c15 0 22 -7 25 -18s4 -20 1 -29z" />
    <glyph glyph-name="P" unicode="P" horiz-adv-x="352" 
d="M196 735l-156 -735h108l62 294c47 0 97 13 140 48s78 89 97 173s6 139 -23 174s-73 46 -120 46h-108zM233 404l47 221c33 0 53 -9 61 -26c8 -19 5 -47 -4 -88s-17 -68 -33 -84c-15 -17 -38 -23 -71 -23z" />
    <glyph glyph-name="Q" unicode="Q" horiz-adv-x="356" 
d="M353 151l92 433c5 31 5 57 -2 79c-4 20 -14 40 -31 55s-42 25 -78 25s-66 -10 -89 -25s-39 -35 -54 -55c-16 -24 -27 -50 -34 -79l-92 -433c-6 -31 -6 -57 1 -80c4 -20 13 -39 30 -54c18 -17 44 -25 79 -25c21 0 40 4 56 9c12 -31 38 -57 99 -57l19 92
c-20 4 -30 14 -37 26c7 11 14 21 19 32c11 20 18 39 22 57zM337 584l-92 -433c-3 -12 -7 -21 -10 -27c-7 -15 -19 -27 -38 -27c-9 0 -15 3 -19 8c-8 11 -10 27 -5 46l92 433c2 10 5 19 9 27c7 13 19 27 38 27c9 0 16 -3 20 -8c7 -11 9 -26 5 -46z" />
    <glyph glyph-name="R" unicode="R" horiz-adv-x="361" 
d="M233 0h108l6 356c47 28 80 94 96 167c29 140 -10 212 -139 212h-108l-156 -735h108l65 310h29zM235 410l46 218c15 0 35 0 48 -15s20 -42 9 -94s-30 -78 -49 -93s-39 -16 -54 -16z" />
    <glyph glyph-name="S" unicode="S" horiz-adv-x="343" 
d="M333 538l108 10c9 41 13 90 1 130c-13 39 -44 66 -111 65c-51 -1 -91 -24 -120 -56c-31 -33 -49 -76 -57 -116c-4 -20 -7 -40 -4 -59c3 -38 12 -76 29 -114c8 -19 16 -36 24 -53s16 -33 23 -48c3 -7 6 -15 9 -22s6 -15 9 -22c11 -29 16 -57 11 -81
c-11 -47 -29 -81 -61 -81c-23 0 -31 16 -34 40c-3 23 2 54 9 85l-108 -10c-11 -56 -19 -108 -4 -148c13 -40 47 -66 116 -66c60 0 100 21 131 56s47 80 58 129c9 40 4 78 -7 115c-12 37 -27 75 -46 112c-15 31 -28 60 -39 88s-15 54 -10 79c9 43 24 72 52 73
c17 0 25 -14 28 -34c3 -21 -2 -48 -7 -72z" />
    <glyph glyph-name="T" unicode="T" horiz-adv-x="316" 
d="M134 624h102l-132 -624h108l132 624h102l24 111h-312z" />
    <glyph glyph-name="U" unicode="U" horiz-adv-x="366" 
d="M483 735h-108l-124 -584c-3 -12 -7 -21 -10 -27c-7 -15 -19 -27 -38 -27c-9 0 -15 3 -19 8c-8 11 -10 27 -5 46l124 584h-108l-124 -584c-6 -31 -6 -57 1 -80c4 -20 13 -39 30 -54c18 -17 44 -25 79 -25s64 8 88 25c23 15 40 34 55 54c15 23 27 50 35 80z" />
    <glyph glyph-name="Uacute" unicode="&#xda;" horiz-adv-x="366" 
d="M496 890h-105l-71 -90h78zM483 735h-108l-124 -584c-3 -12 -7 -21 -10 -27c-7 -15 -19 -27 -38 -27c-9 0 -15 3 -19 8c-8 11 -10 27 -5 46l124 584h-108l-124 -584c-6 -31 -6 -57 1 -80c4 -20 13 -39 30 -54c18 -17 44 -25 79 -25s64 8 88 25c23 15 40 34 55 54
c15 23 27 50 35 80z" />
    <glyph glyph-name="Ucircumflex" unicode="&#xdb;" horiz-adv-x="366" 
d="M426 890h-107l-88 -90h92l37 35l24 -35h92zM483 735h-108l-124 -584c-3 -12 -7 -21 -10 -27c-7 -15 -19 -27 -38 -27c-9 0 -15 3 -19 8c-8 11 -10 27 -5 46l124 584h-108l-124 -584c-6 -31 -6 -57 1 -80c4 -20 13 -39 30 -54c18 -17 44 -25 79 -25s64 8 88 25
c23 15 40 34 55 54c15 23 27 50 35 80z" />
    <glyph glyph-name="Udieresis" unicode="&#xdc;" horiz-adv-x="366" 
d="M256 898l-20 -98h93l20 98h-93zM397 898l-20 -98h93l20 98h-93zM483 735h-108l-124 -584c-3 -12 -7 -21 -10 -27c-7 -15 -19 -27 -38 -27c-9 0 -15 3 -19 8c-8 11 -10 27 -5 46l124 584h-108l-124 -584c-6 -31 -6 -57 1 -80c4 -20 13 -39 30 -54c18 -17 44 -25 79 -25
s64 8 88 25c23 15 40 34 55 54c15 23 27 50 35 80z" />
    <glyph glyph-name="Ugrave" unicode="&#xd9;" horiz-adv-x="366" 
d="M365 890h-105l60 -90h78zM483 735h-108l-124 -584c-3 -12 -7 -21 -10 -27c-7 -15 -19 -27 -38 -27c-9 0 -15 3 -19 8c-8 11 -10 27 -5 46l124 584h-108l-124 -584c-6 -31 -6 -57 1 -80c4 -20 13 -39 30 -54c18 -17 44 -25 79 -25s64 8 88 25c23 15 40 34 55 54
c15 23 27 50 35 80z" />
    <glyph glyph-name="V" unicode="V" horiz-adv-x="350" 
d="M392 735l-140 -404l-11 -31h-6l3 31l32 404h-105l-44 -735h108l268 735h-105z" />
    <glyph glyph-name="W" unicode="W" horiz-adv-x="496" 
d="M185 0l123 348l16 43h4l-4 -43l-23 -348h84l255 735h-100l-124 -382l-8 -24h-8l3 24l35 382h-78l-127 -382l-9 -24h-8l4 24l38 382h-100l-57 -735h84z" />
    <glyph glyph-name="X" unicode="X" horiz-adv-x="360" 
d="M114 0l108 219l4 9h4v-9l16 -219h106l-37 386l191 349h-106l-99 -186l-5 -9h-4l-1 9l-19 186h-106l43 -349l-201 -386h106z" />
    <glyph glyph-name="Y" unicode="Y" horiz-adv-x="342" 
d="M273 500l-4 235h-106l20 -422l-66 -313h108l66 313l200 422h-106l-104 -235l-5 -7h-2z" />
    <glyph glyph-name="Ydieresis" unicode="&#x178;" horiz-adv-x="344" 
d="M245 898l-20 -98h93l20 98h-93zM386 898l-20 -98h93l20 98h-93zM274 500l-4 235h-106l20 -422l-66 -313h108l66 313l200 422h-106l-104 -235l-5 -7h-2z" />
    <glyph glyph-name="Z" unicode="Z" horiz-adv-x="306" 
d="M34 116l-24 -116h286l22 107h-172l283 521l23 107h-262l-23 -107h145z" />
    <glyph glyph-name="a" unicode="a" horiz-adv-x="333" 
d="M281 417l-13 -60c-7 -11 -27 -20 -55 -33c-27 -13 -61 -31 -92 -62s-58 -74 -71 -135c-12 -57 -5 -91 8 -110c12 -20 32 -25 45 -25c20 0 41 8 57 19s28 24 35 33h7c-3 -7 -7 -33 0 -44h99c1 24 2 46 13 95l71 336c8 36 1 66 -18 89s-46 35 -79 35
c-39 0 -75 -16 -106 -43c-29 -27 -52 -63 -61 -103l-4 -23h101c1 4 1 8 2 13c1 4 2 8 3 13c3 9 5 18 8 26c7 16 16 29 33 29c12 0 19 -6 21 -17c1 -11 -1 -24 -4 -33zM249 264l-30 -140c-4 -19 -26 -33 -49 -33c-12 0 -16 9 -19 21c-1 11 -1 21 2 30c11 52 41 101 96 122z
" />
    <glyph glyph-name="aacute" unicode="&#xe1;" horiz-adv-x="333" 
d="M440 727h-105l-71 -90h78zM281 417l-13 -60c-7 -11 -27 -20 -55 -33c-27 -13 -61 -31 -92 -62s-58 -74 -71 -135c-12 -57 -5 -91 8 -110c12 -20 32 -25 45 -25c20 0 41 8 57 19s28 24 35 33h7c-3 -7 -7 -33 0 -44h99c1 24 2 46 13 95l71 336c8 36 1 66 -18 89
s-46 35 -79 35c-39 0 -75 -16 -106 -43c-29 -27 -52 -63 -61 -103l-4 -23h101c1 4 1 8 2 13c1 4 2 8 3 13c3 9 5 18 8 26c7 16 16 29 33 29c12 0 19 -6 21 -17c1 -11 -1 -24 -4 -33zM249 264l-30 -140c-4 -19 -26 -33 -49 -33c-12 0 -16 9 -19 21c-1 11 -1 21 2 30
c11 52 41 101 96 122z" />
    <glyph glyph-name="acircumflex" unicode="&#xe2;" horiz-adv-x="333" 
d="M374 727h-107l-88 -90h92l37 35l24 -35h92zM281 417l-13 -60c-7 -11 -27 -20 -55 -33c-27 -13 -61 -31 -92 -62s-58 -74 -71 -135c-12 -57 -5 -91 8 -110c12 -20 32 -25 45 -25c20 0 41 8 57 19s28 24 35 33h7c-3 -7 -7 -33 0 -44h99c1 24 2 46 13 95l71 336
c8 36 1 66 -18 89s-46 35 -79 35c-39 0 -75 -16 -106 -43c-29 -27 -52 -63 -61 -103l-4 -23h101c1 4 1 8 2 13c1 4 2 8 3 13c3 9 5 18 8 26c7 16 16 29 33 29c12 0 19 -6 21 -17c1 -11 -1 -24 -4 -33zM249 264l-30 -140c-4 -19 -26 -33 -49 -33c-12 0 -16 9 -19 21
c-1 11 -1 21 2 30c11 52 41 101 96 122z" />
    <glyph glyph-name="adieresis" unicode="&#xe4;" horiz-adv-x="333" 
d="M206 735l-21 -98h93l21 98h-93zM347 735l-21 -98h93l21 98h-93zM281 417l-13 -60c-7 -11 -27 -20 -55 -33c-27 -13 -61 -31 -92 -62s-58 -74 -71 -135c-12 -57 -5 -91 8 -110c12 -20 32 -25 45 -25c20 0 41 8 57 19s28 24 35 33h7c-3 -7 -7 -33 0 -44h99c1 24 2 46 13 95
l71 336c8 36 1 66 -18 89s-46 35 -79 35c-39 0 -75 -16 -106 -43c-29 -27 -52 -63 -61 -103l-4 -23h101c1 4 1 8 2 13c1 4 2 8 3 13c3 9 5 18 8 26c7 16 16 29 33 29c12 0 19 -6 21 -17c1 -11 -1 -24 -4 -33zM249 264l-30 -140c-4 -19 -26 -33 -49 -33c-12 0 -16 9 -19 21
c-1 11 -1 21 2 30c11 52 41 101 96 122z" />
    <glyph glyph-name="agrave" unicode="&#xe0;" horiz-adv-x="333" 
d="M309 727h-105l60 -90h78zM281 417l-13 -60c-7 -11 -27 -20 -55 -33c-27 -13 -61 -31 -92 -62s-58 -74 -71 -135c-12 -57 -5 -91 8 -110c12 -20 32 -25 45 -25c20 0 41 8 57 19s28 24 35 33h7c-3 -7 -7 -33 0 -44h99c1 24 2 46 13 95l71 336c8 36 1 66 -18 89
s-46 35 -79 35c-39 0 -75 -16 -106 -43c-29 -27 -52 -63 -61 -103l-4 -23h101c1 4 1 8 2 13c1 4 2 8 3 13c3 9 5 18 8 26c7 16 16 29 33 29c12 0 19 -6 21 -17c1 -11 -1 -24 -4 -33zM249 264l-30 -140c-4 -19 -26 -33 -49 -33c-12 0 -16 9 -19 21c-1 11 -1 21 2 30
c11 52 41 101 96 122z" />
    <glyph glyph-name="aring" unicode="&#xe5;" horiz-adv-x="333" 
d="M239 694c-9 -41 19 -70 60 -70s80 29 89 70s-18 70 -59 70s-81 -29 -90 -70zM277 694c4 19 25 35 44 35s34 -16 30 -35s-25 -35 -44 -35s-34 16 -30 35zM281 417l-13 -60c-7 -11 -27 -20 -55 -33c-27 -13 -61 -31 -92 -62s-58 -74 -71 -135c-12 -57 -5 -91 8 -110
c12 -20 32 -25 45 -25c20 0 41 8 57 19s28 24 35 33h7c-3 -7 -7 -33 0 -44h99c1 24 2 46 13 95l71 336c8 36 1 66 -18 89s-46 35 -79 35c-39 0 -75 -16 -106 -43c-29 -27 -52 -63 -61 -103l-4 -23h101c1 4 1 8 2 13c1 4 2 8 3 13c3 9 5 18 8 26c7 16 16 29 33 29
c12 0 19 -6 21 -17c1 -11 -1 -24 -4 -33zM249 264l-30 -140c-4 -19 -26 -33 -49 -33c-12 0 -16 9 -19 21c-1 11 -1 21 2 30c11 52 41 101 96 122z" />
    <glyph glyph-name="atilde" unicode="&#xe3;" horiz-adv-x="333" 
d="M221 711l-16 -74c3 1 6 3 9 4s6 3 9 4c11 4 23 8 38 8c17 -1 31 -5 43 -10c12 -6 26 -9 41 -9c7 0 14 1 21 3c15 3 27 9 36 16l16 74c-3 -1 -6 -3 -9 -4s-6 -3 -9 -4c-12 -4 -23 -8 -38 -8c-14 1 -28 4 -42 11c-14 5 -28 8 -42 8c-8 0 -15 -1 -21 -3
c-13 -4 -25 -9 -36 -16zM281 417l-13 -60c-7 -11 -27 -20 -55 -33c-27 -13 -61 -31 -92 -62s-58 -74 -71 -135c-12 -57 -5 -91 8 -110c12 -20 32 -25 45 -25c20 0 41 8 57 19s28 24 35 33h7c-3 -7 -7 -33 0 -44h99c1 24 2 46 13 95l71 336c8 36 1 66 -18 89s-46 35 -79 35
c-39 0 -75 -16 -106 -43c-29 -27 -52 -63 -61 -103l-4 -23h101c1 4 1 8 2 13c1 4 2 8 3 13c3 9 5 18 8 26c7 16 16 29 33 29c12 0 19 -6 21 -17c1 -11 -1 -24 -4 -33zM249 264l-30 -140c-4 -19 -26 -33 -49 -33c-12 0 -16 9 -19 21c-1 11 -1 21 2 30c11 52 41 101 96 122z
" />
    <glyph glyph-name="ae" unicode="&#xe6;" horiz-adv-x="483" 
d="M495 196h-94l-13 -60c-2 -11 -5 -21 -10 -28c-7 -15 -18 -27 -37 -27c-9 0 -16 3 -20 8c-7 12 -9 28 -6 47l26 119h167l33 159c5 27 4 49 -1 70c-4 17 -12 36 -28 49s-39 22 -71 22c-35 0 -61 -10 -84 -25c-17 17 -40 25 -69 25c-39 0 -75 -16 -106 -43
c-29 -27 -52 -63 -61 -103l-4 -23h101c1 4 1 8 2 13c1 4 2 8 3 13c3 9 5 18 8 26c7 16 16 29 33 29c12 0 19 -6 21 -17c1 -11 -1 -24 -4 -33l-13 -60c-7 -11 -27 -20 -55 -33c-27 -13 -61 -31 -92 -62s-58 -74 -71 -135c-12 -57 -5 -91 8 -110c12 -20 32 -25 45 -25
c44 0 86 28 121 64c11 -33 36 -64 97 -64c33 0 59 7 80 22c43 29 66 66 81 119zM357 334l17 77c3 12 7 21 11 28c8 15 19 28 38 28c9 0 16 -3 20 -8c8 -12 8 -27 4 -48l-17 -77h-73zM249 264l-30 -140c-4 -19 -26 -33 -49 -33c-12 0 -16 9 -19 21c-1 11 -1 21 2 30
c11 52 41 101 96 122z" />
    <glyph glyph-name="b" unicode="b" horiz-adv-x="335" 
d="M196 735l-156 -735h101l7 36c7 -8 14 -15 21 -22c13 -11 31 -22 50 -22c28 0 49 16 68 37c16 20 28 47 33 70l74 349c5 23 4 50 -3 71c-9 20 -25 36 -53 36c-10 0 -20 -2 -29 -7c-23 -9 -39 -21 -60 -37l48 224h-101zM166 120l65 307c4 16 22 33 37 33s24 -14 20 -33
l-65 -307c-4 -19 -19 -33 -34 -33s-27 14 -23 33z" />
    <glyph glyph-name="c" unicode="c" horiz-adv-x="315" 
d="M159 126l63 295c4 20 10 44 37 44c23 0 27 -11 20 -44l-14 -66h101l9 43c13 61 10 100 -7 124c-16 24 -47 33 -90 33c-36 0 -71 -10 -99 -35s-51 -66 -64 -127l-51 -239c-13 -61 -7 -102 10 -127c19 -25 49 -35 85 -35c43 0 77 9 104 33s46 63 59 124l11 53h-101l-16 -76
c-7 -33 -15 -44 -38 -44c-27 0 -23 24 -19 44z" />
    <glyph glyph-name="ccedilla" unicode="&#xe7;" horiz-adv-x="315" 
d="M159 126l63 295c4 20 10 44 37 44c23 0 27 -11 20 -44l-14 -66h101l9 43c13 61 10 100 -7 124c-16 24 -47 33 -90 33c-36 0 -71 -10 -99 -35s-51 -66 -64 -127l-51 -239c-13 -61 -7 -102 10 -127c19 -25 49 -35 85 -35c43 0 77 9 104 33s46 63 59 124l11 53h-101l-16 -76
c-7 -33 -15 -44 -38 -44c-27 0 -23 24 -19 44zM173 -123l15 69h-84l-15 -69h31l-33 -65h51z" />
    <glyph glyph-name="d" unicode="d" horiz-adv-x="335" 
d="M295 0l156 735h-101l-48 -224c-7 8 -14 15 -21 22c-13 11 -31 22 -50 22c-28 0 -50 -16 -66 -36c-19 -21 -29 -48 -34 -71l-74 -349c-5 -23 -5 -50 4 -70c7 -21 23 -37 51 -37c10 0 20 2 30 7c21 9 39 21 59 37l-7 -36h101zM284 427l-65 -307c-4 -19 -22 -33 -37 -33
s-24 14 -20 33l65 307c4 19 19 33 34 33s27 -17 23 -33z" />
    <glyph glyph-name="e" unicode="e" horiz-adv-x="322" 
d="M334 196h-94l-13 -60c-2 -11 -5 -21 -10 -28c-7 -15 -18 -27 -37 -27c-9 0 -16 3 -20 8c-7 12 -9 28 -6 47l26 119h167l33 159c5 27 4 49 -1 70c-4 17 -12 36 -28 49s-39 22 -71 22c-33 0 -60 -7 -79 -22c-43 -31 -67 -69 -82 -122l-59 -275c-4 -25 -4 -49 1 -72
c8 -36 34 -72 99 -72c33 0 59 7 80 22c43 29 66 66 81 119zM196 334l17 77c3 12 7 21 11 28c8 15 19 28 38 28c9 0 16 -3 20 -8c8 -12 8 -27 4 -48l-17 -77h-73z" />
    <glyph glyph-name="eacute" unicode="&#xe9;" horiz-adv-x="322" 
d="M440 727h-105l-71 -90h78zM334 196h-94l-13 -60c-2 -11 -5 -21 -10 -28c-7 -15 -18 -27 -37 -27c-9 0 -16 3 -20 8c-7 12 -9 28 -6 47l26 119h167l33 159c5 27 4 49 -1 70c-4 17 -12 36 -28 49s-39 22 -71 22c-33 0 -60 -7 -79 -22c-43 -31 -67 -69 -82 -122l-59 -275
c-4 -25 -4 -49 1 -72c8 -36 34 -72 99 -72c33 0 59 7 80 22c43 29 66 66 81 119zM196 334l17 77c3 12 7 21 11 28c8 15 19 28 38 28c9 0 16 -3 20 -8c8 -12 8 -27 4 -48l-17 -77h-73z" />
    <glyph glyph-name="ecircumflex" unicode="&#xea;" horiz-adv-x="322" 
d="M369 727h-107l-88 -90h92l37 35l24 -35h92zM334 196h-94l-13 -60c-2 -11 -5 -21 -10 -28c-7 -15 -18 -27 -37 -27c-9 0 -16 3 -20 8c-7 12 -9 28 -6 47l26 119h167l33 159c5 27 4 49 -1 70c-4 17 -12 36 -28 49s-39 22 -71 22c-33 0 -60 -7 -79 -22
c-43 -31 -67 -69 -82 -122l-59 -275c-4 -25 -4 -49 1 -72c8 -36 34 -72 99 -72c33 0 59 7 80 22c43 29 66 66 81 119zM196 334l17 77c3 12 7 21 11 28c8 15 19 28 38 28c9 0 16 -3 20 -8c8 -12 8 -27 4 -48l-17 -77h-73z" />
    <glyph glyph-name="edieresis" unicode="&#xeb;" horiz-adv-x="322" 
d="M200 735l-21 -98h93l21 98h-93zM341 735l-21 -98h93l21 98h-93zM334 196h-94l-13 -60c-2 -11 -5 -21 -10 -28c-7 -15 -18 -27 -37 -27c-9 0 -16 3 -20 8c-7 12 -9 28 -6 47l26 119h167l33 159c5 27 4 49 -1 70c-4 17 -12 36 -28 49s-39 22 -71 22c-33 0 -60 -7 -79 -22
c-43 -31 -67 -69 -82 -122l-59 -275c-4 -25 -4 -49 1 -72c8 -36 34 -72 99 -72c33 0 59 7 80 22c43 29 66 66 81 119zM196 334l17 77c3 12 7 21 11 28c8 15 19 28 38 28c9 0 16 -3 20 -8c8 -12 8 -27 4 -48l-17 -77h-73z" />
    <glyph glyph-name="egrave" unicode="&#xe8;" horiz-adv-x="322" 
d="M309 727h-105l60 -90h78zM334 196h-94l-13 -60c-2 -11 -5 -21 -10 -28c-7 -15 -18 -27 -37 -27c-9 0 -16 3 -20 8c-7 12 -9 28 -6 47l26 119h167l33 159c5 27 4 49 -1 70c-4 17 -12 36 -28 49s-39 22 -71 22c-33 0 -60 -7 -79 -22c-43 -31 -67 -69 -82 -122l-59 -275
c-4 -25 -4 -49 1 -72c8 -36 34 -72 99 -72c33 0 59 7 80 22c43 29 66 66 81 119zM196 334l17 77c3 12 7 21 11 28c8 15 19 28 38 28c9 0 16 -3 20 -8c8 -12 8 -27 4 -48l-17 -77h-73z" />
    <glyph glyph-name="f" unicode="f" horiz-adv-x="232" 
d="M61 0h101l96 456h51l20 91h-51l3 14c1 3 1 7 2 11c1 3 2 8 3 13c2 10 5 20 9 30c8 19 19 34 36 34c7 0 14 -1 21 -2c1 -1 3 -1 5 -1c1 0 3 0 4 -1l18 87l-11 3c-7 3 -19 4 -34 4c-60 0 -93 -30 -116 -67s-31 -82 -38 -110l-3 -15h-51l-20 -91h51z" />
    <glyph glyph-name="g" unicode="g" horiz-adv-x="342" 
d="M343 264l33 155c0 1 0 3 1 5v5c-1 2 0 6 1 11v13c13 7 34 12 61 12l19 90c-16 0 -33 -9 -52 -20s-33 -23 -41 -30c-13 27 -40 50 -91 50c-32 0 -58 -7 -77 -22c-41 -29 -65 -66 -80 -117l-32 -149c-2 -13 -2 -28 -1 -45c1 -25 9 -55 34 -74c-17 -8 -34 -20 -49 -35
c-16 -15 -28 -31 -31 -47c-11 -43 14 -64 45 -73c-21 -9 -42 -19 -61 -34s-31 -30 -35 -49c-8 -40 2 -66 27 -82s64 -23 112 -24c41 0 87 9 124 30s67 57 79 110c11 48 -3 77 -26 96c-24 19 -56 27 -87 31c-19 3 -35 6 -50 11c-15 4 -23 11 -20 23c2 9 8 17 19 25
c2 -1 5 -1 10 -1h9c61 0 132 36 159 135zM275 412l-32 -150c-2 -9 -5 -17 -8 -25c-7 -12 -16 -24 -33 -24c-8 0 -14 3 -17 8c-6 10 -7 24 -2 41l32 150c1 9 4 18 7 25c7 12 17 25 33 25c8 0 14 -3 17 -8c6 -11 7 -25 3 -42zM135 -25l50 -10c12 -2 21 -4 28 -7
c13 -5 22 -13 18 -32c-3 -13 -16 -21 -32 -28s-36 -9 -53 -9c-47 0 -62 17 -58 38s24 36 47 48z" />
    <glyph glyph-name="h" unicode="h" 
d="M141 0l91 431c2 3 4 5 6 7l6 6c8 7 16 13 27 13c12 0 23 -3 19 -24l-92 -433h101l95 448c5 23 4 50 -3 71c-8 20 -24 36 -51 36c-17 0 -38 -12 -55 -25c-9 -7 -17 -13 -24 -18c-7 -7 -12 -10 -14 -11l50 234h-101l-156 -735h101z" />
    <glyph glyph-name="i" unicode="i" horiz-adv-x="181" 
d="M196 735l-22 -101h101l22 101h-101zM40 0h101l116 547h-101z" />
    <glyph glyph-name="dotlessi" unicode="&#x131;" horiz-adv-x="181" 
d="M40 0h101l116 547h-101z" />
    <glyph glyph-name="iacute" unicode="&#xed;" horiz-adv-x="181" 
d="M351 727h-105l-71 -90h78zM40 0h101l116 547h-101z" />
    <glyph glyph-name="icircumflex" unicode="&#xee;" horiz-adv-x="181" 
d="M298 727h-107l-88 -90h92l37 35l24 -35h92zM40 0h101l116 547h-101z" />
    <glyph glyph-name="idieresis" unicode="&#xef;" horiz-adv-x="182" 
d="M130 735l-21 -98h93l21 98h-93zM271 735l-21 -98h93l21 98h-93zM40 0h101l116 547h-101z" />
    <glyph glyph-name="igrave" unicode="&#xec;" horiz-adv-x="181" 
d="M243 727h-105l60 -90h78zM40 0h101l116 547h-101z" />
    <glyph glyph-name="j" unicode="j" horiz-adv-x="178" 
d="M193 735l-22 -101h101l22 101h-101zM254 547h-101l-119 -560c-1 -3 -2 -7 -2 -10c-1 -4 -2 -8 -3 -13c-3 -9 -5 -18 -8 -26c-7 -17 -18 -31 -34 -31c-7 0 -12 1 -19 2c-1 1 -3 1 -4 1s-3 0 -4 1l-20 -93c1 -1 3 -1 4 -1c1 -1 3 -1 5 -2c7 -2 18 -3 34 -3
c56 0 92 29 115 66c21 36 30 80 37 108z" />
    <glyph glyph-name="k" unicode="k" horiz-adv-x="313" 
d="M297 735h-101l-156 -735h101l40 189l19 32l5 8h5v-8l4 -221h97l-14 369l111 178h-91l-80 -143l-9 -18h-5z" />
    <glyph glyph-name="l" unicode="l" horiz-adv-x="181" 
d="M40 0h101l156 735h-101z" />
    <glyph glyph-name="m" unicode="m" horiz-adv-x="499" 
d="M301 0l91 431c4 5 9 9 14 13c8 7 19 13 30 13s26 -3 22 -24l-92 -433h95l95 448c5 23 4 50 -3 71c-8 20 -24 36 -51 36c-8 0 -17 -3 -28 -8c-21 -11 -40 -23 -57 -38c-5 -3 -8 -6 -11 -9s-6 -5 -8 -6c-5 32 -20 61 -56 61c-9 0 -18 -2 -27 -7c-20 -11 -39 -25 -54 -36
c-7 -7 -12 -10 -14 -11l10 46h-101l-116 -547h101l91 431c4 5 9 9 14 13c8 7 19 13 30 13s26 -3 22 -24l-92 -433h95z" />
    <glyph glyph-name="n" unicode="n" 
d="M141 0l91 431c2 3 4 5 6 7l6 6c8 7 16 13 27 13c12 0 23 -3 19 -24l-92 -433h101l95 448c5 23 4 50 -3 71c-8 20 -24 36 -51 36c-17 0 -38 -12 -55 -25c-9 -7 -17 -13 -24 -18c-7 -7 -12 -10 -14 -11l10 46h-101l-116 -547h101z" />
    <glyph glyph-name="ntilde" unicode="&#xf1;" 
d="M223 711l-16 -74c3 1 6 3 9 4s6 3 9 4c11 4 23 8 38 8c17 -1 31 -5 43 -10c12 -6 26 -9 41 -9c7 0 14 1 21 3c15 3 27 9 36 16l16 74c-3 -1 -6 -3 -9 -4s-6 -3 -9 -4c-12 -4 -23 -8 -38 -8c-14 1 -28 4 -42 11c-14 5 -28 8 -42 8c-8 0 -15 -1 -21 -3
c-13 -4 -25 -9 -36 -16zM141 0l91 431c2 3 4 5 6 7l6 6c8 7 16 13 27 13c12 0 23 -3 19 -24l-92 -433h101l95 448c5 23 4 50 -3 71c-8 20 -24 36 -51 36c-17 0 -38 -12 -55 -25c-9 -7 -17 -13 -24 -18c-7 -7 -12 -10 -14 -11l10 46h-101l-116 -547h101z" />
    <glyph glyph-name="o" unicode="o" horiz-adv-x="321" 
d="M318 133l59 281c5 27 4 49 -1 70c-4 17 -12 36 -28 49s-39 22 -71 22c-33 0 -60 -7 -79 -22c-43 -31 -65 -69 -80 -122l-59 -275c-4 -25 -4 -49 1 -72c4 -19 12 -35 28 -49c15 -14 38 -23 70 -23c33 0 59 7 80 22c43 29 65 66 80 119zM282 411l-59 -275
c-1 -11 -4 -20 -9 -28c-7 -15 -18 -27 -37 -27c-9 0 -16 3 -20 8c-7 12 -8 28 -3 47l59 275c1 11 4 20 9 28c7 15 18 28 37 28c9 0 16 -3 20 -8c7 -11 8 -27 3 -48z" />
    <glyph glyph-name="oacute" unicode="&#xf3;" horiz-adv-x="321" 
d="M438 727h-105l-71 -90h78zM318 133l59 281c5 27 4 49 -1 70c-4 17 -12 36 -28 49s-39 22 -71 22c-33 0 -60 -7 -79 -22c-43 -31 -65 -69 -80 -122l-59 -275c-4 -25 -4 -49 1 -72c4 -19 12 -35 28 -49c15 -14 38 -23 70 -23c33 0 59 7 80 22c43 29 65 66 80 119zM282 411
l-59 -275c-1 -11 -4 -20 -9 -28c-7 -15 -18 -27 -37 -27c-9 0 -16 3 -20 8c-7 12 -8 28 -3 47l59 275c1 11 4 20 9 28c7 15 18 28 37 28c9 0 16 -3 20 -8c7 -11 8 -27 3 -48z" />
    <glyph glyph-name="ocircumflex" unicode="&#xf4;" horiz-adv-x="321" 
d="M368 727h-107l-88 -90h92l37 35l24 -35h92zM318 133l59 281c5 27 4 49 -1 70c-4 17 -12 36 -28 49s-39 22 -71 22c-33 0 -60 -7 -79 -22c-43 -31 -65 -69 -80 -122l-59 -275c-4 -25 -4 -49 1 -72c4 -19 12 -35 28 -49c15 -14 38 -23 70 -23c33 0 59 7 80 22
c43 29 65 66 80 119zM282 411l-59 -275c-1 -11 -4 -20 -9 -28c-7 -15 -18 -27 -37 -27c-9 0 -16 3 -20 8c-7 12 -8 28 -3 47l59 275c1 11 4 20 9 28c7 15 18 28 37 28c9 0 16 -3 20 -8c7 -11 8 -27 3 -48z" />
    <glyph glyph-name="odieresis" unicode="&#xf6;" horiz-adv-x="321" 
d="M200 735l-21 -98h93l21 98h-93zM341 735l-21 -98h93l21 98h-93zM318 133l59 281c5 27 4 49 -1 70c-4 17 -12 36 -28 49s-39 22 -71 22c-33 0 -60 -7 -79 -22c-43 -31 -65 -69 -80 -122l-59 -275c-4 -25 -4 -49 1 -72c4 -19 12 -35 28 -49c15 -14 38 -23 70 -23
c33 0 59 7 80 22c43 29 65 66 80 119zM282 411l-59 -275c-1 -11 -4 -20 -9 -28c-7 -15 -18 -27 -37 -27c-9 0 -16 3 -20 8c-7 12 -8 28 -3 47l59 275c1 11 4 20 9 28c7 15 18 28 37 28c9 0 16 -3 20 -8c7 -11 8 -27 3 -48z" />
    <glyph glyph-name="ograve" unicode="&#xf2;" horiz-adv-x="321" 
d="M307 727h-105l60 -90h78zM318 133l59 281c5 27 4 49 -1 70c-4 17 -12 36 -28 49s-39 22 -71 22c-33 0 -60 -7 -79 -22c-43 -31 -65 -69 -80 -122l-59 -275c-4 -25 -4 -49 1 -72c4 -19 12 -35 28 -49c15 -14 38 -23 70 -23c33 0 59 7 80 22c43 29 65 66 80 119zM282 411
l-59 -275c-1 -11 -4 -20 -9 -28c-7 -15 -18 -27 -37 -27c-9 0 -16 3 -20 8c-7 12 -8 28 -3 47l59 275c1 11 4 20 9 28c7 15 18 28 37 28c9 0 16 -3 20 -8c7 -11 8 -27 3 -48z" />
    <glyph glyph-name="oslash" unicode="&#xf8;" horiz-adv-x="321" 
d="M52 -38h39l19 38c14 -5 30 -8 48 -8c33 0 59 7 80 22c43 29 65 66 80 119l59 281c2 14 3 28 3 41c-3 23 -6 50 -25 71l28 59h-37l-18 -39c-15 5 -31 9 -51 9c-33 0 -60 -7 -79 -22c-43 -31 -65 -69 -80 -122l-59 -275c-3 -13 -4 -27 -4 -42c0 -24 6 -52 25 -73zM171 213
l42 198c1 11 4 20 9 28c7 15 18 28 37 28c15 0 20 -6 23 -17zM265 333l-42 -197c-1 -11 -4 -20 -9 -28c-7 -15 -18 -27 -37 -27c-13 0 -20 5 -23 15z" />
    <glyph glyph-name="otilde" unicode="&#xf5;" horiz-adv-x="321" 
d="M215 711l-16 -74c3 1 6 3 9 4s6 3 9 4c11 4 23 8 38 8c17 -1 31 -5 43 -10c12 -6 26 -9 41 -9c7 0 14 1 21 3c15 3 27 9 36 16l16 74c-3 -1 -6 -3 -9 -4s-6 -3 -9 -4c-12 -4 -23 -8 -38 -8c-14 1 -28 4 -42 11c-14 5 -28 8 -42 8c-8 0 -15 -1 -21 -3
c-13 -4 -25 -9 -36 -16zM318 133l59 281c5 27 4 49 -1 70c-4 17 -12 36 -28 49s-39 22 -71 22c-33 0 -60 -7 -79 -22c-43 -31 -65 -69 -80 -122l-59 -275c-4 -25 -4 -49 1 -72c4 -19 12 -35 28 -49c15 -14 38 -23 70 -23c33 0 59 7 80 22c43 29 65 66 80 119zM282 411
l-59 -275c-1 -11 -4 -20 -9 -28c-7 -15 -18 -27 -37 -27c-9 0 -16 3 -20 8c-7 12 -8 28 -3 47l59 275c1 11 4 20 9 28c7 15 18 28 37 28c9 0 16 -3 20 -8c7 -11 8 -27 3 -48z" />
    <glyph glyph-name="oe" unicode="&#x153;" horiz-adv-x="486" 
d="M498 196h-94l-13 -60c-2 -11 -5 -21 -10 -28c-7 -15 -18 -27 -37 -27c-16 0 -23 11 -26 23s-1 25 0 29l26 122h167l33 159c5 27 4 49 -1 70c-4 17 -12 36 -28 49s-39 22 -71 22c-39 0 -66 -12 -89 -29c-15 17 -39 29 -78 29c-33 0 -60 -7 -79 -22
c-43 -31 -65 -69 -80 -122l-59 -275c-4 -25 -4 -49 1 -72c4 -19 12 -35 28 -49c15 -14 38 -23 70 -23c37 0 66 12 89 28c15 -17 40 -28 77 -28c33 0 59 7 80 22c43 29 66 66 81 119zM282 411l-59 -275c-1 -11 -4 -20 -9 -28c-7 -15 -18 -27 -37 -27c-9 0 -16 3 -20 8
c-7 12 -8 28 -3 47l59 275c1 11 4 20 9 28c7 15 18 28 37 28c9 0 16 -3 20 -8c7 -11 8 -27 3 -48zM360 334l17 80c1 3 3 7 5 13c1 5 4 11 8 17c7 12 20 23 36 23c9 0 16 -3 20 -8c8 -12 8 -27 4 -48l-17 -77h-73z" />
    <glyph glyph-name="p" unicode="p" horiz-adv-x="335" 
d="M156 547l-156 -735h101l47 224c7 -8 14 -15 21 -22c13 -11 31 -22 50 -22c28 0 49 16 68 37c16 20 28 47 33 70l74 349c5 23 4 50 -3 71c-9 20 -25 36 -53 36c-10 0 -20 -2 -29 -7c-23 -9 -39 -21 -60 -37l8 36h-101zM166 120l65 307c4 19 22 33 37 33s24 -14 20 -33
l-65 -307c-4 -19 -19 -33 -34 -33s-26 17 -23 33z" />
    <glyph glyph-name="q" unicode="q" horiz-adv-x="335" 
d="M255 -188l156 735h-101l-8 -36c-7 8 -14 15 -21 22c-13 11 -31 22 -50 22c-28 0 -50 -16 -66 -36c-19 -21 -29 -48 -34 -71l-74 -349c-5 -23 -5 -50 4 -70c7 -21 23 -37 51 -37c10 0 20 2 30 7c21 9 39 21 59 37l-47 -224h101zM284 427l-65 -307c-3 -16 -22 -33 -37 -33
s-24 14 -20 33l65 307c4 19 19 33 34 33s27 -14 23 -33z" />
    <glyph glyph-name="r" unicode="r" horiz-adv-x="246" 
d="M336 443l23 112c-37 0 -64 -14 -83 -29c-19 -16 -29 -33 -32 -40l13 61h-101l-116 -547h101l80 380c4 17 10 34 33 50c19 15 39 17 55 17c10 0 19 -1 27 -4z" />
    <glyph glyph-name="s" unicode="s" horiz-adv-x="308" 
d="M279 407h94c7 31 12 69 1 98s-39 51 -99 50c-48 -1 -83 -22 -108 -50c-25 -29 -39 -66 -46 -98c-8 -40 -2 -70 10 -97c13 -27 31 -48 50 -71c25 -31 50 -64 43 -97c-7 -32 -20 -66 -49 -66c-21 0 -29 14 -33 31c-3 16 0 37 3 52h-94c-7 -29 -11 -70 2 -105
s43 -62 104 -62c48 0 84 21 111 50c27 28 42 65 50 100c7 36 1 67 -10 95c-11 27 -31 51 -48 72c-13 15 -25 31 -34 47s-15 34 -11 51c3 13 7 30 15 42c7 12 17 22 30 22c16 0 21 -10 24 -22c1 -13 -2 -29 -5 -42z" />
    <glyph glyph-name="germandbls" unicode="&#xdf;" horiz-adv-x="358" 
d="M285 547l-15 -69c20 0 36 -7 40 -35c2 -14 2 -34 -1 -59c-3 -26 -10 -60 -19 -103c-17 -80 -32 -127 -48 -154c-15 -27 -34 -33 -54 -33l-19 -94c52 0 94 9 131 49c36 40 66 111 91 232c16 73 20 126 15 165s-18 60 -38 73c31 20 53 49 61 85c8 37 4 73 -11 98
c-16 25 -47 41 -92 41c-48 0 -84 -17 -112 -42c-29 -25 -46 -61 -54 -98l-128 -603h101l128 603c5 27 21 50 46 50c29 0 39 -22 32 -49c-8 -35 -31 -57 -54 -57z" />
    <glyph glyph-name="t" unicode="t" horiz-adv-x="245" 
d="M306 682h-101l-28 -135h-51l-20 -91h51l-59 -280c-7 -32 -17 -77 -10 -116s27 -68 87 -68c16 0 29 1 39 3c3 1 6 1 9 2c2 1 4 1 7 2l21 99c-2 -1 -4 -1 -6 -1s-4 0 -6 -1c-7 -1 -18 -2 -26 -2c-16 0 -20 14 -21 33c0 19 5 40 9 57l57 272h69l20 91h-69z" />
    <glyph glyph-name="u" unicode="u" 
d="M312 547l-92 -431c-4 -5 -8 -10 -12 -13c-8 -7 -15 -13 -26 -13c-12 0 -24 3 -19 24l92 433h-101l-95 -448c-5 -23 -5 -50 3 -70c7 -21 23 -37 50 -37c7 0 17 3 29 8c20 11 36 24 51 36c7 6 11 9 13 10l-9 -46h101l116 547h-101z" />
    <glyph glyph-name="uacute" unicode="&#xfa;" 
d="M445 727h-105l-71 -90h78zM312 547l-92 -431c-4 -5 -8 -10 -12 -13c-8 -7 -15 -13 -26 -13c-12 0 -24 3 -19 24l92 433h-101l-95 -448c-5 -23 -5 -50 3 -70c7 -21 23 -37 50 -37c7 0 17 3 29 8c20 11 36 24 51 36c7 6 11 9 13 10l-9 -46h101l116 547h-101z" />
    <glyph glyph-name="ucircumflex" unicode="&#xfb;" 
d="M376 727h-107l-88 -90h92l37 35l24 -35h92zM312 547l-92 -431c-4 -5 -8 -10 -12 -13c-8 -7 -15 -13 -26 -13c-12 0 -24 3 -19 24l92 433h-101l-95 -448c-5 -23 -5 -50 3 -70c7 -21 23 -37 50 -37c7 0 17 3 29 8c20 11 36 24 51 36c7 6 11 9 13 10l-9 -46h101l116 547
h-101z" />
    <glyph glyph-name="udieresis" unicode="&#xfc;" 
d="M208 735l-21 -98h93l21 98h-93zM349 735l-21 -98h93l21 98h-93zM312 547l-92 -431c-4 -5 -8 -10 -12 -13c-8 -7 -15 -13 -26 -13c-12 0 -24 3 -19 24l92 433h-101l-95 -448c-5 -23 -5 -50 3 -70c7 -21 23 -37 50 -37c7 0 17 3 29 8c20 11 36 24 51 36c7 6 11 9 13 10
l-9 -46h101l116 547h-101z" />
    <glyph glyph-name="ugrave" unicode="&#xf9;" 
d="M314 727h-105l60 -90h78zM312 547l-92 -431c-4 -5 -8 -10 -12 -13c-8 -7 -15 -13 -26 -13c-12 0 -24 3 -19 24l92 433h-101l-95 -448c-5 -23 -5 -50 3 -70c7 -21 23 -37 50 -37c7 0 17 3 29 8c20 11 36 24 51 36c7 6 11 9 13 10l-9 -46h101l116 547h-101z" />
    <glyph glyph-name="v" unicode="v" horiz-adv-x="294" 
d="M97 0h100l205 547h-98l-101 -317l-11 -35h-8l3 35l35 317h-98z" />
    <glyph glyph-name="w" unicode="w" horiz-adv-x="442" 
d="M267 0h84l197 547h-92l-93 -286l-11 -31h-6l2 31l19 286h-60l-103 -286l-12 -31h-6l3 31l29 286h-92l-35 -547h84l94 261l12 31h4l-2 -31z" />
    <glyph glyph-name="x" unicode="x" horiz-adv-x="302" 
d="M161 282l-153 -282h98l70 138l6 15h2v-15l12 -138h98l-35 282l143 265h-95l-63 -128l-7 -15h-2l1 15l-9 128h-95z" />
    <glyph glyph-name="y" unicode="y" horiz-adv-x="310" 
d="M-6 -104l-19 -90c12 -1 24 -2 32 -2h12c40 0 75 20 106 49s52 67 67 106l222 588h-99l-112 -336l-8 -28h-4l4 28l32 336h-99l-27 -563c-2 -11 -5 -21 -10 -30c-11 -22 -26 -39 -44 -50c-19 -12 -43 -10 -47 -9c-3 0 -5 0 -6 1z" />
    <glyph glyph-name="ydieresis" unicode="&#xff;" horiz-adv-x="310" 
d="M194 735l-21 -98h93l21 98h-93zM335 735l-21 -98h93l21 98h-93zM-6 -104l-19 -90c12 -1 24 -2 32 -2h12c40 0 75 20 106 49s52 67 67 106l222 588h-99l-112 -336l-8 -28h-4l4 28l32 336h-99l-27 -563c-2 -11 -5 -21 -10 -30c-11 -22 -26 -39 -44 -50
c-19 -12 -43 -10 -47 -9c-3 0 -5 0 -6 1z" />
    <glyph glyph-name="z" unicode="z" horiz-adv-x="260" 
d="M23 82l-17 -82h246l19 92h-139l218 373l18 82h-224l-20 -92h117z" />
    <glyph glyph-name="fi" unicode="&#xfb01;" horiz-adv-x="377" 
d="M236 0h101l116 547h-175l3 14c1 3 1 7 2 11s2 9 3 14c2 11 5 21 10 30c9 19 22 35 45 35c9 0 16 0 23 -1c12 -1 25 -4 30 -5l19 90c-3 1 -7 1 -11 2c-4 0 -8 0 -11 1c-12 3 -30 4 -49 4c-64 0 -100 -29 -123 -68c-24 -39 -32 -84 -39 -112l-3 -15h-51l-20 -91h51
l-96 -456h101l96 456h74z" />
    <glyph glyph-name="fl" unicode="&#xfb02;" horiz-adv-x="377" 
d="M236 0h101l156 735h-80c-3 1 -7 1 -11 2c-4 0 -8 0 -11 1c-12 3 -30 4 -49 4c-64 0 -100 -29 -123 -68c-24 -39 -32 -84 -39 -112l-3 -15h-51l-20 -91h51l-96 -456h101l96 456h51l20 91h-51l3 14c1 3 1 7 2 11s2 9 3 14c2 11 5 21 10 30c9 19 22 35 45 35
c15 0 24 -1 32 -2z" />
    <glyph glyph-name="zero" unicode="0" horiz-adv-x="354" 
d="M353 151l92 433c5 31 5 57 -2 79c-4 20 -14 40 -31 55s-42 25 -78 25s-66 -10 -89 -25s-39 -35 -54 -55c-16 -24 -27 -50 -34 -79l-92 -433c-6 -31 -6 -57 1 -80c4 -20 13 -39 30 -54c18 -17 44 -25 79 -25s64 8 88 25c23 15 40 34 55 54c15 23 27 50 35 80zM337 584
l-92 -433c-3 -12 -7 -21 -10 -27c-7 -15 -19 -27 -38 -27c-9 0 -15 3 -19 8c-8 11 -10 27 -5 46l92 433c2 10 5 19 9 27c7 13 19 27 38 27c9 0 16 -3 20 -8c7 -11 9 -26 5 -46z" />
    <glyph glyph-name="one" unicode="1" horiz-adv-x="232" 
d="M134 576h72l-122 -576h108l156 735h-65c-9 -13 -20 -26 -32 -38c-24 -20 -55 -43 -102 -52z" />
    <glyph glyph-name="two" unicode="2" horiz-adv-x="357" 
d="M136 502h108l11 51c5 25 12 46 20 63c9 16 20 27 35 27c16 0 21 -13 24 -30c1 -17 -3 -40 -7 -60c-11 -45 -34 -95 -62 -146c-29 -52 -60 -100 -93 -145c-39 -52 -79 -104 -123 -155l-22 -107h293l22 107h-171c39 47 95 122 150 206c53 84 100 171 116 247
c5 25 8 49 8 72c0 22 -4 41 -11 58c-15 32 -47 53 -103 53c-60 0 -99 -23 -128 -58c-28 -35 -45 -83 -56 -132z" />
    <glyph glyph-name="three" unicode="3" horiz-adv-x="335" 
d="M182 332h9c23 -1 39 -5 50 -13c20 -15 22 -40 14 -76c-3 -9 -5 -19 -7 -30c-4 -21 -10 -44 -15 -65c-3 -11 -6 -21 -9 -30c-8 -19 -20 -31 -37 -31c-13 0 -21 6 -22 26c-3 19 1 50 12 99h-106c-2 -10 -4 -21 -6 -33c-5 -24 -7 -49 -7 -73c0 -13 1 -24 4 -35
c9 -45 37 -79 105 -79c23 0 44 4 61 13c35 17 60 46 79 78s31 63 36 84c3 12 5 19 5 21c9 43 15 82 14 118c-1 35 -12 64 -33 84l2 1c40 33 70 85 93 194c1 4 3 17 4 33c1 15 0 34 -5 53c-11 37 -38 72 -106 72s-108 -34 -135 -78c-28 -45 -41 -101 -49 -142h106
c11 49 19 80 28 100c8 19 17 25 30 25c17 0 23 -13 23 -32s-4 -42 -9 -63c-3 -11 -5 -22 -7 -32c-4 -20 -8 -47 -21 -66c-13 -21 -35 -30 -82 -33z" />
    <glyph glyph-name="four" unicode="4" horiz-adv-x="334" 
d="M213 160l-34 -160h99l34 160h50l20 95h-50l102 480h-108l-260 -480l-20 -95h167zM158 255l112 230l10 22h6l-53 -252h-75z" />
    <glyph glyph-name="five" unicode="5" horiz-adv-x="344" 
d="M283 348l-34 -164c-4 -19 -8 -34 -12 -47c-9 -25 -19 -51 -42 -51c-13 0 -20 7 -22 22c-2 13 1 38 10 77l6 29h-108c-11 -49 -21 -104 -10 -147c9 -44 36 -75 104 -75c65 0 107 31 135 71c27 39 39 86 47 121l34 164c3 12 9 50 1 85c-9 35 -32 67 -88 67
c-7 1 -15 0 -23 -3c-16 -5 -30 -13 -45 -22l33 153h168l23 107h-261l-83 -387h91c3 8 9 22 20 34c11 11 22 20 34 20c23 0 29 -23 22 -54z" />
    <glyph glyph-name="six" unicode="6" horiz-adv-x="342" 
d="M346 151l31 150c5 20 11 60 2 93s-33 62 -89 62c-19 0 -36 -7 -57 -18l27 131c5 27 12 47 20 61c7 13 17 19 30 19c15 0 23 -9 23 -26c0 -19 -5 -51 -16 -100h108l9 46c7 25 14 70 3 107c-11 36 -39 67 -107 67s-108 -31 -135 -67c-27 -37 -36 -82 -43 -107l-88 -418
c-4 -17 -11 -57 1 -92c11 -36 39 -67 106 -67c65 0 107 31 134 67c27 35 37 75 41 92zM165 119l47 223c4 11 17 30 40 30s27 -24 26 -33l-47 -220c-3 -9 -17 -33 -40 -33c-12 0 -19 6 -23 13s-4 16 -3 20z" />
    <glyph glyph-name="seven" unicode="7" horiz-adv-x="288" 
d="M299 628l-243 -628h112l241 627l23 108h-272l-23 -107h162z" />
    <glyph glyph-name="eight" unicode="8" horiz-adv-x="340" 
d="M347 157l18 86c12 56 6 110 -25 145c40 33 68 84 79 135l13 62c1 4 4 17 5 33c0 15 0 34 -5 53c-11 37 -37 72 -105 72c-34 0 -61 -7 -82 -22c-42 -29 -69 -69 -79 -103c-5 -17 -9 -28 -10 -33l-13 -62c-11 -51 -6 -102 21 -135c-44 -35 -75 -89 -87 -145l-18 -86
c-3 -7 -5 -27 -5 -51c0 -25 6 -52 22 -75s45 -39 92 -39c23 0 44 4 62 11c35 15 62 39 79 65s28 51 33 70c2 9 4 16 5 19zM318 547c-5 -19 -9 -36 -12 -50c-8 -28 -16 -61 -44 -61c-29 0 -21 32 -16 63c4 31 12 65 21 94c8 29 16 55 40 55c15 0 22 -8 22 -25
c-1 -17 -4 -41 -11 -76zM251 200c-3 -17 -7 -33 -11 -46c-8 -27 -14 -63 -51 -63c-29 0 -27 29 -23 61s12 69 21 104s14 74 53 74c18 0 27 -11 27 -32c-3 -21 -7 -54 -16 -98z" />
    <glyph glyph-name="nine" unicode="9" horiz-adv-x="342" 
d="M152 584l-31 -143c-4 -20 -11 -60 -2 -93s33 -62 89 -62c19 0 37 7 58 18l-29 -138c-6 -29 -12 -49 -19 -61c-8 -13 -18 -19 -31 -19c-15 0 -23 9 -23 26c0 19 6 51 17 100h-108l-10 -46c-7 -27 -14 -70 -3 -106c11 -37 39 -68 107 -68s108 31 135 68c27 36 36 79 43 106
l89 418c3 17 10 57 -2 93c-11 35 -41 66 -106 66c-68 0 -107 -31 -134 -66c-27 -36 -37 -76 -40 -93zM332 616l-45 -216c-4 -11 -17 -30 -40 -30s-29 24 -26 33l45 213c3 9 17 33 40 33c25 0 27 -24 26 -33z" />
    <glyph glyph-name="asterisk" unicode="*" horiz-adv-x="331" 
d="M284 735l-10 -86l-72 34l-37 -72l81 -17l-70 -67l55 -39l53 74l22 -74l73 39l-42 67l87 17l-5 72l-88 -34l28 86h-75z" />
    <glyph glyph-name="backslash" unicode="\" horiz-adv-x="387" 
d="M364 -88l-106 914h-79l103 -914h82z" />
    <glyph glyph-name="bullet" unicode="&#x2022;" horiz-adv-x="324" 
d="M124 399c-7 -35 -1 -64 18 -87c17 -23 44 -36 79 -36c17 0 33 3 50 10c32 12 59 36 78 65s39 87 3 134c-19 23 -46 35 -79 35c-35 0 -67 -12 -94 -35s-48 -53 -55 -86z" />
    <glyph glyph-name="colon" unicode=":" horiz-adv-x="177" 
d="M152 547l-24 -111h105l24 111h-105zM59 111l-23 -111h105l23 111h-105z" />
    <glyph glyph-name="comma" unicode="," horiz-adv-x="151" 
d="M127 0l23 111h-105l-23 -111h35l-62 -130h49z" />
    <glyph glyph-name="ellipsis" unicode="&#x2026;" horiz-adv-x="471" 
d="M49 111l-23 -111h105l23 111h-105zM206 111l-23 -111h105l23 111h-105zM363 111l-23 -111h105l23 111h-105z" />
    <glyph glyph-name="exclam" unicode="!" horiz-adv-x="189" 
d="M192 735l-87 -537h63l141 537h-117zM65 111l-23 -111h105l23 111h-105z" />
    <glyph glyph-name="exclamdown" unicode="&#xa1;" horiz-adv-x="189" 
d="M158 547l-24 -111h105l24 111h-105zM137 349l-140 -537h116l87 537h-63z" />
    <glyph glyph-name="numbersign" unicode="#" horiz-adv-x="602" 
d="M102 309l-33 -95h97l-74 -214h96l74 214h127l-74 -214h96l74 214h93l33 95h-93l45 126h94l33 95h-94l72 205h-96l-72 -205h-127l72 205h-96l-72 -205h-96l-33 -95h96l-45 -126h-97zM295 309l45 126h127l-45 -126h-127z" />
    <glyph glyph-name="period" unicode="." horiz-adv-x="157" 
d="M49 111l-23 -111h105l23 111h-105z" />
    <glyph glyph-name="periodcentered" unicode="&#xb7;" horiz-adv-x="105" 
d="M90 428l-23 -111h105l23 111h-105z" />
    <glyph glyph-name="question" unicode="?" horiz-adv-x="315" 
d="M145 198h93l26 125c4 19 10 36 17 53c15 32 34 60 53 84c11 11 18 21 26 32c29 36 53 66 62 107c4 20 7 53 -4 84c-12 31 -40 55 -96 56c-47 1 -86 -22 -117 -49c-31 -28 -54 -59 -63 -75l79 -41c4 9 15 28 30 44c15 15 30 27 49 27c15 0 22 -7 25 -18s1 -21 -2 -28
c-6 -13 -19 -32 -38 -55c-20 -25 -43 -53 -64 -89c-20 -36 -39 -79 -50 -132zM120 111l-23 -111h105l23 111h-105z" />
    <glyph glyph-name="questiondown" unicode="&#xbf;" horiz-adv-x="315" 
d="M310 436l24 111h-105l-24 -111h105zM286 349h-93l-27 -125c-4 -19 -10 -36 -17 -52c-15 -33 -33 -61 -52 -84c-5 -6 -9 -12 -14 -17s-9 -11 -13 -16c-14 -18 -27 -35 -38 -51c-23 -33 -27 -63 -27 -93c0 -15 3 -31 9 -46c11 -31 39 -56 95 -57c44 -1 86 22 117 50
c31 27 51 58 62 74l-78 41c-3 -5 -7 -12 -12 -20s-11 -16 -18 -23c-15 -16 -32 -28 -49 -28c-7 0 -13 2 -16 6c-8 7 -10 19 -10 28c0 5 1 9 2 12c6 13 19 32 38 55c20 25 43 53 64 89c20 36 39 79 50 132z" />
    <glyph glyph-name="quotedbl" unicode="&#x22;" horiz-adv-x="271" 
d="M205 734h105l-72 -269h-75zM337 734h105l-72 -269h-75z" />
    <glyph glyph-name="quotesingle" unicode="'" horiz-adv-x="151" 
d="M142 466h75l72 269h-105z" />
    <glyph glyph-name="semicolon" unicode=";" horiz-adv-x="177" 
d="M152 547l-24 -111h105l24 111h-105zM141 0l23 111h-105l-23 -111h35l-63 -130h50z" />
    <glyph glyph-name="slash" unicode="/" horiz-adv-x="352" 
d="M425 735l-436 -807h81l434 807h-79z" />
    <glyph glyph-name="underscore" unicode="_" horiz-adv-x="591" 
d="M20 -75l-18 -84h519l18 84h-519z" />
    <glyph glyph-name="braceleft" unicode="{" horiz-adv-x="336" 
d="M448 659l17 84c-76 1 -132 -6 -172 -33c-39 -27 -64 -71 -80 -147l-41 -194c-1 -3 -3 -9 -6 -16c-3 -8 -8 -16 -14 -23c-13 -16 -32 -29 -59 -29l-17 -80c27 -1 39 -15 46 -30c7 -16 7 -31 4 -38l-41 -194c-16 -76 -11 -120 18 -147c28 -27 79 -34 158 -33l17 84
c-43 0 -71 3 -87 18s-19 38 -10 78l41 194c11 52 -4 83 -39 108c44 24 74 55 85 108l41 194c9 40 21 63 44 78s52 18 95 18z" />
    <glyph glyph-name="braceright" unicode="}" horiz-adv-x="336" 
d="M320 369l41 194c16 76 12 120 -17 147c-28 27 -80 34 -159 33l-17 -84c43 0 71 -3 87 -18s19 -38 10 -78l-41 -194c-11 -53 4 -84 39 -108c-44 -25 -74 -56 -85 -108l-41 -194c-9 -40 -21 -63 -44 -78s-51 -18 -94 -18l-17 -84c76 -1 132 6 172 33c39 27 63 71 79 147
l41 194c3 7 8 22 20 38c12 15 31 29 58 30l17 80c-27 0 -40 13 -45 29c-7 15 -7 32 -4 39z" />
    <glyph glyph-name="bracketleft" unicode="[" horiz-adv-x="263" 
d="M370 639l21 96h-195l-179 -839h195l21 96h-99l137 647h99z" />
    <glyph glyph-name="bracketright" unicode="]" horiz-adv-x="263" 
d="M184 735l-21 -96h99l-137 -647h-99l-21 -96h195l179 839h-195z" />
    <glyph glyph-name="parenleft" unicode="(" horiz-adv-x="274" 
d="M410 735l-71 41c-35 -43 -69 -88 -101 -137c-27 -43 -55 -91 -80 -146c-25 -56 -47 -115 -60 -178s-18 -122 -15 -177c5 -113 25 -199 61 -283l87 41c-33 71 -49 148 -53 249c-5 101 25 238 73 341c47 103 95 180 159 249z" />
    <glyph glyph-name="parenright" unicode=")" horiz-adv-x="274" 
d="M263 776l-87 -41c15 -35 27 -74 38 -117c15 -76 25 -178 -2 -303c-13 -64 -32 -119 -56 -170c-48 -103 -97 -181 -158 -249l70 -41c35 42 69 87 100 136c27 41 55 91 80 147c25 55 47 114 60 177c14 62 19 121 16 178c-7 112 -26 199 -61 283z" />
    <glyph glyph-name="emdash" unicode="&#x2014;" horiz-adv-x="475" 
d="M123 412l-20 -95h403l20 95h-403z" />
    <glyph glyph-name="endash" unicode="&#x2013;" horiz-adv-x="394" 
d="M123 412l-20 -95h322l20 95h-322z" />
    <glyph glyph-name="hyphen" unicode="-" horiz-adv-x="217" 
d="M103 317l-20 -95h145l20 95h-145z" />
    <glyph glyph-name="quotedblbase" unicode="&#x201e;" horiz-adv-x="305" 
d="M131 0l23 111h-105l-23 -111h35l-62 -130h49zM279 0l23 111h-105l-23 -111h35l-63 -130h50z" />
    <glyph glyph-name="quotedblleft" unicode="&#x201c;" horiz-adv-x="305" 
d="M154 605l-23 -111h105l23 111h-35l63 130h-50zM302 605l-23 -111h105l23 111h-35l63 130h-50z" />
    <glyph glyph-name="quotedblright" unicode="&#x201d;" horiz-adv-x="305" 
d="M263 624l24 111h-105l-24 -111h35l-62 -130h50zM411 624l24 111h-105l-24 -111h35l-62 -130h50z" />
    <glyph glyph-name="quoteleft" unicode="&#x2018;" horiz-adv-x="151" 
d="M152 605l-23 -111h105l23 111h-35l63 130h-50z" />
    <glyph glyph-name="quoteright" unicode="&#x2019;" horiz-adv-x="151" 
d="M259 624l24 111h-105l-24 -111h35l-62 -130h50z" />
    <glyph glyph-name="quotesinglbase" unicode="&#x201a;" horiz-adv-x="151" 
d="M127 0l23 111h-105l-23 -111h35l-62 -130h49z" />
    <glyph glyph-name="Euro" unicode="&#x20ac;" horiz-adv-x="397" 
d="M125 468l-14 -67h52l-15 -67h-52l-14 -67h52l-24 -116c-6 -31 -6 -57 1 -80c4 -20 13 -39 30 -54c18 -17 44 -25 79 -25s64 8 88 25c23 15 40 34 55 54c15 23 27 50 35 80l8 41h-101l-8 -41c-3 -12 -7 -21 -10 -27c-8 -15 -20 -27 -43 -27c-9 0 -15 3 -19 8
c-8 11 -10 27 -7 46l24 116h114l14 67h-114l15 67h114l14 67h-114l25 116c3 11 7 20 10 27c8 13 20 27 39 27c11 0 19 -3 23 -8c9 -11 11 -27 7 -46l-9 -41h101l9 41c5 31 5 57 -2 79c-4 20 -14 40 -31 55s-42 25 -78 25s-66 -10 -89 -25s-39 -35 -54 -55
c-16 -24 -27 -50 -34 -79l-25 -116h-52z" />
    <glyph glyph-name="cent" unicode="&#xa2;" horiz-adv-x="311" 
d="M356 765h-60l-25 -118c-63 -9 -113 -53 -136 -160l-51 -239c-23 -108 9 -152 68 -161l-31 -147h60l31 148c64 9 103 51 126 155l11 53h-92l-16 -76c-7 -33 -22 -44 -45 -44c-27 0 -30 24 -26 44l63 295c4 20 17 44 44 44c23 0 34 -11 27 -44l-14 -66h92l9 43
c21 101 0 143 -60 154z" />
    <glyph glyph-name="dollar" unicode="$" horiz-adv-x="338" 
d="M368 795h-60l-13 -64c-21 -5 -40 -13 -56 -24c-32 -23 -54 -54 -68 -89c-14 -36 -24 -75 -20 -115s17 -76 34 -111c16 -35 30 -59 45 -86c3 -7 6 -13 9 -20l9 -21c5 -14 9 -28 12 -42c4 -29 -5 -73 -25 -105c-11 -17 -24 -28 -41 -28c-23 0 -34 11 -41 28
c-7 16 -7 39 -3 63l-95 -6c-8 -42 -6 -79 6 -111c13 -31 36 -53 79 -61l-23 -108h60l23 106c47 5 80 29 107 62c27 32 42 74 51 118c4 21 7 42 4 62c-5 39 -18 75 -34 110c-5 9 -9 17 -12 25c-4 8 -8 16 -12 23c-15 25 -28 53 -39 81c-11 27 -17 56 -10 84c4 20 12 39 21 54
s21 25 37 25c31 1 35 -28 32 -61l96 12c3 33 1 66 -11 91c-13 25 -35 43 -74 47z" />
    <glyph glyph-name="sterling" unicode="&#xa3;" horiz-adv-x="399" 
d="M365 547h104c11 49 13 99 -3 136c-17 36 -51 61 -118 60c-56 -1 -94 -25 -125 -60s-49 -81 -57 -122c-9 -41 -3 -103 2 -167l1 -10h-72l-14 -67h92c3 -31 2 -60 -3 -85c-7 -28 -20 -66 -39 -97c-17 -3 -33 -10 -49 -22c-29 -22 -55 -49 -76 -82l63 -39c5 9 11 17 19 25
c12 12 28 25 47 25s38 -13 58 -25c21 -12 41 -25 65 -25c64 0 127 62 162 186l-89 11c-9 -34 -18 -58 -29 -71s-21 -21 -31 -22c-12 1 -22 5 -29 11c-8 6 -18 12 -30 18c13 19 24 39 33 58c17 39 27 67 24 134h85l14 67h-103v12c-5 56 -11 112 1 165c4 19 10 39 21 55
s24 27 40 27c22 0 35 -10 39 -29s2 -43 -3 -67z" />
    <glyph glyph-name="yen" unicode="&#xa5;" horiz-adv-x="352" 
d="M85 233l-14 -67h86l-35 -166h108l35 166h86l14 67h-86l14 67h86l15 67h-72l174 368h-106l-104 -235l-5 -7h-2l-1 7l-4 235h-106l18 -368h-72l-15 -67h86l-14 -67h-86z" />
    <glyph glyph-name="asciitilde" unicode="~" horiz-adv-x="625" 
d="M195 660l60 -28c9 17 20 31 32 44c21 23 50 44 85 44c31 0 55 -17 79 -36c35 -25 66 -49 122 -49c27 0 53 8 76 23c47 31 81 71 116 128l-60 28c-11 -17 -21 -32 -33 -45c-20 -23 -48 -44 -79 -44s-55 16 -78 35c-9 6 -17 12 -25 18c-9 6 -18 11 -27 16
c-20 9 -43 16 -72 16s-55 -8 -80 -23c-48 -32 -85 -71 -116 -127z" />
    <glyph glyph-name="equal" unicode="=" horiz-adv-x="517" 
d="M143 506l-18 -84h445l18 84h-445zM103 317l-18 -84h445l18 84h-445z" />
    <glyph glyph-name="greater" unicode="&#x3e;" horiz-adv-x="517" 
d="M548 317l16 78l-395 232l-21 -97l304 -174l-378 -174l-20 -97z" />
    <glyph glyph-name="less" unicode="&#x3c;" horiz-adv-x="517" 
d="M119 395l-16 -78l396 -232l20 97l-304 174l378 174l21 97z" />
    <glyph glyph-name="percent" unicode="%" horiz-adv-x="489" 
d="M276 445l45 213c3 17 3 31 -1 42c-7 21 -19 43 -58 43c-20 0 -36 -4 -47 -13c-25 -19 -42 -40 -49 -72l-45 -213c-4 -17 -4 -31 0 -43c7 -23 20 -43 60 -43c20 0 36 4 47 13c23 17 40 40 48 73zM77 0h67l423 735h-64zM261 658l-45 -213c-3 -11 -8 -27 -23 -27
c-17 0 -15 16 -12 27l45 213c0 3 1 8 4 13c5 7 9 14 20 14c5 0 8 -1 9 -4c3 -7 4 -14 2 -23zM479 77l45 213c3 17 3 31 -1 43c-7 21 -19 43 -58 43c-20 0 -36 -4 -47 -13c-25 -19 -42 -41 -49 -73l-45 -213c-4 -17 -4 -31 0 -43c7 -21 20 -42 60 -42c20 0 36 4 47 13
c23 17 40 39 48 72zM464 290l-45 -213c-1 -9 -8 -17 -12 -23c-3 -3 -6 -5 -11 -5s-9 2 -10 5c-4 6 -5 14 -2 23l45 213c0 3 1 8 4 13c4 7 9 14 20 14c5 0 8 -1 9 -4c3 -7 4 -14 2 -23z" />
    <glyph glyph-name="plus" unicode="+" horiz-adv-x="518" 
d="M121 401l-18 -84h181l-36 -169h84l36 169h181l18 84h-181l36 169h-84l-36 -169h-181z" />
    <glyph glyph-name="ampersand" unicode="&#x26;" horiz-adv-x="417" 
d="M464 319l-82 16c-7 -17 -24 -66 -45 -103c-13 28 -26 66 -43 139c37 38 69 75 96 111c53 72 59 134 52 181c-3 20 -10 40 -25 55c-16 15 -40 25 -73 25c-34 0 -62 -8 -83 -25c-43 -33 -68 -75 -83 -135c-16 -77 -13 -144 7 -216c-56 -64 -110 -129 -129 -213
c-9 -44 -1 -82 18 -113c20 -31 53 -49 96 -49c45 0 93 27 137 68c17 -24 50 -53 75 -64c5 -3 10 -4 13 -4l24 115c-3 1 -8 4 -14 11c-7 5 -14 14 -23 26c23 32 41 69 56 101c13 32 23 61 26 74zM349 586c-8 -39 -43 -86 -75 -123c-4 23 -7 42 -7 61c-1 37 5 73 16 96
c8 19 22 37 43 37c11 0 18 -4 22 -11c7 -13 8 -33 1 -60zM265 128c-24 -24 -43 -42 -70 -42c-28 0 -41 31 -34 70s22 84 49 116c19 -57 36 -101 55 -144z" />
    <glyph glyph-name="at" unicode="@" horiz-adv-x="426" 
d="M439 195l82 387c5 24 5 64 -15 99c-21 35 -61 62 -134 62s-124 -27 -159 -62s-53 -75 -58 -99l-92 -434c-5 -23 -4 -62 17 -95c20 -33 60 -61 133 -61c84 0 136 34 171 70l-65 42c-21 -20 -46 -31 -89 -31c-37 0 -57 13 -68 29c-11 15 -12 34 -9 46l92 434
c3 11 12 30 29 47c19 16 44 30 81 30s57 -14 68 -30c11 -17 11 -36 8 -47l-4 -22c-3 7 -6 11 -10 16c-7 8 -19 17 -38 17c-53 0 -80 -38 -89 -83l-50 -237c-11 -47 0 -84 53 -84c9 0 17 2 26 5c15 7 25 15 36 28l4 -27h80zM414 502l-47 -222c-3 -17 -13 -26 -30 -26
c-15 0 -21 9 -17 26l47 222c4 17 14 26 29 26c16 0 22 -9 18 -26z" />
    <glyph glyph-name="bar" unicode="|" horiz-adv-x="174" 
d="M-13 -250h93l229 1076h-94z" />
    <glyph glyph-name="copyright" unicode="&#xa9;" horiz-adv-x="803" 
d="M104 367c-23 -104 0 -197 53 -265c55 -68 138 -110 242 -110s206 42 289 110c84 68 144 161 167 265s1 198 -54 266c-53 68 -139 110 -243 110s-204 -42 -288 -110c-83 -68 -143 -162 -166 -266zM162 367c19 88 70 166 141 225c72 59 155 93 243 93s160 -34 205 -93
c47 -59 65 -137 46 -225s-70 -164 -141 -223s-157 -94 -245 -94s-156 35 -203 94s-65 135 -46 223zM555 299h-67l-13 -61c0 -5 -2 -11 -5 -16c-5 -8 -13 -15 -26 -15c-6 0 -10 2 -12 5c-5 5 -7 14 -5 26l55 259c1 5 3 10 6 15c5 8 13 16 25 16c6 0 11 -2 14 -5
c5 -7 6 -15 3 -26l-13 -61h67l13 61c3 17 2 33 -2 48c-7 24 -22 48 -69 48c-25 0 -44 -5 -59 -15c-29 -20 -48 -45 -56 -81l-55 -259c-4 -17 -4 -33 1 -48c7 -24 25 -48 73 -48c47 0 91 27 112 96z" />
    <glyph glyph-name="registered" unicode="&#xae;" horiz-adv-x="803" 
d="M104 367c-23 -104 0 -197 53 -265c55 -68 138 -110 242 -110s206 42 289 110c84 68 144 161 167 265s1 198 -54 266c-53 68 -139 110 -243 110s-204 -42 -288 -110c-83 -68 -143 -162 -166 -266zM162 367c19 88 70 166 141 225c72 59 155 93 243 93s160 -34 205 -93
c47 -59 65 -137 46 -225s-70 -164 -141 -223s-157 -94 -245 -94s-156 35 -203 94s-65 135 -46 223zM524 582h-96l-91 -429h71l38 178h27l8 -178h74l-11 195c47 33 57 65 66 108c17 80 -6 126 -86 126zM486 519h22c21 0 33 -9 36 -21c4 -12 1 -28 -2 -43s-7 -30 -16 -42
c-9 -13 -24 -20 -45 -20h-22z" />
    <glyph glyph-name="trademark" unicode="&#x2122;" horiz-adv-x="458" 
d="M181 684h51l-60 -283h55l60 283h51l11 51h-157zM389 401h25l84 219l-46 -219h51l71 334h-67l-66 -156h-3v156h-67l-71 -334h50l46 219z" />
    <glyph glyph-name="asciicircum" unicode="^" horiz-adv-x="538" 
d="M482 735h-114l-259 -340h97l203 265l89 -265h97z" />
    <glyph glyph-name="acute" unicode="&#xb4;" horiz-adv-x="500" 
d="M511 727h-105l-71 -90h78z" />
    <glyph glyph-name="breve" unicode="&#x2d8;" horiz-adv-x="500" 
d="M505 683l-43 46c-5 -5 -11 -9 -17 -12c-13 -7 -26 -11 -45 -11s-39 4 -52 23l-63 -46c6 -9 14 -17 24 -24c16 -12 41 -23 76 -23c18 0 34 2 47 7c29 9 52 23 73 40z" />
    <glyph glyph-name="caron" unicode="&#x2c7;" horiz-adv-x="499" 
d="M331 637h107l88 90h-92l-38 -35l-23 35h-92z" />
    <glyph glyph-name="cedilla" unicode="&#xb8;" horiz-adv-x="500" 
d="M265 -123l15 69h-84l-15 -69h31l-33 -65h51z" />
    <glyph glyph-name="circumflex" unicode="&#x2c6;" horiz-adv-x="499" 
d="M457 727h-107l-88 -90h92l37 35l24 -35h92z" />
    <glyph glyph-name="dieresis" unicode="&#xa8;" horiz-adv-x="500" 
d="M289 735l-21 -98h93l21 98h-93zM430 735l-21 -98h93l21 98h-93z" />
    <glyph glyph-name="dotaccent" unicode="&#x2d9;" horiz-adv-x="499" 
d="M355 735l-22 -101h101l22 101h-101z" />
    <glyph glyph-name="grave" unicode="`" horiz-adv-x="500" 
d="M402 727h-105l60 -90h78z" />
    <glyph glyph-name="hungarumlaut" unicode="&#x2dd;" horiz-adv-x="500" 
d="M416 727h-105l-71 -90h78zM564 727h-105l-71 -90h78z" />
    <glyph glyph-name="macron" unicode="&#xaf;" horiz-adv-x="500" 
d="M306 721l-17 -79h194l17 79h-194z" />
    <glyph glyph-name="ogonek" unicode="&#x2db;" horiz-adv-x="500" 
d="M284 0h-48c-15 -9 -29 -20 -40 -31c-21 -19 -41 -44 -48 -72c-11 -45 19 -85 84 -85c17 0 29 2 52 9l23 67c-13 -5 -27 -9 -44 -9c-12 0 -24 3 -32 9s-13 14 -10 29c2 11 7 22 14 33c12 19 28 35 49 50z" />
    <glyph glyph-name="ring" unicode="&#x2da;" horiz-adv-x="499" 
d="M322 694c-9 -41 19 -70 60 -70s80 29 89 70s-18 70 -59 70s-81 -29 -90 -70zM360 694c4 19 25 35 44 35s34 -16 30 -35s-25 -35 -44 -35s-34 16 -30 35z" />
    <glyph glyph-name="tilde" unicode="&#x2dc;" horiz-adv-x="500" 
d="M304 711l-16 -74c3 1 6 3 9 4s6 3 9 4c11 4 23 8 38 8c17 -1 31 -5 43 -10c12 -6 26 -9 41 -9c7 0 14 1 21 3c15 3 27 9 36 16l16 74c-3 -1 -6 -3 -9 -4s-6 -3 -9 -4c-12 -4 -23 -8 -38 -8c-14 1 -28 4 -42 11c-14 5 -28 8 -42 8c-8 0 -15 -1 -21 -3
c-13 -4 -25 -9 -36 -16z" />
    <glyph glyph-name="A" unicode="A" horiz-adv-x="374" 
d="M10 0h105l51 150h104l-11 -150h105l45 735h-132zM298 496l-18 -232h-74l80 232l7 19h6z" />
    <glyph glyph-name="Aacute" unicode="&#xc1;" horiz-adv-x="374" 
d="M489 890h-105l-71 -90h78zM10 0h105l51 150h104l-11 -150h105l45 735h-132zM298 496l-18 -232h-74l80 232l7 19h6z" />
    <glyph glyph-name="Amacron" unicode="&#x100;" horiz-adv-x="374" 
d="M284 909l-17 -79h194l17 79h-194zM10 0h105l51 150h104l-11 -150h105l45 735h-132zM298 496l-18 -232h-74l80 232l7 19h6z" />
    <glyph glyph-name="Aogonek" unicode="&#x104;" horiz-adv-x="374" 
d="M317 0h47l45 735h-132l-267 -735h105l51 150h104l-11 -150h10c-15 -9 -29 -20 -40 -31c-21 -19 -41 -44 -48 -72c-11 -45 19 -85 84 -85c17 0 29 2 52 9l23 67c-13 -5 -27 -9 -44 -9c-12 0 -24 3 -32 9s-13 14 -10 29c2 11 7 22 14 33c12 19 28 35 49 50zM280 264h-74
l80 232l7 19h6l-1 -19z" />
    <glyph glyph-name="Cacute" unicode="&#x106;" horiz-adv-x="346" 
d="M447 915h-105l-71 -90h78zM374 252h-101l-21 -101c-3 -12 -7 -21 -10 -27c-8 -15 -20 -27 -43 -27c-9 0 -15 3 -19 8c-8 11 -10 27 -7 46l92 433c3 11 7 20 10 27c8 13 20 27 39 27c11 0 19 -3 23 -8c9 -11 11 -27 7 -46l-22 -101h101l22 101c5 31 5 57 -2 79
c-4 20 -14 40 -31 55s-42 25 -78 25s-66 -10 -89 -25s-39 -35 -54 -55c-16 -24 -27 -50 -34 -79l-92 -433c-6 -31 -6 -57 1 -80c4 -20 13 -39 30 -54c18 -17 44 -25 79 -25s64 8 88 25c23 15 40 34 55 54c15 23 27 50 35 80z" />
    <glyph glyph-name="Ccaron" unicode="&#x10c;" horiz-adv-x="346" 
d="M296 825h107l88 90h-92l-38 -35l-23 35h-92zM374 252h-101l-21 -101c-3 -12 -7 -21 -10 -27c-8 -15 -20 -27 -43 -27c-9 0 -15 3 -19 8c-8 11 -10 27 -7 46l92 433c3 11 7 20 10 27c8 13 20 27 39 27c11 0 19 -3 23 -8c9 -11 11 -27 7 -46l-22 -101h101l22 101
c5 31 5 57 -2 79c-4 20 -14 40 -31 55s-42 25 -78 25s-66 -10 -89 -25s-39 -35 -54 -55c-16 -24 -27 -50 -34 -79l-92 -433c-6 -31 -6 -57 1 -80c4 -20 13 -39 30 -54c18 -17 44 -25 79 -25s64 8 88 25c23 15 40 34 55 54c15 23 27 50 35 80z" />
    <glyph glyph-name="Ccircumflex" unicode="&#x108;" horiz-adv-x="346" 
d="M422 915h-107l-88 -90h92l37 35l24 -35h92zM374 252h-101l-21 -101c-3 -12 -7 -21 -10 -27c-8 -15 -20 -27 -43 -27c-9 0 -15 3 -19 8c-8 11 -10 27 -7 46l92 433c3 11 7 20 10 27c8 13 20 27 39 27c11 0 19 -3 23 -8c9 -11 11 -27 7 -46l-22 -101h101l22 101
c5 31 5 57 -2 79c-4 20 -14 40 -31 55s-42 25 -78 25s-66 -10 -89 -25s-39 -35 -54 -55c-16 -24 -27 -50 -34 -79l-92 -433c-6 -31 -6 -57 1 -80c4 -20 13 -39 30 -54c18 -17 44 -25 79 -25s64 8 88 25c23 15 40 34 55 54c15 23 27 50 35 80z" />
    <glyph glyph-name="Cdotaccent" unicode="&#x10a;" horiz-adv-x="346" 
d="M320 923l-22 -101h101l22 101h-101zM374 252h-101l-21 -101c-3 -12 -7 -21 -10 -27c-8 -15 -20 -27 -43 -27c-9 0 -15 3 -19 8c-8 11 -10 27 -7 46l92 433c3 11 7 20 10 27c8 13 20 27 39 27c11 0 19 -3 23 -8c9 -11 11 -27 7 -46l-22 -101h101l22 101c5 31 5 57 -2 79
c-4 20 -14 40 -31 55s-42 25 -78 25s-66 -10 -89 -25s-39 -35 -54 -55c-16 -24 -27 -50 -34 -79l-92 -433c-6 -31 -6 -57 1 -80c4 -20 13 -39 30 -54c18 -17 44 -25 79 -25s64 8 88 25c23 15 40 34 55 54c15 23 27 50 35 80z" />
    <glyph glyph-name="Eth" unicode="&#xd0;" horiz-adv-x="372" 
d="M101 431l-23 -111h30l-68 -320h85c100 0 158 20 199 76c40 56 63 147 94 291c31 145 46 236 30 292c-19 56 -67 76 -167 76h-85l-65 -304h-30zM239 431l42 196c37 0 57 -4 60 -39c4 -36 -8 -92 -18 -139c-5 -24 -11 -51 -17 -81c-7 -30 -12 -57 -17 -80
c-10 -48 -24 -107 -41 -140c-19 -36 -41 -40 -78 -40l46 212h41l23 111h-41z" />
    <glyph glyph-name="Dcaron" unicode="&#x10e;" horiz-adv-x="372" 
d="M309 825h107l88 90h-92l-38 -35l-23 35h-92zM40 0h85c100 0 158 20 199 76c40 56 63 147 94 291c31 145 46 236 30 292c-19 56 -67 76 -167 76h-85zM170 108l111 519c37 0 57 -4 60 -39c4 -36 -8 -92 -18 -139c-5 -24 -11 -51 -17 -81c-7 -30 -12 -57 -17 -80
c-10 -48 -24 -107 -41 -140c-19 -36 -41 -40 -78 -40z" />
    <glyph glyph-name="Dcroat" unicode="&#x110;" horiz-adv-x="372" 
d="M281 735h-85l-69 -325h-59l-17 -79h59l-70 -331h85c100 0 158 20 199 76c40 56 63 147 94 291c31 145 46 236 30 292c-19 56 -67 76 -167 76zM170 108l48 223h27l17 79h-27l46 217c37 0 57 -4 60 -39c4 -36 -8 -92 -18 -139c-5 -24 -11 -51 -17 -81
c-7 -30 -12 -57 -17 -80c-10 -48 -24 -107 -41 -140c-19 -36 -41 -40 -78 -40z" />
    <glyph glyph-name="Ebreve" unicode="&#x114;" horiz-adv-x="307" 
d="M450 871l-43 46c-5 -5 -11 -9 -17 -12c-13 -7 -26 -11 -45 -11s-39 4 -52 23l-63 -46c6 -9 14 -17 24 -24c16 -12 41 -23 76 -23c18 0 34 2 47 7c29 9 52 23 73 40zM196 735l-156 -735h247l23 111h-139l43 202h100l25 118h-100l41 193h139l24 111h-247z" />
    <glyph glyph-name="Ecaron" unicode="&#x11a;" horiz-adv-x="307" 
d="M276 825h107l88 90h-92l-38 -35l-23 35h-92zM196 735l-156 -735h247l23 111h-139l43 202h100l25 118h-100l41 193h139l24 111h-247z" />
    <glyph glyph-name="Edotaccent" unicode="&#x116;" horiz-adv-x="307" 
d="M300 923l-22 -101h101l22 101h-101zM196 735l-156 -735h247l23 111h-139l43 202h100l25 118h-100l41 193h139l24 111h-247z" />
    <glyph glyph-name="Emacron" unicode="&#x112;" horiz-adv-x="307" 
d="M251 909l-17 -79h194l17 79h-194zM196 735l-156 -735h247l23 111h-139l43 202h100l25 118h-100l41 193h139l24 111h-247z" />
    <glyph glyph-name="Eogonek" unicode="&#x118;" horiz-adv-x="307" 
d="M241 0h46l23 111h-139l43 202h100l25 118h-100l41 193h139l24 111h-247l-156 -735h153c-15 -9 -29 -20 -40 -31c-21 -19 -41 -44 -48 -72c-11 -45 19 -85 84 -85c17 0 29 2 52 9l23 67c-13 -5 -27 -9 -44 -9c-12 0 -24 3 -32 9s-13 14 -10 29c2 11 7 22 14 33
c12 19 28 35 49 50z" />
    <glyph glyph-name="Gbreve" unicode="&#x11e;" horiz-adv-x="360" 
d="M476 871l-43 46c-5 -5 -11 -9 -17 -12c-13 -7 -26 -11 -45 -11s-39 4 -52 23l-63 -46c6 -9 14 -17 24 -24c16 -12 41 -23 76 -23c18 0 34 2 47 7c29 9 52 23 73 40zM313 471h108l24 113c5 31 5 57 -2 79c-4 20 -14 40 -31 55s-42 25 -78 25s-66 -10 -89 -25
s-39 -35 -54 -55c-16 -24 -27 -50 -34 -79l-92 -433c-8 -31 -10 -57 -5 -80c3 -20 11 -39 26 -54c15 -16 37 -25 72 -25s68 18 93 43l6 -35h64l77 366h-151l-19 -91h43l-28 -133c-3 -12 -7 -21 -10 -27c-7 -15 -19 -27 -38 -27c-9 0 -15 3 -19 8c-8 11 -10 27 -5 46l94 442
c2 10 5 19 9 27c7 13 19 27 38 27c9 0 16 -3 20 -8c7 -11 9 -26 5 -46z" />
    <glyph glyph-name="Gcircumflex" unicode="&#x11c;" horiz-adv-x="360" 
d="M429 915h-107l-88 -90h92l37 35l24 -35h92zM313 471h108l24 113c5 31 5 57 -2 79c-4 20 -14 40 -31 55s-42 25 -78 25s-66 -10 -89 -25s-39 -35 -54 -55c-16 -24 -27 -50 -34 -79l-92 -433c-8 -31 -10 -57 -5 -80c3 -20 11 -39 26 -54c15 -16 37 -25 72 -25s68 18 93 43
l6 -35h64l77 366h-151l-19 -91h43l-28 -133c-3 -12 -7 -21 -10 -27c-7 -15 -19 -27 -38 -27c-9 0 -15 3 -19 8c-8 11 -10 27 -5 46l94 442c2 10 5 19 9 27c7 13 19 27 38 27c9 0 16 -3 20 -8c7 -11 9 -26 5 -46z" />
    <glyph glyph-name="Gcommaaccent" unicode="&#x122;" horiz-adv-x="360" 
d="M313 471h108l24 113c5 31 5 57 -2 79c-4 20 -14 40 -31 55s-42 25 -78 25s-66 -10 -89 -25s-39 -35 -54 -55c-16 -24 -27 -50 -34 -79l-92 -433c-8 -31 -10 -57 -5 -80c3 -20 11 -39 26 -54c15 -16 37 -25 72 -25s68 18 93 43l6 -35h64l77 366h-151l-19 -91h43l-28 -133
c-3 -12 -7 -21 -10 -27c-7 -15 -19 -27 -38 -27c-9 0 -15 3 -19 8c-8 11 -10 27 -5 46l94 442c2 10 5 19 9 27c7 13 19 27 38 27c9 0 16 -3 20 -8c7 -11 9 -26 5 -46zM188 -123l15 69h-84l-15 -69h31l-33 -65h51z" />
    <glyph glyph-name="Gdotaccent" unicode="&#x120;" horiz-adv-x="360" 
d="M327 923l-22 -101h101l22 101h-101zM313 471h108l24 113c5 31 5 57 -2 79c-4 20 -14 40 -31 55s-42 25 -78 25s-66 -10 -89 -25s-39 -35 -54 -55c-16 -24 -27 -50 -34 -79l-92 -433c-8 -31 -10 -57 -5 -80c3 -20 11 -39 26 -54c15 -16 37 -25 72 -25s68 18 93 43l6 -35
h64l77 366h-151l-19 -91h43l-28 -133c-3 -12 -7 -21 -10 -27c-7 -15 -19 -27 -38 -27c-9 0 -15 3 -19 8c-8 11 -10 27 -5 46l94 442c2 10 5 19 9 27c7 13 19 27 38 27c9 0 16 -3 20 -8c7 -11 9 -26 5 -46z" />
    <glyph glyph-name="Hbar" unicode="&#x126;" horiz-adv-x="380" 
d="M496 548l17 79h-40l23 108h-108l-23 -108h-84l23 108h-108l-23 -108h-39l-17 -79h39l-116 -548h108l68 320h84l-68 -320h108l116 548h40zM348 548l-25 -117h-84l25 117h84z" />
    <glyph glyph-name="Hcircumflex" unicode="&#x124;" horiz-adv-x="380" 
d="M439 915h-107l-88 -90h92l37 35l24 -35h92zM300 320l-68 -320h108l156 735h-108l-65 -304h-84l65 304h-108l-156 -735h108l68 320h84z" />
    <glyph glyph-name="IJ" unicode="&#x132;" horiz-adv-x="395" 
d="M196 735l-156 -735h108l156 735h-108zM215 99l-23 -106c64 -4 108 12 139 39s49 64 57 104l128 599h-108l-124 -582c-4 -18 -10 -30 -17 -36c-14 -15 -31 -21 -52 -18z" />
    <glyph glyph-name="Ibreve" unicode="&#x12c;" horiz-adv-x="188" 
d="M390 871l-43 46c-5 -5 -11 -9 -17 -12c-13 -7 -26 -11 -45 -11s-39 4 -52 23l-63 -46c6 -9 14 -17 24 -24c16 -12 41 -23 76 -23c18 0 34 2 47 7c29 9 52 23 73 40zM196 735l-156 -735h108l156 735h-108z" />
    <glyph glyph-name="Idotaccent" unicode="&#x130;" horiz-adv-x="188" 
d="M241 923l-22 -101h101l22 101h-101zM196 735l-156 -735h108l156 735h-108z" />
    <glyph glyph-name="Imacron" unicode="&#x12a;" horiz-adv-x="188" 
d="M191 909l-17 -79h194l17 79h-194zM196 735l-156 -735h108l156 735h-108z" />
    <glyph glyph-name="Iogonek" unicode="&#x12e;" horiz-adv-x="188" 
d="M102 0h46l156 735h-108l-156 -735h14c-15 -9 -29 -20 -40 -31c-20 -19 -40 -44 -47 -72c-11 -45 19 -85 83 -85c17 0 29 2 52 9l23 67c-13 -5 -27 -9 -44 -9c-12 0 -24 3 -32 9s-13 14 -10 29c2 11 7 22 14 33c12 19 28 35 49 50z" />
    <glyph glyph-name="Itilde" unicode="&#x128;" horiz-adv-x="188" 
d="M189 899l-16 -74c5 3 11 5 18 8c11 4 23 8 38 8c17 -1 31 -5 43 -10c12 -6 26 -9 41 -9c7 0 14 1 21 3c12 3 25 8 36 16l16 74c-3 -1 -6 -3 -9 -4s-6 -3 -9 -4c-12 -4 -23 -8 -38 -8c-14 1 -28 4 -42 11c-14 5 -28 8 -42 8c-8 0 -15 -1 -21 -3c-13 -4 -25 -9 -36 -16z
M196 735l-156 -735h108l156 735h-108z" />
    <glyph glyph-name="Jcircumflex" unicode="&#x134;" horiz-adv-x="207" 
d="M352 915h-107l-88 -90h92l37 35l24 -35h92zM27 99l-23 -106c64 -4 108 12 139 39s49 64 57 104l128 599h-108l-124 -582c-4 -18 -10 -30 -17 -36c-14 -15 -31 -21 -52 -18z" />
    <glyph glyph-name="Kcommaaccent" unicode="&#x136;" horiz-adv-x="375" 
d="M304 735h-108l-156 -735h108l55 260l38 60l9 15h3v-15l7 -320h105l-8 493l151 242h-105l-142 -245l-8 -12h-4zM188 -123l15 69h-84l-15 -69h31l-33 -65h51z" />
    <glyph glyph-name="Lacute" unicode="&#x139;" horiz-adv-x="295" 
d="M421 915h-105l-71 -90h78zM196 735l-156 -735h251l21 100h-143l135 635h-108z" />
    <glyph glyph-name="Lcaron" unicode="&#x13d;" horiz-adv-x="295" 
d="M445 737l24 111h-105l-24 -111h35l-62 -130h50zM196 735l-156 -735h251l21 100h-143l135 635h-108z" />
    <glyph glyph-name="Lcommaaccent" unicode="&#x13b;" horiz-adv-x="295" 
d="M196 735l-156 -735h251l21 100h-143l135 635h-108zM188 -123l15 69h-84l-15 -69h31l-33 -65h51z" />
    <glyph glyph-name="Ldot" unicode="&#x13f;" horiz-adv-x="295" 
d="M196 735l-156 -735h251l21 100h-143l135 635h-108zM279 440l-24 -111h105l24 111h-105z" />
    <glyph glyph-name="Lslash" unicode="&#x141;" horiz-adv-x="307" 
d="M101 382l-23 -108l37 25l-63 -299h251l21 100h-143l60 283l69 46l23 108l-69 -46l52 244h-108l-70 -328z" />
    <glyph glyph-name="Nacute" unicode="&#x143;" horiz-adv-x="395" 
d="M471 915h-105l-71 -90h78zM235 383l24 -383h96l156 735h-99l-89 -417h-6l-2 34l-23 383h-96l-156 -735h99l88 417h6z" />
    <glyph glyph-name="Ncaron" unicode="&#x147;" horiz-adv-x="395" 
d="M320 825h107l88 90h-92l-38 -35l-23 35h-92zM235 383l24 -383h96l156 735h-99l-89 -417h-6l-2 34l-23 383h-96l-156 -735h99l88 417h6z" />
    <glyph glyph-name="Ncommaaccent" unicode="&#x145;" horiz-adv-x="395" 
d="M235 383l24 -383h96l156 735h-99l-89 -417h-6l-2 34l-23 383h-96l-156 -735h99l88 417h6zM188 -123l15 69h-84l-15 -69h31l-33 -65h51z" />
    <glyph glyph-name="Eng" unicode="&#x14a;" horiz-adv-x="395" 
d="M511 735h-99l-89 -417h-6l-2 34l-23 383h-96l-156 -735h99l88 417h6l2 -34l24 -383h1c-1 -1 -2 -1 -2 -1c0 -1 0 -1 -1 -2c-13 -15 -28 -20 -46 -17l-21 -101c52 -4 91 12 118 37c23 23 38 52 47 84z" />
    <glyph glyph-name="Obreve" unicode="&#x14e;" horiz-adv-x="354" 
d="M473 871l-43 46c-5 -5 -11 -9 -17 -12c-13 -7 -26 -11 -45 -11s-39 4 -52 23l-63 -46c6 -9 14 -17 24 -24c16 -12 41 -23 76 -23c18 0 34 2 47 7c29 9 52 23 73 40zM353 151l92 433c5 31 5 57 -2 79c-4 20 -14 40 -31 55s-42 25 -78 25s-66 -10 -89 -25s-39 -35 -54 -55
c-16 -24 -27 -50 -34 -79l-92 -433c-6 -31 -6 -57 1 -80c4 -20 13 -39 30 -54c18 -17 44 -25 79 -25s64 8 88 25c23 15 40 34 55 54c15 23 27 50 35 80zM337 584l-92 -433c-3 -12 -7 -21 -10 -27c-7 -15 -19 -27 -38 -27c-9 0 -15 3 -19 8c-8 11 -10 27 -5 46l92 433
c2 10 5 19 9 27c7 13 19 27 38 27c9 0 16 -3 20 -8c7 -11 9 -26 5 -46z" />
    <glyph glyph-name="Ohungarumlaut" unicode="&#x150;" horiz-adv-x="354" 
d="M377 915h-105l-71 -90h78zM525 915h-105l-71 -90h78zM353 151l92 433c5 31 5 57 -2 79c-4 20 -14 40 -31 55s-42 25 -78 25s-66 -10 -89 -25s-39 -35 -54 -55c-16 -24 -27 -50 -34 -79l-92 -433c-6 -31 -6 -57 1 -80c4 -20 13 -39 30 -54c18 -17 44 -25 79 -25
s64 8 88 25c23 15 40 34 55 54c15 23 27 50 35 80zM337 584l-92 -433c-3 -12 -7 -21 -10 -27c-7 -15 -19 -27 -38 -27c-9 0 -15 3 -19 8c-8 11 -10 27 -5 46l92 433c2 10 5 19 9 27c7 13 19 27 38 27c9 0 16 -3 20 -8c7 -11 9 -26 5 -46z" />
    <glyph glyph-name="Omacron" unicode="&#x14c;" horiz-adv-x="354" 
d="M274 909l-17 -79h194l17 79h-194zM353 151l92 433c5 31 5 57 -2 79c-4 20 -14 40 -31 55s-42 25 -78 25s-66 -10 -89 -25s-39 -35 -54 -55c-16 -24 -27 -50 -34 -79l-92 -433c-6 -31 -6 -57 1 -80c4 -20 13 -39 30 -54c18 -17 44 -25 79 -25s64 8 88 25
c23 15 40 34 55 54c15 23 27 50 35 80zM337 584l-92 -433c-3 -12 -7 -21 -10 -27c-7 -15 -19 -27 -38 -27c-9 0 -15 3 -19 8c-8 11 -10 27 -5 46l92 433c2 10 5 19 9 27c7 13 19 27 38 27c9 0 16 -3 20 -8c7 -11 9 -26 5 -46z" />
    <glyph glyph-name="Thorn" unicode="&#xde;" horiz-adv-x="354" 
d="M196 735l-156 -735h108l37 176c47 0 97 13 140 48s78 89 97 173s6 139 -23 174s-73 46 -120 46h-1l25 118h-107zM208 286l47 221c33 0 53 -9 61 -26c8 -19 5 -47 -4 -88s-17 -68 -33 -84c-15 -17 -38 -23 -71 -23z" />
    <glyph glyph-name="Racute" unicode="&#x154;" horiz-adv-x="361" 
d="M454 915h-105l-71 -90h78zM233 0h108l6 356c47 28 80 94 96 167c29 140 -10 212 -139 212h-108l-156 -735h108l65 310h29zM235 410l46 218c15 0 35 0 48 -15s20 -42 9 -94s-30 -78 -49 -93s-39 -16 -54 -16z" />
    <glyph glyph-name="Rcaron" unicode="&#x158;" horiz-adv-x="361" 
d="M303 825h107l88 90h-92l-38 -35l-23 35h-92zM233 0h108l6 356c47 28 80 94 96 167c29 140 -10 212 -139 212h-108l-156 -735h108l65 310h29zM235 410l46 218c15 0 35 0 48 -15s20 -42 9 -94s-30 -78 -49 -93s-39 -16 -54 -16z" />
    <glyph glyph-name="Rcommaaccent" unicode="&#x156;" horiz-adv-x="361" 
d="M233 0h108l6 356c47 28 80 94 96 167c29 140 -10 212 -139 212h-108l-156 -735h108l65 310h29zM235 410l46 218c15 0 35 0 48 -15s20 -42 9 -94s-30 -78 -49 -93s-39 -16 -54 -16zM188 -123l15 69h-84l-15 -69h31l-33 -65h51z" />
    <glyph glyph-name="Sacute" unicode="&#x15a;" horiz-adv-x="343" 
d="M445 915h-105l-71 -90h78zM333 538l108 10c9 41 13 90 1 130c-13 39 -44 66 -111 65c-51 -1 -91 -24 -120 -56c-31 -33 -49 -76 -57 -116c-4 -20 -7 -40 -4 -59c3 -38 12 -76 29 -114c8 -19 16 -36 24 -53s16 -33 23 -48c3 -7 6 -15 9 -22s6 -15 9 -22
c11 -29 16 -57 11 -81c-11 -47 -29 -81 -61 -81c-23 0 -31 16 -34 40c-3 23 2 54 9 85l-108 -10c-11 -56 -19 -108 -4 -148c13 -40 47 -66 116 -66c60 0 100 21 131 56s47 80 58 129c9 40 4 78 -7 115c-12 37 -27 75 -46 112c-15 31 -28 60 -39 88s-15 54 -10 79
c9 43 24 72 52 73c17 0 25 -14 28 -34c3 -21 -2 -48 -7 -72z" />
    <glyph glyph-name="Scaron" unicode="&#x160;" horiz-adv-x="343" 
d="M288 800h107l88 90h-92l-39 -35l-22 35h-92zM333 538l108 10c9 41 13 90 1 130c-13 39 -44 66 -111 65c-51 -1 -91 -24 -120 -56c-31 -33 -49 -76 -57 -116c-4 -20 -7 -40 -4 -59c3 -38 12 -76 29 -114c8 -19 16 -36 24 -53s16 -33 23 -48c3 -7 6 -15 9 -22s6 -15 9 -22
c11 -29 16 -57 11 -81c-11 -47 -29 -81 -61 -81c-23 0 -31 16 -34 40c-3 23 2 54 9 85l-108 -10c-11 -56 -19 -108 -4 -148c13 -40 47 -66 116 -66c60 0 100 21 131 56s47 80 58 129c9 40 4 78 -7 115c-12 37 -27 75 -46 112c-15 31 -28 60 -39 88s-15 54 -10 79
c9 43 24 72 52 73c17 0 25 -14 28 -34c3 -21 -2 -48 -7 -72z" />
    <glyph glyph-name="Scedilla" unicode="&#x15e;" horiz-adv-x="343" 
d="M333 538l108 10c9 41 13 90 1 130c-13 39 -44 66 -111 65c-51 -1 -91 -24 -120 -56c-31 -33 -49 -76 -57 -116c-4 -20 -7 -40 -4 -59c3 -38 12 -76 29 -114c8 -19 16 -36 24 -53s16 -33 23 -48c3 -7 6 -15 9 -22s6 -15 9 -22c11 -29 16 -57 11 -81
c-11 -47 -29 -81 -61 -81c-23 0 -31 16 -34 40c-3 23 2 54 9 85l-108 -10c-11 -56 -19 -108 -4 -148c13 -40 47 -66 116 -66c60 0 100 21 131 56s47 80 58 129c9 40 4 78 -7 115c-12 37 -27 75 -46 112c-15 31 -28 60 -39 88s-15 54 -10 79c9 43 24 72 52 73
c17 0 25 -14 28 -34c3 -21 -2 -48 -7 -72zM188 -123l15 69h-84l-15 -69h31l-33 -65h51z" />
    <glyph glyph-name="Scircumflex" unicode="&#x15c;" horiz-adv-x="343" 
d="M420 915h-107l-88 -90h92l37 35l24 -35h92zM333 538l108 10c9 41 13 90 1 130c-13 39 -44 66 -111 65c-51 -1 -91 -24 -120 -56c-31 -33 -49 -76 -57 -116c-4 -20 -7 -40 -4 -59c3 -38 12 -76 29 -114c8 -19 16 -36 24 -53s16 -33 23 -48c3 -7 6 -15 9 -22s6 -15 9 -22
c11 -29 16 -57 11 -81c-11 -47 -29 -81 -61 -81c-23 0 -31 16 -34 40c-3 23 2 54 9 85l-108 -10c-11 -56 -19 -108 -4 -148c13 -40 47 -66 116 -66c60 0 100 21 131 56s47 80 58 129c9 40 4 78 -7 115c-12 37 -27 75 -46 112c-15 31 -28 60 -39 88s-15 54 -10 79
c9 43 24 72 52 73c17 0 25 -14 28 -34c3 -21 -2 -48 -7 -72z" />
    <glyph glyph-name="Tbar" unicode="&#x166;" horiz-adv-x="316" 
d="M344 624h102l24 111h-312l-24 -111h102l-16 -74h-39l-16 -79h39l-100 -471h108l100 471h47l16 79h-47z" />
    <glyph glyph-name="Tcaron" unicode="&#x164;" horiz-adv-x="316" 
d="M281 825h107l88 90h-92l-38 -35l-23 35h-92zM134 624h102l-132 -624h108l132 624h102l24 111h-312z" />
    <glyph glyph-name="uni021A" unicode="&#x21a;" horiz-adv-x="316" 
d="M134 624h102l-132 -624h108l132 624h102l24 111h-312zM188 -123l15 69h-84l-15 -69h31l-33 -65h51z" />
    <glyph glyph-name="Ubreve" unicode="&#x16c;" horiz-adv-x="366" 
d="M479 871l-43 46c-5 -5 -11 -9 -17 -12c-13 -7 -26 -11 -45 -11s-39 4 -52 23l-63 -46c6 -9 14 -17 24 -24c16 -12 41 -23 76 -23c18 0 34 2 47 7c29 9 52 23 73 40zM483 735h-108l-124 -584c-3 -12 -7 -21 -10 -27c-7 -15 -19 -27 -38 -27c-9 0 -15 3 -19 8
c-8 11 -10 27 -5 46l124 584h-108l-124 -584c-6 -31 -6 -57 1 -80c4 -20 13 -39 30 -54c18 -17 44 -25 79 -25s64 8 88 25c23 15 40 34 55 54c15 23 27 50 35 80z" />
    <glyph glyph-name="Uhungarumlaut" unicode="&#x170;" horiz-adv-x="366" 
d="M383 915h-105l-71 -90h78zM531 915h-105l-71 -90h78zM483 735h-108l-124 -584c-3 -12 -7 -21 -10 -27c-7 -15 -19 -27 -38 -27c-9 0 -15 3 -19 8c-8 11 -10 27 -5 46l124 584h-108l-124 -584c-6 -31 -6 -57 1 -80c4 -20 13 -39 30 -54c18 -17 44 -25 79 -25s64 8 88 25
c23 15 40 34 55 54c15 23 27 50 35 80z" />
    <glyph glyph-name="Umacron" unicode="&#x16a;" horiz-adv-x="366" 
d="M280 909l-17 -79h194l17 79h-194zM483 735h-108l-124 -584c-3 -12 -7 -21 -10 -27c-7 -15 -19 -27 -38 -27c-9 0 -15 3 -19 8c-8 11 -10 27 -5 46l124 584h-108l-124 -584c-6 -31 -6 -57 1 -80c4 -20 13 -39 30 -54c18 -17 44 -25 79 -25s64 8 88 25c23 15 40 34 55 54
c15 23 27 50 35 80z" />
    <glyph glyph-name="Uogonek" unicode="&#x172;" horiz-adv-x="366" 
d="M282 0h-47c13 4 24 10 34 17c23 15 40 34 55 54c15 23 27 50 35 80l124 584h-108l-124 -584c-3 -12 -7 -21 -10 -27c-7 -15 -19 -27 -38 -27c-9 0 -15 3 -19 8c-8 11 -10 27 -5 46l124 584h-108l-124 -584c-6 -31 -6 -57 1 -80c4 -20 13 -39 30 -54c18 -17 44 -25 79 -25
c19 0 36 3 51 7c-15 -9 -27 -19 -38 -30c-21 -19 -41 -44 -48 -72c-11 -45 19 -85 84 -85c17 0 29 2 52 9l23 67c-13 -5 -27 -9 -44 -9c-12 0 -24 3 -32 9s-13 14 -10 29c2 11 7 22 14 33c12 19 28 35 49 50z" />
    <glyph glyph-name="Uring" unicode="&#x16e;" horiz-adv-x="366" 
d="M297 882c-9 -41 19 -70 60 -70s80 29 89 70s-18 70 -59 70s-81 -29 -90 -70zM335 882c4 19 25 35 44 35s34 -16 30 -35s-25 -35 -44 -35s-34 16 -30 35zM483 735h-108l-124 -584c-3 -12 -7 -21 -10 -27c-7 -15 -19 -27 -38 -27c-9 0 -15 3 -19 8c-8 11 -10 27 -5 46
l124 584h-108l-124 -584c-6 -31 -6 -57 1 -80c4 -20 13 -39 30 -54c18 -17 44 -25 79 -25s64 8 88 25c23 15 40 34 55 54c15 23 27 50 35 80z" />
    <glyph glyph-name="Utilde" unicode="&#x168;" horiz-adv-x="366" 
d="M278 899l-16 -74c5 3 11 5 18 8c11 4 23 8 38 8c17 -1 31 -5 43 -10c12 -6 26 -9 41 -9c7 0 14 1 21 3c12 3 25 8 36 16l16 74c-3 -1 -6 -3 -9 -4s-6 -3 -9 -4c-12 -4 -23 -8 -38 -8c-14 1 -28 4 -42 11c-14 5 -28 8 -42 8c-8 0 -15 -1 -21 -3c-13 -4 -25 -9 -36 -16z
M483 735h-108l-124 -584c-3 -12 -7 -21 -10 -27c-7 -15 -19 -27 -38 -27c-9 0 -15 3 -19 8c-8 11 -10 27 -5 46l124 584h-108l-124 -584c-6 -31 -6 -57 1 -80c4 -20 13 -39 30 -54c18 -17 44 -25 79 -25s64 8 88 25c23 15 40 34 55 54c15 23 27 50 35 80z" />
    <glyph glyph-name="Wcircumflex" unicode="&#x174;" horiz-adv-x="506" 
d="M500 915h-107l-88 -90h92l37 35l24 -35h92zM195 0l123 348l16 43h4l-4 -43l-23 -348h84l255 735h-100l-124 -382l-8 -24h-8l3 24l35 382h-78l-127 -382l-9 -24h-8l4 24l38 382h-100l-57 -735h84z" />
    <glyph glyph-name="Yacute" unicode="&#xdd;" horiz-adv-x="344" 
d="M470 890h-105l-71 -90h78zM274 500l-4 235h-106l20 -422l-66 -313h108l66 313l200 422h-106l-104 -235l-5 -7h-2z" />
    <glyph glyph-name="Ycircumflex" unicode="&#x176;" horiz-adv-x="342" 
d="M420 915h-107l-88 -90h92l37 35l24 -35h92zM273 500l-4 235h-106l20 -422l-66 -313h108l66 313l200 422h-106l-104 -235l-5 -7h-2z" />
    <glyph glyph-name="Zacute" unicode="&#x179;" horiz-adv-x="306" 
d="M427 915h-105l-71 -90h78zM34 116l-24 -116h286l22 107h-172l283 521l23 107h-262l-23 -107h145z" />
    <glyph glyph-name="Zcaron" unicode="&#x17d;" horiz-adv-x="306" 
d="M282 800h107l88 90h-92l-39 -35l-22 35h-92zM34 116l-24 -116h286l22 107h-172l283 521l23 107h-262l-23 -107h145z" />
    <glyph glyph-name="Zdotaccent" unicode="&#x17b;" horiz-adv-x="306" 
d="M300 923l-22 -101h101l22 101h-101zM34 116l-24 -116h286l22 107h-172l283 521l23 107h-262l-23 -107h145z" />
    <glyph glyph-name="abreve" unicode="&#x103;" horiz-adv-x="333" 
d="M423 683l-43 46c-5 -5 -11 -9 -17 -12c-13 -7 -26 -11 -45 -11s-39 4 -52 23l-63 -46c6 -9 14 -17 24 -24c16 -12 41 -23 76 -23c18 0 34 2 47 7c29 9 52 23 73 40zM281 417l-13 -60c-7 -11 -27 -20 -55 -33c-27 -13 -61 -31 -92 -62s-58 -74 -71 -135
c-12 -57 -5 -91 8 -110c12 -20 32 -25 45 -25c20 0 41 8 57 19s28 24 35 33h7c-3 -7 -7 -33 0 -44h99c1 24 2 46 13 95l71 336c8 36 1 66 -18 89s-46 35 -79 35c-39 0 -75 -16 -106 -43c-29 -27 -52 -63 -61 -103l-4 -23h101c1 4 1 8 2 13c1 4 2 8 3 13c3 9 5 18 8 26
c7 16 16 29 33 29c12 0 19 -6 21 -17c1 -11 -1 -24 -4 -33zM249 264l-30 -140c-4 -19 -26 -33 -49 -33c-12 0 -16 9 -19 21c-1 11 -1 21 2 30c11 52 41 101 96 122z" />
    <glyph glyph-name="amacron" unicode="&#x101;" horiz-adv-x="333" 
d="M224 721l-17 -79h194l17 79h-194zM281 417l-13 -60c-7 -11 -27 -20 -55 -33c-27 -13 -61 -31 -92 -62s-58 -74 -71 -135c-12 -57 -5 -91 8 -110c12 -20 32 -25 45 -25c20 0 41 8 57 19s28 24 35 33h7c-3 -7 -7 -33 0 -44h99c1 24 2 46 13 95l71 336c8 36 1 66 -18 89
s-46 35 -79 35c-39 0 -75 -16 -106 -43c-29 -27 -52 -63 -61 -103l-4 -23h101c1 4 1 8 2 13c1 4 2 8 3 13c3 9 5 18 8 26c7 16 16 29 33 29c12 0 19 -6 21 -17c1 -11 -1 -24 -4 -33zM249 264l-30 -140c-4 -19 -26 -33 -49 -33c-12 0 -16 9 -19 21c-1 11 -1 21 2 30
c11 52 41 101 96 122z" />
    <glyph glyph-name="aogonek" unicode="&#x105;" horiz-adv-x="333" 
d="M255 0h46c1 24 2 46 13 95l71 336c8 36 1 66 -18 89s-46 35 -79 35c-39 0 -75 -16 -106 -43c-29 -27 -52 -63 -61 -103l-4 -23h101c1 4 1 8 2 13c1 4 2 8 3 13c3 9 5 18 8 26c7 16 16 29 33 29c12 0 19 -6 21 -17c1 -11 -1 -24 -4 -33l-13 -60c-7 -11 -27 -20 -55 -33
c-27 -13 -61 -31 -92 -62s-58 -74 -71 -135c-12 -57 -5 -91 8 -110c12 -20 32 -25 45 -25c20 0 41 8 57 19s28 24 35 33h7c-3 -7 -7 -33 0 -44h5c-15 -9 -29 -20 -40 -31c-21 -19 -41 -44 -48 -72c-11 -45 19 -85 84 -85c17 0 29 2 52 9l23 67c-13 -5 -27 -9 -44 -9
c-12 0 -24 3 -32 9s-13 14 -10 29c2 11 7 22 14 33c12 19 28 35 49 50zM249 264l-30 -140c-4 -19 -26 -33 -49 -33c-12 0 -16 9 -19 21c-1 11 -1 21 2 30c11 52 41 101 96 122z" />
    <glyph glyph-name="cacute" unicode="&#x107;" horiz-adv-x="315" 
d="M391 727h-105l-71 -90h78zM159 126l63 295c4 20 10 44 37 44c23 0 27 -11 20 -44l-14 -66h101l9 43c13 61 10 100 -7 124c-16 24 -47 33 -90 33c-36 0 -71 -10 -99 -35s-51 -66 -64 -127l-51 -239c-13 -61 -7 -102 10 -127c19 -25 49 -35 85 -35c43 0 77 9 104 33
s46 63 59 124l11 53h-101l-16 -76c-7 -33 -15 -44 -38 -44c-27 0 -23 24 -19 44z" />
    <glyph glyph-name="ccaron" unicode="&#x10d;" horiz-adv-x="315" 
d="M240 637h107l88 90h-92l-38 -35l-23 35h-92zM159 126l63 295c4 20 10 44 37 44c23 0 27 -11 20 -44l-14 -66h101l9 43c13 61 10 100 -7 124c-16 24 -47 33 -90 33c-36 0 -71 -10 -99 -35s-51 -66 -64 -127l-51 -239c-13 -61 -7 -102 10 -127c19 -25 49 -35 85 -35
c43 0 77 9 104 33s46 63 59 124l11 53h-101l-16 -76c-7 -33 -15 -44 -38 -44c-27 0 -23 24 -19 44z" />
    <glyph glyph-name="ccircumflex" unicode="&#x109;" horiz-adv-x="315" 
d="M366 727h-107l-88 -90h92l37 35l24 -35h92zM159 126l63 295c4 20 10 44 37 44c23 0 27 -11 20 -44l-14 -66h101l9 43c13 61 10 100 -7 124c-16 24 -47 33 -90 33c-36 0 -71 -10 -99 -35s-51 -66 -64 -127l-51 -239c-13 -61 -7 -102 10 -127c19 -25 49 -35 85 -35
c43 0 77 9 104 33s46 63 59 124l11 53h-101l-16 -76c-7 -33 -15 -44 -38 -44c-27 0 -23 24 -19 44z" />
    <glyph glyph-name="cdotaccent" unicode="&#x10b;" horiz-adv-x="315" 
d="M264 735l-22 -101h101l22 101h-101zM159 126l63 295c4 20 10 44 37 44c23 0 27 -11 20 -44l-14 -66h101l9 43c13 61 10 100 -7 124c-16 24 -47 33 -90 33c-36 0 -71 -10 -99 -35s-51 -66 -64 -127l-51 -239c-13 -61 -7 -102 10 -127c19 -25 49 -35 85 -35
c43 0 77 9 104 33s46 63 59 124l11 53h-101l-16 -76c-7 -33 -15 -44 -38 -44c-27 0 -23 24 -19 44z" />
    <glyph glyph-name="eth" unicode="&#xf0;" horiz-adv-x="329" 
d="M341 736l-63 -49c0 -3 1 -5 4 -8c1 -3 3 -6 5 -10c1 -4 3 -9 6 -14l-58 -43l20 -31l47 35c7 -27 8 -60 4 -99c-23 23 -45 38 -68 38c-44 0 -70 -29 -86 -60c-17 -32 -25 -67 -26 -76l-61 -283c-4 -25 -4 -49 1 -72c4 -19 12 -35 28 -49c15 -14 38 -23 70 -23
c33 0 59 7 80 22c43 29 65 66 80 119l68 320c21 100 6 170 -15 218l58 43l-20 32l-54 -40c-2 3 -4 7 -7 12c-1 1 -2 3 -3 5l-4 4zM288 411l-59 -275c-1 -11 -4 -20 -9 -28c-7 -15 -18 -27 -37 -27c-9 0 -16 3 -20 8c-7 12 -8 28 -3 47l59 275c1 11 4 20 9 28
c7 15 18 28 37 28c9 0 16 -3 20 -8c7 -11 8 -27 3 -48z" />
    <glyph glyph-name="dcaron" unicode="&#x10f;" horiz-adv-x="486" 
d="M295 0l156 735h-101l-48 -224c-7 8 -14 15 -21 22c-13 11 -31 22 -50 22c-28 0 -50 -16 -66 -36c-19 -21 -29 -48 -34 -71l-74 -349c-5 -23 -5 -50 4 -70c7 -21 23 -37 51 -37c10 0 20 2 30 7c21 9 39 21 59 37l-7 -36h101zM594 624l24 111h-105l-24 -111h35l-62 -130h50
zM284 427l-65 -307c-4 -19 -22 -33 -37 -33s-24 14 -20 33l65 307c4 19 19 33 34 33s27 -17 23 -33z" />
    <glyph glyph-name="dcroat" unicode="&#x111;" horiz-adv-x="335" 
d="M444 597l21 95h-23l9 43h-101l-9 -43h-21l-21 -95h21l-18 -86c-7 8 -14 15 -21 22c-13 11 -31 22 -50 22c-28 0 -50 -16 -66 -36c-19 -21 -29 -48 -34 -71l-74 -349c-5 -23 -5 -50 4 -70c7 -21 23 -37 51 -37c10 0 20 2 30 7c21 9 39 21 59 37l-7 -36h101l126 597h23z
M284 427l-65 -307c-4 -19 -22 -33 -37 -33s-24 14 -20 33l65 307c4 19 19 33 34 33s27 -17 23 -33z" />
    <glyph glyph-name="ebreve" unicode="&#x115;" horiz-adv-x="322" 
d="M417 683l-43 46c-5 -5 -11 -9 -17 -12c-13 -7 -26 -11 -45 -11s-39 4 -52 23l-63 -46c6 -9 14 -17 24 -24c16 -12 41 -23 76 -23c18 0 34 2 47 7c29 9 52 23 73 40zM334 196h-94l-13 -60c-2 -11 -5 -21 -10 -28c-7 -15 -18 -27 -37 -27c-9 0 -16 3 -20 8
c-7 12 -9 28 -6 47l26 119h167l33 159c5 27 4 49 -1 70c-4 17 -12 36 -28 49s-39 22 -71 22c-33 0 -60 -7 -79 -22c-43 -31 -67 -69 -82 -122l-59 -275c-4 -25 -4 -49 1 -72c8 -36 34 -72 99 -72c33 0 59 7 80 22c43 29 66 66 81 119zM196 334l17 77c3 12 7 21 11 28
c8 15 19 28 38 28c9 0 16 -3 20 -8c8 -12 8 -27 4 -48l-17 -77h-73z" />
    <glyph glyph-name="ecaron" unicode="&#x11b;" horiz-adv-x="322" 
d="M244 637h107l88 90h-92l-38 -35l-23 35h-92zM334 196h-94l-13 -60c-2 -11 -5 -21 -10 -28c-7 -15 -18 -27 -37 -27c-9 0 -16 3 -20 8c-7 12 -9 28 -6 47l26 119h167l33 159c5 27 4 49 -1 70c-4 17 -12 36 -28 49s-39 22 -71 22c-33 0 -60 -7 -79 -22
c-43 -31 -67 -69 -82 -122l-59 -275c-4 -25 -4 -49 1 -72c8 -36 34 -72 99 -72c33 0 59 7 80 22c43 29 66 66 81 119zM196 334l17 77c3 12 7 21 11 28c8 15 19 28 38 28c9 0 16 -3 20 -8c8 -12 8 -27 4 -48l-17 -77h-73z" />
    <glyph glyph-name="edotaccent" unicode="&#x117;" horiz-adv-x="322" 
d="M268 735l-22 -101h101l22 101h-101zM334 196h-94l-13 -60c-2 -11 -5 -21 -10 -28c-7 -15 -18 -27 -37 -27c-9 0 -16 3 -20 8c-7 12 -9 28 -6 47l26 119h167l33 159c5 27 4 49 -1 70c-4 17 -12 36 -28 49s-39 22 -71 22c-33 0 -60 -7 -79 -22c-43 -31 -67 -69 -82 -122
l-59 -275c-4 -25 -4 -49 1 -72c8 -36 34 -72 99 -72c33 0 59 7 80 22c43 29 66 66 81 119zM196 334l17 77c3 12 7 21 11 28c8 15 19 28 38 28c9 0 16 -3 20 -8c8 -12 8 -27 4 -48l-17 -77h-73z" />
    <glyph glyph-name="emacron" unicode="&#x113;" horiz-adv-x="322" 
d="M218 721l-17 -79h194l17 79h-194zM334 196h-94l-13 -60c-2 -11 -5 -21 -10 -28c-7 -15 -18 -27 -37 -27c-9 0 -16 3 -20 8c-7 12 -9 28 -6 47l26 119h167l33 159c5 27 4 49 -1 70c-4 17 -12 36 -28 49s-39 22 -71 22c-33 0 -60 -7 -79 -22c-43 -31 -67 -69 -82 -122
l-59 -275c-4 -25 -4 -49 1 -72c8 -36 34 -72 99 -72c33 0 59 7 80 22c43 29 66 66 81 119zM196 334l17 77c3 12 7 21 11 28c8 15 19 28 38 28c9 0 16 -3 20 -8c8 -12 8 -27 4 -48l-17 -77h-73z" />
    <glyph glyph-name="eogonek" unicode="&#x119;" horiz-adv-x="322" 
d="M248 0h-34c9 3 17 7 26 14c43 29 66 66 81 119l13 63h-94l-13 -60c-2 -11 -5 -21 -10 -28c-7 -15 -18 -27 -37 -27c-9 0 -16 3 -20 8c-7 12 -9 28 -6 47l26 119h167l33 159c5 27 4 49 -1 70c-4 17 -12 36 -28 49s-39 22 -71 22c-33 0 -60 -7 -79 -22
c-43 -31 -67 -69 -82 -122l-59 -275c-4 -25 -4 -49 1 -72c8 -36 34 -72 99 -72c11 0 21 1 30 2c-11 -8 -21 -16 -30 -25c-21 -19 -41 -44 -48 -72c-11 -45 19 -85 84 -85c17 0 29 2 52 9l23 67c-13 -5 -27 -9 -44 -9c-12 0 -24 3 -32 9s-13 14 -10 29c2 11 7 22 14 33
c12 19 28 35 49 50zM196 334l17 77c3 12 7 21 11 28c8 15 19 28 38 28c9 0 16 -3 20 -8c8 -12 8 -27 4 -48l-17 -77h-73z" />
    <glyph glyph-name="gbreve" unicode="&#x11f;" horiz-adv-x="342" 
d="M427 683l-43 46c-5 -5 -11 -9 -17 -12c-13 -7 -26 -11 -45 -11s-39 4 -52 23l-63 -46c6 -9 14 -17 24 -24c16 -12 41 -23 76 -23c18 0 34 2 47 7c29 9 52 23 73 40zM343 264l33 155c0 1 0 3 1 5v5c-1 2 0 6 1 11v13c13 7 34 12 61 12l19 90c-16 0 -33 -9 -52 -20
s-33 -23 -41 -30c-13 27 -40 50 -91 50c-32 0 -58 -7 -77 -22c-41 -29 -65 -66 -80 -117l-32 -149c-2 -13 -2 -28 -1 -45c1 -25 9 -55 34 -74c-17 -8 -34 -20 -49 -35c-16 -15 -28 -31 -31 -47c-11 -43 14 -64 45 -73c-21 -9 -42 -19 -61 -34s-31 -30 -35 -49
c-8 -40 2 -66 27 -82s64 -23 112 -24c41 0 87 9 124 30s67 57 79 110c11 48 -3 77 -26 96c-24 19 -56 27 -87 31c-19 3 -35 6 -50 11c-15 4 -23 11 -20 23c2 9 8 17 19 25c2 -1 5 -1 10 -1h9c61 0 132 36 159 135zM275 412l-32 -150c-2 -9 -5 -17 -8 -25
c-7 -12 -16 -24 -33 -24c-8 0 -14 3 -17 8c-6 10 -7 24 -2 41l32 150c1 9 4 18 7 25c7 12 17 25 33 25c8 0 14 -3 17 -8c6 -11 7 -25 3 -42zM135 -25l50 -10c12 -2 21 -4 28 -7c13 -5 22 -13 18 -32c-3 -13 -16 -21 -32 -28s-36 -9 -53 -9c-47 0 -62 17 -58 38s24 36 47 48z
" />
    <glyph glyph-name="gcircumflex" unicode="&#x11d;" horiz-adv-x="342" 
d="M380 727h-107l-88 -90h92l37 35l24 -35h92zM343 264l33 155c0 1 0 3 1 5v5c-1 2 0 6 1 11v13c13 7 34 12 61 12l19 90c-16 0 -33 -9 -52 -20s-33 -23 -41 -30c-13 27 -40 50 -91 50c-32 0 -58 -7 -77 -22c-41 -29 -65 -66 -80 -117l-32 -149c-2 -13 -2 -28 -1 -45
c1 -25 9 -55 34 -74c-17 -8 -34 -20 -49 -35c-16 -15 -28 -31 -31 -47c-11 -43 14 -64 45 -73c-21 -9 -42 -19 -61 -34s-31 -30 -35 -49c-8 -40 2 -66 27 -82s64 -23 112 -24c41 0 87 9 124 30s67 57 79 110c11 48 -3 77 -26 96c-24 19 -56 27 -87 31c-19 3 -35 6 -50 11
c-15 4 -23 11 -20 23c2 9 8 17 19 25c2 -1 5 -1 10 -1h9c61 0 132 36 159 135zM275 412l-32 -150c-2 -9 -5 -17 -8 -25c-7 -12 -16 -24 -33 -24c-8 0 -14 3 -17 8c-6 10 -7 24 -2 41l32 150c1 9 4 18 7 25c7 12 17 25 33 25c8 0 14 -3 17 -8c6 -11 7 -25 3 -42zM135 -25
l50 -10c12 -2 21 -4 28 -7c13 -5 22 -13 18 -32c-3 -13 -16 -21 -32 -28s-36 -9 -53 -9c-47 0 -62 17 -58 38s24 36 47 48z" />
    <glyph glyph-name="gcommaaccent" unicode="&#x123;" horiz-adv-x="342" 
d="M286 793l-24 -111h105l24 111h-35l63 130h-50zM343 264l33 155c0 1 0 3 1 5v5c-1 2 0 6 1 11v13c13 7 34 12 61 12l19 90c-16 0 -33 -9 -52 -20s-33 -23 -41 -30c-13 27 -40 50 -91 50c-32 0 -58 -7 -77 -22c-41 -29 -65 -66 -80 -117l-32 -149c-2 -13 -2 -28 -1 -45
c1 -25 9 -55 34 -74c-17 -8 -34 -20 -49 -35c-16 -15 -28 -31 -31 -47c-11 -43 14 -64 45 -73c-21 -9 -42 -19 -61 -34s-31 -30 -35 -49c-8 -40 2 -66 27 -82s64 -23 112 -24c41 0 87 9 124 30s67 57 79 110c11 48 -3 77 -26 96c-24 19 -56 27 -87 31c-19 3 -35 6 -50 11
c-15 4 -23 11 -20 23c2 9 8 17 19 25c2 -1 5 -1 10 -1h9c61 0 132 36 159 135zM275 412l-32 -150c-2 -9 -5 -17 -8 -25c-7 -12 -16 -24 -33 -24c-8 0 -14 3 -17 8c-6 10 -7 24 -2 41l32 150c1 9 4 18 7 25c7 12 17 25 33 25c8 0 14 -3 17 -8c6 -11 7 -25 3 -42zM135 -25
l50 -10c12 -2 21 -4 28 -7c13 -5 22 -13 18 -32c-3 -13 -16 -21 -32 -28s-36 -9 -53 -9c-47 0 -62 17 -58 38s24 36 47 48z" />
    <glyph glyph-name="gdotaccent" unicode="&#x121;" horiz-adv-x="342" 
d="M278 735l-22 -101h101l22 101h-101zM343 264l33 155c0 1 0 3 1 5v5c-1 2 0 6 1 11v13c13 7 34 12 61 12l19 90c-16 0 -33 -9 -52 -20s-33 -23 -41 -30c-13 27 -40 50 -91 50c-32 0 -58 -7 -77 -22c-41 -29 -65 -66 -80 -117l-32 -149c-2 -13 -2 -28 -1 -45
c1 -25 9 -55 34 -74c-17 -8 -34 -20 -49 -35c-16 -15 -28 -31 -31 -47c-11 -43 14 -64 45 -73c-21 -9 -42 -19 -61 -34s-31 -30 -35 -49c-8 -40 2 -66 27 -82s64 -23 112 -24c41 0 87 9 124 30s67 57 79 110c11 48 -3 77 -26 96c-24 19 -56 27 -87 31c-19 3 -35 6 -50 11
c-15 4 -23 11 -20 23c2 9 8 17 19 25c2 -1 5 -1 10 -1h9c61 0 132 36 159 135zM275 412l-32 -150c-2 -9 -5 -17 -8 -25c-7 -12 -16 -24 -33 -24c-8 0 -14 3 -17 8c-6 10 -7 24 -2 41l32 150c1 9 4 18 7 25c7 12 17 25 33 25c8 0 14 -3 17 -8c6 -11 7 -25 3 -42zM135 -25
l50 -10c12 -2 21 -4 28 -7c13 -5 22 -13 18 -32c-3 -13 -16 -21 -32 -28s-36 -9 -53 -9c-47 0 -62 17 -58 38s24 36 47 48z" />
    <glyph glyph-name="hbar" unicode="&#x127;" 
d="M247 501l24 111h55l16 79h-55l10 44h-101l-10 -44h-38l-16 -79h38l-130 -612h101l91 431c2 3 4 5 6 7l6 6c8 7 16 13 27 13c12 0 23 -3 19 -24l-92 -433h101l95 448c5 23 4 50 -3 71c-8 20 -24 36 -51 36c-17 0 -38 -12 -55 -25c-9 -7 -17 -13 -24 -18
c-7 -7 -12 -10 -14 -11z" />
    <glyph glyph-name="hcircumflex" unicode="&#x125;" 
d="M247 501l29 138l35 33l24 -35h92l-50 90h-82l2 8h-101l-156 -735h101l91 431c2 3 4 5 6 7l6 6c8 7 16 13 27 13c12 0 23 -3 19 -24l-92 -433h101l95 448c5 23 4 50 -3 71c-8 20 -24 36 -51 36c-17 0 -38 -12 -55 -25c-9 -7 -17 -13 -24 -18c-7 -7 -12 -10 -14 -11z" />
    <glyph glyph-name="ibreve" unicode="&#x12d;" horiz-adv-x="181" 
d="M347 683l-43 46c-5 -5 -11 -9 -17 -12c-13 -7 -26 -11 -45 -11s-39 4 -52 23l-63 -46c6 -9 14 -17 24 -24c16 -12 41 -23 76 -23c18 0 34 2 47 7c29 9 52 23 73 40zM40 0h101l116 547h-101z" />
    <glyph glyph-name="ij" unicode="&#x133;" horiz-adv-x="359" 
d="M196 735l-22 -101h101l22 101h-101zM374 735l-22 -101h101l22 101h-101zM40 0h101l116 547h-101zM435 547h-101l-119 -560c-1 -3 -2 -7 -2 -10c-1 -4 -2 -8 -3 -13c-3 -9 -5 -18 -8 -26c-7 -17 -18 -31 -35 -31c-7 0 -12 1 -19 2c-1 1 -3 1 -4 1s-3 0 -4 1l-20 -93
c1 -1 3 -1 4 -1c1 -1 3 -1 5 -2c7 -2 18 -3 34 -3c57 0 93 29 116 66c21 36 30 80 37 108z" />
    <glyph glyph-name="imacron" unicode="&#x12b;" horiz-adv-x="181" 
d="M148 721l-17 -79h194l17 79h-194zM40 0h101l116 547h-101z" />
    <glyph glyph-name="iogonek" unicode="&#x12f;" horiz-adv-x="181" 
d="M275 634l22 101h-101l-22 -101h101zM125 0h16l116 547h-101l-116 -547h37c-15 -9 -29 -20 -40 -31c-21 -19 -40 -44 -47 -72c-11 -45 18 -85 83 -85c17 0 29 2 52 9l23 67c-13 -5 -27 -9 -44 -9c-12 0 -24 3 -32 9s-13 14 -10 29c2 11 7 22 14 33c12 19 28 35 49 50z" />
    <glyph glyph-name="itilde" unicode="&#x129;" horiz-adv-x="181" 
d="M146 711l-16 -74c3 1 6 3 9 4s6 3 9 4c11 4 23 8 38 8c17 -1 31 -5 43 -10c12 -6 26 -9 41 -9c7 0 14 1 21 3c15 3 27 9 36 16l16 74c-3 -1 -6 -3 -9 -4s-6 -3 -9 -4c-12 -4 -23 -8 -38 -8c-14 1 -28 4 -42 11c-14 5 -28 8 -42 8c-8 0 -15 -1 -21 -3
c-13 -4 -25 -9 -36 -16zM40 0h101l116 547h-101z" />
    <glyph glyph-name="jcircumflex" unicode="&#x135;" horiz-adv-x="178" 
d="M275 645h75l-50 90h-107l-88 -90h69l-3 -11h101zM153 547l-119 -560c-1 -3 -2 -7 -2 -10c-1 -4 -2 -8 -3 -13c-3 -9 -5 -18 -8 -26c-7 -17 -18 -31 -34 -31c-7 0 -12 1 -19 2c-1 1 -3 1 -4 1s-3 0 -4 1l-20 -93c1 -1 3 -1 4 -1c1 -1 3 -1 5 -2c7 -2 18 -3 34 -3
c56 0 92 29 115 66c21 36 30 80 37 108l119 561h-101z" />
    <glyph glyph-name="kcommaaccent" unicode="&#x137;" horiz-adv-x="313" 
d="M297 735h-101l-156 -735h101l40 189l19 32l5 8h5v-8l4 -221h97l-14 369l111 178h-91l-80 -143l-9 -18h-5zM188 -123l15 69h-84l-15 -69h31l-33 -65h51z" />
    <glyph glyph-name="kgreenlandic" unicode="&#x138;" horiz-adv-x="313" 
d="M297 735h-101l-156 -735h101l40 189l19 32l5 8h5v-8l4 -221h97l-14 369l111 178h-91l-80 -143l-9 -18h-5z" />
    <glyph glyph-name="lacute" unicode="&#x13a;" horiz-adv-x="181" 
d="M348 838h-105l-72 -90h78zM40 0h101l156 735h-101z" />
    <glyph glyph-name="lcaron" unicode="&#x13e;" horiz-adv-x="332" 
d="M40 0h101l156 735h-101zM440 624l24 111h-105l-24 -111h35l-62 -130h50z" />
    <glyph glyph-name="lcommaaccent" unicode="&#x13c;" horiz-adv-x="181" 
d="M40 0h101l156 735h-101zM110 -116l15 69h-84l-15 -69h31l-34 -65h51z" />
    <glyph glyph-name="ldot" unicode="&#x140;" horiz-adv-x="286" 
d="M40 0h101l156 735h-101zM271 428l-23 -111h105l23 111h-105z" />
    <glyph glyph-name="lslash" unicode="&#x142;" horiz-adv-x="229" 
d="M64 0h101l83 391l57 38l23 108l-57 -38l50 236h-101l-67 -315l-57 -38l-23 -108l57 38z" />
    <glyph glyph-name="nacute" unicode="&#x144;" 
d="M402 727h-105l-71 -90h78zM141 0l91 431c2 3 4 5 6 7l6 6c8 7 16 13 27 13c12 0 23 -3 19 -24l-92 -433h101l95 448c5 23 4 50 -3 71c-8 20 -24 36 -51 36c-17 0 -38 -12 -55 -25c-9 -7 -17 -13 -24 -18c-7 -7 -12 -10 -14 -11l10 46h-101l-116 -547h101z" />
    <glyph glyph-name="napostrophe" unicode="&#x149;" 
d="M220 635l15 69h-84l-15 -69h31l-33 -65h51zM141 0l91 431c2 3 4 5 6 7l6 6c8 7 16 13 27 13c12 0 23 -3 19 -24l-92 -433h101l95 448c5 23 4 50 -3 71c-8 20 -24 36 -51 36c-17 0 -38 -12 -55 -25c-9 -7 -17 -13 -24 -18c-7 -7 -12 -10 -14 -11l10 46h-101l-116 -547h101
z" />
    <glyph glyph-name="ncaron" unicode="&#x148;" 
d="M251 637h107l88 90h-92l-38 -35l-23 35h-92zM141 0l91 431c2 3 4 5 6 7l6 6c8 7 16 13 27 13c12 0 23 -3 19 -24l-92 -433h101l95 448c5 23 4 50 -3 71c-8 20 -24 36 -51 36c-17 0 -38 -12 -55 -25c-9 -7 -17 -13 -24 -18c-7 -7 -12 -10 -14 -11l10 46h-101l-116 -547
h101z" />
    <glyph glyph-name="ncommaaccent" unicode="&#x146;" 
d="M141 0l91 431c2 3 4 5 6 7l6 6c8 7 16 13 27 13c12 0 23 -3 19 -24l-92 -433h101l95 448c5 23 4 50 -3 71c-8 20 -24 36 -51 36c-17 0 -38 -12 -55 -25c-9 -7 -17 -13 -24 -18c-7 -7 -12 -10 -14 -11l10 46h-101l-116 -547h101zM188 -123l15 69h-84l-15 -69h31l-33 -65
h51z" />
    <glyph glyph-name="eng" unicode="&#x14b;" 
d="M294 -19l101 471c3 23 3 47 -4 67c-8 20 -24 36 -51 36c-17 0 -38 -12 -55 -25c-9 -7 -17 -13 -24 -18c-7 -7 -12 -10 -14 -11l10 46h-101l-116 -547h101l91 431c2 3 4 5 6 7l6 6c8 7 16 13 27 13c12 0 23 -3 19 -24l-94 -439c-7 -27 -27 -50 -62 -42l-18 -84
c60 -3 100 11 128 32c28 20 43 50 50 81z" />
    <glyph glyph-name="obreve" unicode="&#x14f;" horiz-adv-x="321" 
d="M417 683l-43 46c-5 -5 -11 -9 -17 -12c-13 -7 -26 -11 -45 -11s-39 4 -52 23l-63 -46c6 -9 14 -17 24 -24c16 -12 41 -23 76 -23c18 0 34 2 47 7c29 9 52 23 73 40zM318 133l59 281c5 27 4 49 -1 70c-4 17 -12 36 -28 49s-39 22 -71 22c-33 0 -60 -7 -79 -22
c-43 -31 -65 -69 -80 -122l-59 -275c-4 -25 -4 -49 1 -72c4 -19 12 -35 28 -49c15 -14 38 -23 70 -23c33 0 59 7 80 22c43 29 65 66 80 119zM282 411l-59 -275c-1 -11 -4 -20 -9 -28c-7 -15 -18 -27 -37 -27c-9 0 -16 3 -20 8c-7 12 -8 28 -3 47l59 275c1 11 4 20 9 28
c7 15 18 28 37 28c9 0 16 -3 20 -8c7 -11 8 -27 3 -48z" />
    <glyph glyph-name="ohungarumlaut" unicode="&#x151;" horiz-adv-x="321" 
d="M320 727h-105l-71 -90h78zM468 727h-105l-71 -90h78zM318 133l59 281c5 27 4 49 -1 70c-4 17 -12 36 -28 49s-39 22 -71 22c-33 0 -60 -7 -79 -22c-43 -31 -65 -69 -80 -122l-59 -275c-4 -25 -4 -49 1 -72c4 -19 12 -35 28 -49c15 -14 38 -23 70 -23c33 0 59 7 80 22
c43 29 65 66 80 119zM282 411l-59 -275c-1 -11 -4 -20 -9 -28c-7 -15 -18 -27 -37 -27c-9 0 -16 3 -20 8c-7 12 -8 28 -3 47l59 275c1 11 4 20 9 28c7 15 18 28 37 28c9 0 16 -3 20 -8c7 -11 8 -27 3 -48z" />
    <glyph glyph-name="omacron" unicode="&#x14d;" horiz-adv-x="321" 
d="M218 721l-17 -79h194l17 79h-194zM318 133l59 281c5 27 4 49 -1 70c-4 17 -12 36 -28 49s-39 22 -71 22c-33 0 -60 -7 -79 -22c-43 -31 -65 -69 -80 -122l-59 -275c-4 -25 -4 -49 1 -72c4 -19 12 -35 28 -49c15 -14 38 -23 70 -23c33 0 59 7 80 22c43 29 65 66 80 119z
M282 411l-59 -275c-1 -11 -4 -20 -9 -28c-7 -15 -18 -27 -37 -27c-9 0 -16 3 -20 8c-7 12 -8 28 -3 47l59 275c1 11 4 20 9 28c7 15 18 28 37 28c9 0 16 -3 20 -8c7 -11 8 -27 3 -48z" />
    <glyph glyph-name="thorn" unicode="&#xfe;" horiz-adv-x="335" 
d="M196 735l-196 -923h101l47 224c7 -8 14 -15 21 -22c13 -11 31 -22 50 -22c28 0 49 16 68 37c16 20 28 47 33 70l74 349c5 23 4 50 -3 71c-9 20 -25 36 -53 36c-10 0 -20 -2 -29 -7c-23 -9 -39 -21 -60 -37l48 224h-101zM166 120l65 307c4 19 22 33 37 33s24 -14 20 -33
l-65 -307c-4 -19 -19 -33 -34 -33s-26 17 -23 33z" />
    <glyph glyph-name="racute" unicode="&#x155;" horiz-adv-x="246" 
d="M357 727h-105l-71 -90h78zM336 443l23 112c-37 0 -64 -14 -83 -29c-19 -16 -29 -33 -32 -40l13 61h-101l-116 -547h101l80 380c4 17 10 34 33 50c19 15 39 17 55 17c10 0 19 -1 27 -4z" />
    <glyph glyph-name="rcaron" unicode="&#x159;" horiz-adv-x="246" 
d="M206 637h107l88 90h-92l-38 -35l-23 35h-92zM336 443l23 112c-37 0 -64 -14 -83 -29c-19 -16 -29 -33 -32 -40l13 61h-101l-116 -547h101l80 380c4 17 10 34 33 50c19 15 39 17 55 17c10 0 19 -1 27 -4z" />
    <glyph glyph-name="rcommaaccent" unicode="&#x157;" horiz-adv-x="246" 
d="M336 443l23 112c-37 0 -64 -14 -83 -29c-19 -16 -29 -33 -32 -40l13 61h-101l-116 -547h101l80 380c4 17 10 34 33 50c19 15 39 17 55 17c10 0 19 -1 27 -4zM108 -117l14 69h-84l-14 -69h31l-34 -65h51z" />
    <glyph glyph-name="sacute" unicode="&#x15b;" horiz-adv-x="308" 
d="M388 727h-105l-71 -90h78zM279 407h94c7 31 12 69 1 98s-39 51 -99 50c-48 -1 -83 -22 -108 -50c-25 -29 -39 -66 -46 -98c-8 -40 -2 -70 10 -97c13 -27 31 -48 50 -71c25 -31 50 -64 43 -97c-7 -32 -20 -66 -49 -66c-21 0 -29 14 -33 31c-3 16 0 37 3 52h-94
c-7 -29 -11 -70 2 -105s43 -62 104 -62c48 0 84 21 111 50c27 28 42 65 50 100c7 36 1 67 -10 95c-11 27 -31 51 -48 72c-13 15 -25 31 -34 47s-15 34 -11 51c3 13 7 30 15 42c7 12 17 22 30 22c16 0 21 -10 24 -22c1 -13 -2 -29 -5 -42z" />
    <glyph glyph-name="scaron" unicode="&#x161;" horiz-adv-x="308" 
d="M236 637h107l88 90h-92l-38 -35l-23 35h-92zM279 407h94c7 31 12 69 1 98s-39 51 -99 50c-48 -1 -83 -22 -108 -50c-25 -29 -39 -66 -46 -98c-8 -40 -2 -70 10 -97c13 -27 31 -48 50 -71c25 -31 50 -64 43 -97c-7 -32 -20 -66 -49 -66c-21 0 -29 14 -33 31
c-3 16 0 37 3 52h-94c-7 -29 -11 -70 2 -105s43 -62 104 -62c48 0 84 21 111 50c27 28 42 65 50 100c7 36 1 67 -10 95c-11 27 -31 51 -48 72c-13 15 -25 31 -34 47s-15 34 -11 51c3 13 7 30 15 42c7 12 17 22 30 22c16 0 21 -10 24 -22c1 -13 -2 -29 -5 -42z" />
    <glyph glyph-name="scedilla" unicode="&#x15f;" horiz-adv-x="308" 
d="M279 407h94c7 31 12 69 1 98s-39 51 -99 50c-48 -1 -83 -22 -108 -50c-25 -29 -39 -66 -46 -98c-8 -40 -2 -70 10 -97c13 -27 31 -48 50 -71c25 -31 50 -64 43 -97c-7 -32 -20 -66 -49 -66c-21 0 -29 14 -33 31c-3 16 0 37 3 52h-94c-7 -29 -11 -70 2 -105
s43 -62 104 -62c48 0 84 21 111 50c27 28 42 65 50 100c7 36 1 67 -10 95c-11 27 -31 51 -48 72c-13 15 -25 31 -34 47s-15 34 -11 51c3 13 7 30 15 42c7 12 17 22 30 22c16 0 21 -10 24 -22c1 -13 -2 -29 -5 -42zM170 -123l15 69h-84l-15 -69h31l-33 -65h51z" />
    <glyph glyph-name="scircumflex" unicode="&#x15d;" horiz-adv-x="308" 
d="M363 727h-107l-88 -90h92l37 35l24 -35h92zM279 407h94c7 31 12 69 1 98s-39 51 -99 50c-48 -1 -83 -22 -108 -50c-25 -29 -39 -66 -46 -98c-8 -40 -2 -70 10 -97c13 -27 31 -48 50 -71c25 -31 50 -64 43 -97c-7 -32 -20 -66 -49 -66c-21 0 -29 14 -33 31
c-3 16 0 37 3 52h-94c-7 -29 -11 -70 2 -105s43 -62 104 -62c48 0 84 21 111 50c27 28 42 65 50 100c7 36 1 67 -10 95c-11 27 -31 51 -48 72c-13 15 -25 31 -34 47s-15 34 -11 51c3 13 7 30 15 42c7 12 17 22 30 22c16 0 21 -10 24 -22c1 -13 -2 -29 -5 -42z" />
    <glyph glyph-name="longs" unicode="&#x17f;" horiz-adv-x="232" 
d="M18 0h77l120 565c13 63 35 80 83 80c15 0 29 -1 42 -4l28 78c-27 5 -50 8 -69 8c-37 0 -71 -8 -98 -31c-28 -24 -49 -63 -62 -123z" />
    <glyph glyph-name="tbar" unicode="&#x167;" horiz-adv-x="245" 
d="M258 456h69l20 91h-69l20 95h59l17 79h-194l-17 -79h34l-20 -95h-51l-20 -91h51l-59 -280c-7 -32 -17 -77 -10 -116s27 -68 87 -68c16 0 29 1 39 3c3 1 6 1 9 2c2 1 4 1 7 2l21 99c-2 -1 -4 -1 -6 -1s-4 0 -6 -1c-7 -1 -18 -2 -26 -2c-16 0 -20 14 -21 33c0 19 5 40 9 57
z" />
    <glyph glyph-name="tcaron" unicode="&#x165;" horiz-adv-x="396" 
d="M504 624l24 111h-105l-24 -111h35l-62 -130h50zM306 682h-101l-28 -135h-51l-20 -91h51l-59 -280c-7 -32 -17 -77 -10 -116s27 -68 87 -68c16 0 29 1 39 3c3 1 6 1 9 2c2 1 4 1 7 2l21 99c-2 -1 -4 -1 -6 -1s-4 0 -6 -1c-7 -1 -18 -2 -26 -2c-16 0 -20 14 -21 33
c0 19 5 40 9 57l57 272h69l20 91h-69z" />
    <glyph glyph-name="uni021B" unicode="&#x21b;" horiz-adv-x="245" 
d="M306 682h-101l-28 -135h-51l-20 -91h51l-59 -280c-7 -32 -17 -77 -10 -116s27 -68 87 -68c16 0 29 1 39 3c3 1 6 1 9 2c2 1 4 1 7 2l21 99c-2 -1 -4 -1 -6 -1s-4 0 -6 -1c-7 -1 -18 -2 -26 -2c-16 0 -20 14 -21 33c0 19 5 40 9 57l57 272h69l20 91h-69zM188 -123l15 69
h-84l-15 -69h31l-33 -65h51z" />
    <glyph glyph-name="ubreve" unicode="&#x16d;" 
d="M425 683l-43 46c-5 -5 -11 -9 -17 -12c-13 -7 -26 -11 -45 -11s-39 4 -52 23l-63 -46c6 -9 14 -17 24 -24c16 -12 41 -23 76 -23c18 0 34 2 47 7c29 9 52 23 73 40zM312 547l-92 -431c-4 -5 -8 -10 -12 -13c-8 -7 -15 -13 -26 -13c-12 0 -24 3 -19 24l92 433h-101
l-95 -448c-5 -23 -5 -50 3 -70c7 -21 23 -37 50 -37c7 0 17 3 29 8c20 11 36 24 51 36c7 6 11 9 13 10l-9 -46h101l116 547h-101z" />
    <glyph glyph-name="uhungarumlaut" unicode="&#x171;" 
d="M328 727h-105l-71 -90h78zM476 727h-105l-71 -90h78zM312 547l-92 -431c-4 -5 -8 -10 -12 -13c-8 -7 -15 -13 -26 -13c-12 0 -24 3 -19 24l92 433h-101l-95 -448c-5 -23 -5 -50 3 -70c7 -21 23 -37 50 -37c7 0 17 3 29 8c20 11 36 24 51 36c7 6 11 9 13 10l-9 -46h101
l116 547h-101z" />
    <glyph glyph-name="umacron" unicode="&#x16b;" 
d="M226 721l-17 -79h194l17 79h-194zM312 547l-92 -431c-4 -5 -8 -10 -12 -13c-8 -7 -15 -13 -26 -13c-12 0 -24 3 -19 24l92 433h-101l-95 -448c-5 -23 -5 -50 3 -70c7 -21 23 -37 50 -37c7 0 17 3 29 8c20 11 36 24 51 36c7 6 11 9 13 10l-9 -46h101l116 547h-101z" />
    <glyph glyph-name="uogonek" unicode="&#x173;" 
d="M251 0h46l116 547h-101l-92 -431c-4 -5 -8 -10 -12 -13c-8 -7 -15 -13 -26 -13c-12 0 -24 3 -19 24l92 433h-101l-95 -448c-5 -23 -5 -50 3 -70c7 -21 23 -37 50 -37c7 0 17 3 29 8c20 11 36 24 51 36c7 6 11 9 13 10l-9 -46h7c-15 -9 -29 -20 -40 -31
c-21 -19 -41 -44 -48 -72c-11 -45 19 -85 84 -85c17 0 29 2 52 9l23 67c-13 -5 -27 -9 -44 -9c-12 0 -24 3 -32 9s-13 14 -10 29c2 11 7 22 14 33c12 19 28 35 49 50z" />
    <glyph glyph-name="uring" unicode="&#x16f;" 
d="M242 694c-9 -41 19 -70 60 -70s80 29 89 70s-18 70 -59 70s-81 -29 -90 -70zM280 694c4 19 25 35 44 35s34 -16 30 -35s-25 -35 -44 -35s-34 16 -30 35zM312 547l-92 -431c-4 -5 -8 -10 -12 -13c-8 -7 -15 -13 -26 -13c-12 0 -24 3 -19 24l92 433h-101l-95 -448
c-5 -23 -5 -50 3 -70c7 -21 23 -37 50 -37c7 0 17 3 29 8c20 11 36 24 51 36c7 6 11 9 13 10l-9 -46h101l116 547h-101z" />
    <glyph glyph-name="utilde" unicode="&#x169;" 
d="M224 711l-16 -74c3 1 6 3 9 4s6 3 9 4c11 4 23 8 38 8c17 -1 31 -5 43 -10c12 -6 26 -9 41 -9c7 0 14 1 21 3c15 3 27 9 36 16l16 74c-3 -1 -6 -3 -9 -4s-6 -3 -9 -4c-12 -4 -23 -8 -38 -8c-14 1 -28 4 -42 11c-14 5 -28 8 -42 8c-8 0 -15 -1 -21 -3
c-13 -4 -25 -9 -36 -16zM312 547l-92 -431c-4 -5 -8 -10 -12 -13c-8 -7 -15 -13 -26 -13c-12 0 -24 3 -19 24l92 433h-101l-95 -448c-5 -23 -5 -50 3 -70c7 -21 23 -37 50 -37c7 0 17 3 29 8c20 11 36 24 51 36c7 6 11 9 13 10l-9 -46h101l116 547h-101z" />
    <glyph glyph-name="wcircumflex" unicode="&#x175;" horiz-adv-x="442" 
d="M430 727h-107l-88 -90h92l37 35l24 -35h92zM267 0h84l197 547h-92l-93 -286l-11 -31h-6l2 31l19 286h-60l-103 -286l-12 -31h-6l3 31l29 286h-92l-35 -547h84l94 261l12 31h4l-2 -31z" />
    <glyph glyph-name="yacute" unicode="&#xfd;" horiz-adv-x="310" 
d="M424 727h-105l-71 -90h78zM-6 -104l-19 -90c12 -1 24 -2 32 -2h12c40 0 75 20 106 49s52 67 67 106l222 588h-99l-112 -336l-8 -28h-4l4 28l32 336h-99l-27 -563c-2 -11 -5 -21 -10 -30c-11 -22 -26 -39 -44 -50c-19 -12 -43 -10 -47 -9c-3 0 -5 0 -6 1z" />
    <glyph glyph-name="ycircumflex" unicode="&#x177;" horiz-adv-x="310" 
d="M364 727h-107l-88 -90h92l37 35l24 -35h92zM-6 -104l-19 -90c12 -1 24 -2 32 -2h12c40 0 75 20 106 49s52 67 67 106l222 588h-99l-112 -336l-8 -28h-4l4 28l32 336h-99l-27 -563c-2 -11 -5 -21 -10 -30c-11 -22 -26 -39 -44 -50c-19 -12 -43 -10 -47 -9c-3 0 -5 0 -6 1z
" />
    <glyph glyph-name="zacute" unicode="&#x17a;" horiz-adv-x="260" 
d="M364 727h-105l-71 -90h78zM23 82l-17 -82h246l19 92h-139l218 373l18 82h-224l-20 -92h117z" />
    <glyph glyph-name="zcaron" unicode="&#x17e;" horiz-adv-x="260" 
d="M216 637h107l88 90h-92l-38 -35l-23 35h-92zM23 82l-17 -82h246l19 92h-139l218 373l18 82h-224l-20 -92h117z" />
    <glyph glyph-name="zdotaccent" unicode="&#x17c;" horiz-adv-x="260" 
d="M237 735l-22 -101h101l22 101h-101zM23 82l-17 -82h246l19 92h-139l218 373l18 82h-224l-20 -92h117z" />
    <glyph glyph-name="Abreve" unicode="&#x102;" horiz-adv-x="374" 
d="M483 871l-43 46c-5 -5 -11 -9 -17 -12c-13 -7 -26 -11 -45 -11s-39 4 -52 23l-63 -46c6 -9 14 -17 24 -24c16 -12 41 -23 76 -23c18 0 34 2 47 7c29 9 52 23 73 40zM10 0h105l51 150h104l-11 -150h105l45 735h-132zM298 496l-18 -232h-74l80 232l7 19h6z" />
    <glyph glyph-name="minus" unicode="&#x2212;" horiz-adv-x="379" 
d="M121 401l-18 -84h307l18 84h-307z" />
    <glyph glyph-name="uni201F" unicode="&#x201f;" horiz-adv-x="305" 
d="M287 735h-105l-24 -111l28 -130h50l-8 130h35zM435 735h-105l-24 -111l28 -130h50l-8 130h35z" />
    <glyph glyph-name="uni0093" horiz-adv-x="305" 
d="M154 605l-23 -111h105l23 111h-35l63 130h-50zM302 605l-23 -111h105l23 111h-35l63 130h-50z" />
    <glyph glyph-name="uni0094" horiz-adv-x="305" 
d="M263 624l24 111h-105l-24 -111h35l-62 -130h50zM411 624l24 111h-105l-24 -111h35l-62 -130h50z" />
    </font>
</defs>
</svg>
