<?xml version="1.0" standalone="no"?>
<!DOCTYPE svg PUBLIC "-//W3C//DTD SVG 1.1//EN" "http://www.w3.org/Graphics/SVG/1.1/DTD/svg11.dtd" >
<svg>
<metadata>
Created by FontForge 20120731 at Sat Jul  2 14:13:41 2016
 By Apache
Copyright (c) ParaType Inc., 2001. All rights reserved.
</metadata>
<defs>
<font id="Hortensia" horiz-adv-x="511" >
  <font-face 
    font-family="Hortensia"
    font-weight="400"
    font-stretch="normal"
    units-per-em="1000"
    panose-1="2 0 5 3 8 0 0 2 0 3"
    ascent="800"
    descent="-200"
    x-height="457"
    cap-height="693"
    bbox="-195 -422.121 920 961"
    underline-thickness="20"
    underline-position="-113"
    unicode-range="U+0020-2265"
  />
<missing-glyph horiz-adv-x="475" 
 />
    <glyph glyph-name=".notdef" horiz-adv-x="475" 
 />
    <glyph glyph-name="space" unicode=" " horiz-adv-x="475" 
 />
    <glyph glyph-name="brokenbar" unicode="&#xa6;" horiz-adv-x="318" 
d="M227 433q-8 -16 -21.5 -28.5t-21.5 -13.5q-5 0 -7 1.5t-2 9.5t4 32t10.5 56t14 68.5t15 69t13 56.5t8.5 33q6 3 16.5 6t16.5 3t7 -2.5t0 -6.5zM131 -62q-8 -16 -20 -28.5t-20 -13.5q-5 0 -7 1.5t-2 9.5t4 32t10 56t13 68.5t14 69t12 56.5t8 33q6 3 17 6t17 3t7 -2.5
t0 -6.5z" />
    <glyph glyph-name="exclam" unicode="!" horiz-adv-x="328" 
d="M159 185q-16 -31 -33 -31t-17 16q0 4 7.5 33t20 71.5t27 94t29 100t26.5 89t18 62.5q11 38 20 56.5t17 26.5q5 5 10.5 9t19.5 7q6 1 14 1.5t16 0.5q7 0 7 -9q-9 -23 -17 -45q-7 -20 -14.5 -41.5t-13.5 -41.5q-6 -21 -10.5 -36.5t-9 -29.5t-9 -29.5t-11.5 -36.5
q-33 -101 -58 -169.5t-39 -97.5zM145 46q-2 -24 -16.5 -43.5t-45.5 -19.5q-21 0 -29.5 8.5t-6.5 33.5q2 32 15.5 50t49.5 18q22 0 28.5 -12t4.5 -35z" />
    <glyph glyph-name="quotedbl" unicode="&#x22;" horiz-adv-x="400" 
d="M218 707q11 0 12.5 -3.5t1.5 -9.5q0 -5 -3.5 -16t-8.5 -25.5t-11 -30t-11 -28.5q-13 -32 -23.5 -53.5t-30.5 -32.5q-4 -2 -9.5 -5.5t-10.5 -3.5q-7 0 -7 7q0 2 4.5 22t10.5 45.5t11 50.5t6 36q2 24 21.5 35.5t47.5 11.5zM348 707q11 0 12.5 -3.5t1.5 -9.5q0 -5 -3.5 -16
t-8.5 -25t-11.5 -29t-12.5 -28q-17 -38 -28.5 -57.5t-25.5 -33.5q-8 -8 -13 -10t-10 -2q-11 0 -11 6q0 7 5.5 29t13 48t14 49.5t8.5 34.5q5 24 23 35.5t46 11.5z" />
    <glyph glyph-name="numbersign" unicode="#" horiz-adv-x="600" 
d="M514 548l-7 -21t-7.5 -24t-7 -23.5t-5.5 -19.5l49 2q20 2 20 -8q0 -9 -19 -22q-11 -8 -23.5 -13t-40.5 -6q-10 -37 -20.5 -74t-21.5 -75l65 3q18 1 20 -11q0 -9 -19 -19q-18 -9 -61 -18q-2 0 -6.5 -0.5t-12.5 -0.5q-7 -26 -14 -54.5t-14 -59.5l-6 -40q-3 -21 -6 -33
q-3 -11 -7 -20t-14.5 -22t-28.5 -24q-13 -8 -28 -11q-21 0 -22 14q0 5 2.5 17.5t8.5 35.5q6 22 10 36.5t6 22.5q7 31 15.5 64.5t18.5 70.5q-13 -1 -27 -1.5t-30 -0.5q-25 -1 -42.5 -1.5t-30.5 -0.5t-24 -0.5t-24 -0.5q-5 -20 -10.5 -41.5t-10.5 -44.5q-2 -9 -3 -19t-3 -21
q-3 -21 -6 -33q-3 -11 -7 -20t-13 -20t-30 -26q-7 -5 -14 -7l-14 -4q-21 0 -22 14q0 5 2.5 17.5t8.5 35.5q6 22 10 36.5t6 22.5q6 25 12.5 52t14.5 56h-42h-15t-11 -1q-18 0 -18 11q0 23 20 32q11 4 24 5.5t30 2.5h25q9 35 21.5 73.5t20.5 71.5h-57h-15t-11 -1q-18 0 -18 11
q0 23 20 32q11 4 24 5.5t30 2.5h42q34 120 46 153q21 65 26 72q7 8 16.5 14t32.5 11q6 1 13.5 1.5t16.5 0.5q7 0 7 -9l-45 -128q-8 -21 -15.5 -49t-18.5 -64q34 0 59.5 0.5t45.5 1t37.5 0.5h35.5q28 99 39 129q21 65 26 72q7 11 16.5 15.5t32.5 9.5q6 1 14 1.5t16 0.5
q7 0 7 -9zM394 410q-46 0 -94 -2t-85 -3q-10 -35 -19.5 -70t-20.5 -70q-1 -2 -1 -3t-1 -3q33 0 58 0.5t45.5 1t38 1t36.5 0.5q5 20 11 40.5t13 41.5q5 18 9.5 34.5t9.5 31.5z" />
    <glyph glyph-name="dollar" unicode="$" horiz-adv-x="497" 
d="M379 691q21 -1 40.5 -6t34.5 -12.5t24 -15t9 -13.5q0 -16 -3 -30.5t-7 -21.5q-5 -8 -16 -21t-24 -13q0 29 -20.5 54.5t-50.5 33.5q-17 -59 -36 -124.5t-37 -128.5q41 -34 68.5 -59.5t43.5 -47.5t22.5 -42.5t6.5 -43.5q0 -37 -16.5 -76.5t-50 -72t-83 -53.5t-115.5 -21
q-9 -29 -21.5 -48t-24.5 -19q-8 0 -15 3t-7 11q0 20 5 37q3 9 6 17q-23 2 -45 10t-40 20t-29 27.5t-11 33.5q0 27 17 44t46 25q8 -35 23.5 -62.5t53.5 -41.5q54 194 89 316q-30 27 -48.5 48t-29 39.5t-14 35t-3.5 33.5q0 75 53.5 122t142.5 61q6 16 14.5 29.5t22.5 22.5
q5 3 13 2t17 0q5 0 7 -9q-1 -5 -3 -11q-2 -5 -4.5 -13.5t-4.5 -18.5zM182 22q21 -2 51.5 -0.5t59 15.5t48.5 45t20 88q0 16 -9 33.5t-22.5 35.5t-30 35t-32.5 31q-8 -26 -19 -63t-23 -76.5t-23.5 -78t-19.5 -65.5zM305 651q-50 -5 -80 -32.5t-30 -72.5q0 -14 1.5 -25
t6.5 -22t14.5 -24.5t25.5 -31.5q15 52 25.5 86t17.5 56.5t11.5 37t7.5 28.5z" />
    <glyph glyph-name="percent" unicode="%" horiz-adv-x="675" 
d="M344 601q0 -32 -14.5 -65t-40 -60t-61 -44t-77.5 -17q-25 0 -42.5 7.5t-28.5 19.5t-16 27.5t-5 32.5q0 18 4.5 34t14 32.5t26 34.5t40.5 39q26 23 47.5 30t33.5 11q13 4 27.5 7t25.5 3q29 0 47.5 -24.5t18.5 -67.5zM563 721q0 -18 -13 -37t-28 -48q-36 -68 -77.5 -138.5
t-84 -140.5t-84.5 -137.5t-78 -129.5q-8 -13 -11.5 -19.5t-6.5 -11t-7 -9t-11 -14.5q-15 -20 -32.5 -29t-27.5 -9q-6 0 -6 6q0 8 15 30t29 44q3 4 26.5 42.5t58 95t75.5 124.5t79 132t69 116.5t45 78.5q9 16 21 28.5t23 19.5t18.5 8.5t7.5 -2.5zM588 197q0 -32 -13 -65.5
t-37.5 -60.5t-58.5 -44t-76 -17q-25 0 -42.5 7.5t-28.5 19.5t-16 27.5t-5 32.5q0 35 16.5 74t65.5 81q33 28 64.5 36.5t62.5 8.5q29 0 48.5 -28.5t19.5 -71.5zM279 576q0 30 -11 49t-26 19q-3 0 -9.5 0.5t-13.5 0.5q-30 0 -47.5 -15t-27.5 -34t-13 -38t-3 -26q0 -14 3 -28
t9.5 -25.5t16.5 -19t24 -7.5t31 4.5t32 18t25 37.5t10 64zM523 172q0 47 -13 65.5t-33 18.5q-33 0 -52 -12.5t-29 -31.5t-13 -41.5t-3 -43.5q0 -14 3 -28t9.5 -25.5t16.5 -19t24 -7.5t30 7.5t29.5 23.5t22 39t8.5 55z" />
    <glyph glyph-name="ampersand" unicode="&#x26;" horiz-adv-x="719" 
d="M699 97q0 -3 -2.5 -9t-4.5 -8q-12 -11 -29.5 -26t-42 -28.5t-57 -22.5t-74.5 -9q-29 0 -52.5 8.5t-41 20t-28 22t-13.5 14.5q-5 -3 -20 -14t-38.5 -23t-54.5 -22t-67 -10q-29 0 -56 5t-48 19t-34 39t-13 66q0 33 13 61.5t33.5 52.5t44.5 43t46.5 33t40 23.5t23.5 14.5
l-4 26q-2 11 -3 25t-1 28q0 56 23 107.5t57.5 90.5t76 62.5t78.5 23.5q49 0 65 -21.5t16 -52.5q0 -26 -14.5 -54t-37 -56t-50 -54.5t-54 -48.5t-48 -38t-32.5 -24q7 -30 19 -64.5t26 -66.5t28.5 -59t26.5 -42q39 41 61 72.5t33 54.5q12 26 16 47q-11 0 -17 -0.5t-10.5 -0.5
t-9 -0.5t-10.5 -0.5q-13 0 -20 -0.5t-7 12.5q0 11 7.5 18.5t20 11.5t27.5 6t30 2l70 2q13 0 28 1t28 1.5t22.5 1t12.5 0.5q13 0 16 0.5t3 -3.5q0 -18 -11 -27.5t-37 -14.5q-15 -3 -37.5 -4.5t-36.5 -2.5q-7 -12 -22 -34t-36 -49.5t-48 -57.5t-57 -59q23 -29 55 -47t70 -18
q33 0 56.5 6.5t40 15.5t28 18.5t19.5 16.5q4 3 7.5 3.5t7.5 0.5q3 0 3 -4zM458 612q0 56 -41 56q-34 0 -59.5 -16.5t-42 -45.5t-25 -70t-8.5 -90q0 -9 0.5 -19.5t2.5 -18.5q2 -11 4 -20q29 21 59 44.5t54.5 51t40 59.5t15.5 69zM334 82q-22 33 -37 60.5t-26.5 54t-21 55.5
t-20.5 65q-16 -11 -39.5 -24t-45 -32t-37 -45.5t-15.5 -63.5q0 -54 29.5 -88.5t76.5 -34.5q44 0 79 18t57 35z" />
    <glyph glyph-name="quotesingle" unicode="'" horiz-adv-x="239" 
d="M172 707q14 0 14 -3.5v-9.5q0 -5 -3.5 -16t-8.5 -25.5t-11 -30t-11 -28.5q-13 -32 -23.5 -53.5t-30.5 -32.5q-4 -2 -9.5 -5.5t-10.5 -3.5q-7 0 -7 7q0 2 4.5 22t10.5 45.5t11 50.5t6 36q2 24 21.5 35.5t47.5 11.5z" />
    <glyph glyph-name="parenleft" unicode="(" horiz-adv-x="314" 
d="M367 725q-40 -33 -85.5 -78t-84.5 -111t-64.5 -157.5t-25.5 -216.5q0 -42 3.5 -73.5t10 -55.5t15 -42t17.5 -33q-1 -8 -4 -16q-2 -7 -5 -14t-8 -12q-3 -3 -4 -5.5t-2.5 -4.5t-5.5 -3t-12 -1q-12 0 -26 16t-25 43.5t-18.5 64.5t-7.5 79q0 125 29.5 230t76 186t104.5 136.5
t114 80.5l8 -13v0z" />
    <glyph glyph-name="parenright" unicode=")" horiz-adv-x="339" 
d="M-39 -85q40 33 85.5 78t84.5 111t64.5 157.5t25.5 216.5q0 42 -3.5 73.5t-10 55.5t-15 42t-17.5 33q1 8 4 16q2 7 5 14t8 12q3 3 4 5.5t2.5 4.5t5.5 3t12 1q12 0 26 -16t25 -43.5t18.5 -64.5t7.5 -79q0 -125 -29.5 -230t-76 -186t-104.5 -136.5t-114 -80.5l-8 13v0z" />
    <glyph glyph-name="asterisk" unicode="*" horiz-adv-x="369" 
d="M136 524q-33 27 -57 54t-24 44q0 7 4 16t10 17t14 13.5t17 5.5q10 0 15 -8t9 -16q9 -17 21 -31t26 -27q7 38 15 71.5t14 43.5q4 6 11.5 8.5t18.5 5.5q6 2 11.5 3t12.5 1q6 0 6.5 -4.5t-0.5 -8.5q-6 -20 -12 -41q-5 -18 -11 -39t-12 -41q20 17 48.5 38.5t50.5 47.5
q6 8 11 16t15 8q5 0 6 -2.5t1 -8.5q0 -21 -15.5 -40.5t-31.5 -33.5q-20 -18 -40 -34t-42 -33q34 -22 62 -36.5t39 -23.5q-2 -2 -7 -10t-11 -17t-12.5 -16t-12.5 -7q-11 0 -34.5 11.5t-49.5 26.5q-3 -20 -12 -49q-6 -19 -11.5 -24t-16.5 -5t-17 2.5t-10 5.5q5 30 9.5 50
t9.5 43q-32 -18 -56.5 -29t-34.5 -11q-15 0 -15 12q0 8 23.5 18t64.5 34z" />
    <glyph glyph-name="plus" unicode="+" horiz-adv-x="450" 
d="M438 348q0 -27 -52 -36q-11 -2 -46 -3t-79 -2q-5 -19 -9.5 -34.5t-8.5 -30t-7.5 -28.5t-6.5 -31q-2 -11 -9 -27t-32 -30q-13 -8 -27 -8q-23 0 -23 14q0 6 2 13.5t6 20t11 33.5l18 54q6 20 14 53q-24 -1 -45 -1h-37h-35q-7 0 -14.5 -1t-14 -0.5t-11 3t-4.5 8.5q0 15 7 23
t17.5 11.5t24 4.5t25.5 1h31q14 0 32 -0.5t37 -0.5q7 26 13.5 50.5t10.5 44.5q3 13 6 28t9 29t15.5 25.5t23.5 17.5q8 4 18.5 5t20.5 1q9 0 9 -15q0 -6 -3.5 -17t-12.5 -39q-7 -21 -11.5 -37t-8.5 -27q-5 -18 -9.5 -34.5t-8.5 -30.5h23q13 0 32.5 1t38.5 1.5t33 1t17 0.5
q13 0 16.5 -3.5t3.5 -7.5z" />
    <glyph glyph-name="comma" unicode="," horiz-adv-x="233" 
d="M51 33q0 13 7.5 22t15.5 16q15 13 22.5 17t15.5 4q14 0 21.5 -14t7.5 -60q0 -52 -21.5 -96t-49 -76t-52.5 -50t-32 -18q-8 0 -7.5 1.5t0.5 6.5q0 4 7 10t17.5 14.5t22 19.5t20.5 25q12 20 17 43t5 45q0 15 -2.5 25.5t-6 20t-6 20t-2.5 24.5z" />
    <glyph glyph-name="hyphen" unicode="-" horiz-adv-x="303" 
d="M66 183q-7 0 -14.5 -1t-14 -0.5t-11 3t-4.5 8.5q0 15 7 23t17.5 11.5t24 4.5t25.5 1h101q13 0 28 0.5t28 1.5t22.5 1.5t12.5 0.5q13 0 16.5 -3.5t3.5 -7.5q0 -6 -8 -12t-20 -10.5t-26 -8.5t-26 -6q-13 -2 -40 -3l-54 -2q-32 -1 -68 -1z" />
    <glyph glyph-name="hyphen" unicode="&#xad;" horiz-adv-x="303" 
d="M66 183q-7 0 -14.5 -1t-14 -0.5t-11 3t-4.5 8.5q0 15 7 23t17.5 11.5t24 4.5t25.5 1h101q13 0 28 0.5t28 1.5t22.5 1.5t12.5 0.5q13 0 16.5 -3.5t3.5 -7.5q0 -6 -8 -12t-20 -10.5t-26 -8.5t-26 -6q-13 -2 -40 -3l-54 -2q-32 -1 -68 -1z" />
    <glyph glyph-name="period" unicode="." horiz-adv-x="245" 
d="M169 46q-2 -24 -16.5 -43.5t-45.5 -19.5q-21 0 -29.5 8.5t-6.5 33.5q2 32 15.5 50t49.5 18q22 0 28.5 -12t4.5 -35z" />
    <glyph glyph-name="slash" unicode="/" horiz-adv-x="355" 
d="M77 -62q-7 -16 -21 -28.5t-22 -13.5q-5 0 -7 1.5t-2 9.5q0 6 15.5 44.5t41 98t58.5 134t68 152t69.5 152.5t62.5 135t47.5 99.5t24.5 46.5q6 3 14.5 5.5t14.5 2.5t7 -2.5t0 -6.5z" />
    <glyph glyph-name="zero" unicode="0" 
d="M518 549q0 -27 -7.5 -68t-22 -88.5t-36 -98.5t-48.5 -98q-65 -112 -135 -163t-137 -51q-35 0 -57.5 13t-36.5 35t-19.5 51.5t-5.5 62.5q0 53 14 113t41 121t66.5 119.5t90.5 108.5q45 45 76 62.5t57 19.5q8 2 17 5q7 2 14.5 4t12.5 4q9 2 14.5 2.5t14.5 0.5
q23 0 39.5 -11.5t27 -32.5t15.5 -49.5t5 -61.5zM437 522q0 57 -14.5 88.5t-49.5 31.5q-65 0 -116 -48t-102 -148q-14 -28 -25.5 -69t-19 -83t-11.5 -78t-4 -53q0 -62 21.5 -94t67.5 -32q16 0 37.5 8t44 24t44 39.5t38.5 54.5q19 34 35.5 76t28.5 88t18.5 95.5t6.5 99.5z" />
    <glyph glyph-name="one" unicode="1" 
d="M307 265q-18 -63 -36 -141q-1 -3 -2.5 -13t-3.5 -22.5t-4 -24t-3 -17.5q-2 -6 -5.5 -14.5t-8.5 -14.5q-4 -6 -11.5 -13.5t-16 -14.5t-18 -11.5t-17.5 -4.5q-21 0 -22 14q0 11 7.5 37t19.5 75q11 48 29.5 117.5t41.5 146.5q9 33 20 69.5t22 72t21 68t18 56.5q1 4 -12.5 -2
t-31 -14t-34.5 -15.5t-22 -7.5q-8 0 -9.5 3t-1.5 7q0 5 8 11.5t20.5 14t27 15.5t26.5 16q5 3 14.5 9t20.5 12t22.5 12t19.5 9q5 2 16.5 3t31.5 2q7 0 7 -9q0 -1 -4.5 -14t-11.5 -32t-15 -41t-14 -41q-12 -37 -26 -83t-26 -89.5t-22 -79t-15 -51.5z" />
    <glyph glyph-name="two" unicode="2" 
d="M308 306q-50 -46 -95 -89.5t-79 -78.5t-54 -58.5t-20 -27.5q23 5 55 10.5t67.5 10.5t71.5 8.5t68 3.5t56.5 -1t32.5 -3q17 -3 20 -11t3 -19t-12 -24t-29 -26q-9 4 -25 7.5t-35 6t-40 4t-40 1.5q-24 0 -56 -3.5t-61 -8.5q-34 -5 -69 -12q-13 -2 -27.5 -4t-28.5 -2
q-13 0 -17.5 5.5t-4.5 13.5q0 11 23 39t56 62t69 69t63 62q22 22 55.5 56t65 76.5t54.5 90.5t23 98q0 34 -9 55.5t-23 34t-32.5 17.5t-37.5 5q-26 0 -53.5 -8.5t-50 -24t-36.5 -37.5t-14 -48q0 -17 -8 -17.5t-16 -0.5q-12 0 -16 6t-4 22q0 21 19 45t51 45t74.5 34.5
t89.5 13.5q13 0 37.5 -2.5t48.5 -14.5t42 -37.5t18 -71.5q0 -34 -13.5 -68.5t-36.5 -69t-54 -68.5t-66 -66z" />
    <glyph glyph-name="three" unicode="3" 
d="M445 614q-6 -1 -19.5 -2t-30.5 -2t-37 -2t-39 -1q-46 -2 -100 -2q-7 0 -15.5 -1.5t-16 -1.5t-13 2t-5.5 8q0 15 12 26t29.5 19t36 12t30.5 4h101q13 0 32.5 0.5t37.5 1.5t32 1.5t17 0.5q13 0 20.5 -3t7.5 -16q0 -2 -11 -15t-28.5 -32.5t-39.5 -42t-43.5 -45t-40.5 -41.5
t-31 -30q57 -13 83.5 -49.5t26.5 -104.5q0 -40 -18 -78t-44.5 -70.5t-55 -56.5t-49.5 -36q-37 -21 -67 -33t-56 -18.5t-48.5 -8t-43.5 -1.5q-14 0 -28 2t-25 6t-18 9.5t-7 12.5q0 10 5 18.5t12.5 15.5t15 10.5t13.5 3.5q4 -5 8.5 -12t13 -14t23.5 -11.5t39 -4.5
q52 0 97.5 18.5t79 53t52.5 83.5t19 109q0 24 -3.5 39.5t-10.5 25.5t-17.5 16.5t-23.5 13.5q-6 3 -15 5t-17.5 3.5t-14 3.5t-5.5 5q0 4 6 10.5t14 14t16.5 14.5t13.5 13q18 19 39.5 41.5t42 43.5t37 39t24.5 30z" />
    <glyph glyph-name="four" unicode="4" 
d="M307 310q14 46 28.5 95.5t27.5 90.5t22.5 69t13.5 32t6 7t4.5 5t7 4.5t12.5 5.5q5 2 11.5 4t26.5 3q7 0 7 -9q0 -2 -11 -27t-24 -63q-19 -57 -37 -113t-31 -101q17 0 26.5 -2.5t9.5 -15.5q0 -19 -7.5 -26.5t-15.5 -7.5h-9t-10 1q-6 0 -12 1q-6 -24 -18 -57t-20 -66
q-5 -20 -10 -44t-7 -38q-1 -6 -2.5 -19.5t-6.5 -20.5t-13.5 -13.5t-16.5 -10.5t-13 -7t-13 -3q-21 0 -22 14q0 11 9 40.5t20 69.5l10 35t9 29t11.5 35t16.5 54q-20 -1 -47.5 -4t-59.5 -7q-21 -3 -41.5 -6.5t-39.5 -6.5t-34.5 -5.5t-25.5 -2.5q-8 0 -14 2.5t-6 12.5
q0 8 11.5 22t19.5 23q29 32 63 77t78 107q21 30 39.5 62.5t32.5 63t22.5 56t11.5 42.5q4 4 11 9t15 8.5t16 4t16 -3.5q-5 -20 -16 -44t-25 -49.5t-29 -49.5t-26 -43q-22 -35 -51 -77.5t-55 -79.5q-31 -43 -64 -87q5 1 16.5 3t27 4t33 4.5t34.5 4.5q16 2 34 3t35 3q18 2 38 3
z" />
    <glyph glyph-name="five" unicode="5" 
d="M431 294q0 -63 -28 -113t-71.5 -88t-95 -62.5t-99.5 -36.5q-38 -8 -92 -10q-15 0 -28.5 1.5t-25.5 6.5q-24 9 -24 22q0 9 5 16t11.5 12.5t13 9t10.5 4.5q11 -15 21.5 -23t22 -12t24 -4.5t27.5 -0.5q46 0 90.5 21.5t79 56.5t56 79t21.5 89q0 24 -8 46.5t-23.5 40
t-37.5 27.5t-50 10q-13 0 -21.5 -1.5t-17.5 -3.5q-8 -9 -18 -13.5t-17 -4.5q-20 0 -20 11q0 8 2.5 14t4.5 14q2 6 6 19.5t9.5 32t11.5 40t12 43.5q14 50 31 111q-2 10 2.5 17.5t12.5 10.5q7 3 13 4.5t18 2.5q75 5 145 6t121 1q6 0 13 -2.5t7 -8.5t-9 -18.5t-20 -23.5
q-21 -19 -34 -19q-8 0 -13 5t-19 5q-9 0 -33.5 2.5t-48.5 2.5q-17 0 -37 -1t-38 -2q-21 -2 -43 -3l-50 -193q13 2 24.5 4.5t31.5 2.5q29 0 60 -6t56.5 -22.5t42 -45t16.5 -73.5z" />
    <glyph glyph-name="six" unicode="6" horiz-adv-x="547" 
d="M102 208q0 -32 5.5 -62.5t19 -55t35.5 -39.5t54 -15t63.5 14t57 42t41 69.5t15.5 96.5q0 38 -11.5 63t-28 39.5t-35.5 20t-34 5.5q-10 0 -25.5 -1.5t-34 -7t-38.5 -16t-38 -28.5l-4 17q21 24 46.5 40.5t51 26.5t49 14.5t41.5 4.5q27 0 52 -8t43.5 -25.5t29.5 -44.5
t11 -64q0 -61 -31.5 -117.5t-78 -99.5t-98.5 -69t-94 -26q-75 0 -108.5 47t-33.5 124q0 49 12.5 111.5t52.5 135.5q39 72 94.5 125t118 90t128 59t125.5 32q4 1 8 0q8 -2 8 -14q0 -6 -6 -10q-3 -2 -6 -2q-6 0 -37 -5t-73.5 -20t-92 -41.5t-92.5 -70.5q-42 -42 -72.5 -81
t-50.5 -79t-29.5 -82.5t-9.5 -92.5z" />
    <glyph glyph-name="seven" unicode="7" 
d="M428 616q-11 -2 -44.5 -4t-90.5 -4q-19 -1 -46 -1t-64 -2q-11 -1 -18.5 -1.5t-14.5 -0.5q-17 0 -17 9q0 10 9 22t29 21q37 18 70 18h36q15 0 32.5 -0.5t32.5 0.5q42 1 70 1.5t49 2.5q6 1 11.5 1h8.5q12 0 13 -10q0 -46 -34 -104q-26 -43 -71.5 -93.5t-93.5 -111.5
q-27 -35 -49.5 -65.5t-41.5 -57.5q-35 -53 -49 -91q-11 -34 -13 -77q0 -15 8 -20t8 -12q0 -11 -22 -29q-22 -17 -34 -17q-11 0 -19.5 6.5t-8.5 23.5q0 52 56 146q36 60 78 120q14 20 32.5 43.5t38.5 50.5q26 35 51.5 70.5t46.5 67.5t34.5 57.5t16.5 40.5z" />
    <glyph glyph-name="eight" unicode="8" horiz-adv-x="547" 
d="M532 594q0 -32 -11.5 -60t-29.5 -50.5t-40 -40t-43 -31t-37.5 -21.5t-24.5 -12q12 -10 31 -25.5t37 -36.5t31 -46.5t13 -54.5q0 -60 -25 -106t-64.5 -76.5t-87.5 -46t-94 -15.5q-35 0 -67 9t-56.5 28t-39 47.5t-14.5 67.5q0 45 20.5 82t53.5 67t74 54t82 43
q-11 6 -27.5 20t-31.5 33t-26 42.5t-11 50.5q0 48 21 81.5t53.5 55t72 31.5t77.5 12q73 4 118.5 -21.5t45.5 -80.5zM463 574q0 17 -5.5 33.5t-17.5 29t-31 20t-47 7.5q-27 0 -53 -7t-47 -20t-33.5 -32.5t-12.5 -44.5q0 -35 10.5 -60t26 -44t33.5 -32.5t32 -25.5
q68 33 106.5 74.5t38.5 101.5zM267 347q-50 -21 -89 -50q-33 -25 -60.5 -62t-27.5 -87q0 -46 16.5 -73t40 -40.5t47.5 -17t39 -3.5q34 0 63 11.5t51 32.5t34.5 50.5t12.5 65.5q0 30 -16.5 59t-38 52.5t-42.5 40t-30 21.5z" />
    <glyph glyph-name="nine" unicode="9" horiz-adv-x="547" 
d="M458 387q-28 -32 -58.5 -53t-59 -33t-53 -17t-40.5 -5q-27 0 -52 8t-43.5 25.5t-29.5 44t-11 64.5q0 66 33 117.5t80 87t98.5 54.5t88.5 19t64 -13t44 -34.5t25 -49t8 -55.5q0 -14 -1 -36.5t-6 -52t-16 -63.5t-31 -71q-43 -78 -100.5 -136.5t-122 -99.5t-130.5 -65
t-126 -34q-4 -1 -8 0q-8 2 -8 14q0 6 6 10q3 2 6 2q6 0 38.5 7t76.5 24.5t94.5 46t92.5 72.5q57 59 90.5 112t50.5 110zM466 421q8 43 8 86q0 31 -6 59.5t-19.5 50t-34.5 34t-51 12.5q-20 0 -50 -11.5t-58 -36.5t-48.5 -64t-20.5 -94q0 -38 11.5 -63t28 -39.5t35.5 -20
t34 -5.5q18 0 36.5 3.5t39 13.5t43.5 28t52 47z" />
    <glyph glyph-name="colon" unicode=":" horiz-adv-x="233" 
d="M149 46q-2 -24 -16.5 -43.5t-45.5 -19.5q-21 0 -29.5 8.5t-6.5 33.5q2 32 15.5 50t49.5 18q22 0 28.5 -12t4.5 -35zM203 392q-2 -24 -16.5 -43.5t-45.5 -19.5q-21 0 -29.5 8.5t-6.5 33.5q2 32 15.5 50t49.5 18q22 0 28.5 -12t4.5 -35z" />
    <glyph glyph-name="semicolon" unicode=";" horiz-adv-x="233" 
d="M51 33q0 13 7.5 22t15.5 16q15 13 22.5 17t15.5 4q14 0 21.5 -14t7.5 -60q0 -52 -21.5 -96t-49 -76t-52.5 -50t-32 -18q-8 0 -7.5 1.5t0.5 6.5q0 4 7 10t17.5 14.5t22 19.5t20.5 25q12 20 17 43t5 45q0 15 -2.5 25.5t-6 20t-6 20t-2.5 24.5zM203 392q-2 -24 -16.5 -43.5
t-45.5 -19.5q-21 0 -29.5 8.5t-6.5 33.5q2 32 15.5 50t49.5 18q22 0 28.5 -12t4.5 -35z" />
    <glyph glyph-name="semicolon" unicode="&#x37e;" horiz-adv-x="233" 
d="M51 33q0 13 7.5 22t15.5 16q15 13 22.5 17t15.5 4q14 0 21.5 -14t7.5 -60q0 -52 -21.5 -96t-49 -76t-52.5 -50t-32 -18q-8 0 -7.5 1.5t0.5 6.5q0 4 7 10t17.5 14.5t22 19.5t20.5 25q12 20 17 43t5 45q0 15 -2.5 25.5t-6 20t-6 20t-2.5 24.5zM203 392q-2 -24 -16.5 -43.5
t-45.5 -19.5q-21 0 -29.5 8.5t-6.5 33.5q2 32 15.5 50t49.5 18q22 0 28.5 -12t4.5 -35z" />
    <glyph glyph-name="less" unicode="&#x3c;" horiz-adv-x="513" 
d="M394 122q-8 -14 -14 -29t-22 -15q-4 0 -19 10t-37.5 26t-50 36.5t-55.5 42.5q-66 50 -147 115l385 279q5 3 8.5 5t10.5 2q10 0 10 -15q0 -9 -11.5 -16.5t-22.5 -15.5l-309 -227q50 -38 98 -75q41 -32 88.5 -66t87.5 -57z" />
    <glyph glyph-name="equal" unicode="=" horiz-adv-x="450" 
d="M93 305h-15t-11 -1q-18 0 -18 11q0 23 20 32q22 8 54 8h155q24 0 45.5 2t45.5 2q6 0 12.5 -2.5t7.5 -8.5q0 -27 -52 -36q-11 -2 -35 -3t-62 -2q-37 -1 -73.5 -0.5t-73.5 -1.5zM115 165q-9 0 -15 -0.5t-11 -0.5q-18 0 -18 11q0 23 20 32q22 8 54 8h121q34 0 54.5 2t36.5 2
q6 0 12.5 -2.5t7.5 -8.5q0 -9 -19 -19q-9 -5 -22.5 -9t-38.5 -9q-9 -2 -27.5 -3t-47.5 -1t-53.5 -0.5t-53.5 -1.5z" />
    <glyph glyph-name="greater" unicode="&#x3e;" horiz-adv-x="491" 
d="M118 550q4 7 7 15t7 14.5t9 10.5t13 4q3 0 18.5 -10t38 -26t50 -37t55.5 -42q66 -51 147 -115l-385 -279q-5 -3 -8.5 -5t-10.5 -2q-10 0 -10 15q0 9 11.5 16.5t22.5 15.5l309 227q-50 38 -98 75q-21 16 -43.5 32.5t-45.5 32.5t-45.5 31t-41.5 27z" />
    <glyph glyph-name="question" unicode="?" horiz-adv-x="473" 
d="M276 332q-51 -53 -70.5 -84t-19.5 -51q0 -6 -6 -13t-14.5 -13t-18 -10t-15.5 -4q-5 0 -6 3t-1 8q1 11 5 22t15 27.5t31.5 41t53.5 63.5q21 24 43.5 49t41 52.5t31 59.5t12.5 71q0 63 -19.5 90t-53.5 27q-30 0 -57.5 -8.5t-48.5 -26t-33.5 -45t-12.5 -65.5q0 -17 -8 -17.5
t-16 -0.5q-12 0 -16 6t-4 22q0 20 15.5 48t44.5 54t70 44.5t92 18.5q21 0 44.5 -3t42.5 -14t31.5 -34t12.5 -62q0 -33 -15 -65.5t-38.5 -65t-53 -64t-59.5 -61.5zM165 46q-2 -24 -16.5 -43.5t-45.5 -19.5q-21 0 -29.5 8.5t-6.5 33.5q2 32 15.5 50t49.5 18q22 0 28.5 -12
t4.5 -35z" />
    <glyph glyph-name="at" unicode="@" horiz-adv-x="888" 
d="M597 86q36 0 77.5 30.5t77 80t59 113t23.5 129.5t-21.5 117t-58 86.5t-85 53.5t-102.5 18q-90 0 -174 -39t-149 -112.5t-104.5 -178t-39.5 -235.5q0 -74 24 -135t65.5 -105.5t96 -69t115.5 -24.5q56 0 111.5 18t105 48t90.5 68.5t68 78.5q9 11 18 13q10 0 11 -14
q0 -9 -9 -19q-43 -50 -86.5 -90.5t-93 -68.5t-108 -43t-132.5 -15q-68 0 -128.5 25.5t-106.5 74.5t-73 121t-27 165q0 121 41.5 222.5t112.5 175.5t165 115.5t198 41.5q72 0 131 -19.5t101.5 -56t66 -87.5t23.5 -114q0 -62 -18.5 -120t-51.5 -108.5t-77.5 -91t-96.5 -67.5
q-23 -12 -44 -18t-42 -6q-26 0 -35.5 22t-9.5 47q0 6 2.5 31.5t11.5 64.5q-54 -81 -101 -121t-80 -40q-29 0 -43.5 20.5t-14.5 57.5q0 21 6 47t17.5 54t29.5 56t42 54q87 92 176 105q3 0 10.5 1t16.5 2.5t18.5 3t16.5 1.5q8 0 16 -2.5t8 -7.5q0 -8 -9 -17q-8 -6 -21 -6
q-2 0 -9.5 0.5t-15.5 1t-15.5 1t-10.5 1.5q-20 0 -39 -9q-14 -6 -31.5 -19t-35.5 -31.5t-35 -43t-29 -54.5q-27 -63 -27 -116q0 -49 22 -49q11 0 35.5 19t62.5 71q35 46 56 92q5 13 10.5 30t13.5 38q12 30 24.5 41.5t23.5 13.5q5 1 10.5 1.5t12.5 0.5q8 0 8 -7
q0 -3 -3.5 -14.5t-9 -28t-11.5 -36.5t-12 -42q-4 -16 -9 -39t-9.5 -46t-7.5 -43.5t-3 -32.5q0 -11 5.5 -21t18.5 -10z" />
    <glyph glyph-name="A" unicode="A" horiz-adv-x="553" 
d="M548 653q0 -8 -11 -48.5t-33 -119.5q-15 -53 -23.5 -85.5t-12.5 -46.5l23 1q9 0 9 -4q0 -8 -10 -18q-8 -8 -30 -10q-21 -89 -33 -156q-5 -33 -7.5 -57t-3.5 -39q0 -16 -4 -24q-3 -5 -10 -14t-16.5 -18t-21.5 -15.5t-24 -6.5q-8 0 -12.5 5.5t-4.5 13.5q0 14 4 34t12 55
q7 31 20 88.5t28 129.5q-57 0 -117 -8t-107 -19q-12 -23 -22 -44t-18 -41q-7 -17 -15 -40t-14.5 -48t-11 -48.5t-4.5 -42.5q-8 -17 -26 -30t-30 -13q-10 0 -17 5.5t-8 25.5q-1 33 38 125q17 38 34 73t35 67q-11 -4 -21.5 -8t-19.5 -4t-9 14q0 12 10 18q5 4 15.5 7t26.5 8
l24 7q31 46 62 89.5t68 85.5q36 41 67 72.5t58 54.5q25 20 52 38.5t39 22.5q15 5 24.5 7t29.5 2q19 0 19 -16q0 -10 -0.5 -15t-0.5 -10zM459 609q0 8 -2.5 10t-13.5 2q-7 0 -22.5 -10.5t-36.5 -30t-46.5 -47t-52.5 -60.5q-57 -69 -100 -143q30 5 66.5 9.5t68.5 7.5
q38 4 76 5q8 27 18 65t23 89q11 44 16 69.5t6 33.5z" />
    <glyph glyph-name="B" unicode="B" horiz-adv-x="512" 
d="M259 392q13 0 33 5q24 7 49.5 21t46.5 35t34.5 49.5t13.5 63.5q0 49 -27.5 76.5t-80.5 27.5q-17 0 -30 -1t-27 -4q-5 -14 -17.5 -58t-35.5 -131l-92 -344q-7 -25 -14 -52t-10 -46q19 -2 46 -2t46 5q19 4 40.5 13t42.5 22.5t39.5 30t31.5 35.5q36 54 36 124q0 50 -34.5 76
t-89.5 28q-9 0 -15 -0.5t-11 -0.5q-18 0 -19 13q0 8 7 11t22 3h15v0zM362 400q48 -11 74.5 -43t27.5 -81q1 -78 -58 -148q-43 -50 -103 -79.5t-115 -41.5q-26 -5 -50.5 -7.5t-49.5 -3.5q-6 0 -14.5 -0.5t-17 -1.5t-16 -1.5t-10.5 -0.5q-5 0 -10 1t-5 9q0 9 1.5 18t9.5 36
l67 245q3 12 19.5 69.5t47.5 163.5q20 69 30 115h-7.5t-8.5 1q-7 1 -8 11q0 11 20 18q12 4 30 8t39.5 7t45 5t46.5 2q78 0 120.5 -27t42.5 -86q0 -63 -38 -107.5t-110 -80.5z" />
    <glyph glyph-name="C" unicode="C" horiz-adv-x="502" 
d="M487 648q0 -22 -3 -41.5t-12 -31.5q-5 -7 -13.5 -13.5t-26.5 -12.5q-12 -4 -27 -4q-6 0 -7 7q5 14 9.5 30.5t4.5 35.5q0 28 -41 28q-45 0 -92 -35t-84.5 -94.5t-61.5 -138t-24 -165.5q0 -84 37 -131.5t107 -47.5q26 0 59 12t65 30q15 9 21 9q7 0 6 -15q0 -8 -40 -34
q-38 -25 -78.5 -40.5t-96.5 -15.5q-71 0 -113.5 46t-42.5 128q0 16 2 38.5t6.5 49t11.5 54.5t17 55q39 108 96.5 185t131.5 124q66 42 122 42q16 0 31 -2t25 -10q5 -5 8 -17t3 -25z" />
    <glyph glyph-name="D" unicode="D" horiz-adv-x="621" 
d="M606 511q0 -68 -17.5 -137t-52 -132.5t-85.5 -117.5t-118 -92q-92 -53 -178 -53q-27 0 -47 2t-29 5q-3 -2 -9.5 -4t-15.5 -2q-22 0 -22 14q0 13 7 43.5t17.5 69.5t23.5 82.5t24 83.5q14 49 28 97.5t26.5 92t23 79t16.5 58.5q3 12 5.5 23.5t1.5 17.5q-18 12 -18 25
q0 18 73 33q46 9 98 9q122 0 185 -46.5t63 -150.5zM302 663q-6 -16 -9 -23.5t-5.5 -15.5t-6.5 -21l-12 -39q-22 -73 -44 -150t-45 -163q-23 -85 -35 -139t-17 -77q11 -3 19.5 -4.5t17.5 -3t21 -2t30 -0.5q58 0 123 46q93 65 138 168.5t45 228.5q0 54 -11.5 92.5t-32.5 62.5
t-50.5 35.5t-65.5 11.5q-43 0 -60 -7z" />
    <glyph glyph-name="E" unicode="E" horiz-adv-x="460" 
d="M54 -25q-6 -2 -10 -2q-17 0 -17 15q0 16 9 45.5t18 66.5q3 13 12.5 49t21 77t21.5 77.5t13 49.5h-12q-21 0 -21 11q0 18 12 26q11 5 33 7q10 33 18 56.5t14.5 44t13 41.5t14.5 49q2 9 6 24.5t6 26.5h-12t-14 1q-13 1 -14 11q0 9 20 18q10 5 21.5 8t25.5 6q28 5 50 6
q11 1 27 1.5t37 0.5q27 1 48 0.5t36 0.5q23 1 38 3t29 2q6 0 13 -2.5t7 -8.5q0 -9 -19 -19q-13 -7 -39 -14t-60 -7h-37q-9 0 -21.5 -1t-23.5 -2q-13 -1 -27 -2l-24 -83l-50 -160h45l91 4q18 1 20 -11q0 -9 -23 -18q-11 -5 -22 -7.5t-30 -5.5q-15 -2 -38 -3t-55 -2
q-13 -43 -24 -84q-10 -35 -20.5 -75t-17.5 -72q-4 -17 -5.5 -36.5t-7.5 -40.5q-1 -3 -2 -6.5t-2 -6.5l-3 -6h129l91 4q20 2 20 -11q0 -7 -20 -18t-60 -19q-9 -2 -28.5 -2.5t-49.5 -1.5h-57.5t-56.5 -2h-15.5t-15.5 -1z" />
    <glyph glyph-name="F" unicode="F" horiz-adv-x="385" 
d="M267 563q-8 -25 -16.5 -53.5t-16.5 -53.5q-9 -29 -17 -58h45l91 4q18 1 20 -11q0 -9 -19 -19q-18 -9 -61 -18q-14 -2 -36 -3t-54 -2l-24 -84q-9 -32 -18 -66t-18 -75q-4 -17 -6.5 -38.5t-5.5 -34.5q-2 -9 -5 -17t-10 -16q-5 -6 -13 -13.5t-17 -14t-19 -11.5t-18 -5
q-22 0 -22 14q0 9 3.5 25t8 32.5t9 31.5t6.5 23q5 17 10.5 37t13.5 48.5t18 67.5t24 94h-12q-21 0 -21 11q0 19 13 29q13 8 34 10l60 196q2 5 6 20t6 26h-12t-14 1q-13 1 -14 11q0 9 20 18q19 9 45.5 13.5t51.5 6.5q11 1 27 1.5t37 0.5q27 1 48 0.5t36 0.5q23 1 39 3t28 2
q6 0 13 -2.5t7 -8.5q0 -9 -19 -19q-13 -7 -39 -14t-60 -7h-37q-8 0 -20.5 -1t-23.5 -2l-28 -2q-5 -13 -9 -27q-4 -12 -8 -26t-7 -25z" />
    <glyph glyph-name="G" unicode="G" horiz-adv-x="533" 
d="M442 702h16.5t15.5 -2q13 0 24 -10q11 -9 11 -42q0 -21 -5.5 -39t-11.5 -27q-3 -7 -15 -15q-20 -14 -31 -18t-19 -4q-6 0 -7 7q5 14 9.5 32.5t4.5 33.5t-13.5 21.5t-27.5 6.5q-37 0 -72 -18t-67 -49.5t-58.5 -73.5t-45.5 -90t-30 -100t-11 -102q0 -83 33.5 -131
t110.5 -48q44 0 78 14t45 28l41 179q-19 -2 -41 -3t-55 -3q-38 -2 -55 -5.5t-25 0.5q0 12 24 29q22 14 56 20h85h88l-55 -198q-3 -9 -24 -28.5t-54.5 -38.5t-78 -33.5t-93.5 -14.5q-71 0 -113.5 46t-42.5 128q0 62 16.5 126t46 125t68.5 114.5t84.5 93.5t95 64t98.5 25z" />
    <glyph glyph-name="H" unicode="H" horiz-adv-x="588" 
d="M602 687q0 -4 -5.5 -17.5t-13 -31t-15.5 -37.5t-14 -37q-9 -26 -18.5 -55.5t-17.5 -54.5q-10 -30 -18 -58h10q5 0 9 0.5t9 0.5q4 0 8 -1.5t4 -6.5q0 -19 -18 -27q-11 -5 -21 -6q-6 -1 -12 -1q-9 -33 -16 -64.5t-14 -63.5q-2 -11 -7.5 -43t-10.5 -75q-1 -12 -1.5 -19
t-1.5 -11.5t-2 -8.5t-3 -11q-3 -10 -7.5 -16.5t-12.5 -15.5q-14 -14 -23 -21t-20 -7q-2 0 -5 0.5t-5.5 5t-4 14.5t-1.5 28q0 7 2.5 25.5t6.5 44t10 56t13 62.5q3 15 8 35.5t10 38.5l11 44q-23 -2 -53.5 -3.5t-61 -3.5t-58 -4t-45.5 -5q-5 -15 -12 -38t-14.5 -51.5t-15.5 -60
t-15 -62.5q-3 -11 -5.5 -24.5t-4.5 -25.5q-3 -14 -4 -28q-1 -10 -9 -20q-7 -9 -15.5 -18t-22.5 -20q-9 -8 -18.5 -12t-14.5 -4q-9 0 -14 3t-5 12q0 17 25 118l13 52t21 78q4 15 9.5 35.5t13.5 47.5l-65 -13q-9 0 -10 12q0 10 5.5 18t22.5 15q11 5 30 9t33 6l69 232
q3 11 7 23.5t8 22.5q11 31 25.5 42t34.5 16q9 2 16.5 2.5t16.5 0.5q7 0 7 -9q0 -5 -10.5 -36t-31.5 -95q-8 -23 -17 -51t-17 -54.5t-14.5 -48t-8.5 -31.5q11 1 37 2.5t57.5 3t64 3t55.5 3.5q12 41 24 80q11 33 22 69t20 62q13 38 24.5 56t18.5 22q24 13 43 15q10 1 19 0
q3 0 5 -1.5t2 -7.5z" />
    <glyph glyph-name="I" unicode="I" horiz-adv-x="328" 
d="M264 568q-8 -23 -18 -56.5t-21.5 -74t-24.5 -84.5t-25 -88q-9 -32 -18.5 -69t-17.5 -72q-5 -22 -6.5 -37.5t-3.5 -26.5q-3 -19 -9 -29q-3 -5 -11.5 -14.5t-19.5 -19t-22 -16.5t-18 -7t-14.5 1.5t-7.5 12.5q0 4 3.5 19t8 33t9 35t6.5 25q14 56 31.5 121.5t39.5 142.5
q12 43 26 90t26.5 87.5t21 69t10.5 33.5q7 18 14 28.5t14 16.5t15 8.5t17 4.5t16.5 2.5t16.5 0.5q7 0 7 -9q0 -5 -12 -34.5t-33 -93.5z" />
    <glyph glyph-name="J" unicode="J" horiz-adv-x="328" 
d="M269 702q9 2 19 2.5t18 0.5q7 0 7 -9q0 -5 -12 -35t-33 -93q-8 -23 -12.5 -37t-7.5 -24.5l-6 -21t-8 -25.5q-5 -14 -14.5 -50.5t-26.5 -93.5q-22 -72 -38.5 -119.5t-30 -79t-26 -51.5t-26.5 -37q-11 -13 -28 -29t-35 -30t-34 -23.5t-25 -9.5q-10 0 -10 6q0 9 9 15
t23.5 19t33 39.5t37.5 76.5q11 30 30.5 96t51.5 175l69 234q9 30 17 48.5t16.5 29.5t18.5 17t23 9z" />
    <glyph glyph-name="K" unicode="K" horiz-adv-x="532" 
d="M575 647q0 -6 -1 -14t-6 -20q-3 -8 -8.5 -16t-16.5 -14q-15 -9 -30 -11q2 6 3 12.5t1 14.5q0 14 -5 18t-18 4q-14 0 -46.5 -20t-71.5 -61q-28 -28 -55.5 -57t-46.5 -55q16 -48 31.5 -91.5t34.5 -90.5q14 -36 25 -62t21 -48.5t20 -43.5t24 -46q9 -16 18.5 -26.5
t17.5 -17.5q-5 -10 -18.5 -14.5t-28.5 -4.5q-27 0 -45.5 15.5t-37.5 53.5q-7 13 -12 25.5t-10.5 26t-12 30.5t-15.5 40q-8 18 -18.5 45.5t-22 57t-23 57t-20.5 45.5q-16 -51 -32 -101q-14 -43 -29.5 -92t-28.5 -91q-12 -40 -24.5 -61.5t-23.5 -26.5q-14 -6 -23.5 -9
t-19.5 -3q-15 0 -15 14q0 3 1.5 10.5t6.5 21.5q17 51 32 95t29.5 88t30 93t35.5 110q18 56 32 107t25 88q4 14 6 27.5t4 18.5q4 12 15.5 20t25 13t27 7t22.5 2t9 -9q0 -6 -27 -84l-76 -226q45 54 113.5 127.5t162.5 151.5q17 14 34 20.5t31 6.5q30 0 30 -50z" />
    <glyph glyph-name="L" unicode="L" horiz-adv-x="386" 
d="M179 265q-14 -52 -23 -89.5t-15 -65t-10.5 -47t-9.5 -35.5h131q20 0 33.5 0.5t23 1.5t17.5 1.5t17 0.5q7 0 13.5 -1.5t6.5 -9.5q0 -11 -18 -19.5t-62 -17.5q-9 -2 -28.5 -2.5t-49.5 -1.5q-29 0 -58.5 -0.5t-55.5 -1.5h-15.5t-15.5 -1q-3 -1 -7 -2q-8 -2 -12 -2
q-14 0 -14 15q0 8 2.5 21t6.5 28t8.5 31.5t9.5 31.5l140 484q8 28 16 47.5t19 31.5q8 10 19 19t22 14q18 9 36 9q7 0 7 -9q0 -3 -5 -16.5t-12 -32t-14.5 -39.5t-13.5 -40q-12 -38 -26 -84.5t-26.5 -90.5t-22.5 -79z" />
    <glyph glyph-name="M" unicode="M" horiz-adv-x="846" 
d="M856 697q0 -4 -2 -9t-6.5 -15t-11 -28t-15.5 -47q-11 -35 -20 -69.5t-19 -69.5t-20.5 -79.5t-20 -86.5t-16.5 -76.5t-9 -48.5q-4 -24 -6 -42.5t-2 -29.5q0 -6 1.5 -12.5t1.5 -11.5q0 -13 -8 -25q-8 -11 -18.5 -22t-21.5 -19.5t-21 -13.5t-17 -5q-18 0 -18 19q0 14 1 26.5
t4 30t7.5 42.5t12.5 64q5 25 15 70.5t22.5 97.5t25.5 103.5t23 89.5l-5 4q-18 -26 -43.5 -64t-57.5 -84.5t-69.5 -101t-79.5 -114.5q-21 -30 -39.5 -58t-35 -52t-29 -41.5t-21.5 -25.5q-11 -11 -18.5 -14t-21.5 -3q-5 0 -9.5 6t-4.5 18q0 13 1.5 33t4.5 42q1 9 8 44.5t17 86
t22.5 110t24.5 117t23 106t18 77.5q-16 -15 -40 -43t-51 -63.5t-54.5 -75.5t-49.5 -78q-26 -44 -46 -90.5t-36 -95.5q-14 -43 -20.5 -77.5t-7.5 -60.5q-4 -5 -12.5 -15t-19 -19.5t-21.5 -16.5t-19 -7q-6 0 -10 9.5t-4 26.5q0 24 9 58t29 79q23 54 54.5 111t81.5 132
q20 30 48.5 67.5t59.5 76t60.5 73.5t51.5 60q17 14 30 20t31 14q5 2 8 1.5t13 0.5q9 0 9 -10q0 -5 -3 -16t-8 -31.5t-12.5 -51t-17.5 -74.5q-12 -55 -25 -117.5t-23.5 -119.5t-18.5 -102.5t-11 -66.5q9 10 23 30t29.5 42t30 42.5t22.5 32.5q47 68 79.5 116t57 84t43 65
t37.5 59q22 36 35 55.5t20.5 30t12.5 14t12 8.5q13 8 31 11t31 3q9 0 11.5 -2.5t2.5 -7.5z" />
    <glyph glyph-name="N" unicode="N" horiz-adv-x="571" 
d="M197 578q-3 -9 -10.5 -36t-18.5 -68t-24 -94.5t-26 -114.5q-11 -53 -18.5 -93.5t-12.5 -68.5q-6 -33 -10 -56q-2 -7 -3.5 -12.5t-3.5 -10.5t-6 -10t-11 -11q-5 -3 -16 -8.5t-24 -5.5q-7 0 -4.5 15t6.5 32q21 93 37.5 163t32.5 133l32 126t34 140q3 11 6.5 24t7 24.5t6 20
t4.5 10.5q8 10 21.5 19t29.5 9q11 0 19 -2t13 -17q5 -16 6 -27.5t5 -27.5q3 -15 10 -47.5t18 -83.5q18 -84 29.5 -139.5t19 -92t12 -58t8 -35.5t6 -26t7.5 -29q21 92 41 180q9 37 18 77.5t17.5 79.5t16.5 76t15 67q2 10 4.5 22t5 23.5t5 20t4.5 11.5q6 11 20 19.5t40 8.5
q6 0 6 -9l-38 -128q-6 -19 -14.5 -51.5t-18.5 -73t-21 -86.5l-22 -92q-5 -21 -10 -45.5t-10 -45.5l-10 -50q-4 -24 -8 -43q-3 -17 -6.5 -32t-5.5 -19q-2 -3 -9 -12.5t-16 -19t-18.5 -17t-16.5 -7.5q-12 0 -19 11t-15 34q-5 13 -12 43.5t-16 69.5t-18.5 82.5t-17.5 84.5
q-14 70 -27 140t-26 139z" />
    <glyph glyph-name="O" unicode="O" horiz-adv-x="663" 
d="M639 545q1 -160 -121 -348q-32 -49 -69 -88.5t-77.5 -67.5t-83.5 -43.5t-85 -15.5q-75 0 -116.5 36.5t-42.5 112.5q0 42 11.5 88t32.5 93.5t49 94t61 89.5q18 24 40 48t45.5 45.5t47.5 40t47 31.5q21 12 39.5 17.5t31.5 5.5q23 11 39 14.5t39 3.5q25 0 45.5 -11.5
t35.5 -32.5t23 -50t8 -63zM547 507q0 62 -22.5 96t-60.5 35q-152 4 -261 -220q-30 -63 -48.5 -130.5t-18.5 -124.5q0 -56 27 -91t92 -35q23 0 48.5 9t51 25.5t49.5 39.5t45 52q23 33 41.5 73t31 84.5t19 92t6.5 94.5z" />
    <glyph glyph-name="P" unicode="P" horiz-adv-x="524" 
d="M112 53q0 -7 -9 -20q-5 -8 -15 -17t-20.5 -17t-20.5 -13.5t-16 -5.5q-21 0 -22 14q0 5 1 11.5t4 17.5q9 33 20.5 76t25.5 91q14 50 24.5 86.5t21 72.5t23.5 79t31 106q10 32 17.5 61.5t12.5 53.5h-7.5t-8.5 1q-7 1 -8 11q0 11 20 18q11 4 34 8t47.5 7t47 5t32.5 2
q85 0 125 -32.5t40 -110.5q0 -35 -16 -73.5t-45 -69.5q-42 -45 -96 -69.5t-108 -24.5h-18.5t-14.5 2q-9 3 -9 17q0 13 22 13q5 0 11.5 -0.5t14.5 -0.5q31 0 64 10.5t60 33t44 57.5t17 83q0 66 -27 100t-83 34q-35 0 -57 -5q-2 -7 -2.5 -8.5t-4.5 -16t-14.5 -51t-31.5 -113.5
q-20 -71 -35 -127t-26 -98t-18.5 -71.5t-12.5 -47.5q-7 -28 -8 -44t-6 -35z" />
    <glyph glyph-name="Q" unicode="Q" horiz-adv-x="619" 
d="M244 35q-7 11 -12 16t-12 11q6 14 51 14q8 0 18 -5t19 -14q60 27 103 93.5t73 162.5q16 51 24 99t8 95q1 71 -19 102t-64 31q-41 0 -75 -16t-68 -46q-32 -28 -64 -74t-57 -102t-40.5 -117.5t-15.5 -121.5q0 -62 29 -96.5t79 -32.5l23 1v0zM329 29q17 -21 31 -41.5
t31 -40.5q19 -23 35 -39.5t30 -27.5q-5 -9 -15 -14.5t-33 -5.5q-16 0 -35.5 12t-41.5 40q-14 18 -29.5 41t-31.5 46q-46 -17 -90 -17q-151 -2 -151 152q0 51 16.5 111.5t46.5 122t72.5 120.5t95.5 108q19 18 40 33.5t42 27t41 18t37 6.5q17 7 35.5 12.5t48.5 5.5
q45 0 70 -41t25 -112q0 -42 -6.5 -85t-20.5 -88q-17 -52 -42 -102.5t-56.5 -96t-68.5 -83t-76 -62.5z" />
    <glyph glyph-name="R" unicode="R" horiz-adv-x="524" 
d="M516 572q0 -35 -13 -69t-37 -63q-38 -44 -80.5 -65.5t-93.5 -32.5q6 -20 17 -53t27 -70q24 -55 43 -93.5t34 -65.5t27 -44.5t21 -30.5q0 -4 -6 -8.5t-15 -4.5q-13 0 -25 3t-25 11.5t-26.5 24t-29.5 39.5q-8 11 -20.5 35.5t-27 56t-30.5 68.5t-29 74q-22 59 -22 72
q0 8 5.5 10.5t16.5 2.5q9 0 13.5 -0.5t12.5 -0.5t26 2t39.5 9t45 21t41.5 38q33 43 33 98q0 134 -110 134q-13 0 -28.5 -1t-28.5 -4q-2 -7 -2.5 -8.5t-4.5 -16t-14.5 -51t-31.5 -113.5q-19 -70 -34 -124.5t-26 -96t-19 -72t-13 -51.5q-1 -5 -2.5 -14.5t-3.5 -20.5l-4 -22
t-3 -18q-2 -13 -10 -24q-5 -8 -14 -17t-19 -17t-20.5 -13.5t-18.5 -5.5q-22 0 -22 14q0 17 7 42t15 54l10 35l9 31.5t12 42.5t19.5 67t31.5 106.5t47 161.5q20 69 30 115h-7.5t-8.5 1q-7 1 -8 11q0 11 20 18q12 4 30 8t39.5 7t45 5t46.5 2q89 0 129 -31.5t40 -97.5z" />
    <glyph glyph-name="S" unicode="S" horiz-adv-x="497" 
d="M493 666q3 -17 3 -28t-10 -25q-5 -8 -15.5 -16.5t-27.5 -16.5q-1 15 -6 31.5t-17 30.5t-32.5 23t-50.5 9q-27 0 -52.5 -8t-45.5 -24.5t-32.5 -41t-12.5 -56.5q0 -38 19 -67.5t46.5 -56t60 -51t59.5 -51.5q26 -26 41 -56t15 -56q0 -51 -24 -93t-64.5 -72.5t-93.5 -47.5
t-110 -17q-22 0 -49 5.5t-50.5 16.5t-39.5 29t-17 42q-1 31 19.5 53t55.5 23q0 -26 5.5 -48.5t19.5 -39t39 -26t63 -9.5q46 0 78.5 14t53.5 35.5t30.5 47.5t9.5 51q0 26 -15 53t-45 52q-57 48 -92.5 80.5t-55 57.5t-26 46.5t-6.5 46.5q0 40 19 77.5t51.5 66.5t76 46.5
t93.5 17.5q53 0 86 -14.5t46 -33.5z" />
    <glyph glyph-name="T" unicode="T" horiz-adv-x="366" 
d="M301 553q-6 -17 -14.5 -46.5t-21.5 -73.5q-24 -86 -48 -168q-9 -32 -18 -66.5t-18 -74.5q-2 -9 -3 -19t-3 -21q-4 -26 -8.5 -40.5t-12.5 -25.5q-5 -7 -14 -14.5t-19 -14t-19 -11t-15 -4.5q-22 0 -22 14q0 9 7.5 40t18 70t21.5 79.5t18 69.5q4 16 12.5 45.5t18.5 65t21 73
t20.5 69.5t16 54.5t8.5 28.5q3 9 4.5 16t4.5 16q2 6 6.5 14.5t10.5 16.5l-128 -2q-5 0 -15.5 -0.5t-22.5 -0.5t-22.5 -0.5t-13.5 -0.5q-18 0 -18 11q0 21 14 27q7 3 21.5 5t38.5 2q51 0 96 0.5t81 1.5t61.5 2t37.5 1l91 4q18 1 20 -11q0 -6 -10.5 -12t-28.5 -11
q-7 -2 -12.5 -3.5t-12 -3t-15.5 -3.5t-22 -3q-11 -2 -25 -1.5t-34 -0.5z" />
    <glyph glyph-name="U" unicode="U" horiz-adv-x="643" 
d="M646 679q0 -12 -13 -39t-33 -84t-35.5 -108.5t-29.5 -99.5q-15 -56 -28.5 -115t-25.5 -124q-3 -15 -4.5 -30t-6.5 -32q-6 -17 -33 -37q-5 -4 -13 -6.5t-16 -2.5q-10 0 -12.5 6t-2.5 14q0 5 0.5 18t2.5 22q2 14 6.5 33t9.5 39q2 10 8 33.5t13.5 55.5t16.5 68.5t17.5 70.5
t16 62.5t12.5 45.5q-18 -24 -34 -45.5t-39.5 -51.5t-58.5 -73.5t-91 -112.5q-24 -30 -44 -54t-39 -46t-38 -41.5t-41 -40.5q-8 -8 -25.5 -17t-34.5 -9q-28 0 -28 49q0 11 7 38.5t22 74.5q25 77 42.5 132t30.5 97t23.5 76.5t21.5 70.5q9 29 17 62.5t13 51.5q6 22 16 38.5
t30 24.5q9 4 21 5.5t23 1.5q8 0 8 -9q0 -13 -4.5 -38t-15.5 -60q-14 -42 -25.5 -78.5t-22.5 -70.5t-22 -67t-22 -67t-21.5 -67.5t-18 -61.5t-12 -47.5t-4.5 -26.5q0 -11 7 -11q9 0 37.5 29t75.5 84q9 11 32.5 40t54.5 69.5t66 88.5t68 97q16 24 27 42t19 33t14.5 27.5
t13.5 25.5q14 25 24.5 34.5t25.5 15.5q10 4 23.5 5t19.5 1q8 0 8 -9z" />
    <glyph glyph-name="V" unicode="V" horiz-adv-x="545" 
d="M546 562q-7 -15 -20.5 -43t-31 -60t-36.5 -65.5t-37 -59.5q-50 -73 -96.5 -131.5t-87.5 -101.5t-73.5 -71.5t-53.5 -41.5q-11 -8 -21 -10.5t-26 -2.5q-6 0 -9.5 4t-3.5 9q0 10 1.5 20t4 23.5t7 31t10.5 43.5q7 29 13.5 57.5t13.5 60.5t15 69.5t17 85.5q13 67 20 107
t10 64t3.5 37t0.5 27q0 19 -15 19q-11 0 -20 -4t-14 -4q-8 0 -8 10q0 5 18 21.5t58 41.5q9 5 22 9.5t24 4.5q15 0 18.5 -10.5t3.5 -27.5q0 -22 -6.5 -69.5t-21.5 -132.5q-12 -66 -25.5 -132.5t-26.5 -123.5t-23 -100t-15 -62q33 21 81 69q32 32 61 67.5t57 75.5
q27 38 51 80.5t44 85t35.5 83t24.5 75.5q6 23 7 44.5t-1 35.5q2 5 11.5 12.5t21.5 15t26 13t25 5.5q14 0 14 -11q0 -10 -2 -22t-7.5 -28.5t-14.5 -39t-23 -53.5z" />
    <glyph glyph-name="W" unicode="W" horiz-adv-x="864" 
d="M888 566q-24 -64 -57.5 -127.5t-71.5 -122t-79 -111.5t-80.5 -95.5t-75.5 -74t-65 -47.5q-15 -8 -25.5 -10.5t-24.5 -2.5q-6 0 -9.5 4t-3.5 9q0 7 2.5 22.5t6.5 34.5t8.5 39t8.5 37q15 62 30.5 131t28.5 129q15 70 29 137l-6 2q-17 -37 -42.5 -85t-57 -100t-67.5 -105
t-73 -100t-73.5 -84.5t-70.5 -57.5q-14 -6 -21 -8t-19 -2q-14 0 -14 26q0 5 2.5 24t7.5 54q5 34 12.5 71.5t14.5 82.5q8 48 14.5 92t13.5 95q12 100 12 153q0 19 -3.5 25.5t-13.5 6.5q-8 0 -11.5 -2t-17.5 -5q-7 0 -8 10q0 4 9 13t23 20t30.5 22.5t31.5 20.5q7 4 15.5 4.5
t17.5 0.5q15 1 18.5 -10t3.5 -28q0 -22 -6 -62l-45 -305q-5 -31 -11 -70.5t-12 -74.5q-7 -41 -14 -83q18 14 33 28t30 30.5t30.5 37.5t35.5 49q60 86 104.5 164.5t80.5 157.5q16 34 30.5 68.5t37.5 74.5q11 13 31.5 23.5t37.5 10.5q5 0 10 -1.5t5 -9.5q0 -9 -1 -22t-3.5 -33
t-7.5 -49.5t-14 -71.5q-3 -12 -8.5 -36.5t-12 -56t-14.5 -66.5t-15 -68q-8 -35 -15 -69t-13.5 -64.5t-12 -57t-9.5 -44.5q26 18 49 38t45 44t44.5 53t47.5 65q34 48 60 103.5t48 119.5q20 59 30 105t12 74q20 18 38.5 33.5t35.5 15.5q16 0 16 -17q0 -24 -5.5 -50.5
t-22.5 -71.5z" />
    <glyph glyph-name="X" unicode="X" horiz-adv-x="509" 
d="M544 717q0 -5 -8.5 -21t-22.5 -38.5t-31.5 -49t-34.5 -52l-32 -48t-25 -36.5q-16 -23 -36 -51t-43 -60q19 -57 37 -110t44 -117q6 -14 13.5 -29t16 -27t16 -20.5t12.5 -10.5q-14 -35 -30 -50t-38 -15q-8 0 -15.5 7t-14 17.5t-12 23.5t-9.5 24q-11 30 -21.5 63t-19.5 65
t-17.5 60.5t-14.5 51.5q-15 -24 -36.5 -57t-44 -67.5t-44.5 -66.5t-37 -54q-20 -29 -34 -44t-27 -15q-14 0 -21.5 13.5t-7.5 27.5q18 10 35 29q3 3 18 18.5t40.5 47t62 81.5t83.5 122q-43 144 -63 218.5t-20 88.5q0 11 2 17t5 12q8 15 23 32t32 17q3 0 6 -13t6 -31t6 -36.5
t6 -29.5q7 -32 12.5 -57t11.5 -48.5t12 -48t15 -55.5q30 45 54.5 82.5t44.5 68.5q36 58 59.5 101t40.5 58q6 5 21 10t25 2z" />
    <glyph glyph-name="Y" unicode="Y" horiz-adv-x="477" 
d="M538 683q0 -15 -6.5 -34.5t-16 -39.5t-20 -39t-17.5 -32q-10 -37 -20.5 -78.5t-23.5 -79.5q-29 -87 -56 -155.5t-67 -120.5q-48 -60 -112.5 -92.5t-143.5 -32.5q-36 0 -59.5 8t-23.5 21q0 7 8 7t22 -7.5t38 -7.5q59 0 103 22.5t86 67.5q17 18 35.5 47t38.5 73t41.5 103.5
t44.5 137.5l-3 1q-12 -13 -32 -33.5t-45 -43.5t-54.5 -47.5t-60.5 -45.5q-13 -8 -37 -20.5t-50 -12.5q-14 0 -22 9t-8 25q0 8 2.5 21.5t7.5 28.5q14 42 24.5 75.5t19.5 59.5q17 53 27 86.5t15 54t6 30.5t1 16q0 10 -3.5 10.5t-6.5 0.5t-8.5 -2.5t-11 -5.5t-10.5 -5.5
t-7 -2.5q-5 0 -5 6q0 7 7 12t17 10q7 4 22 10.5t32 12.5t34.5 10.5t29.5 4.5q9 0 9 -12q0 -5 -3 -15.5t-7 -21.5q-17 -54 -31 -95t-27 -85q-6 -18 -13 -42.5t-13 -47t-10.5 -40.5t-4.5 -23q0 -8 3 -9.5t10 -1.5t23.5 9t37.5 24t44 35t44 43q49 52 76 103q8 28 15 51.5
t15 42.5q8 18 14.5 28.5t12.5 16.5q14 14 28 18.5t31 4.5q14 0 14 -16z" />
    <glyph glyph-name="Z" unicode="Z" horiz-adv-x="531" 
d="M595 667q0 -9 -8.5 -23.5t-20 -30t-24 -30.5t-20.5 -25q-25 -31 -45.5 -56t-41 -49.5t-43 -50t-50.5 -57.5q-30 -35 -76.5 -84.5t-103.5 -124.5q-22 -29 -38 -52t-28 -42q16 4 44.5 9t60 10t61 8.5t49.5 3.5q44 0 75 1t61 -3q23 -3 23 -18q0 -8 -7.5 -26.5t-33.5 -35.5
q-9 4 -23.5 7.5t-33.5 6t-40 4t-43 1.5q-20 0 -49.5 -2.5t-67.5 -9.5q-9 -2 -26.5 -5t-36.5 -6t-35.5 -5t-22.5 -2q-26 0 -26 19q0 15 51 83q36 47 91 111.5t121 139.5q30 34 59.5 68t54.5 63t44 51.5t29 35.5l27 36t22 30q-14 2 -29.5 3t-32.5 1q-18 0 -67 -4.5t-144 -20.5
q-38 -7 -58.5 -9.5t-23.5 -2.5q-14 0 -14 12q3 4 13 13t23.5 19t29 19.5t28.5 14.5q22 8 64 16q20 3 45.5 4.5t51.5 1.5q44 0 88.5 -0.5t70.5 -3.5t26 -13z" />
    <glyph glyph-name="bracketleft" unicode="[" horiz-adv-x="388" 
d="M65 -136q7 22 10.5 36.5t5.5 22.5q7 28 18.5 76.5t24.5 104t25 110t21 93.5q11 51 25 104.5t27 98.5q14 53 29 103q5 20 11 34.5t11 27.5q20 45 62 45q8 0 14 -1t15 -2q15 0 32.5 1t32.5 1.5t26 1t14 0.5q13 0 16.5 -3.5t3.5 -7.5q0 -6 -8 -12t-20 -10.5t-26 -8.5t-26 -6
q-13 -2 -28 -3t-29 -2q-6 -16 -13.5 -38t-17.5 -51q-4 -12 -11 -36.5t-14.5 -53.5t-14.5 -58.5t-12 -51.5q-5 -25 -13 -59t-17.5 -73t-19.5 -81t-19.5 -81.5t-18.5 -75t-15 -62.5q-9 -39 -15 -66t-15 -40h17q13 0 28 0.5t28 1.5t22.5 1.5t12.5 0.5q13 0 16.5 -3.5t3.5 -7.5
q0 -6 -8 -12t-20 -10.5t-26 -8.5t-26 -6q-26 -5 -47.5 -4.5t-44.5 -1.5q-7 0 -14.5 -1t-14 -0.5t-11 3t-4.5 8.5q0 11 5 26t12 37z" />
    <glyph glyph-name="backslash" unicode="\" horiz-adv-x="369" 
d="M370 -70q0 -18 -22 -18q-8 0 -11.5 1t-11.5 15l-283 816q7 11 16 18t22 6q5 -7 20 -45t36 -96.5t45.5 -131t50 -147.5t49.5 -147.5t43.5 -130t31.5 -95.5t14 -45z" />
    <glyph glyph-name="bracketright" unicode="]" horiz-adv-x="384" 
d="M381 646q-7 -22 -10.5 -36.5t-5.5 -22.5q-7 -28 -18.5 -76.5t-24.5 -104t-25 -110t-21 -93.5q-11 -51 -25.5 -104.5t-26.5 -98.5q-15 -53 -29 -103q-5 -20 -11 -34.5t-11 -27.5q-20 -45 -62 -45q-8 0 -14 1t-15 2q-15 0 -32.5 -1t-32.5 -1.5t-26 -1t-14 -0.5
q-13 0 -16.5 3.5t-3.5 7.5q0 6 8 12t20 10.5t26 8.5t26 6q13 2 28 3t29 2q6 16 13.5 38t17.5 51q4 12 11 36.5t14.5 53.5t14.5 58.5t12 51.5q5 25 13 59t17.5 73t19.5 81t19.5 81.5t18 75t15.5 62.5q9 39 15 66t15 40h-17q-13 0 -28 -0.5t-28 -1.5t-22.5 -1.5t-12.5 -0.5
q-13 0 -16.5 3.5t-3.5 7.5q0 6 8 12t20 10.5t26 8.5t26 6q26 5 47.5 4.5t44.5 1.5q7 0 14.5 1t14 0.5t11 -3t4.5 -8.5q0 -11 -5 -26t-12 -37z" />
    <glyph glyph-name="asciicircum" unicode="^" horiz-adv-x="434" 
d="M402 540q1 -10 -9.5 -22t-19.5 -12q-5 0 -7 0.5t-6 4.5l-135 125l-117 -119q-1 -3 -3 -6q-3 -5 -10 -5q-11 0 -11.5 8.5t5.5 16.5l151 154l6 1q32 -28 61 -54q25 -23 51.5 -48t43.5 -44z" />
    <glyph glyph-name="underscore" unicode="_" horiz-adv-x="563" 
d="M-7 -116v40h581v-40h-581z" />
    <glyph glyph-name="grave" unicode="`" horiz-adv-x="273" 
d="M273 582q0 -8 -10.5 -19.5t-24.5 -13.5q-8 3 -25.5 24.5t-44.5 59.5q-4 5 -10 14l-12 18t-10 17t-4 12q0 7 14 15.5t28 8.5q5 0 18.5 -21.5t31.5 -48.5q15 -23 32 -41.5t17 -24.5z" />
    <glyph glyph-name="a" unicode="a" horiz-adv-x="471" 
d="M296 162q-69 -83 -116.5 -127t-85.5 -50q-33 0 -50.5 22t-17.5 63q0 65 29 128t78 115q48 51 99 82t107 45q20 5 42.5 7t30.5 2q12 0 20.5 -2.5t8.5 -8.5q0 -11 -10 -20q-5 -4 -12.5 -7t-16.5 -4q-8 0 -25.5 2.5t-31.5 2.5q-25 0 -46 -10q-22 -10 -44 -27t-42.5 -40
t-38.5 -50.5t-31 -58.5q-16 -38 -22.5 -69.5t-7.5 -62.5q0 -26 6.5 -35t16.5 -9q16 0 39.5 19t48.5 48.5t49.5 65t42.5 68.5q12 22 19.5 43.5t12.5 32.5q6 16 11.5 29t21.5 22q15 9 29 13t22 4q10 0 10 -9q-9 -23 -18 -49q-8 -22 -17 -48.5t-16 -52.5q-11 -42 -18 -84
t-7 -64q0 -11 3 -21t8 -16l9 -12q-1 -5 -9.5 -16.5t-19.5 -23.5t-23.5 -21t-21.5 -9q-13 0 -20.5 10t-7.5 40q0 21 2.5 45.5t5.5 46.5q4 26 8 51h-4z" />
    <glyph glyph-name="b" unicode="b" horiz-adv-x="472" 
d="M359 332q0 32 -6.5 53t-26.5 21q-7 0 -19 -3t-29.5 -14t-42 -33.5t-55.5 -62.5q-20 -25 -33.5 -53.5t-24.5 -66.5q-8 -29 -11.5 -55.5t-4.5 -40.5q12 -32 34.5 -39.5t47.5 -7.5q27 0 54 21t57 75q15 27 26 58t18.5 59.5t11.5 52.5t4 36zM20 52q0 19 8 51q9 41 20 82
q8 35 18.5 75.5t19.5 74.5q17 63 35.5 126t37 118.5t35 98t28.5 64.5q5 8 9 13.5t12 10.5q11 8 21 12t22 4q9 0 9 -10q0 -5 -4.5 -16t-10.5 -25t-13 -30t-11 -31q-32 -105 -56 -194.5t-44 -163.5q19 23 45.5 52.5t56 55t60.5 43t58 17.5q15 0 27.5 -4t22 -16t15 -34t5.5 -58
q0 -14 -5.5 -41.5t-16 -61t-27 -69.5t-38.5 -69q-47 -69 -99 -105t-109 -37q-48 0 -83 13.5t-48 53.5z" />
    <glyph glyph-name="c" unicode="c" horiz-adv-x="364" 
d="M281 325q7 18 9.5 34.5t3.5 39.5q0 21 -23 21q-32 0 -61.5 -24t-52.5 -63t-36.5 -89t-13.5 -102q0 -54 22 -85q11 -15 27 -20.5t45 -5.5q20 0 37.5 7.5t34.5 17.5q10 7 17 7q5 0 9.5 -3t4.5 -14q0 -4 -13 -14t-36 -20.5t-54 -18.5t-67 -8q-49 0 -81 28.5t-33 88.5
q-1 140 107 261q24 27 50 47t50.5 33.5t46.5 20.5t37 7q9 0 19 -1.5t18.5 -5.5t13.5 -11.5t5 -19.5q0 -35 -8 -67q-2 -10 -8.5 -23.5t-17.5 -22.5q-17 -14 -31 -18.5t-21 -4.5t-8 6z" />
    <glyph glyph-name="d" unicode="d" horiz-adv-x="471" 
d="M528 686l-34 -108q-14 -46 -30.5 -99t-29.5 -98q-10 -34 -18.5 -60.5t-16 -52t-14 -54t-13.5 -65.5q-2 -9 -3.5 -20t-3.5 -20q-2 -11 -3 -22q0 -11 8 -22l9 -12q-1 -7 -9.5 -21t-19.5 -25q-14 -13 -26.5 -18.5t-18.5 -5.5q-17 0 -22 10t-5 22q0 8 3 27.5t7 42.5t8 44
t7 32l-3 1q-23 -30 -47 -57.5t-56 -58.5q-20 -19 -35 -31t-27.5 -19t-22.5 -10.5t-20 -4.5q-30 0 -49 17.5t-19 70.5q0 66 26 126.5t79 119.5q49 55 102.5 86.5t113.5 38.5l35 4q15 46 27 86q10 34 18.5 65t9.5 42q0 4 -2.5 7.5t-7.5 3.5t-13 -2q-4 -1 -8 -1
q-3 -1 -5.5 -1.5t-2.5 3.5v5.5t4 5.5q8 6 28 15.5t44 18.5t47 9q12 0 9 -15zM330 399q-54 0 -103 -38.5t-81 -117.5q-16 -39 -23.5 -74.5t-8.5 -68.5q0 -43 22 -52q18 3 40.5 21.5t51.5 50.5q10 11 24 28t28.5 37.5t27 42.5t18.5 42l40 129h-36z" />
    <glyph glyph-name="e" unicode="e" horiz-adv-x="371" 
d="M126 246q24 5 43 13.5t51 31.5q43 31 55 58t12 47t-25 20q-17 0 -37 -13t-43 -42q-21 -28 -35 -57t-21 -58zM118 185q-2 -6 -2.5 -12.5t-0.5 -9.5q0 -63 22 -98t80 -35q15 0 31 4.5t29 10.5q15 6 29 15q6 -6 6 -19q0 -6 -13.5 -15.5t-35 -18.5t-48.5 -15.5t-53 -6.5
q-64 0 -99.5 37.5t-35.5 105.5q0 59 19 112.5t64 105.5q26 30 56.5 53t75.5 47q24 13 44.5 18t34.5 7q29 0 41 -7.5t12 -26.5q0 -9 -3.5 -23t-15 -33t-33 -42.5t-57.5 -51.5q-29 -23 -55 -39t-46 -27q-23 -12 -42 -20z" />
    <glyph glyph-name="f" unicode="f" horiz-adv-x="357" 
d="M309 660q27 23 64 37.5t72 14.5q58 0 58 -22q0 -12 -7.5 -26.5t-25.5 -21.5q-13 13 -31 23.5t-40 10.5q-33 0 -54.5 -18.5t-36.5 -55t-28 -91.5t-30 -128h17q8 0 15.5 -0.5t15.5 0.5q38 2 57.5 3t33.5 1q12 0 15 -1.5t3 -5.5q0 -9 -19 -19q-9 -5 -45.5 -15.5t-86.5 -10.5
h-20q-17 -80 -37 -157q-9 -33 -19 -68t-21 -69.5t-23 -67t-24 -59.5q-35 -75 -69.5 -120.5t-77.5 -80.5q-10 -8 -21.5 -14t-22.5 -10.5t-20.5 -7t-15.5 -2.5q-4 0 -8 1.5t-4 5.5q0 8 6 10q10 5 30 14.5t40 29.5q53 53 92 153t77 256l46 186q-19 -1 -36 -2q-14 -1 -28 -1h-20
t-12 1.5t-6 9.5q0 22 18 33q9 5 19 6.5t28 1.5q8 0 16.5 -0.5t16.5 -0.5h17q15 63 31 110.5t33 79.5q26 50 68 87z" />
    <glyph glyph-name="g" unicode="g" horiz-adv-x="469" 
d="M364 138q-10 -34 -23.5 -78t-28 -88t-27.5 -81.5t-23 -58.5q-61 -128 -143.5 -191t-195.5 -63q-18 0 -32 2t-29 6q-21 5 -21 21q0 2 3.5 3t6.5 1q4 0 8.5 -1.5l10.5 -3.5t15.5 -3.5t24.5 -1.5q28 0 60.5 8t67 30.5t70 61.5t68.5 102q16 30 35 78.5t37 100t33.5 100
t24.5 79.5h-3q-17 -23 -48 -56.5t-69 -68.5q-58 -55 -104 -55q-30 0 -48.5 23.5t-18.5 75.5q0 140 115 254q38 37 90 65t118 45q20 5 40 7t33 2q11 0 20 -1t9 -10q0 -8 -2.5 -11.5t-7.5 -8.5q-5 -4 -11 -8.5t-15 -4.5q-19 0 -34 2.5t-26 2.5q-34 0 -65.5 -13t-73.5 -51
q-21 -18 -40 -46.5t-33.5 -62t-23.5 -69.5t-9 -70q0 -29 6 -42.5t18 -18.5q18 2 55.5 30t85.5 91q19 25 34 49.5t31 62.5q11 26 19 52t14 39q4 9 15 15t24.5 11.5t28.5 5.5q3 0 6.5 -2.5t3.5 -6.5q0 -8 -3 -14.5t-9 -24.5q-3 -11 -7.5 -25.5t-12 -38.5t-18 -59.5
t-26.5 -87.5z" />
    <glyph glyph-name="h" unicode="h" horiz-adv-x="469" 
d="M430 312q-9 -38 -17.5 -67t-16.5 -61q-3 -9 -5.5 -21t-5 -22.5t-4 -18t-1.5 -9.5q0 -11 2.5 -17.5t0.5 -17.5q-2 -8 -4 -12.5t-8 -12.5t-16 -16.5t-20.5 -16t-21 -12t-17.5 -4.5q-15 0 -15 19q0 9 3 22.5t8 27.5q10 30 15.5 50.5t13.5 50.5q10 34 16.5 58.5t14.5 59.5
q7 29 13.5 58.5t6.5 40.5q0 7 -10 7q-9 0 -34 -22t-55.5 -59t-62 -85.5t-54.5 -101.5q-11 -26 -15.5 -46.5t-11.5 -46.5q-5 -22 -18 -37q-6 -7 -23 -14.5t-27 -7.5q-14 0 -18.5 3t-4.5 11q0 3 3.5 15.5t8.5 29.5t10.5 36t10.5 36q15 53 27 96.5t24 85t24 85t27 96.5
q19 65 36 123.5t27 94.5q5 19 26 34q10 8 20 11.5t18 5.5q10 2 18 3q9 0 9 -10l-12 -36q-5 -16 -10.5 -33.5t-10.5 -34.5q-15 -51 -27.5 -96t-24.5 -89.5t-25 -90t-29 -96.5l3 -1q21 29 44 59q20 25 44 54t47 54q11 12 27 23t23 16q24 15 59 15q11 0 16.5 -8.5t5.5 -29.5
q0 -8 -2.5 -21.5t-6.5 -31t-9 -37t-9 -38.5z" />
    <glyph glyph-name="i" unicode="i" horiz-adv-x="268" 
d="M232 444l-12 -46q-5 -20 -11 -42.5t-12 -40.5q-6 -19 -10.5 -33.5t-8.5 -29t-8 -29.5t-9 -34q-5 -17 -10 -35.5t-9 -35t-7 -29t-3 -17.5q0 -8 1.5 -14t1.5 -11t-3.5 -16.5t-27.5 -30.5q-2 -2 -8.5 -5t-14.5 -7t-16 -6.5t-14 -2.5q-8 0 -14 2.5t-6 10.5q0 11 7 33
q11 34 20 60.5t20 62.5q8 28 13 47.5t12 47.5q5 20 10.5 40.5t10 39.5t7.5 34.5t3 25.5t-3 12.5t-8 2.5q-4 0 -8 -1t-9 -3t-11 -3q-3 2 -5 15q8 7 35 19t60 23q20 7 38 7q9 0 9 -11zM273 592q-2 -24 -16.5 -43.5t-45.5 -19.5q-21 0 -29.5 8.5t-6.5 33.5q2 32 15.5 50
t49.5 18q22 0 28.5 -12t4.5 -35z" />
    <glyph glyph-name="j" unicode="j" horiz-adv-x="287" 
d="M153 396q-4 0 -8 -1t-9 -3t-11 -3q-3 2 -5 15q8 7 36 19t59 23q18 7 38 7q9 0 9 -11q-6 -23 -13 -46q-6 -20 -13 -41.5t-12 -39.5q-11 -35 -23 -76.5t-23 -77.5q-12 -42 -25 -85q-13 -44 -26 -82t-27 -71q-17 -41 -38.5 -78t-46 -68t-51.5 -54.5t-55 -36.5q-21 -9 -34 -9
q-10 0 -10 6t11 10.5t19 10.5q28 21 50 46.5t41 61.5t37 84.5t39 114.5q12 39 21.5 70t18 61.5t17 62.5t19.5 72q8 30 14.5 59t6.5 44q0 5 -0.5 10.5t-5.5 5.5zM303 592q-2 -24 -16.5 -43.5t-45.5 -19.5q-21 0 -29.5 8.5t-6.5 33.5q2 32 15.5 50t49.5 18q22 0 28.5 -12
t4.5 -35z" />
    <glyph glyph-name="k" unicode="k" horiz-adv-x="442" 
d="M445 406q-2 -12 -6.5 -26.5t-16.5 -24.5q-10 -6 -18.5 -9t-16.5 -5q-9 -2 -17 -2q2 11 5 22q2 9 3.5 20t1.5 19q0 21 -3 27q-26 -24 -51 -49q-21 -21 -44.5 -46.5t-40.5 -48.5q6 -26 20 -61.5t40 -88.5q13 -26 29 -52t41 -43q9 -6 17 -8.5t13 -3.5t8 -2t3 -4
q0 -5 -6 -13.5t-29 -20.5q-14 -7 -32 -7q-25 0 -41 11.5t-34 39.5q-21 32 -39.5 69t-32.5 69q-16 37 -29 73q-3 -12 -7 -23q-3 -10 -6.5 -21t-5.5 -20q-4 -14 -8 -30.5t-7 -30.5l-8 -34q-3 -14 -5 -21t-10 -21q-10 -11 -27.5 -23.5t-38.5 -12.5q-7 0 -14 1.5t-7 12.5
q0 5 3.5 17.5t6.5 23.5q5 20 12.5 44.5t13.5 45.5q7 25 15 49l58 211l18 68q8 29 16 62.5t15 62.5q3 13 6.5 28.5t7 29t5.5 23.5t2 13q0 5 -1 8t-1 8q0 3 1.5 7.5t7 9.5t16.5 11.5t30 12.5q14 5 21.5 6t17.5 1q9 0 9 -9q0 -3 -5 -24t-12.5 -51.5t-16.5 -65t-17 -64.5
q-11 -44 -25 -94t-26 -94q-14 -51 -29 -102l56 62q24 26 52.5 56t52.5 54q62 62 99 62q7 0 12 -5t5 -22q0 -18 -2 -31.5t-4 -25.5z" />
    <glyph glyph-name="l" unicode="l" horiz-adv-x="287" 
d="M221 630q0 10 -4 12.5t-9 2.5q-4 0 -9.5 -1.5t-10.5 -3.5q-6 -3 -13 -5q-3 2 -5 15q14 8 40.5 21t59.5 24q20 7 38 7q5 0 7 -4t2 -7q0 -5 -3 -15.5t-6 -21.5q-4 -13 -8 -28q-10 -38 -21 -76q-9 -32 -20 -69t-19 -69q-7 -26 -13 -46t-11 -39.5t-10.5 -41t-12.5 -49.5
q-15 -62 -24.5 -102t-9.5 -62q0 -11 1.5 -14t1.5 -11t-1 -10t-4 -7q-2 -3 -12 -11.5t-23.5 -17.5t-27 -16t-22.5 -7q-15 0 -16 14q0 21 37 156q12 43 24 87q11 38 22.5 81t22.5 79q19 66 29.5 105t16 61t7 31t3.5 17q2 6 2.5 12t0.5 9z" />
    <glyph glyph-name="m" unicode="m" horiz-adv-x="665" 
d="M608 202q-5 -16 -9 -33t-8 -32t-6 -27t-2 -18q0 -17 2 -25.5t2 -16.5q0 -11 -14 -25q-21 -20 -41.5 -34.5t-35.5 -14.5q-16 0 -16 28q0 9 2 19.5t10 37.5l10 36q5 16 9.5 34t9.5 33q9 28 14 46t13 45q4 15 8.5 31t8 30.5t5.5 25.5t2 16q0 21 -11 22q-11 0 -41 -31
q-16 -16 -34 -37.5t-35 -45t-32 -46t-25 -41.5q-5 -10 -8.5 -16t-8.5 -23l-23 -70q-3 -14 -9 -23q-4 -5 -18 -20.5t-28 -24.5q-13 -8 -22 -8t-11.5 5.5t-2.5 13.5q0 6 4.5 21t12.5 43l35 115q6 20 12 41q5 17 11 38t11 38q5 18 10 39.5t6 26.5q0 12 -6 14q-8 0 -22 -11.5
t-37 -33.5q-17 -17 -33.5 -36t-32 -38.5t-29 -39t-23.5 -37.5q-11 -19 -22.5 -43.5t-22.5 -59.5q-3 -9 -5 -16.5t-4 -16.5q-3 -11 -5 -16.5t-7 -12.5q-3 -5 -9.5 -11t-14.5 -11t-17 -9t-18 -4q-13 0 -17.5 3t-5.5 11q0 8 5.5 31t11.5 43q5 19 11.5 41t12.5 41q6 22 13 43
l46 167l6 30q0 10 -6 10q-8 0 -17.5 -3.5t-17.5 -8.5q-10 -5 -19 -12q-5 0 -7 3t-2 6q0 7 10.5 14t22.5 14q33 19 48.5 26.5t30.5 12.5q10 4 21.5 6t19.5 2q3 0 6 -2t3 -7t-4 -26.5t-15 -62.5l-30 -118q19 23 32.5 39.5t25 30t24 26.5t29.5 31q35 35 58 55q5 5 14.5 10.5
t21.5 10.5t23.5 7.5t22.5 3.5q18 0 18 -27q0 -18 -4.5 -41t-11.5 -47t-14 -46t-11 -39h3q21 29 43.5 55t42.5 47.5t37 37t27 23.5q9 8 19 12t21 8q19 5 35 7q9 0 15 -12q1 -4 2 -9t1.5 -10.5t0.5 -12.5q0 -10 -0.5 -16.5t-2.5 -16.5q-1 -7 -5.5 -25t-11 -43t-14.5 -54.5
t-17 -59.5z" />
    <glyph glyph-name="n" unicode="n" horiz-adv-x="469" 
d="M404 221q-4 -16 -8 -33t-7.5 -32.5t-5.5 -27.5t-2 -19v-39q0 -8 -3 -12.5t-9 -12.5q-3 -4 -13 -12t-22 -16.5t-23 -14.5t-17 -6q-8 0 -12 4t-4 16q0 5 2.5 16t9.5 39q4 17 7.5 30.5t7 26.5t6.5 26.5t8 29.5q11 38 20.5 68.5t17.5 59.5q6 20 10 41t6 29q0 21 -8 22
q-11 0 -35 -19t-59 -65q-31 -39 -56 -80t-45 -82q-9 -19 -19.5 -45.5t-20.5 -55.5q-6 -18 -10 -29.5t-15 -24.5q-3 -3 -9.5 -7t-15 -8t-18 -6.5t-17.5 -2.5q-9 0 -13.5 5t-4.5 12q0 11 3 20t9 26q9 21 18 47q8 22 17 50t19 60q9 29 18 62t17 62t13.5 50t6.5 26q1 4 1.5 7
t0.5 6q0 5 -3 5.5t-6 0.5q-5 0 -13.5 -3.5t-16.5 -8.5q-10 -5 -19 -11q-3 -3 -6 -5q-6 -4 -8 -4q-4 0 -5.5 4t-1.5 7t9 11t22.5 17.5t30.5 18.5t32 15q18 7 30.5 10.5t35.5 3.5q9 0 9 -9q0 -5 -3 -24.5t-16 -64.5l-33 -116l3 -2q17 23 35 47q15 20 32.5 42.5t34.5 41.5
q9 10 20 21t21 20.5t17.5 16t9.5 7.5q16 10 32 15q24 9 49 9q19 0 20 -26q0 -9 -3.5 -27.5t-11.5 -47.5q-8 -28 -16 -55q-7 -23 -14.5 -50t-12.5 -50z" />
    <glyph glyph-name="o" unicode="o" horiz-adv-x="442" 
d="M135 -15q-48 0 -78 25.5t-31 76.5q-1 40 10 84t38 90q23 39 52 73t66 66q32 29 57 44t40 15q3 0 6.5 -0.5t6.5 -0.5h7q3 3 16 8t26 5q43 0 60.5 -30t17.5 -78q1 -106 -81 -234q-93 -144 -213 -144zM352 342q0 38 -12.5 59t-30.5 21q-4 0 -6 -1l-4 -2l-4 -2l-16 3
q-65 0 -122 -142q-23 -57 -34 -98.5t-11 -68.5q0 -41 16 -62t42 -21q29 0 60 20t58 67q15 25 26.5 58t20 65.5t13 60.5t4.5 43z" />
    <glyph glyph-name="p" unicode="p" horiz-adv-x="486" 
d="M383 332q0 38 -5 63t-24 25q-22 0 -57.5 -30t-86.5 -99q-15 -20 -28.5 -46.5t-25 -55.5t-19.5 -57.5t-12 -52.5q6 -23 25 -38.5t56 -15.5q32 0 62 23q24 18 45 50t36.5 71t24.5 81.5t9 81.5zM469 371q0 -50 -15.5 -101.5t-41.5 -99t-60.5 -87t-71.5 -64.5
q-49 -32 -105 -34q-45 0 -73 18q-15 -53 -28.5 -101.5t-24 -89.5t-18 -71.5t-10.5 -46.5q-1 -5 -1 -14.5v-16.5q0 -8 -2 -13.5t-7 -13.5q-10 -15 -30 -28t-35 -13q-8 0 -14.5 7t-6.5 19q0 14 2.5 30.5t13.5 52.5l51 166l72 240l-19 -9q-8 2 -5 21q6 8 13 18q6 8 13 18t15 21
q7 24 16 53q8 25 16.5 58.5t18.5 73.5q2 11 2.5 18.5t1.5 12.5q0 15 -5 15q-7 0 -18 -6.5t-19 -6.5q-9 0 -9 10q0 7 7 11q12 7 40 23t60 29q8 3 14 3.5t13 0.5q10 0 10 -10q0 -8 -4.5 -26.5t-11 -41t-14 -45t-14.5 -38.5l5 -1q48 70 107 119q61 49 103 49q33 1 51 -24
t18 -85z" />
    <glyph glyph-name="q" unicode="q" horiz-adv-x="433" 
d="M227 -316q0 -7 1.5 -12t1.5 -12q0 -10 -2 -14.5t-7 -10.5q-6 -6 -15.5 -14t-20 -14.5t-21 -11t-18.5 -4.5q-12 0 -16.5 3t-6.5 11q0 23 51 181l49 153l66 223q-30 -38 -57 -71t-51.5 -57.5t-46.5 -38.5t-42 -14q-38 0 -53 23t-15 62q0 64 23.5 126.5t74.5 124.5
q48 57 105 94.5t114 42.5q5 0 9 1q4 0 7.5 0.5t7.5 0.5q23 0 29.5 -3t6.5 -8q0 -14 -17 -15h-12q-5 0 -11 -0.5t-11 -1.5q-11 -2 -28.5 -7.5t-36 -15t-37 -21.5t-31.5 -26q-21 -21 -40 -52t-33.5 -66.5t-23.5 -73t-9 -73.5q0 -15 6 -32t17 -17q9 0 24 12t33.5 31t37.5 43
t36 48.5t30 47t19 38.5l42 120q5 12 17 23.5t36 19.5q3 1 7 2t8 1h8q9 1 9 -9q-4 -14 -8 -27q-4 -11 -8 -24t-7 -24q-11 -32 -19 -55.5t-17 -54.5q-12 -42 -28.5 -96.5t-31.5 -105.5q-18 -59 -35 -120q-6 -19 -10.5 -34t-8.5 -28.5t-8.5 -28t-9.5 -33.5q-9 -31 -16 -61.5
t-7 -44.5z" />
    <glyph glyph-name="r" unicode="r" horiz-adv-x="350" 
d="M127 121q-5 -14 -10 -30t-10 -30q-5 -17 -11 -33q-3 -9 -9 -20.5t-14.5 -20t-17.5 -12t-18 3.5q-5 -4 -10.5 0.5t-6.5 12.5q0 7 3.5 24t9.5 39t13.5 47t14.5 48q10 34 19 61t15.5 49.5t12 42.5t10.5 41q5 25 5 39q0 5 -3 9t-8 4q-6 0 -11.5 -4t-10.5 -4q-9 0 -10 12
q0 2 8.5 8t22 13.5t31 14.5t36.5 12q11 3 19.5 4.5t19.5 1.5q9 0 9 -15q0 -8 -4.5 -23.5t-11.5 -36.5t-16 -46.5t-18 -52.5h4q18 26 33 47t30 39q22 25 40.5 41.5t35.5 26.5t33 14.5t34 5.5q20 1 25 -5.5t5 -14.5q0 -7 -4 -18t-10 -22.5t-13 -20.5t-13 -13q-5 7 -13.5 16
t-28.5 9q-22 0 -45 -16q-24 -17 -48.5 -47t-46.5 -65t-39.5 -71t-27.5 -65z" />
    <glyph glyph-name="s" unicode="s" horiz-adv-x="378" 
d="M393 447q-5 -25 -23 -37.5t-41 -12.5q-24 0 -45 3t-44 3q-40 0 -70 -18q-27 -16 -29 -54q0 -9 4 -18.5t12 -15.5q14 -11 32.5 -22t36.5 -22t34.5 -21.5t27.5 -20.5q29 -26 29 -58q0 -22 -10.5 -46t-29 -46.5t-45 -40.5t-58.5 -28q-20 -6 -39 -9t-51 -3q-18 0 -36 4.5
t-33 12.5t-26 19t-14 24q1 11 8.5 19.5t20.5 20.5q5 5 18 11.5t21 6.5q4 -15 11 -28t18 -23.5t26.5 -16.5t37.5 -6q25 0 45.5 7t35.5 19.5t23.5 28.5t8.5 34q0 17 -10 32t-27 25q-32 19 -58.5 33.5t-55.5 36.5q-19 14 -22 29.5t-3 35.5q0 9 6.5 26.5t23 37t45 37.5t72.5 29
q21 5 44.5 9t40.5 4q14 0 30 -0.5t29 -0.5h29v0z" />
    <glyph glyph-name="t" unicode="t" horiz-adv-x="353" 
d="M306 427q30 0 48 2t43 2q12 0 15 -1.5t3 -5.5q0 -9 -19 -19q-9 -5 -24 -10t-37 -8q-14 -2 -24.5 -3t-24.5 -2q-5 -1 -12 -0.5t-12 0.5h-13q-3 -12 -11 -39.5t-17.5 -62t-19.5 -73.5t-17 -74q-5 -21 -6.5 -37t-1.5 -24t1.5 -13t1.5 -12q0 -5 -1.5 -9t-4.5 -10
q-3 -4 -11.5 -12t-19.5 -16.5t-22.5 -15t-19.5 -6.5q-22 0 -23 14q0 4 2.5 16t6 27t7.5 32t8 33q8 33 17 68t17.5 66.5t16 58.5l12.5 45q2 8 5.5 19.5t7.5 25.5q-19 -1 -36 -2q-14 -1 -28 -1h-20q-18 0 -18 11t4.5 17.5t12.5 11.5q11 8 20 7.5t26 -0.5h51l30 99
q8 24 21 43.5t35 27.5q13 5 30 5q9 0 9 -9q-4 -10 -7 -17l-6 -14t-5.5 -15t-6.5 -20l-31 -100h48z" />
    <glyph glyph-name="u" unicode="u" horiz-adv-x="479" 
d="M170 211q-4 -12 -8.5 -27t-9 -29t-7.5 -24.5t-3 -13.5q0 -4 1.5 -8t4.5 -4q5 0 18 12t35 38q26 31 45 55.5t36 48t33.5 47.5t37.5 55q14 21 22 38.5t27 34.5q12 11 24.5 17.5t23.5 12.5q10 4 18 4h10q6 1 8 -9q0 -3 -5.5 -18t-13.5 -37t-16.5 -46.5t-15.5 -46.5
q-6 -19 -10.5 -34.5t-8.5 -30.5t-8.5 -30.5t-8.5 -34.5q-5 -19 -9 -41.5t-7 -42.5q-4 -23 -7 -46q-1 -5 -1.5 -13t-4.5 -16q-1 -3 -8 -10q-2 -2 -9 -8t-16 -12t-17.5 -11t-12.5 -5q-5 0 -10.5 2.5t-5.5 7.5v10q0 6 3 26t7.5 47t10.5 57.5t12 57.5q4 18 10 39t11 39
q6 21 12 43q-19 -25 -40 -52q-18 -23 -40 -52t-45 -59q-15 -20 -30 -37.5t-26 -29.5t-19.5 -22t-17 -18.5t-18.5 -16t-23 -16.5q-11 -8 -19 -8.5t-13 -0.5q-27 0 -27 40q0 8 6 33.5t19 64.5l44 137q13 40 20 65t11 39.5t5 21t1 8.5q0 5 -1 8.5t-6 3.5t-14 -6t-14 -6
q-7 0 -8 12q0 5 28 23q37 23 62.5 31.5t39.5 8.5q8 0 8 -11q0 -8 -3.5 -27.5t-8.5 -36.5l-58 -191v0z" />
    <glyph glyph-name="v" unicode="v" horiz-adv-x="414" 
d="M120 375q0 18 -8 18q-11 0 -17 -5t-11 -5q-9 0 -9 10q0 5 6.5 10.5t26.5 20.5q14 11 26.5 17t23.5 11q11 4 26 4q12 0 15 -8t3 -20q0 -10 -1 -20.5t-3 -22.5q-8 -50 -17 -96t-20 -97q-4 -19 -9 -40t-10 -41.5t-9.5 -37.5t-6.5 -27q22 10 51 38.5t57.5 65t53 77t38.5 75.5
q5 13 9.5 31t8 35t5 32t1.5 24q3 3 3.5 4t3 3t8 5.5t17.5 10.5q22 12 46 14q13 0 13 -22q0 -7 -5.5 -25t-18 -45t-31.5 -61.5t-46 -73.5q-17 -25 -30 -43.5t-28.5 -37.5t-37.5 -42.5t-58 -58.5q-20 -19 -42.5 -37t-35.5 -24t-25 -8.5t-23 -2.5q-10 0 -11 12q0 14 1 18
q0 2 1.5 11t4.5 21t6 25.5t6 25.5q17 64 26 109t15 80q5 30 7.5 53t3.5 40z" />
    <glyph glyph-name="w" unicode="w" horiz-adv-x="655" 
d="M372 416q8 11 17.5 14.5t19.5 6.5q5 2 11 2h11q10 0 10 -21q0 -10 -2.5 -22.5l-4.5 -22.5q-2 -9 -5.5 -28t-8.5 -44.5t-11 -56t-12 -60.5q-5 -21 -9.5 -45.5t-8.5 -45.5q-4 -25 -9 -49q22 15 43 34t41 43q45 52 78 118.5t51 135.5q5 19 6.5 31.5t0.5 17.5q1 3 9 9
t19 12.5t24 11t26 4.5q6 0 9.5 -4.5t3.5 -17.5q0 -26 -25.5 -75.5t-75.5 -129.5q-35 -56 -87.5 -114.5t-109.5 -104.5q-18 -14 -32.5 -21t-28.5 -11q-6 -2 -10.5 -2.5t-11.5 -0.5q-10 0 -11 12q0 13 1 18q1 3 5.5 23.5t15.5 59.5q5 19 11 45.5t11.5 55t10.5 56.5t9 51l-4 1
q-14 -25 -34.5 -60t-44.5 -73.5t-51.5 -75.5t-56.5 -66q-26 -26 -47 -38q-12 -5 -23 -7t-22 -2t-11 12q0 11 4 30.5t9 49.5q4 23 9.5 50t10.5 54.5t10 54.5t9 50q9 60 9 94q0 18 -8 18q-6 0 -15 -5t-13 -5q-9 0 -9 10q0 3 8 11q6 6 19 15t28.5 17t30 14t23.5 6q10 0 14 -5.5
t4 -22.5q0 -10 -1 -20.5t-3 -22.5l-30 -193l-24 -136q26 23 52.5 58t49.5 72.5t42.5 73t31.5 60.5q6 13 14.5 28.5t16 29.5t13.5 24.5t8 13.5z" />
    <glyph glyph-name="x" unicode="x" horiz-adv-x="443" 
d="M431 489q4 -14 -9.5 -45t-32.5 -61q-7 -11 -21.5 -34t-34 -50.5t-41.5 -56.5t-44 -53q15 -42 27 -67t22 -40q26 -39 47 -42q-7 -26 -27 -44t-37 -18q-8 0 -17 5.5t-20.5 21.5t-26 44t-31.5 73q-42 -45 -82 -82q-54 -48 -77 -50q-14 0 -19 8q-2 3 -4 11.5t-1 18.5
q38 17 79.5 44.5t89.5 81.5q-15 46 -27 87t-19.5 73t-11.5 54t-4 30q0 16 21 37q11 11 25 19.5t25 9.5q7 -47 21 -113t34 -129q25 31 44.5 60.5t34 54.5t24 44t14.5 30q10 22 16 39.5t20 30.5q6 6 14.5 8.5t15.5 2.5q3 0 9 -2q2 -1 4 -1z" />
    <glyph glyph-name="y" unicode="y" horiz-adv-x="477" 
d="M488 441q0 -9 -3.5 -21.5t-8.5 -29.5q-8 -25 -21.5 -49.5t-25.5 -44.5q-11 -36 -17 -58t-8 -30q-34 -121 -66 -211q-30 -87 -65.5 -161t-81.5 -130q-21 -25 -48.5 -48t-60.5 -40.5t-71.5 -28.5t-80.5 -11q-83 -2 -83 29q0 6 14 6q10 0 15.5 -0.5t10 -1.5t10.5 -1.5
t17 -0.5q64 0 116.5 24.5t97.5 79.5q20 24 50.5 81.5t65.5 145.5q31 78 54 145.5t40 118.5l-3 1q-13 -17 -35.5 -42.5t-49.5 -54t-55.5 -56t-52.5 -46.5q-9 -5 -16 -10t-15.5 -9t-19 -6.5t-25.5 -2.5q-10 0 -17 8t-7 31q0 10 5 29t13.5 44t18.5 53.5t20 57.5q7 22 12.5 38.5
l11 33t10.5 35t13 43.5q4 12 8 29t4 29q0 4 -1 8.5t-6 4.5t-11.5 -2.5t-12.5 -4.5l-14 -7q-2 0 -3 5.5t-3 8.5q0 1 5 5.5t13.5 9.5t18 10t18.5 8q22 8 37.5 12t26 5.5t16.5 1t10 -0.5q10 0 9 -9l-12 -39q-14 -38 -27 -78q-11 -34 -23.5 -73t-23.5 -72q-14 -44 -24.5 -75.5
t-10.5 -45.5q0 -9 10 -10q11 0 25 11t31 26q18 16 39.5 39t42.5 48.5t39.5 51.5t30.5 48l23 74q8 23 15 38.5t19 26.5q13 12 27.5 17t31.5 6q13 0 14 -16z" />
    <glyph glyph-name="z" unicode="z" horiz-adv-x="379" 
d="M270 392q-51 0 -86.5 -4t-60.5 -8.5t-40 -8t-24 -3.5q-4 0 -8 2t-4 10q3 7 11 14t19 18q27 24 41 29q24 10 71.5 13t98.5 3q39 0 63 -3q8 -1 16.5 -3t8.5 -10t-7 -22q-10 -20 -35.5 -55.5t-73.5 -89.5q-16 -18 -45 -47.5t-58 -61.5t-53 -60.5t-29 -44.5q12 3 29.5 5.5
t37 5t40 3.5t38.5 1q42 0 67.5 -1t36.5 -3q15 -3 19.5 -9.5t4.5 -14.5q0 -12 -12 -31t-25 -29q-8 8 -28 14t-65 6q-26 0 -65 -2.5t-102 -12.5q-9 -2 -14.5 -2.5t-18.5 -0.5q-21 0 -22 15q0 23 41.5 77t130.5 143q56 55 87.5 94t52.5 74h-38z" />
    <glyph glyph-name="braceleft" unicode="{" horiz-adv-x="334" 
d="M365 743q0 -5 -5 -6.5t-9 -2.5q-17 -5 -33 -18.5t-24 -29.5q-4 -6 -8.5 -22.5t-9 -38t-9 -46t-8.5 -46.5q-5 -29 -10 -57t-11.5 -52.5t-13.5 -44t-15 -30.5q-13 -23 -33 -36.5t-57 -20.5l-1 -4q39 -9 56.5 -32t23.5 -47.5t4 -46.5t-3 -30l-26 -167q-4 -25 -4 -47.5
t5 -39.5t15.5 -27t27.5 -10q3 0 7 0.5t4 -7.5q0 -7 -4 -7h-8q-45 0 -77 26.5t-32 77.5q0 17 6 49t13 70.5t13 77.5t6 71q0 13 -4 26t-13 23.5t-23.5 17t-35.5 6.5q-6 0 -7.5 2.5t-1.5 4.5q0 18 13 20q21 2 42 8t40 32q9 12 16.5 42.5t13.5 65.5t10.5 69t8.5 52q4 21 8 40
t10.5 36t17.5 32.5t29 30.5q8 7 21.5 14t26.5 13t24 10t14 4h6t4 -5z" />
    <glyph glyph-name="bar" unicode="|" horiz-adv-x="145" 
d="M43 -217h-43l245 1019h44z" />
    <glyph glyph-name="braceright" unicode="}" horiz-adv-x="334" 
d="M0 -169q0 5 5 6.5t9 2.5q17 5 33 18.5t24 29.5q4 6 8.5 22.5t9 38t9 46t8.5 46.5q4 28 9.5 56.5t12 53t13.5 44t15 30.5q13 23 33 36.5t57 20.5l1 4q-39 9 -56.5 32t-23.5 47.5t-4 46.5t3 30l26 167q4 25 4 47.5t-5 39.5t-15.5 27t-27.5 10q-3 0 -7 -0.5t-4 7.5q0 7 4 7
h8q45 0 77 -26.5t32 -77.5q0 -17 -6 -49t-13 -70.5t-13 -78t-6 -70.5q0 -13 4 -26t13 -23.5t23.5 -17t35.5 -6.5q6 0 7.5 -2.5t1.5 -4.5q0 -18 -13 -20q-21 -2 -42 -8t-40 -32q-9 -12 -16.5 -42.5t-13.5 -65.5t-10.5 -69t-8.5 -52q-5 -21 -8.5 -40t-10 -36t-17.5 -32.5
t-29 -30.5q-8 -7 -21.5 -14t-26.5 -13t-24 -10t-14 -4h-6t-4 5z" />
    <glyph glyph-name="asciitilde" unicode="~" horiz-adv-x="541" 
d="M527 314q-76 -103 -148 -103q-23 0 -48.5 11.5t-51.5 25.5t-50.5 25.5t-45.5 11.5q-28 0 -59 -15.5t-62 -52.5l-10 13q14 16 30 34.5t35.5 33.5t44 25t55.5 10q19 0 47.5 -11t57 -24.5t53 -24.5t34.5 -11q11 0 22.5 2t24 9t27 19.5t31.5 32.5l13 -11v0z" />
    <glyph glyph-name="afii10051" unicode="&#x402;" horiz-adv-x="562" 
d="M248 374q-8 -28 -15.5 -55t-15.5 -54q-9 -32 -18.5 -67t-17.5 -74q-2 -9 -3 -19t-3 -21q-4 -26 -8 -41t-13 -25q-5 -6 -13 -13.5t-17.5 -14t-19 -11.5t-17.5 -5q-22 0 -22 14q0 9 7 40t17.5 70t21.5 79.5t19 69.5q4 14 12 42.5t18.5 64t21.5 73.5t20.5 71t16.5 56t8 29
q2 9 4 16t5 16q2 6 6.5 14.5t10.5 16.5l-126 -3q-5 0 -13 -0.5t-13 -0.5q-18 0 -18 11q0 20 14 27q6 3 17.5 4.5t23.5 2.5q23 2 46 1.5t36 -0.5q86 2 139 2.5t74 1.5l91 4q18 1 20 -11q0 -6 -10.5 -12t-28.5 -11q-14 -3 -27.5 -7t-34.5 -6q-5 -1 -19 -1h-31t-33 -0.5
t-26 -0.5q-6 -16 -12 -33q-5 -14 -11 -30.5t-10 -30.5q-6 -21 -10.5 -36.5t-9 -30.5t-10 -32.5t-12.5 -41.5q12 2 37.5 6t48.5 4q83 0 128 -34.5t45 -113.5q0 -36 -9.5 -77t-27.5 -82.5t-44.5 -80.5t-59.5 -70q-24 -22 -51 -42t-55.5 -35t-56.5 -24t-52 -9q-83 0 -83 29
q0 6 14 6q10 0 15.5 -0.5t10 -1.5t10.5 -1.5t17 -0.5q13 0 33.5 3.5t44 13t49 25.5t49.5 42q32 34 53.5 77.5t34 84.5t17.5 75.5t5 52.5q0 60 -25.5 93.5t-88.5 33.5q-20 0 -36.5 -4t-33.5 -8z" />
    <glyph glyph-name="afii10052" unicode="&#x403;" horiz-adv-x="513" 
d="M473 883q0 -4 -11.5 -19t-30 -35t-41 -42t-43.5 -41q-2 -2 -9 -6t-12 -4t-5.5 2t-0.5 6q0 3 6.5 15t16.5 28t20 33t18 29q14 23 32 35.5t48 12.5q9 0 10.5 -3t1.5 -11zM267 568l-88 -303q-9 -32 -18.5 -67t-17.5 -74q-2 -9 -3 -19t-3 -21q-3 -21 -6 -33q-2 -9 -6 -18
t-9 -15t-13.5 -13.5t-18 -14.5t-19 -11.5t-16.5 -4.5q-8 0 -15 3t-7 11q0 5 2.5 17.5t8.5 35.5q10 35 16.5 62.5t12.5 51t11.5 45.5t13.5 47q11 39 19 68t14 49l69 234q3 9 6.5 25.5t5.5 25.5h-12t-14 1q-13 1 -14 11q0 9 20 18q19 9 45 14.5t52 5.5h31.5t38.5 0.5t40.5 1
t37.5 1.5q7 0 17.5 1t20 2t18 1.5t11.5 0.5q6 0 13 -0.5t7 -7.5q0 -8 -4.5 -12.5t-14.5 -9.5q-13 -7 -38 -14t-61 -7q-9 0 -23 -0.5t-29 -1t-30 -1.5t-27 -2z" />
    <glyph glyph-name="quotesinglbase" unicode="&#x201a;" horiz-adv-x="174" 
d="M51 33q0 13 7.5 22t15.5 16q15 13 22.5 17t15.5 4q14 0 21.5 -14t7.5 -60q0 -52 -21.5 -96t-49 -76t-52.5 -50t-32 -18q-8 0 -7.5 1.5t0.5 6.5q0 4 7 10t17.5 14.5t22 19.5t20.5 25q12 20 17 43t5 45q0 15 -2.5 25.5t-6 20t-6 20t-2.5 24.5z" />
    <glyph glyph-name="afii10100" unicode="&#x453;" horiz-adv-x="345" 
d="M356 638q0 -4 -10.5 -17.5t-27.5 -31.5t-37.5 -38t-39.5 -37q-2 -2 -8 -5.5t-11 -3.5t-5 7q0 2 6 13t14.5 25.5t18 30t16.5 26.5q13 21 29.5 32.5t43.5 11.5q8 0 9.5 -3t1.5 -10zM185 156q-6 -17 -14 -38.5t-8 -34.5q0 -16 15 -17q12 0 30 11t35 25q2 2 5.5 4t6.5 2
q4 0 3.5 -2.5t0.5 -5.5q0 -5 -13 -20.5t-35 -35.5q-7 -6 -18.5 -16t-25.5 -19.5t-29 -16.5t-29 -7q-16 0 -25.5 12.5t-9.5 35.5q0 13 5 33t9 31l76 213q11 32 16.5 51.5t5.5 24.5q0 16 -8 16q-20 0 -42.5 -17t-44.5 -39l-6 -6t-5 -2q-4 0 -7 4t-3 9t2 8l4 6q8 9 17.5 18
t28.5 25q40 33 75.5 46t46.5 13q23 0 23 -35q1 -20 -7.5 -54t-21.5 -69q-8 -21 -16 -44t-15 -43.5t-12.5 -38t-9.5 -27.5z" />
    <glyph glyph-name="quotedblbase" unicode="&#x201e;" horiz-adv-x="356" 
d="M277 21q0 -52 -21.5 -96t-48.5 -75.5t-52 -49.5t-32 -18q-8 0 -7.5 1.5t0.5 6.5q0 4 7 10t17.5 14.5t22 19.5t20.5 25q11 19 21 46.5t10 49.5q0 29 -7 48t-13 39q16 27 28.5 38.5t25.5 15.5q10 -7 19.5 -26.5t9.5 -48.5zM141 21q0 -52 -21.5 -96t-49 -75.5t-52.5 -49.5
t-32 -18q-8 0 -7.5 1.5t0.5 6.5q0 4 7 10t17.5 14.5t22 19.5t20.5 25q12 19 22 46.5t10 49.5q0 29 -7.5 48t-12.5 39q16 27 28.5 38.5t24.5 15.5q11 -7 20.5 -26.5t9.5 -48.5z" />
    <glyph glyph-name="ellipsis" unicode="&#x2026;" horiz-adv-x="850" 
d="M169 46q-2 -24 -16.5 -43.5t-45.5 -19.5q-21 0 -29.5 8.5t-6.5 33.5q2 32 15.5 50t49.5 18q22 0 28.5 -12t4.5 -35zM477 48q-2 -24 -16.5 -43.5t-45.5 -19.5q-21 0 -29.5 8.5t-6.5 33.5q2 32 15.5 50t49.5 18q22 0 28.5 -12t4.5 -35zM767 48q-2 -24 -16.5 -43.5
t-45.5 -19.5q-21 0 -29.5 8.5t-6.5 33.5q2 32 15.5 50t49.5 18q22 0 28.5 -12t4.5 -35z" />
    <glyph glyph-name="dagger" unicode="&#x2020;" horiz-adv-x="347" 
d="M211 545q15 71 25.5 118.5t12.5 54.5q3 1 11.5 2.5t18 3t18 2t11.5 0.5q6 0 7 -2.5t0 -6.5l-33 -172h23q30 0 56 2t35 2q12 0 16 0.5t4 -3.5q0 -12 -21 -23q-8 -4 -15 -7t-19 -5.5t-30 -5t-46 -5.5q-3 0 -6 -0.5t-6 -0.5l-107 -559q-2 -9 -11.5 -16.5t-21 -13.5
t-22.5 -10t-15 -4q-5 0 -7 1.5t-2 9.5q0 9 5 40.5t13.5 78t20 104.5t24 120.5t25.5 125.5t25 120h-40.5t-34.5 1q-18 0 -33 1q-18 0 -18 11t5 17t12 12q8 7 18.5 7h27.5h74v0z" />
    <glyph glyph-name="daggerdbl" unicode="&#x2021;" horiz-adv-x="413" 
d="M222 545q14 72 23.5 119.5t11.5 53.5q3 1 11.5 2.5t18 3t18 2t11.5 0.5q6 0 7 -2.5t0 -6.5l-32 -172h14q30 0 56 2t35 2q12 0 16 0.5t4 -3.5q0 -12 -21 -23q-8 -4 -15 -7t-19 -5.5t-30 -5t-46 -5.5h-2l-63 -335h55q30 0 56 2t35 2q12 0 16 0.5t4 -3.5q0 -12 -21 -23
q-8 -4 -15 -7t-19 -5.5t-30 -5t-46 -5.5q-10 -1 -21 -1.5t-23 -1.5l-34 -179q-4 -8 -12.5 -15.5t-18.5 -13t-19 -9.5t-13 -4q-5 0 -7 1.5t-2 9.5q0 6 2.5 24t7.5 45.5t11 63t14 76.5q-20 0 -37.5 0.5t-31.5 0.5q-16 0 -29 1q-18 0 -18 11t5 17t12 12q8 7 18.5 7h27.5h62
q15 81 31.5 167.5t31.5 164.5q-49 -2 -83 0q-19 0 -37 1q-18 0 -18 11t5 17t12 12q8 7 18.5 7h27.5h85v0z" />
    <glyph glyph-name="perthousand" unicode="&#x2030;" horiz-adv-x="975" 
d="M904 201q0 -32 -14.5 -65t-40 -60t-61 -44t-77.5 -17q-25 0 -42.5 7.5t-28.5 19.5t-16 27.5t-5 32.5q0 18 4 33t13.5 31t26 34t41.5 42q13 12 25 19.5t22.5 11.5t19 6t14.5 4q14 6 28 8t25 2q29 0 47.5 -24.5t18.5 -67.5zM839 176q0 29 -11 49q-10 19 -26 19
q-3 0 -9.5 0.5t-13.5 0.5q-30 0 -47.5 -15t-27.5 -34t-13 -38t-3 -26q0 -14 3 -28t9.5 -25.5t16.5 -19t24 -7.5t31 4.5t32 18t25 37.5t10 64zM344 601q0 -32 -14.5 -65t-40 -60t-61 -44t-77.5 -17q-25 0 -42.5 7.5t-28.5 19.5t-16 27.5t-5 32.5q0 18 4.5 34t14 32.5t26 34.5
t40.5 39q26 23 47.5 30t33.5 11q13 4 27.5 7t25.5 3q29 0 47.5 -24.5t18.5 -67.5zM563 721q0 -18 -13 -37t-28 -48q-36 -68 -77.5 -138.5t-84 -140.5t-84.5 -137.5t-78 -129.5q-8 -13 -11.5 -19.5t-6.5 -11t-7 -9t-11 -14.5q-15 -20 -32.5 -29t-27.5 -9q-6 0 -6 6q0 8 15 30
t29 44q3 4 26.5 42.5t58 95t75.5 124.5t79 132t69 116.5t45 78.5q9 16 21 28.5t23 19.5t18.5 8.5t7.5 -2.5zM588 197q0 -32 -13 -65.5t-37.5 -60.5t-58.5 -44t-76 -17q-25 0 -42.5 7.5t-28.5 19.5t-16 27.5t-5 32.5q0 35 16.5 74t65.5 81q33 28 64.5 36.5t62.5 8.5
q29 0 48.5 -28.5t19.5 -71.5zM279 576q0 30 -11 49t-26 19q-3 0 -9.5 0.5t-13.5 0.5q-30 0 -47.5 -15t-27.5 -34t-13 -38t-3 -26q0 -14 3 -28t9.5 -25.5t16.5 -19t24 -7.5t31 4.5t32 18t25 37.5t10 64zM523 172q0 47 -13 65.5t-33 18.5q-33 0 -52 -12.5t-29 -31.5t-13 -41.5
t-3 -43.5q0 -14 3 -28t9.5 -25.5t16.5 -19t24 -7.5t30 7.5t29.5 23.5t22 39t8.5 55z" />
    <glyph glyph-name="afii10058" unicode="&#x409;" horiz-adv-x="762" 
d="M746 276q0 -72 -63 -145q-48 -54 -104.5 -83.5t-105.5 -43.5q-23 -6 -52.5 -9t-52.5 -3h-27q-5 0 -12 0.5t-13.5 2.5t-11 6.5t-4.5 13.5t2.5 19l5.5 22l67 245q14 51 26 94t23 79q7 21 13 43.5t11 41.5t8 32.5t3 17.5q-3 4 -8 8q-3 3 -11 3q-9 0 -35 -19q-20 -15 -41 -35
q-42 -42 -90 -107.5t-96 -150.5q-19 -33 -34.5 -67.5t-29.5 -70.5q-26 -71 -36 -143q-8 -19 -26 -30q-17 -11 -30 -13q-16 0 -21 8q-2 6 -4 23q0 19 8.5 49t23 66.5t34.5 75.5t43 76q68 109 139 196.5t137 147.5q8 8 20 16t28 19q30 20 46 24q8 2 14 3t12 3q10 3 28 3
t19 -16v-14t-1 -11q0 -4 -7 -24.5t-13 -40.5q-8 -26 -15 -53.5t-13 -51.5t-10.5 -42.5t-6.5 -27.5q16 4 37.5 6.5t46.5 2.5q82 0 130.5 -35t48.5 -111zM666 262q1 120 -127 120q-14 0 -30 -2t-37 -7l-64 -241q-7 -25 -13 -50.5t-11 -47.5q5 0 10.5 -0.5t19.5 -0.5
q13 0 26.5 0.5t28.5 2.5q45 8 84.5 30.5t69.5 66.5q43 64 43 129z" />
    <glyph glyph-name="guilsinglleft" unicode="&#x2039;" horiz-adv-x="184" 
d="M88 153q0 -13 -3 -19.5t-11 -13.5t-11.5 -10.5l-5 -5t-3 -1.5h-5.5q-7 0 -12 8t-9.5 20.5t-8 28.5t-7.5 33q-5 24 -9.5 51t1.5 50q16 25 45 53t58.5 51t53.5 38t29 15q7 0 7 -8t-21.5 -26.5t-45.5 -41.5q-23 -21 -41.5 -40t-28.5 -39q0 -20 4 -43t9.5 -43t10 -35.5
t4.5 -21.5z" />
    <glyph glyph-name="afii10059" unicode="&#x40a;" horiz-adv-x="798" 
d="M694 263q1 120 -127 120q-15 0 -34 -2.5t-36 -9.5l-61 -238l-12.5 -50t-11.5 -48q5 0 10.5 -0.5t19.5 -0.5q13 0 26.5 0.5t28.5 2.5q45 8 84.5 30.5t69.5 66.5q43 64 43 129zM511 414q16 4 37.5 6.5t46.5 2.5q82 0 130.5 -35t48.5 -111q0 -72 -63 -145
q-48 -54 -104.5 -83.5t-105.5 -43.5q-23 -6 -52.5 -9t-52.5 -3h-27q-5 0 -12 0.5t-13.5 2.5t-11 6.5t-4.5 13.5t2.5 19l5.5 22l80 302q-23 -2 -53.5 -4.5t-61.5 -5.5t-58.5 -6t-45.5 -6q-5 -15 -12 -38t-14.5 -51.5t-15.5 -60t-15 -62.5q-3 -11 -5.5 -24.5t-4.5 -25.5
q-3 -14 -4 -28q0 -7 -9 -20q-12 -18 -38 -38q-18 -15 -30 -15q-21 0 -22 14q0 17 25 118l13 52t21 78q4 15 9.5 35.5t13.5 47.5l-65 -13q-9 0 -10 12q0 10 5.5 18t22.5 15q11 5 30 9t33 6l69 232q3 11 7 23t8 23q6 18 12.5 28.5t13.5 16t15.5 8t18.5 5.5q9 2 16.5 2.5
t16.5 0.5q7 0 7 -9q0 -5 -10.5 -36t-31.5 -95q-8 -23 -17 -51t-17 -54.5t-14.5 -48t-8.5 -31.5q11 1 37 3.5t58 5t64.5 5t55.5 4.5q5 16 10 34q5 15 11 34t12 39q11 38 19.5 62t12.5 35q14 39 25 57t18 22q24 13 43 15q10 1 19 0q3 0 5 -1.5t2 -7.5q0 -2 -5 -15t-11.5 -31
t-14 -38t-13.5 -38q-8 -24 -15.5 -47.5t-13.5 -43.5t-11 -35.5t-7 -24.5z" />
    <glyph glyph-name="afii10061" unicode="&#x40c;" horiz-adv-x="610" 
d="M543 883q0 -4 -11.5 -19t-30 -35t-41 -42t-43.5 -41q-2 -2 -9 -6t-12 -4t-5.5 2t-0.5 6q0 3 6.5 15t16.5 28t20 33t18 29q14 23 32 35.5t48 12.5q9 0 10.5 -3t1.5 -11zM575 647q0 -6 -1 -14t-6 -20q-3 -8 -8.5 -16t-16.5 -14q-15 -9 -30 -11q2 6 3 12.5t1 14.5
q0 14 -5 18t-18 4q-14 0 -46.5 -20t-71.5 -61q-28 -28 -55.5 -57t-46.5 -55q16 -48 31.5 -91.5t34.5 -90.5q14 -36 25 -62t21 -48.5t20 -43.5t24 -46q9 -16 18.5 -26.5t17.5 -17.5q-5 -10 -18.5 -14.5t-28.5 -4.5q-27 0 -45.5 15.5t-37.5 53.5q-7 13 -12 25.5t-10.5 26
t-12 30.5t-15.5 40q-8 18 -18.5 45.5t-22 57t-23 57t-20.5 45.5q-16 -51 -32 -101q-14 -43 -29.5 -92t-28.5 -91q-12 -40 -24.5 -61.5t-23.5 -26.5q-14 -6 -23.5 -9t-19.5 -3q-15 0 -15 14q0 3 1.5 10.5t6.5 21.5q17 51 32 95t29.5 88t30 93t35.5 110q18 56 32 107t25 88
q4 14 6 27.5t4 18.5q4 12 15.5 20t25 13t27 7t22.5 2t9 -9q0 -6 -27 -84l-76 -226q45 54 113.5 127.5t162.5 151.5q17 14 34 20.5t31 6.5q30 0 30 -50z" />
    <glyph glyph-name="afii10060" unicode="&#x40b;" horiz-adv-x="562" 
d="M505 295q0 -21 -3 -47t-7 -53t-9.5 -54.5t-9.5 -52.5q-5 -24 -5.5 -36t-2.5 -14q-5 -15 -20 -32q-14 -14 -23 -21t-20 -7q-2 0 -5 0.5t-6 5t-5.5 14.5t-2.5 28q0 16 6.5 48.5t14 71t14 77t6.5 65.5q0 22 -5 40.5t-17.5 32t-34 20.5t-54.5 7q-14 0 -23.5 -1.5t-16.5 -3.5
t-13.5 -4.5t-14.5 -4.5q-8 -28 -15.5 -55t-15.5 -54q-9 -32 -18.5 -67t-17.5 -74q-2 -9 -3 -19t-3 -21q-4 -26 -8 -41t-13 -25q-5 -6 -13 -13.5t-17.5 -14t-19 -11.5t-17.5 -5q-22 0 -22 14q0 9 7 40t17.5 70t21.5 79.5t19 69.5q4 14 12 43t18 64.5t21.5 73.5t21 70.5
t16 55.5t8.5 29q3 9 4.5 16t4.5 16q2 6 6.5 14.5t10.5 16.5l-126 -3q-5 0 -13 -0.5t-13 -0.5q-18 0 -18 11q0 20 14 27q6 3 35 5.5t88 2.5q31 0 64.5 0.5t63 1t52 1.5t33.5 1l91 4q18 1 20 -11q0 -6 -10.5 -12t-28.5 -11q-14 -3 -27.5 -6t-34.5 -7q-5 0 -19 -0.5t-31 -0.5
t-33 -0.5t-26 -0.5q-6 -16 -12 -33q-5 -14 -11 -30.5t-10 -30.5q-6 -21 -10.5 -36.5t-9 -30.5t-10 -32.5t-12.5 -41.5q12 2 37.5 6t48.5 4q83 0 121.5 -33.5t38.5 -93.5z" />
    <glyph glyph-name="afii10145" unicode="&#x40f;" horiz-adv-x="546" 
d="M304 84q-12 -26 -17.5 -51.5t-10.5 -64.5q-2 -17 -4 -41t-7 -52t-15 -59.5t-28 -63.5q-19 -35 -39 -58t-52 -47l-5 8q19 23 31.5 55.5t21.5 69t15 74t11 70.5q5 32 25.5 74t65.5 88l8 -2v0zM646 679q0 -12 -13 -39t-33 -84t-35.5 -108.5t-29.5 -99.5q-15 -56 -28.5 -115
t-25.5 -124q-3 -15 -4.5 -30t-6.5 -32q-6 -17 -33 -37q-5 -4 -13 -6.5t-16 -2.5q-10 0 -12.5 6t-2.5 14q0 5 0.5 18t2.5 22q2 14 6.5 33t9.5 39q2 10 8 33.5t13.5 55.5t16.5 68.5t17.5 70.5t16 62.5t12.5 45.5q-18 -24 -34 -45.5t-39.5 -51.5t-58.5 -73.5t-91 -112.5
q-24 -30 -44 -54t-39 -46t-38 -41.5t-41 -40.5q-8 -8 -25.5 -17t-34.5 -9q-28 0 -28 49q0 11 7 38.5t22 74.5q25 77 42.5 132t30.5 97t23.5 76.5t21.5 70.5q9 29 17 62.5t13 51.5q6 22 16 38.5t30 24.5q9 4 21 5.5t23 1.5q8 0 8 -9q0 -13 -4.5 -38t-15.5 -60
q-14 -42 -25.5 -78.5t-22.5 -70.5t-22 -67t-22 -67t-21.5 -67.5t-18 -61.5t-12 -47.5t-4.5 -26.5q0 -11 7 -11q9 0 37.5 29t75.5 84q9 11 32.5 40t54.5 69.5t66 88.5t68 97q16 24 27 42t19 33t14.5 27.5t13.5 25.5q14 25 24.5 34.5t25.5 15.5q10 4 23.5 5t19.5 1q8 0 8 -9z
" />
    <glyph glyph-name="afii10099" unicode="&#x452;" horiz-adv-x="469" 
d="M352 292q8 29 14 58.5t6 40.5q0 7 -10 7q-9 0 -34 -22t-55.5 -59t-62 -85.5t-54.5 -101.5q-6 -13 -10.5 -29t-8.5 -30l-8 -34q-6 -20 -18 -37q-6 -8 -23 -15t-27 -7q-14 0 -18 3t-5 11q0 3 3.5 15.5t8.5 29.5t10.5 36t10.5 36q15 53 27 96.5t23.5 85t24 85t27.5 96.5
q8 31 17 58q-5 0 -12 -0.5t-13 -0.5h-14q-18 0 -18 11q0 22 18 33q9 5 21 6.5t26 1.5h7q10 33 18 61t13 48q5 19 26 34q10 8 20 11.5t18 5.5q10 2 18 3q9 0 9 -10l-12 -36q-5 -16 -10.5 -33.5t-10.5 -34.5q-4 -13 -7.5 -25t-6.5 -24q8 -1 15.5 -1h12.5h11l91 4q18 1 18 -7
q0 -9 -19 -19q-9 -5 -45.5 -15.5t-86.5 -10.5h-11q-19 -68 -37 -133t-41 -141l3 -1q21 29 44 59q20 25 44 54t47 54q11 12 27 23t23 16q24 15 59 15q11 0 16.5 -8.5t5.5 -29.5q0 -8 -2.5 -21.5t-6.5 -31t-9 -37t-9 -38.5q-13 -57 -24.5 -104t-25 -91.5t-29.5 -89.5t-38 -99
q-17 -42 -42.5 -79.5t-54 -68.5t-56 -53.5t-49.5 -34.5q-10 -5 -18.5 -7t-15.5 -2q-10 0 -10 6q0 7 11 11t19 10q99 75 173 300q12 38 23 72.5t20.5 68t19 68.5t19.5 73z" />
    <glyph glyph-name="quoteleft" unicode="&#x2018;" horiz-adv-x="233" 
d="M116 663q0 13 7.5 22t15.5 16q15 13 22.5 17t15.5 4q14 0 21.5 -14t7.5 -60q0 -52 -21.5 -96t-49 -76t-52.5 -50t-32 -18q-8 0 -7.5 1.5t0.5 6.5q0 4 7 10t17.5 14.5t22 19.5t20.5 25q12 20 17 43t5 45q0 15 -2.5 25.5t-6 20t-6 20t-2.5 24.5z" />
    <glyph glyph-name="quoteright" unicode="&#x2019;" horiz-adv-x="233" 
d="M132 467q0 -13 -7.5 -22t-15.5 -16q-15 -13 -22.5 -17t-15.5 -4q-14 0 -21.5 14t-7.5 60q0 52 21.5 96t49 76t52.5 50t32 18q8 0 7.5 -1.5t-0.5 -6.5t-7 -11t-17.5 -14t-22 -19t-20.5 -25q-12 -20 -17 -43t-5 -45q0 -15 2.5 -25.5t6 -20t6 -20t2.5 -24.5z" />
    <glyph glyph-name="quotedblleft" unicode="&#x201c;" horiz-adv-x="340" 
d="M71 633q0 13 7.5 22t15.5 16q16 14 23 17.5t15 3.5q14 0 21.5 -14t7.5 -60q0 -52 -21.5 -96t-49 -76t-52.5 -50t-32 -18q-8 0 -7.5 1.5t0.5 6.5q0 4 7 10t17.5 14.5t22 19.5t20.5 25q12 20 17 43t5 45q0 15 -2.5 25.5t-6 20t-6 20t-2.5 24.5zM211 638q0 13 7.5 22
t15.5 16q16 14 23 17.5t15 3.5q14 0 21.5 -14t7.5 -60q0 -52 -21.5 -96t-49 -76t-52.5 -50t-32 -18q-8 0 -7.5 1.5t0.5 6.5q0 4 7 10t17.5 14.5t22 19.5t20.5 25q12 20 17 43t5 45q0 15 -2.5 25.5t-6 20t-6 20t-2.5 24.5z" />
    <glyph glyph-name="quotedblright" unicode="&#x201d;" horiz-adv-x="340" 
d="M269 446q0 -13 -7.5 -22t-15.5 -16q-16 -14 -23 -17.5t-15 -3.5q-14 0 -21.5 14t-7.5 60q0 52 21.5 96t49 76t52.5 50t32 18q8 0 7.5 -1.5t-0.5 -6.5t-7 -11t-17.5 -14t-22 -19t-20.5 -25q-12 -20 -17 -43t-5 -45q0 -15 2.5 -25.5t6 -20t6 -20t2.5 -24.5zM129 441
q0 -13 -7.5 -22t-15.5 -16q-16 -14 -23 -17.5t-15 -3.5q-14 0 -21.5 14t-7.5 60q0 52 21.5 96t49 76t52.5 50t32 18q8 0 7.5 -1.5t-0.5 -6.5t-7 -11t-17.5 -14t-22 -19t-20.5 -25q-12 -20 -17 -43t-5 -45q0 -15 2.5 -25.5t6 -20t6 -20t2.5 -24.5z" />
    <glyph glyph-name="bullet" unicode="&#x2022;" horiz-adv-x="349" 
d="M303 235q0 -25 -9.5 -47t-26 -38.5t-38.5 -26.5t-47 -10q-26 0 -48 9.5t-38 26t-25.5 39t-9.5 47.5t9.5 47t26 38.5t39 26t47.5 9.5t46.5 -9.5t38 -26t26 -38.5t9.5 -47z" />
    <glyph glyph-name="endash" unicode="&#x2013;" horiz-adv-x="573" 
d="M104 213h-15t-11 -1q-18 0 -18 11q0 23 20 32q22 8 54 8q17 1 31.5 1h26.5q81 2 138 2t90 2l91 4q18 1 20 -11q0 -9 -19 -19q-9 -5 -24 -9.5t-37 -8.5q-11 -2 -57.5 -4t-128.5 -4q-27 -1 -67 -1t-94 -2z" />
    <glyph glyph-name="emdash" unicode="&#x2014;" horiz-adv-x="675" 
d="M104 213h-15t-11 -1q-18 0 -18 11q0 23 20 32q22 8 54 8q23 1 42.5 1h35.5q107 2 178.5 2t109.5 2l91 4q18 1 20 -11q0 -9 -19 -19q-18 -9 -61 -18q-11 -2 -155 -6q-72 -2 -118 -3t-68 -2q-21 -1 -42 -0.5t-44 0.5z" />
    <glyph glyph-name="trademark" unicode="&#x2122;" horiz-adv-x="760" 
d="M198 682q-3 -10 -8 -28t-13 -44t-15 -51l-14 -50q-5 -19 -10.5 -40t-11.5 -45q-2 -11 -3 -24q-4 -29 -13 -39q-6 -8 -19.5 -17.5t-20.5 -9.5q-13 0 -13 9q0 5 4.5 23.5t10.5 42t12.5 48t11.5 41.5q3 14 12 45.5t19 64.5t17.5 60t9.5 32t2.5 9.5t2.5 9.5q3 7 10 18l-76 -1
h-9.5t-13.5 -0.5t-13.5 -0.5h-8.5q-11 0 -11 7q0 11 9 16q10 4 36 4q61 0 106 1t59 2l55 2q11 1 12 -6q0 -9 -23 -14q-8 -2 -15 -4t-23 -4q-6 -1 -14.5 -0.5t-20.5 -0.5zM735 768q0 -2 -1 -5t-3.5 -9.5t-6.5 -17t-10 -27.5q-6 -21 -11.5 -42t-11.5 -42t-12.5 -47.5t-12 -52
t-10 -46t-5.5 -28.5q-2 -15 -3.5 -26t-1.5 -18q0 -3 1 -7t1 -7q0 -9 -5 -15q-9 -14 -23.5 -25t-22.5 -11q-11 0 -11 11q0 9 0.5 16.5t2.5 18t4.5 25.5t7.5 38q3 15 9 42.5t13.5 58.5l15 62t13.5 54l-3 2q-21 -32 -60 -89t-90 -129q-25 -36 -44.5 -66.5t-30.5 -39.5
q-6 -7 -11 -9t-13 -2t-8 15q0 8 1 19.5t3 25.5q1 5 5 26.5t10 51.5t13.5 66t14.5 70t13.5 63.5t10.5 46.5q-9 -9 -23.5 -26t-31 -38t-33 -45t-29.5 -47q-15 -26 -27 -54t-22 -57q-8 -26 -12 -46.5t-5 -36.5q-2 -3 -7.5 -9t-11.5 -11.5t-12.5 -10t-11.5 -4.5q-8 0 -8 22
q0 14 5.5 35t17.5 47q14 32 32.5 66.5t48.5 79.5q12 18 29.5 40.5t36 45.5t36 44t30.5 36q11 8 18.5 11.5t18.5 8.5q3 2 5 1.5t7 0.5q6 0 6 -6t-6.5 -28.5t-18.5 -75.5q-7 -33 -14.5 -70.5t-14 -72t-11.5 -61.5t-7 -40q5 6 14 18t18 25.5t17.5 25.5t13.5 19q28 41 48 70
t34.5 50.5t26 39t22.5 35.5q13 21 20.5 33t12 18t7.5 8.5t8 5.5q8 5 18.5 6.5t18.5 1.5t8 -6z" />
    <glyph glyph-name="afii10106" unicode="&#x459;" horiz-adv-x="572" 
d="M337 240q-10 -36 -17 -68q-7 -27 -12 -53.5t-5 -39.5q0 -19 5.5 -33.5t28.5 -14.5q20 0 52 21q18 11 32.5 28.5t25 38t16 42.5t5.5 43q0 25 -11 43.5t-36 18.5q-17 0 -42 -7.5t-42 -18.5zM303 -12q-10 0 -23 1.5t-24.5 8t-19.5 19.5t-8 35q0 8 1.5 25.5t5.5 39.5
q4 20 13.5 58.5t27.5 102.5q13 46 20 72.5t7 33.5q0 9 -12 9q-17 0 -40.5 -21t-59.5 -67q-16 -20 -33 -47.5t-34 -59.5q-20 -40 -33.5 -70t-13.5 -65q0 -19 3 -29q-12 -21 -30 -36t-33 -15q-16 0 -22 10q-6 9 -6 26q0 43 102 199q51 78 93 128.5t74 77.5q19 15 46.5 29.5
t53.5 14.5q11 0 21 -5.5t10 -22.5q0 -8 -4 -22.5t-8 -29.5q-5 -17 -10.5 -37t-10.5 -37q-6 -20 -11 -41q31 16 63 26t61 10q38 0 56.5 -16.5t19.5 -54.5q1 -67 -49 -130q-10 -13 -30.5 -33t-47 -39.5t-56.5 -33.5t-59 -14z" />
    <glyph glyph-name="guilsinglright" unicode="&#x203a;" horiz-adv-x="217" 
d="M96 401q0 13 3 19.5t11 13.5t11.5 10.5l5 5t3 1.5h5.5q7 0 12 -8t9.5 -20.5t8 -29t7.5 -32.5q5 -24 9.5 -51t-1.5 -50q-16 -26 -45 -53.5t-58.5 -50.5t-53.5 -38t-29 -15q-7 0 -7 8t21.5 26.5t45.5 41.5q23 21 41.5 40t28.5 39q0 20 -4 42.5t-9.5 43t-10 36t-4.5 21.5z
" />
    <glyph glyph-name="afii10107" unicode="&#x45a;" horiz-adv-x="653" 
d="M413 276q31 16 61.5 24.5t59.5 8.5q38 0 56.5 -16.5t19.5 -54.5q1 -67 -49 -130q-20 -26 -45.5 -50.5t-67.5 -48.5q-29 -17 -58 -24.5t-50 -7.5q-60 0 -60 43q0 33 13 87t34 133l-153 -20q-3 -8 -6 -17q-2 -8 -5 -16t-5 -15q-4 -13 -8 -27.5t-7 -27.5t-5 -23t-2 -13
q0 -14 1 -21.5t1 -13.5q0 -8 -5 -17q-3 -5 -19 -20t-32 -24q-6 -4 -12 -6t-15 -2q-8 0 -15.5 1.5t-7.5 12.5q0 6 3.5 25.5t12.5 54.5q5 19 12 43t13 45q7 25 15 50q-11 -2 -24 -4t-19 -2q-9 0 -9 14q0 12 17 22q8 5 22.5 9t25.5 6l42 144q0 2 1 5q0 2 0.5 4t0.5 4q0 9 -9 9
q-11 0 -20 -5t-17 -5q-5 0 -5.5 3.5t-0.5 7.5q0 3 9 9t23.5 13t32.5 13.5t36 11.5q9 2 22.5 3t24.5 1q8 0 8 -9q0 -4 -5 -21.5t-13.5 -44.5t-19 -61.5t-21.5 -71.5l146 12q12 37 23 68q9 26 18 50.5t14 32.5q10 17 33 28t43 11q4 0 6 -3t2 -6q0 -6 -4 -16.5t-8 -20.5
q-11 -32 -22.5 -64.5t-27.5 -79.5zM402 240q-11 -40 -20 -75q-8 -30 -14 -59t-6 -42q0 -19 8.5 -26t31.5 -7q20 0 52 21q18 11 32.5 28.5t25 38t16 42.5t5.5 43q0 25 -11 43.5t-36 18.5q-17 0 -42 -7.5t-42 -18.5z" />
    <glyph glyph-name="afii10109" unicode="&#x45c;" horiz-adv-x="409" 
d="M444 665q0 -4 -11.5 -19t-30 -35t-41 -42t-43.5 -41q-2 -2 -9 -6t-12 -4t-5.5 2t-0.5 6q0 3 6.5 15t16.5 28t20 33t18 29q14 23 32 35.5t48 12.5q9 0 10.5 -3t1.5 -11zM406 352q-13 -8 -30 -11q4 9 8 24t4 27q0 27 -8 27q-6 0 -17.5 -5t-27.5 -21t-32.5 -33.5
t-30.5 -33.5q-17 -18 -32 -37q5 -14 15 -37t22.5 -48.5t26 -51.5t25.5 -47q23 -38 44.5 -58.5t38.5 -26.5q1 -2 -3 -9t-12.5 -14t-21.5 -12.5t-30 -5.5q-21 0 -38.5 13.5t-37.5 45.5q-9 15 -25 45t-42 84q-14 30 -22 48t-11 26q-3 -12 -7 -23q-3 -10 -6.5 -21t-5.5 -20
q-4 -14 -8 -30.5t-7 -30.5l-8 -34q-6 -26 -12 -37q-5 -10 -11 -16q-3 -3 -10.5 -7.5t-16 -8.5t-17 -6.5t-13.5 -2.5q-12 0 -16.5 3t-5.5 11q0 2 3.5 17.5t13.5 47.5q9 30 17.5 59.5t16.5 58.5q15 50 27 91q5 18 10.5 35.5t9.5 32t7 25t4 14.5q1 5 1.5 8t0.5 8q0 6 -6 6
q-7 0 -14 -3l-14 -6q-8 -4 -15 -9q-3 4 -4 8.5t-2 7.5q5 6 14.5 12t14.5 9q22 11 56 22t66 11q9 0 9 -9q-2 -10 -6 -20q-3 -8 -6.5 -18t-5.5 -18q-8 -23 -16 -49t-16 -49q-9 -27 -17 -54q19 22 40 46q17 20 39 44.5t44 49.5q16 18 33.5 35t35 30t35 21t33.5 8q8 0 11.5 -4.5
t5.5 -21.5v-17q0 -26 -12.5 -54t-32.5 -41z" />
    <glyph glyph-name="afii10108" unicode="&#x45b;" horiz-adv-x="469" 
d="M177 530q-4 0 -8.5 -0.5t-8.5 -0.5h-9q-18 0 -18 11q0 22 18 33q9 5 21 6.5t26 1.5h7q10 33 18 61t13 48q5 19 26 34q10 8 20 11.5t18 5.5q10 2 18 3q9 0 9 -10l-12 -36q-5 -16 -10.5 -33.5t-10.5 -34.5q-4 -13 -7.5 -25t-6.5 -24q8 -1 15.5 -1h12.5h11l91 4q18 1 18 -7
q0 -9 -19 -19q-9 -5 -45.5 -15.5t-86.5 -10.5h-11q-19 -68 -37 -133t-41 -141l3 -1q21 29 44 59q20 25 44 54t47 54q11 12 27 23t23 16q24 15 59 15q11 0 16.5 -8.5t5.5 -29.5q0 -8 -2.5 -21.5t-6.5 -31t-9 -37t-9 -38.5q-9 -38 -17.5 -67t-16.5 -61q-3 -9 -5.5 -21
t-5 -22.5t-4 -18t-1.5 -9.5q0 -11 2.5 -17.5t0.5 -17.5q-2 -8 -4 -12.5t-8 -12.5t-16 -16.5t-20.5 -16t-21 -12t-17.5 -4.5q-15 0 -15 19q0 9 4 24t7 26q5 17 10 35q5 15 9.5 33t9.5 33q10 34 16.5 58.5t14.5 59.5q7 29 13.5 58.5t6.5 40.5q0 7 -10 7q-9 0 -34 -22
t-55.5 -59t-62 -85.5t-54.5 -101.5q-6 -13 -10.5 -29t-8.5 -30l-8 -34q-6 -20 -18 -37q-6 -8 -23 -15t-27 -7q-14 0 -18 3t-5 11q0 3 3.5 15.5t8.5 29.5t10.5 36t10.5 36q15 53 27 96.5t24 85t24 85t27 96.5q5 15 8.5 29.5t8.5 28.5h-13z" />
    <glyph glyph-name="afii10193" unicode="&#x45f;" horiz-adv-x="525" 
d="M257 48q-12 -26 -17.5 -51.5t-10.5 -64.5q-4 -35 -12 -74t-26 -74t-38.5 -58t-52.5 -47l-5 8q19 23 29 45t16 45.5t9.5 50.5t8.5 60q5 32 25.5 74t65.5 88l8 -2v0zM170 211q-4 -12 -8.5 -27t-9 -29t-7.5 -24.5t-3 -13.5q0 -4 1.5 -8t4.5 -4q5 0 18 12t35 38
q26 31 45 55.5t36 48t33.5 47.5t37.5 55q14 21 22 38.5t27 34.5q12 11 24.5 17.5t23.5 12.5q10 4 18 4h10q6 1 8 -9q0 -3 -5.5 -18t-13.5 -37t-16.5 -46.5t-15.5 -46.5q-6 -19 -10.5 -34.5t-8.5 -30.5t-8.5 -30.5t-8.5 -34.5q-5 -19 -9 -41.5t-7 -42.5q-4 -23 -7 -46
q-1 -5 -1.5 -13t-4.5 -16q-1 -3 -8 -10q-2 -2 -9 -8t-16 -12t-17.5 -11t-12.5 -5q-5 0 -10.5 2.5t-5.5 7.5v10q0 6 3 26t7.5 47t10.5 57.5t12 57.5q4 18 10 39t11 39q6 21 12 43q-19 -25 -40 -52q-18 -23 -40 -52t-45 -59q-15 -20 -30 -37.5t-26 -29.5t-19.5 -22t-17 -18.5
t-18.5 -16t-23 -16.5q-11 -8 -19 -8.5t-13 -0.5q-27 0 -27 40q0 8 6 33.5t19 64.5l44 137q13 40 20 65t11 39.5t5 21t1 8.5q0 5 -1 8.5t-6 3.5t-14 -6t-14 -6q-7 0 -8 12q0 5 28 23q37 23 62.5 31.5t39.5 8.5q8 0 8 -11q0 -8 -3.5 -27.5t-8.5 -36.5l-58 -191v0z" />
    <glyph glyph-name="afii10062" unicode="&#x40e;" horiz-adv-x="569" 
d="M584 922q12 0 12 -16q0 -8 -10 -26t-30 -38q-41 -40 -79 -60q-33 -17 -65 -25.5t-55 -8.5q-24 -1 -42 6.5t-18 18.5q0 4 1.5 10.5t3.5 11.5q5 14 15 24.5t27 10.5q6 0 10.5 -3t14.5 -6.5t26.5 -6.5t46.5 -3q23 0 53 16.5t50 43.5q12 15 15 33t24 18zM538 683
q0 -15 -6.5 -34.5t-16 -39.5t-20 -39t-17.5 -32q-10 -37 -20.5 -78.5t-23.5 -79.5q-29 -87 -56 -155.5t-67 -120.5q-48 -60 -112.5 -92.5t-143.5 -32.5q-36 0 -59.5 8t-23.5 21q0 7 8 7t22 -7.5t38 -7.5q59 0 103 22.5t86 67.5q17 18 35.5 47t38.5 73t41.5 103.5t44.5 137.5
l-3 1q-12 -13 -32 -33.5t-45 -43.5t-54.5 -47.5t-60.5 -45.5q-13 -8 -37 -20.5t-50 -12.5q-14 0 -22 9t-8 25q0 8 2.5 21.5t7.5 28.5q14 42 24.5 75.5t19.5 59.5q17 53 27 86.5t15 54t6 30.5t1 16q0 10 -3.5 10.5t-6.5 0.5t-8.5 -2.5t-11 -5.5t-10.5 -5.5t-7 -2.5q-5 0 -5 6
q0 7 7 12t17 10q7 4 22 10.5t32 12.5t34.5 10.5t29.5 4.5q9 0 9 -12q0 -5 -3 -15.5t-7 -21.5q-17 -54 -31 -95t-27 -85q-6 -18 -13 -42.5t-13 -47t-10.5 -40.5t-4.5 -23q0 -8 3 -9.5t10 -1.5t23.5 9t37.5 24t44 35t44 43q49 52 76 103q8 28 15 51.5t15 42.5q8 18 14.5 28.5
t12.5 16.5q14 14 28 18.5t31 4.5q14 0 14 -16z" />
    <glyph glyph-name="afii10110" unicode="&#x45e;" horiz-adv-x="499" 
d="M552 702q12 0 12 -16q0 -8 -9.5 -27.5t-29.5 -39.5q-27 -26 -53 -42t-50.5 -24.5t-47 -11.5t-41.5 -3q-24 0 -42 7t-18 18q0 4 1.5 10.5t3.5 11.5q5 14 15 30.5t27 16.5q6 0 9.5 -6.5t11.5 -14t23.5 -14t45.5 -6.5q18 0 37 8t35.5 20.5t28.5 29.5t17 35q4 18 24 18z
M488 441q0 -9 -3.5 -21.5t-8.5 -29.5q-8 -25 -21.5 -49.5t-25.5 -44.5q-11 -36 -17 -58t-8 -30q-34 -121 -66 -211q-30 -87 -65.5 -161t-81.5 -130q-21 -25 -48.5 -48t-60.5 -40.5t-71.5 -28.5t-80.5 -11q-83 -2 -83 29q0 6 14 6q10 0 15.5 -0.5t10 -1.5t10.5 -1.5t17 -0.5
q64 0 116.5 24.5t97.5 79.5q20 24 50.5 81.5t65.5 145.5q31 78 54 145.5t40 118.5l-3 1q-13 -17 -35.5 -42.5t-49.5 -54t-55.5 -56t-52.5 -46.5q-9 -5 -16 -10t-15.5 -9t-19 -6.5t-25.5 -2.5q-10 0 -17 8t-7 31q0 10 5 29t13.5 44t18.5 53.5t20 57.5q7 22 12.5 38.5l11 33
t10.5 35t13 43.5q4 12 8 29t4 29q0 4 -1 8.5t-6 4.5t-11.5 -2.5t-12.5 -4.5l-14 -7q-2 0 -3 5.5t-3 8.5q0 1 5 5.5t13.5 9.5t18 10t18.5 8q22 8 37.5 12t26 5.5t16.5 1t10 -0.5q10 0 9 -9l-12 -39q-14 -38 -27 -78q-11 -34 -23.5 -73t-23.5 -72q-14 -44 -24.5 -75.5
t-10.5 -45.5q0 -9 10 -10q11 0 25 11t31 26q18 16 39.5 39t42.5 48.5t39.5 51.5t30.5 48l23 74q8 23 15 38.5t19 26.5q13 12 27.5 17t31.5 6q13 0 14 -16z" />
    <glyph glyph-name="afii10057" unicode="&#x408;" horiz-adv-x="362" 
d="M269 702q9 2 19 2.5t18 0.5q7 0 7 -9q0 -5 -12 -35t-33 -93q-8 -23 -12.5 -37t-7.5 -24.5l-6 -21t-8 -25.5q-5 -14 -14.5 -50.5t-26.5 -93.5q-22 -72 -38.5 -119.5t-30 -79t-26 -51.5t-26.5 -37q-11 -13 -28 -29t-35 -30t-34 -23.5t-25 -9.5q-10 0 -10 6q0 9 9 15
t23.5 19t33 39.5t37.5 76.5q11 30 30.5 96t51.5 175l69 234q9 30 17 48.5t16.5 29.5t18.5 17t23 9z" />
    <glyph glyph-name="currency" unicode="&#xa4;" horiz-adv-x="622" 
d="M541 55l-84 86q-37 -30 -76.5 -42.5t-73.5 -12.5t-73.5 12.5t-76.5 42.5l-84 -86l-33 34l85 84q-30 37 -42.5 76.5t-12.5 73.5t12.5 73.5t42.5 76.5l-85 84l33 34l84 -86q37 30 76.5 42.5t73.5 12.5t73.5 -12.5t76.5 -42.5l84 86l34 -34l-86 -84q30 -37 42.5 -76.5
t12.5 -73.5t-12.5 -73.5t-42.5 -76.5l86 -84zM496 323q0 40 -15 75.5t-40.5 61.5t-60 41.5t-73.5 15.5t-73.5 -15.5t-60 -41.5t-40.5 -61.5t-15 -75.5t15 -75.5t40.5 -61.5t60 -41.5t73.5 -15.5t73.5 15.5t60 41.5t40.5 61.5t15 75.5z" />
    <glyph glyph-name="afii10050" unicode="&#x490;" horiz-adv-x="386" 
d="M425 700q2 8 4.5 17t4.5 17q3 10 6 19q6 13 23 27.5t38 14.5q3 0 2 -7.5t-3.5 -19.5t-6.5 -27l-8 -30q-7 -25 -16.5 -33.5t-20.5 -10.5q-4 -1 -12 -1h-7q-7 -2 -14.5 -3.5t-16.5 -3.5q-17 -3 -35.5 -4.5t-34.5 -2.5q-18 -1 -37 -1l-112 -386q-9 -32 -18.5 -67t-17.5 -74
q-4 -17 -6.5 -37.5t-5.5 -35.5q-3 -20 -15 -33q-5 -6 -13 -13.5t-17.5 -14.5t-19.5 -11.5t-17 -4.5q-22 0 -22 14q0 9 2.5 19.5t8.5 33.5q17 63 28 103.5t19.5 73.5t17.5 66t22 80q9 34 21 75t23 76q12 41 25 83q3 9 6.5 25.5t5.5 25.5h-12t-14 1q-13 1 -14 11q0 9 20 18
q10 5 21.5 8t25.5 6q14 2 28 3t26 1h41t46 1q26 1 51 2z" />
    <glyph glyph-name="section" unicode="&#xa7;" horiz-adv-x="481" 
d="M355 240q0 38 -21.5 69t-53.5 62q-21 20 -39.5 37.5t-32.5 38.5q-37 -8 -59 -35.5t-22 -78.5q0 -42 23 -84.5t77 -96.5q7 -7 21 -19t20 -19q19 3 35 16t27.5 31t18 39t6.5 40zM130 -167q-23 0 -43.5 6t-36.5 17t-25.5 26t-9.5 34q0 17 14 34t35 28q2 -51 25.5 -81
t60.5 -30q57 0 85.5 30t28.5 87q0 19 -8.5 35t-21.5 30.5t-29 28.5t-32 29q-18 18 -37 39.5t-34.5 44.5t-25.5 47.5t-10 47.5q0 54 31.5 106t94.5 87q-5 12 -11.5 24t-6.5 34q-1 34 13.5 62.5t38.5 49.5t56 32.5t66 11.5q45 0 73 -12t39 -28q3 -14 2.5 -23.5t-8.5 -21.5
q-5 -7 -13.5 -14t-22.5 -14q-1 13 -7 28.5t-20 27.5q-28 23 -63 23q-15 0 -31.5 -4t-30 -14t-22 -27.5t-8.5 -44.5q0 -19 5.5 -35.5t17 -34t30 -37.5t44.5 -46q23 -23 38.5 -39.5t25 -33t13.5 -35.5t4 -47q0 -19 -6.5 -40.5t-19 -42.5t-32 -40t-45.5 -34l-21 -17
q14 -20 24.5 -43t10.5 -43q0 -33 -15.5 -63t-42 -53.5t-62 -37.5t-75.5 -14z" />
    <glyph glyph-name="afii10023" unicode="&#x401;" horiz-adv-x="460" 
d="M336 795q-2 -23 -16 -41t-43 -18q-20 0 -28 8t-7 32q2 29 15 46.5t47 17.5q21 0 27 -11t5 -34zM477 797q-2 -23 -16 -41t-43 -18q-20 0 -28 8t-7 32q2 29 15 46.5t47 17.5q21 0 27 -11t5 -34zM54 -25q-6 -2 -10 -2q-17 0 -17 15q0 16 9 45.5t18 66.5q3 13 12.5 49t21 77
t21.5 77.5t13 49.5h-12q-21 0 -21 11q0 18 12 26q11 5 33 7q10 33 18 56.5t14.5 44t13 41.5t14.5 49q2 9 6 24.5t6 26.5h-12t-14 1q-13 1 -14 11q0 9 20 18q10 5 21.5 8t25.5 6q28 5 50 6q11 1 27 1.5t37 0.5q27 1 48 0.5t36 0.5q23 1 38 3t29 2q6 0 13 -2.5t7 -8.5
q0 -9 -19 -19q-13 -7 -39 -14t-60 -7h-37q-9 0 -21.5 -1t-23.5 -2q-13 -1 -27 -2l-24 -83l-50 -160h45l91 4q18 1 20 -11q0 -9 -23 -18q-11 -5 -22 -7.5t-30 -5.5q-15 -2 -38 -3t-55 -2q-13 -43 -24 -84q-10 -35 -20.5 -75t-17.5 -72q-4 -17 -5.5 -36.5t-7.5 -40.5
q-1 -3 -2 -6.5t-2 -6.5l-3 -6h129l91 4q20 2 20 -11q0 -7 -20 -18t-60 -19q-9 -2 -28.5 -2.5t-49.5 -1.5h-57.5t-56.5 -2h-15.5t-15.5 -1z" />
    <glyph glyph-name="copyright" unicode="&#xa9;" horiz-adv-x="843" 
d="M782 349q0 -74 -28 -139t-76 -113t-113 -76t-139 -28t-138.5 28t-112.5 76t-75.5 113t-27.5 139q0 73 27.5 137.5t75.5 112.5t112.5 75.5t138.5 27.5t139 -27.5t113 -75.5t76 -112.5t28 -137.5zM751 349q0 67 -25.5 125.5t-70 102t-103.5 69t-126 25.5t-125.5 -25.5
t-102 -69t-69 -102t-25.5 -125.5t25.5 -126t69 -103.5t102 -70t125.5 -25.5t126 25.5t103.5 70t70 103.5t25.5 126zM488 436q5 15 7.5 28.5t3.5 31.5q0 17 -19 17q-26 0 -50 -19.5t-42.5 -51t-29.5 -71.5t-11 -82q0 -44 18 -68q9 -12 22 -16.5t36 -4.5q16 0 30.5 6t28.5 14
q4 2 7.5 4t6.5 2q4 0 7.5 -3t3.5 -11q0 -3 -10.5 -11t-29.5 -16.5t-44 -15t-54 -6.5q-40 0 -66 23t-27 71q-1 57 21 109t66 101q19 22 40.5 38t41.5 27t37.5 16.5t30.5 5.5q15 0 30 -5.5t15 -25.5q0 -29 -6 -54q-2 -8 -7 -18.5t-15 -18.5q-13 -11 -24.5 -14.5t-17.5 -3.5
q-4 0 -6 5z" />
    <glyph glyph-name="afii10053" unicode="&#x404;" horiz-adv-x="502" 
d="M122 334q-6 -29 -9.5 -59t-3.5 -62q0 -84 37 -131.5t107 -47.5q23 0 52 9.5t49 19.5q3 1 9 5t13 7.5l13 6.5t9 3q9 0 9 -14q0 -9 -43 -35q-40 -24 -85 -40t-90 -16q-71 0 -113 46t-43 128q-1 45 8.5 93.5t28.5 103.5q36 108 95 185t133 124q33 21 65.5 31.5t56.5 10.5
q16 0 31 -2t25 -10q5 -5 8 -17t3 -25q0 -18 -3 -39.5t-12 -33.5q-7 -9 -25.5 -19.5t-41.5 -10.5q-6 0 -7 7q5 13 9.5 32.5t4.5 33.5q0 15 -11 21.5t-30 6.5q-35 0 -70.5 -21t-67.5 -57.5t-59 -87t-43 -109.5q21 3 48.5 4t53.5 1q21 0 36 0.5t28.5 0.5t28 0.5t33.5 0.5
q9 0 19 -1.5t10 -7.5q0 -5 -16.5 -15t-58.5 -15q-25 -3 -47 -4.5t-51 -2.5q-24 -1 -49 0t-44 2z" />
    <glyph glyph-name="guillemotleft" unicode="&#xab;" horiz-adv-x="340" 
d="M133 165q0 -13 -3 -19.5t-11 -13.5t-11.5 -10.5l-5 -5t-3 -1.5h-5.5q-7 0 -12 8t-9.5 20.5t-8 28.5t-7.5 33q-5 24 -9.5 51t1.5 50q16 25 45 53t58.5 51t53.5 38t29 15q7 0 7 -8t-21.5 -26.5t-45.5 -41.5q-23 -21 -41.5 -40t-28.5 -39q0 -20 4 -43t9.5 -43t10 -35.5
t4.5 -21.5zM268 180q0 -13 -5.5 -21t-13.5 -15t-11.5 -10.5l-5 -5t-3 -1.5h-5.5q-14 0 -21.5 22.5t-15.5 55.5q-5 24 -9.5 51t1.5 50q16 25 41 49t49 42t43.5 29t24.5 11q8 0 7.5 -1.5t-0.5 -6.5q0 -8 -13 -19t-30.5 -25.5t-36 -33.5t-29.5 -41q2 -19 7.5 -39.5t11 -38.5
t10 -32t4.5 -20z" />
    <glyph glyph-name="logicalnot" unicode="&#xac;" horiz-adv-x="594" 
d="M518 164l-37 -13l12 83h-259h-45t-68.5 -0.5t-64.5 -1t-35 -1.5q8 26 23 35.5t23 11.5q8 0 42 0.5t81 0.5h101t103.5 0.5t88 0.5t54.5 1z" />
    <glyph glyph-name="registered" unicode="&#xae;" horiz-adv-x="843" 
d="M782 349q0 -74 -28 -139t-76 -113t-113 -76t-139 -28t-138.5 28t-112.5 76t-75.5 113t-27.5 139q0 73 27.5 137.5t75.5 112.5t112.5 75.5t138.5 27.5t139 -27.5t113 -75.5t76 -112.5t28 -137.5zM751 349q0 67 -25.5 125.5t-70 102t-103.5 69t-126 25.5t-125.5 -25.5
t-102 -69t-69 -102t-25.5 -125.5t25.5 -126t69 -103.5t102 -70t125.5 -25.5t126 25.5t103.5 70t70 103.5t25.5 126zM604 493q0 -20 -9.5 -39.5t-27.5 -36.5q-27 -26 -58 -38.5t-69 -18.5q5 -12 13 -31t19 -41q17 -32 31 -54t25.5 -38t20 -26t15.5 -18q0 -7 -16 -7
q-18 0 -36 8t-41 37q-5 7 -14.5 21t-20 32.5t-22 40t-21.5 42.5q-16 33 -16 42q0 7 16 7h19q6 0 19 1t29 5t32.5 12.5t30.5 22.5q24 24 24 57q0 77 -80 77q-10 0 -21.5 -0.5t-20.5 -2.5q-2 -4 -2 -4.5t-3 -9t-10.5 -29.5t-23.5 -66q-28 -81 -43.5 -128t-23.5 -72
q-2 -5 -4.5 -20.5t-4.5 -23.5q-2 -3 -3.5 -6.5t-4.5 -7.5q-8 -8 -24 -19.5t-28 -11.5q-16 0 -16 9t5 23.5t11 31.5q6 18 10 29.5t12 34t24.5 66.5t47.5 128q7 20 12.5 36.5t9.5 30.5q-8 0 -12 1q-5 0 -6 6q0 7 15 11q17 5 50.5 8.5t67.5 3.5q65 0 94 -18.5t29 -56.5z" />
    <glyph glyph-name="afii10056" unicode="&#x407;" horiz-adv-x="271" 
d="M269 791q-2 -22 -15.5 -39.5t-42.5 -17.5q-20 0 -27 7.5t-6 30.5q1 29 14 45.5t46 16.5q20 0 26 -10.5t5 -32.5zM405 793q-1 -22 -14.5 -40t-42.5 -18q-20 0 -27.5 8t-6.5 31q2 29 15 45.5t45 16.5q21 0 26.5 -10.5t4.5 -32.5zM264 568q-8 -23 -18 -56.5t-21.5 -74
t-24.5 -84.5t-25 -88q-9 -32 -18.5 -69t-17.5 -72q-5 -22 -6.5 -37.5t-3.5 -26.5q-3 -19 -9 -29q-3 -5 -11.5 -14.5t-19.5 -19t-22 -16.5t-18 -7t-14.5 1.5t-7.5 12.5q0 4 3.5 19t8 33t9 35t6.5 25q14 56 31.5 121.5t39.5 142.5q12 43 26 90t26.5 87.5t21 69t10.5 33.5
q7 18 14 28.5t14 16.5t15 8.5t17 4.5t16.5 2.5t16.5 0.5q7 0 7 -9q0 -5 -12 -34.5t-33 -93.5z" />
    <glyph glyph-name="degree" unicode="&#xb0;" horiz-adv-x="374" 
d="M344 638q0 -34 -14.5 -68.5t-40 -62.5t-60.5 -46t-75 -18q-26 0 -41.5 9t-23.5 22.5t-10.5 29t-2.5 29.5q0 10 1.5 25t8 34t21 41.5t40.5 47.5q28 26 50.5 32.5t34.5 11.5q15 6 30 8t26 2q31 0 43.5 -26t12.5 -71zM289 612q0 31 -12 52q-11 20 -27 20q-3 0 -10 0.5
t-14 0.5q-31 0 -50 -15.5t-29 -36t-13.5 -40t-3.5 -27.5q0 -34 13.5 -59t42.5 -25q13 0 31 4.5t34 18.5t27 39.5t11 67.5z" />
    <glyph glyph-name="plusminus" unicode="&#xb1;" horiz-adv-x="481" 
d="M450 342q0 -13 -13.5 -19t-38.5 -11q-11 -2 -46 -3t-79 -2q-5 -19 -8 -29t-5 -17.5t-4 -16.5t-5 -26q-2 -11 -7 -22t-30 -25q-13 -8 -27 -8q-23 0 -23 14q0 6 -0.5 6.5t1.5 4.5t6.5 18t15.5 47q6 20 14 53q-24 -1 -45 -1h-37h-35q-7 0 -14.5 -1t-14 -0.5t-11 3t-4.5 8.5
q0 15 7 22t17.5 9.5t24 2.5h25.5h31q14 0 32 -0.5t37 -0.5q5 15 8 27t8 31q9 33 16.5 51t24.5 23q9 3 20 5t22 2q5 0 5.5 -4t0.5 -12q0 -6 -3.5 -17.5t-12.5 -38.5q-6 -18 -8.5 -30.5t-8.5 -35.5h23q13 0 32.5 1t38.5 1.5t33 1t17 0.5q13 0 16.5 -3.5t3.5 -7.5zM93 80
q-7 0 -14.5 -1t-14 -0.5t-11 3t-4.5 8.5q0 15 7 23t17.5 11.5t24 4.5t25.5 1h101q13 0 28 0.5t28 1.5t22.5 1.5t12.5 0.5q13 0 16.5 -3.5t3.5 -7.5q0 -6 -8 -12t-20 -10.5t-26 -8.5t-26 -6q-13 -2 -40 -3l-54 -2q-32 -1 -68 -1z" />
    <glyph glyph-name="afii10055" horiz-adv-x="271" 
d="M264 568q-8 -23 -18 -56.5t-21.5 -74t-24.5 -84.5t-25 -88q-9 -32 -18.5 -69t-17.5 -72q-5 -22 -6.5 -37.5t-3.5 -26.5q-3 -19 -9 -29q-3 -5 -11.5 -14.5t-19.5 -19t-22 -16.5t-18 -7t-14.5 1.5t-7.5 12.5q0 4 3.5 19t8 33t9 35t6.5 25q14 56 31.5 121.5t39.5 142.5
q12 43 26 90t26.5 87.5t21 69t10.5 33.5q7 18 14 28.5t14 16.5t15 8.5t17 4.5t16.5 2.5t16.5 0.5q7 0 7 -9q0 -5 -12 -34.5t-33 -93.5z" />
    <glyph glyph-name="afii10103" unicode="&#x456;" horiz-adv-x="234" 
d="M232 444l-12 -46q-5 -20 -11 -42.5t-12 -40.5q-6 -19 -10.5 -33.5t-8.5 -29t-8 -29.5t-9 -34q-5 -17 -10 -35.5t-9 -35t-7 -29t-3 -17.5q0 -8 1.5 -14t1.5 -11t-3.5 -16.5t-27.5 -30.5q-2 -2 -8.5 -5t-14.5 -7t-16 -6.5t-14 -2.5q-8 0 -14 2.5t-6 10.5q0 11 7 33
q11 34 20 60.5t20 62.5q8 28 13 47.5t12 47.5q5 20 10.5 40.5t10 39.5t7.5 34.5t3 25.5t-3 12.5t-8 2.5q-4 0 -8 -1t-9 -3t-11 -3q-3 2 -5 15q8 7 35 19t60 23q20 7 38 7q9 0 9 -11zM273 592q-2 -24 -16.5 -43.5t-45.5 -19.5q-21 0 -29.5 8.5t-6.5 33.5q2 32 15.5 50
t49.5 18q22 0 28.5 -12t4.5 -35z" />
    <glyph glyph-name="afii10098" unicode="&#x491;" horiz-adv-x="334" 
d="M217 401q-12 -38 -26 -94t-30 -118q-5 -17 -10 -36t-9 -35.5t-7 -29t-3 -16.5q0 -8 1.5 -14t1.5 -11q0 -9 -4.5 -18.5t-26.5 -28.5q-4 -3 -17 -10.5t-33 -11.5q-22 0 -23 14q0 11 7 33q11 34 20 60.5t20 62.5q8 28 13 47.5t12 47.5q6 23 12 46.5t11.5 45t9 39t3.5 27.5
q-6 0 -21.5 -0.5t-23.5 0.5q-13 1 -14 11q0 9 20 18q10 5 21.5 8t25.5 6q14 2 28 3t26 1h38.5t38.5 1q20 1 41 2q2 8 4.5 17t4.5 17q3 10 6 19q6 13 23 27.5t38 14.5q3 0 2 -7.5t-3.5 -19.5t-6.5 -27l-8 -30q-7 -25 -18 -34.5t-19 -9.5q-11 -3 -19 -1q-7 -2 -14.5 -3.5
t-16.5 -3.5q-17 -3 -27 -4t-17.5 -2t-14.5 -1.5t-16 -1.5z" />
    <glyph glyph-name="mu" unicode="&#xb5;" horiz-adv-x="562" 
d="M557 159q0 -8 -13.5 -35.5t-36 -57t-50.5 -53t-57 -23.5q-27 0 -37.5 16t-10.5 40q0 10 0.5 21t1.5 20t2 15t2 6h-4q-17 -24 -33.5 -45.5t-33 -37.5t-34 -25.5t-38.5 -9.5q-40 0 -61 40.5t-14 132.5h-3q-6 -18 -16.5 -49t-21.5 -66t-20 -68.5t-13 -56.5t-5.5 -41.5
t1.5 -33.5q3 -17 8 -28q-4 -10 -10 -22t-14 -22t-17 -17t-18 -7q-20 0 -26.5 18t-4.5 39q2 15 7.5 37.5t14.5 47.5t25.5 66t36 92t40.5 109.5t40 119.5l33 107q3 9 8.5 26t15.5 28q25 27 64 28q8 0 9 -10q-6 -18 -11 -35q-5 -14 -10 -30t-7 -26q-5 -17 -11.5 -49t-12.5 -68
t-10.5 -68.5t-4.5 -48.5q0 -15 1 -30.5t5 -28.5t12 -21t22 -8q19 0 38 14.5t34 35.5t26 44t15 40l50 195q5 17 9 30.5t12 23.5q7 9 16 14.5t18.5 8t18 3.5t14.5 1q9 0 9 -10q0 -5 -5 -19t-11 -32t-12 -35.5t-9 -27.5q-12 -48 -22 -91.5t-17 -78t-10.5 -57t-3.5 -28.5
q0 -32 18 -32q16 0 31.5 12t29 28.5t23.5 34.5t14 30q2 4 4.5 10.5t10.5 6.5q9 0 9 -9z" />
    <glyph glyph-name="mu" unicode="&#x3bc;" horiz-adv-x="562" 
d="M557 159q0 -8 -13.5 -35.5t-36 -57t-50.5 -53t-57 -23.5q-27 0 -37.5 16t-10.5 40q0 10 0.5 21t1.5 20t2 15t2 6h-4q-17 -24 -33.5 -45.5t-33 -37.5t-34 -25.5t-38.5 -9.5q-40 0 -61 40.5t-14 132.5h-3q-6 -18 -16.5 -49t-21.5 -66t-20 -68.5t-13 -56.5t-5.5 -41.5
t1.5 -33.5q3 -17 8 -28q-4 -10 -10 -22t-14 -22t-17 -17t-18 -7q-20 0 -26.5 18t-4.5 39q2 15 7.5 37.5t14.5 47.5t25.5 66t36 92t40.5 109.5t40 119.5l33 107q3 9 8.5 26t15.5 28q25 27 64 28q8 0 9 -10q-6 -18 -11 -35q-5 -14 -10 -30t-7 -26q-5 -17 -11.5 -49t-12.5 -68
t-10.5 -68.5t-4.5 -48.5q0 -15 1 -30.5t5 -28.5t12 -21t22 -8q19 0 38 14.5t34 35.5t26 44t15 40l50 195q5 17 9 30.5t12 23.5q7 9 16 14.5t18.5 8t18 3.5t14.5 1q9 0 9 -10q0 -5 -5 -19t-11 -32t-12 -35.5t-9 -27.5q-12 -48 -22 -91.5t-17 -78t-10.5 -57t-3.5 -28.5
q0 -32 18 -32q16 0 31.5 12t29 28.5t23.5 34.5t14 30q2 4 4.5 10.5t10.5 6.5q9 0 9 -9z" />
    <glyph glyph-name="paragraph" unicode="&#xb6;" horiz-adv-x="373" 
d="M260 -74h-48l69 736h48zM132 -74h-47l47 519q-32 20 -47.5 50.5t-10.5 68.5q9 75 80 98h47z" />
    <glyph glyph-name="periodcentered" unicode="&#xb7;" horiz-adv-x="245" 
d="M181 334q-2 -24 -16.5 -43.5t-45.5 -19.5q-21 0 -29.5 8.5t-6.5 33.5q2 32 15.5 50t49.5 18q22 0 28.5 -12t4.5 -35z" />
    <glyph glyph-name="periodcentered" unicode="&#x2219;" horiz-adv-x="245" 
d="M181 334q-2 -24 -16.5 -43.5t-45.5 -19.5q-21 0 -29.5 8.5t-6.5 33.5q2 32 15.5 50t49.5 18q22 0 28.5 -12t4.5 -35z" />
    <glyph glyph-name="afii10071" unicode="&#x451;" horiz-adv-x="378" 
d="M305 581q0 -14 -2.5 -23t-12.5 -20q-9 -10 -18 -13t-26 -4q-9 0 -15 1t-12 6q-8 7 -7.5 14.5t0.5 18.5q-1 33 14 48q13 14 48 16q18 0 25 -10q6 -14 6 -34zM448 581q0 -16 -3.5 -24.5t-11.5 -18.5q-13 -16 -44 -17q-10 0 -16.5 -0.5t-11.5 7.5q-4 5 -5 13.5t-1 19.5
q0 12 1 24t12 24q13 14 48 16q18 0 25 -11q7 -12 7 -33zM126 246q24 5 43 13.5t51 31.5q43 31 55 58t12 47t-25 20q-17 0 -37 -13t-43 -42q-21 -28 -35 -57t-21 -58zM118 185q-2 -6 -2.5 -12.5t-0.5 -9.5q0 -63 22 -98t80 -35q15 0 31 4.5t29 10.5q15 6 29 15q6 -6 6 -19
q0 -6 -13.5 -15.5t-35 -18.5t-48.5 -15.5t-53 -6.5q-64 0 -99.5 37.5t-35.5 105.5q0 59 19 112.5t64 105.5q26 30 56.5 53t75.5 47q24 13 44.5 18t34.5 7q29 0 41 -7.5t12 -26.5q0 -9 -3.5 -23t-15 -33t-33 -42.5t-57.5 -51.5q-29 -23 -55 -39t-46 -27q-23 -12 -42 -20z" />
    <glyph glyph-name="afii61352" unicode="&#x2116;" horiz-adv-x="938" 
d="M695 219q-50 0 -74.5 26t-24.5 64q0 48 26 92.5t80 76.5q28 16 50.5 20.5t39.5 4.5q12 3 19.5 4.5t13 2t11.5 1t15 0.5q35 0 52 -23.5t17 -59.5q0 -12 -3.5 -28t-10 -32.5t-16.5 -33t-22 -29.5q-25 -26 -48.5 -43t-45 -26.5t-41.5 -13t-38 -3.5zM852 433q0 43 -36 43
q-9 0 -20 -5q-2 0 -5 1q-6 2 -9 2q-16 0 -29 -5t-26 -13q-9 -6 -20.5 -17.5t-21.5 -28.5t-16.5 -39.5t-6.5 -51.5q0 -35 14.5 -54t42.5 -20q29 0 53.5 16t42 43t27.5 60.5t10 68.5zM577 100q-18 0 -18 11q0 23 20 32q22 8 64 8q68 0 115 2t67 2q6 0 12.5 -2.5t7.5 -8.5
q0 -10 -19 -19q-12 -5 -30 -9t-37 -7t-35.5 -4.5t-26.5 -1.5q-39 0 -70.5 -1.5t-49.5 -1.5zM197 578q-3 -9 -10.5 -36t-18.5 -68t-24 -94.5t-26 -114.5q-11 -53 -18.5 -93.5t-12.5 -68.5q-6 -33 -10 -56q-2 -7 -3.5 -12.5t-3.5 -10.5t-6 -10t-11 -11q-5 -3 -16 -8.5
t-24 -5.5q-7 0 -4.5 15t6.5 32q21 93 37.5 163t32.5 133l32 126t34 140q3 11 6.5 24t7 24.5t6 20t4.5 10.5q8 10 21.5 19t29.5 9q11 0 19 -2t13 -17q5 -16 6 -27.5t5 -27.5q3 -15 10 -47.5t18 -83.5q18 -84 29.5 -139.5t19 -92t12 -58t8 -35.5t6 -26t7.5 -29q21 92 41 180
q9 37 18 77.5t17.5 79.5t16.5 76t15 67q2 10 4.5 22t5 23.5t5 20t4.5 11.5q6 11 20 19.5t40 8.5q6 0 6 -9l-38 -128q-6 -19 -14.5 -51.5t-18.5 -73t-21 -86.5l-22 -92q-5 -21 -10 -45.5t-10 -45.5l-10 -50q-4 -24 -8 -43q-3 -17 -6.5 -32t-5.5 -19q-2 -3 -9 -12.5t-16 -19
t-18.5 -17t-16.5 -7.5q-12 0 -19 11t-15 34q-5 13 -12 43.5t-16 69.5t-18.5 82.5t-17.5 84.5q-14 70 -27 140t-26 139z" />
    <glyph glyph-name="afii10101" unicode="&#x454;" horiz-adv-x="364" 
d="M110 186q-3 -23 -3 -44q0 -54 22 -85q11 -15 27 -20.5t45 -5.5q20 0 37.5 7.5t34.5 17.5q10 7 17 7q4 0 9 -3t5 -14q0 -4 -11.5 -14t-33 -20.5t-53.5 -18.5t-72 -8q-49 0 -81 28.5t-33 88.5q-1 140 107 261q48 54 97 81t87 27q15 0 25.5 0.5t20.5 -6.5l4 -6q6 -11 6 -26
q0 -37 -9 -67q-4 -14 -9 -25.5t-16 -20.5q-17 -14 -31 -18.5t-21 -4.5q-5 0 -8 6l8 22q7 18 9.5 34.5t3.5 39.5q0 21 -23 21q-26 0 -50 -15.5t-44.5 -42.5t-36 -62.5t-24.5 -75.5q16 1 33 2.5t34 1.5q21 0 30 0.5t15 0.5t14 0.5t27 0.5q9 0 19 -1.5t10 -7.5q0 -5 -16.5 -15
t-58.5 -15q-12 -2 -21 -2.5t-16.5 -1l-15 -1t-17.5 -0.5q-14 -1 -23.5 -0.5t-19.5 0.5z" />
    <glyph glyph-name="guillemotright" unicode="&#xbb;" horiz-adv-x="340" 
d="M220 403q0 13 3 19.5t11 13.5t11.5 10.5l5 5t3 1.5h5.5q7 0 12 -8t9.5 -20.5t8 -29t7.5 -32.5q5 -24 9.5 -51t-1.5 -50q-16 -26 -45 -53.5t-58.5 -50.5t-53.5 -38t-29 -15q-7 0 -7 8t21.5 26.5t45.5 41.5q23 21 41.5 40t28.5 39q0 20 -4 42.5t-9.5 43t-10 36t-4.5 21.5z
M85 388q0 13 5.5 21t13.5 15t11.5 10.5l5 5t3 1.5h5.5q14 0 21.5 -22.5t15.5 -55.5q5 -24 9.5 -51t-1.5 -50q-16 -26 -41 -49.5t-49 -41.5t-43.5 -29t-24.5 -11q-8 0 -7.5 1.5t0.5 6.5q0 7 13 18.5t30.5 26t36 33t29.5 41.5q-2 19 -7.5 39.5t-11 38.5t-10 32t-4.5 20z" />
    <glyph glyph-name="afii10105" unicode="&#x458;" horiz-adv-x="251" 
d="M153 396q-4 0 -8 -1t-9 -3t-11 -3q-3 2 -5 15q8 7 36 19t59 23q18 7 38 7q9 0 9 -11q-6 -23 -13 -46q-6 -20 -13 -41.5t-12 -39.5q-11 -35 -23 -76.5t-23 -77.5q-12 -42 -25 -85q-13 -44 -26 -82t-27 -71q-17 -41 -38.5 -78t-46 -68t-51.5 -54.5t-55 -36.5q-21 -9 -34 -9
q-10 0 -10 6t11 10.5t19 10.5q28 21 50 46.5t41 61.5t37 84.5t39 114.5q12 39 21.5 70t18 61.5t17 62.5t19.5 72q8 30 14.5 59t6.5 44q0 5 -0.5 10.5t-5.5 5.5zM303 592q-2 -24 -16.5 -43.5t-45.5 -19.5q-21 0 -29.5 8.5t-6.5 33.5q2 32 15.5 50t49.5 18q22 0 28.5 -12
t4.5 -35z" />
    <glyph glyph-name="afii10054" unicode="&#x405;" horiz-adv-x="356" 
d="M493 666q3 -17 3 -28t-10 -25q-5 -8 -15.5 -16.5t-27.5 -16.5q-1 15 -6 31.5t-17 30.5t-32.5 23t-50.5 9q-27 0 -52.5 -8t-45.5 -24.5t-32.5 -41t-12.5 -56.5q0 -38 19 -67.5t46.5 -56t60 -51t59.5 -51.5q26 -26 41 -56t15 -56q0 -51 -24 -93t-64.5 -72.5t-93.5 -47.5
t-110 -17q-22 0 -49 5.5t-50.5 16.5t-39.5 29t-17 42q-1 31 19.5 53t55.5 23q0 -26 5.5 -48.5t19.5 -39t39 -26t63 -9.5q46 0 78.5 14t53.5 35.5t30.5 47.5t9.5 51q0 26 -15 53t-45 52q-57 48 -92.5 80.5t-55 57.5t-26 46.5t-6.5 46.5q0 40 19 77.5t51.5 66.5t76 46.5
t93.5 17.5q53 0 86 -14.5t46 -33.5z" />
    <glyph glyph-name="afii10102" unicode="&#x455;" horiz-adv-x="340" 
d="M393 447q-5 -25 -23 -37.5t-41 -12.5q-24 0 -45 3t-44 3q-40 0 -70 -18q-27 -16 -29 -54q0 -9 4 -18.5t12 -15.5q14 -11 32.5 -22t36.5 -22t34.5 -21.5t27.5 -20.5q29 -26 29 -58q0 -22 -10.5 -46t-29 -46.5t-45 -40.5t-58.5 -28q-20 -6 -39 -9t-51 -3q-18 0 -36 4.5
t-33 12.5t-26 19t-14 24q1 11 8.5 19.5t20.5 20.5q5 5 18 11.5t21 6.5q4 -15 11 -28t18 -23.5t26.5 -16.5t37.5 -6q25 0 45.5 7t35.5 19.5t23.5 28.5t8.5 34q0 17 -10 32t-27 25q-32 19 -58.5 33.5t-55.5 36.5q-19 14 -22 29.5t-3 35.5q0 9 6.5 26.5t23 37t45 37.5t72.5 29
q21 5 44.5 9t40.5 4q14 0 30 -0.5t29 -0.5h29v0z" />
    <glyph glyph-name="afii10104" unicode="&#x457;" horiz-adv-x="234" 
d="M232 444q0 11 -9 11q-18 0 -38 -7q-33 -11 -60 -23t-35 -19q2 -13 5 -15q6 1 11 3t9 3t8 1q5 0 8 -2.5t3 -12.5t-3 -25.5t-7.5 -34.5t-10 -39.5t-10.5 -40.5q-7 -28 -12 -47.5t-13 -47.5q-11 -36 -20 -62.5t-20 -60.5q-7 -22 -7 -33q0 -8 6 -10.5t14 -2.5q6 0 14 2.5
t16 6.5t14.5 7t8.5 5q24 19 27.5 30.5t3.5 16.5t-1.5 11t-1.5 14q0 5 3 17.5t7 29t9 35t10 35.5q5 19 9 34t8 29.5t8.5 29t10.5 33.5q6 18 12 40.5t11 42.5zM203 592q-2 -24 -16.5 -43.5t-45.5 -19.5q-21 0 -29.5 8.5t-6.5 33.5q2 32 15.5 50t49.5 18q22 0 28.5 -12t4.5 -35
zM333 592q-2 -24 -16.5 -43.5t-45.5 -19.5q-21 0 -29.5 8.5t-6.5 33.5q2 32 15.5 50t49.5 18q22 0 28.5 -12t4.5 -35z" />
    <glyph glyph-name="afii10017" unicode="&#x410;" horiz-adv-x="553" 
d="M548 653q0 -8 -11 -48.5t-33 -119.5q-15 -53 -23.5 -85.5t-12.5 -46.5l23 1q9 0 9 -4q0 -8 -10 -18q-8 -8 -30 -10q-21 -89 -33 -156q-5 -33 -7.5 -57t-3.5 -39q0 -16 -4 -24q-3 -5 -10 -14t-16.5 -18t-21.5 -15.5t-24 -6.5q-8 0 -12.5 5.5t-4.5 13.5q0 14 4 34t12 55
q7 31 20 88.5t28 129.5q-57 0 -117 -8t-107 -19q-12 -23 -22 -44t-18 -41q-7 -17 -15 -40t-14.5 -48t-11 -48.5t-4.5 -42.5q-8 -17 -26 -30t-30 -13q-10 0 -17 5.5t-8 25.5q-1 33 38 125q17 38 34 73t35 67q-11 -4 -21.5 -8t-19.5 -4t-9 14q0 12 10 18q5 4 15.5 7t26.5 8
l24 7q31 46 62 89.5t68 85.5q36 41 67 72.5t58 54.5q25 20 52 38.5t39 22.5q15 5 24.5 7t29.5 2q19 0 19 -16q0 -10 -0.5 -15t-0.5 -10zM459 609q0 8 -2.5 10t-13.5 2q-7 0 -22.5 -10.5t-36.5 -30t-46.5 -47t-52.5 -60.5q-57 -69 -100 -143q30 5 66.5 9.5t68.5 7.5
q38 4 76 5q8 27 18 65t23 89q11 44 16 69.5t6 33.5z" />
    <glyph glyph-name="afii10018" unicode="&#x411;" horiz-adv-x="524" 
d="M126 132q-7 -25 -14 -52t-10 -46q5 0 12 -0.5t18 -0.5q25 0 54 3t52 12q30 11 56.5 31.5t46.5 48t31.5 61.5t11.5 73q0 120 -127 120q-11 0 -28.5 -2t-38.5 -7zM201 413l28 4q12 2 27 3.5t29 1.5q83 0 131 -35t48 -111q0 -36 -13.5 -69.5t-36.5 -63.5t-54 -54.5
t-65 -42.5q-54 -29 -102.5 -41.5t-106.5 -12.5h-56q-15 0 -15 10q0 8 1.5 17.5t9.5 36.5l67 245q6 21 23.5 82.5t46.5 165.5q8 29 14.5 53.5t12.5 46.5q-7 0 -15.5 1.5t-8.5 10.5t18.5 18t48.5 14q28 5 50 6q11 1 27 1.5t37 0.5q49 0 76.5 1t42 2t20.5 2t12 1t13 -1.5
t7 -9.5q0 -9 -19 -19q-18 -9 -61 -18q-10 -2 -25.5 -3t-32.5 -1q-20 -1 -40 -1h-36h-36q-12 -43 -23 -80t-20 -69q-9 -31 -14.5 -53.5t-9.5 -38.5z" />
    <glyph glyph-name="afii10019" unicode="&#x412;" horiz-adv-x="506" 
d="M259 392q13 0 33 5q24 7 49.5 21t46.5 35t34.5 49.5t13.5 63.5q0 49 -27.5 76.5t-80.5 27.5q-17 0 -30 -1t-27 -4q-5 -14 -17.5 -58t-35.5 -131l-92 -344q-7 -25 -14 -52t-10 -46q19 -2 46 -2t46 5q19 4 40.5 13t42.5 22.5t39.5 30t31.5 35.5q36 54 36 124q0 50 -34.5 76
t-89.5 28q-9 0 -15 -0.5t-11 -0.5q-18 0 -19 13q0 8 7 11t22 3h15v0zM362 400q48 -11 74.5 -43t27.5 -81q1 -78 -58 -148q-43 -50 -103 -79.5t-115 -41.5q-26 -5 -50.5 -7.5t-49.5 -3.5q-6 0 -14.5 -0.5t-17 -1.5t-16 -1.5t-10.5 -0.5q-5 0 -10 1t-5 9q0 9 1.5 18t9.5 36
l67 245q3 12 19.5 69.5t47.5 163.5q20 69 30 115h-7.5t-8.5 1q-7 1 -8 11q0 11 20 18q12 4 30 8t39.5 7t45 5t46.5 2q78 0 120.5 -27t42.5 -86q0 -63 -38 -107.5t-110 -80.5z" />
    <glyph glyph-name="afii10020" unicode="&#x413;" horiz-adv-x="385" 
d="M267 568l-88 -303q-9 -32 -18.5 -67t-17.5 -74q-2 -9 -3 -19t-3 -21q-3 -21 -6 -33q-2 -9 -6 -18t-9 -15t-13.5 -13.5t-18 -14.5t-19 -11.5t-16.5 -4.5q-8 0 -15 3t-7 11q0 5 2.5 17.5t8.5 35.5q10 35 16.5 62.5t12.5 51t11.5 45.5t13.5 47q11 39 19 68t14 49l69 234
q3 9 6.5 25.5t5.5 25.5h-12t-14 1q-13 1 -14 11q0 9 20 18q19 9 45 14.5t52 5.5h31.5t38.5 0.5t40.5 1t37.5 1.5q7 0 17.5 1t20 2t18 1.5t11.5 0.5q6 0 13 -0.5t7 -7.5q0 -8 -4.5 -12.5t-14.5 -9.5q-13 -7 -38 -14t-61 -7q-9 0 -23 -0.5t-29 -1t-30 -1.5t-27 -2z" />
    <glyph glyph-name="afii10021" unicode="&#x414;" horiz-adv-x="591" 
d="M360 45q3 11 8.5 38t14.5 70q14 66 27 126.5t25.5 119t26 116.5t27.5 117q-6 -3 -20.5 -15.5t-38.5 -38t-56.5 -67.5t-74.5 -104q-76 -113 -130 -206t-85 -162l276 6v0zM16 -6q-6 -11 -13.5 -31.5t-18.5 -49.5q-10 -29 -17.5 -52t-12.5 -43q-11 4 -18 24q0 21 3 47t9 60
q5 31 10 54.5t12 31.5q6 2 13.5 3t18.5 1q3 0 6 -0.5t5 -0.5h6q16 30 41 73t58 95t73.5 112t88.5 125q35 47 68.5 88t61.5 73t49 52.5t32 27.5q13 5 24 7.5t34 2.5q20 0 20 -17v-15t-1 -9q-1 -3 -3.5 -16.5t-6.5 -32.5t-9 -40t-9.5 -40t-7.5 -33.5t-4 -19.5
q-5 -20 -11 -49.5t-12.5 -63.5t-13.5 -70.5t-13.5 -69.5t-11.5 -60.5t-8 -44.5q-5 -29 -7 -45.5t-3 -21.5q38 14 50 14q8 0 11.5 -3t4.5 -23t-26 -78q-7 -15 -16.5 -34.5t-20 -39t-22.5 -37.5t-25 -31q-12 -12 -19 -12q-5 0 -5 4t2 8q8 19 16 42.5t16 52.5q6 23 8.5 40.5
t4.5 28.5q2 13 2 22l-59 -1l-354 -5v0z" />
    <glyph glyph-name="afii10022" unicode="&#x415;" horiz-adv-x="460" 
d="M54 -25q-6 -2 -10 -2q-17 0 -17 15q0 16 9 45.5t18 66.5q3 13 12.5 49t21 77t21.5 77.5t13 49.5h-12q-21 0 -21 11q0 18 12 26q11 5 33 7q10 33 18 56.5t14.5 44t13 41.5t14.5 49q2 9 6 24.5t6 26.5h-12t-14 1q-13 1 -14 11q0 9 20 18q10 5 21.5 8t25.5 6q28 5 50 6
q11 1 27 1.5t37 0.5q27 1 48 0.5t36 0.5q23 1 38 3t29 2q6 0 13 -2.5t7 -8.5q0 -9 -19 -19q-13 -7 -39 -14t-60 -7h-37q-9 0 -21.5 -1t-23.5 -2q-13 -1 -27 -2l-24 -83l-50 -160h45l91 4q18 1 20 -11q0 -9 -23 -18q-11 -5 -22 -7.5t-30 -5.5q-15 -2 -38 -3t-55 -2
q-13 -43 -24 -84q-10 -35 -20.5 -75t-17.5 -72q-4 -17 -5.5 -36.5t-7.5 -40.5q-1 -3 -2 -6.5t-2 -6.5l-3 -6h129l91 4q20 2 20 -11q0 -7 -20 -18t-60 -19q-9 -2 -28.5 -2.5t-49.5 -1.5h-57.5t-56.5 -2h-15.5t-15.5 -1z" />
    <glyph glyph-name="afii10024" unicode="&#x416;" horiz-adv-x="798" 
d="M853 702q-9 -13 -36.5 -34.5t-69.5 -59.5q-30 -28 -62 -57t-60.5 -55t-50 -46t-31.5 -30q17 -51 28.5 -84t20.5 -54q8 -18 17.5 -40t19 -45t20 -46t19.5 -42q14 -29 29.5 -56.5t30.5 -56.5q-2 -8 -9 -11t-14 -3q-18 0 -32 3.5t-25.5 12t-22 23.5t-21.5 38q-5 9 -12 24
t-18.5 42t-28.5 68t-40 102q-11 27 -20 48.5t-17 36.5q-10 -30 -23 -72q-23 -72 -66 -213q-14 -47 -26 -65.5t-22 -22.5q-29 -12 -43 -12q-15 0 -15 14q0 3 1.5 10.5t6.5 21.5q24 73 46 136t42.5 124t40 125t39.5 138q4 15 8 32.5t8 33t6.5 26t3.5 12.5q12 20 28 27.5
t34 12.5q5 2 11.5 1.5t16.5 0.5q9 0 9 -9q0 -6 -27 -84l-76 -226q34 30 60 55t50 49.5t49 50.5t56 58q45 46 68 69.5t27 26.5q13 8 39 10q25 0 33 -8zM391 402q-14 -14 -77.5 -72t-159.5 -170q-60 -70 -90.5 -107t-33.5 -40q-20 -14 -48 -16q-25 0 -26 9q2 5 5.5 9.5
t6.5 7.5q55 57 109 114.5t111 114.5q39 39 76.5 75t63.5 61q-21 46 -43 93.5t-57 108.5q-16 28 -34 47t-38 27q10 17 28 33.5t29 18.5q18 0 39 -25.5t42 -70.5q25 -51 42.5 -88.5t29 -64t17.5 -42t8 -23.5z" />
    <glyph glyph-name="afii10025" unicode="&#x417;" horiz-adv-x="524" 
d="M372 274q0 32 -15 57.5t-38 35.5q-7 3 -16 5t-16.5 3.5t-13 3.5t-6.5 5q0 9 10 15q12 6 26.5 12.5t42.5 24.5q34 22 61 59.5t27 90.5q0 88 -82 88q-49 0 -99 -26q-25 -13 -44.5 -37.5t-20.5 -54.5q0 -13 -6 -16q-2 -1 -6.5 -1t-11.5 -1q-20 0 -20 28q-1 21 22.5 48
t65.5 50q36 20 75 30t71 10q31 0 56.5 -3.5t43.5 -13t28 -27t10 -44.5q0 -39 -32.5 -88.5t-119.5 -108.5q15 -3 31 -10.5t29 -22.5t21.5 -38t8.5 -56t-15 -74.5t-44 -76.5q-35 -42 -72 -70t-76.5 -44.5t-81.5 -23.5t-87 -7q-30 0 -54 8t-24 22q0 9 4 17.5t11 15t15 11
t16 4.5q18 -24 31 -31q22 -11 53 -11q102 -1 173 70q69 69 69 172z" />
    <glyph glyph-name="afii10026" unicode="&#x418;" horiz-adv-x="643" 
d="M646 679q0 -12 -13 -39t-33 -84t-35.5 -108.5t-29.5 -99.5q-15 -56 -28.5 -115t-25.5 -124q-3 -15 -4.5 -30t-6.5 -32q-6 -17 -33 -37q-5 -4 -13 -6.5t-16 -2.5q-10 0 -12.5 6t-2.5 14q0 5 0.5 18t2.5 22q2 14 6.5 33t9.5 39q2 10 8 33.5t13.5 55.5t16.5 68.5t17.5 70.5
t16 62.5t12.5 45.5q-18 -24 -34 -45.5t-39.5 -51.5t-58.5 -73.5t-91 -112.5q-24 -30 -44 -54t-39 -46t-38 -41.5t-41 -40.5q-8 -8 -25.5 -17t-34.5 -9q-28 0 -28 49q0 11 7 38.5t22 74.5q25 77 42.5 132t30.5 97t23.5 76.5t21.5 70.5q9 29 17 62.5t13 51.5q6 22 16 38.5
t30 24.5q9 4 21 5.5t23 1.5q8 0 8 -9q0 -13 -4.5 -38t-15.5 -60q-14 -42 -25.5 -78.5t-22.5 -70.5t-22 -67t-22 -67t-21.5 -67.5t-18 -61.5t-12 -47.5t-4.5 -26.5q0 -11 7 -11q9 0 37.5 29t75.5 84q9 11 32.5 40t54.5 69.5t66 88.5t68 97q16 24 27 42t19 33t14.5 27.5
t13.5 25.5q14 25 24.5 34.5t25.5 15.5q10 4 23.5 5t19.5 1q8 0 8 -9z" />
    <glyph glyph-name="afii10027" unicode="&#x419;" horiz-adv-x="668" 
d="M664 922q12 0 12 -16q0 -8 -10 -26t-30 -38q-41 -40 -79 -60q-33 -17 -65 -25.5t-55 -8.5q-24 -1 -42 6.5t-18 18.5q0 4 1.5 10.5t3.5 11.5q5 14 15 24.5t27 10.5q6 0 10.5 -3t14.5 -6.5t26.5 -6.5t46.5 -3q23 0 53 16.5t50 43.5q12 15 15 33t24 18zM646 679
q0 -12 -13 -39t-33 -84t-35.5 -108.5t-29.5 -99.5q-15 -56 -28.5 -115t-25.5 -124q-3 -15 -4.5 -30t-6.5 -32q-6 -17 -33 -37q-5 -4 -13 -6.5t-16 -2.5q-10 0 -12.5 6t-2.5 14q0 5 0.5 18t2.5 22q2 14 6.5 33t9.5 39q2 10 8 33.5t13.5 55.5t16.5 68.5t17.5 70.5t16 62.5
t12.5 45.5q-18 -24 -34 -45.5t-39.5 -51.5t-58.5 -73.5t-91 -112.5q-24 -30 -44 -54t-39 -46t-38 -41.5t-41 -40.5q-8 -8 -25.5 -17t-34.5 -9q-28 0 -28 49q0 11 7 38.5t22 74.5q25 77 42.5 132t30.5 97t23.5 76.5t21.5 70.5q9 29 17 62.5t13 51.5q6 22 16 38.5t30 24.5
q9 4 21 5.5t23 1.5q8 0 8 -9q0 -13 -4.5 -38t-15.5 -60q-14 -42 -25.5 -78.5t-22.5 -70.5t-22 -67t-22 -67t-21.5 -67.5t-18 -61.5t-12 -47.5t-4.5 -26.5q0 -11 7 -11q9 0 37.5 29t75.5 84q9 11 32.5 40t54.5 69.5t66 88.5t68 97q16 24 27 42t19 33t14.5 27.5t13.5 25.5
q14 25 24.5 34.5t25.5 15.5q10 4 23.5 5t19.5 1q8 0 8 -9z" />
    <glyph glyph-name="afii10028" unicode="&#x41a;" horiz-adv-x="532" 
d="M575 647q0 -6 -1 -14t-6 -20q-3 -8 -8.5 -16t-16.5 -14q-15 -9 -30 -11q2 6 3 12.5t1 14.5q0 14 -5 18t-18 4q-14 0 -46.5 -20t-71.5 -61q-28 -28 -55.5 -57t-46.5 -55q16 -48 31.5 -91.5t34.5 -90.5q14 -36 25 -62t21 -48.5t20 -43.5t24 -46q9 -16 18.5 -26.5
t17.5 -17.5q-5 -10 -18.5 -14.5t-28.5 -4.5q-27 0 -45.5 15.5t-37.5 53.5q-7 13 -12 25.5t-10.5 26t-12 30.5t-15.5 40q-8 18 -18.5 45.5t-22 57t-23 57t-20.5 45.5q-16 -51 -32 -101q-14 -43 -29.5 -92t-28.5 -91q-12 -40 -24.5 -61.5t-23.5 -26.5q-14 -6 -23.5 -9
t-19.5 -3q-15 0 -15 14q0 3 1.5 10.5t6.5 21.5q17 51 32 95t29.5 88t30 93t35.5 110q18 56 32 107t25 88q4 14 6 27.5t4 18.5q4 12 15.5 20t25 13t27 7t22.5 2t9 -9q0 -6 -27 -84l-76 -226q45 54 113.5 127.5t162.5 151.5q17 14 34 20.5t31 6.5q30 0 30 -50z" />
    <glyph glyph-name="afii10029" unicode="&#x41b;" horiz-adv-x="553" 
d="M118 186q-14 -33 -24.5 -77.5t-15.5 -81.5q-8 -17 -27 -30t-29 -13q-13 0 -19 5.5t-6 25.5q0 15 8.5 45t23.5 67t34.5 77.5t42.5 77.5q66 109 138 196.5t138 147.5q26 24 63 46t85 22q18 0 19 -16v-14t-1 -11q0 -5 -20 -65q-14 -41 -24.5 -75t-20.5 -68t-19.5 -72
t-20.5 -86q-13 -55 -18 -96t-7 -65q-1 -17 -1 -31.5t-1 -24.5q-1 -8 -2 -13.5t-4 -11.5t-10.5 -15t-17.5 -17.5t-21.5 -14.5t-20.5 -6q-8 0 -12.5 4t-4.5 15q0 12 3.5 40.5t10 65.5t14.5 78t17 77q10 41 18.5 73t16.5 60t16 53t16 53q13 42 18.5 64.5t5.5 33.5t-19 11
q-8 0 -29 -14t-47 -40q-58 -56 -123.5 -147t-122.5 -233z" />
    <glyph glyph-name="afii10030" unicode="&#x41c;" horiz-adv-x="846" 
d="M856 697q0 -4 -2 -9t-6.5 -15t-11 -28t-15.5 -47q-11 -35 -20 -69.5t-19 -69.5t-20.5 -79.5t-20 -86.5t-16.5 -76.5t-9 -48.5q-4 -24 -6 -42.5t-2 -29.5q0 -6 1.5 -12.5t1.5 -11.5q0 -13 -8 -25q-8 -11 -18.5 -22t-21.5 -19.5t-21 -13.5t-17 -5q-18 0 -18 19q0 14 1 26.5
t4 30t7.5 42.5t12.5 64q5 25 15 70.5t22.5 97.5t25.5 103.5t23 89.5l-5 4q-18 -26 -43.5 -64t-57.5 -84.5t-69.5 -101t-79.5 -114.5q-21 -30 -39.5 -58t-35 -52t-29 -41.5t-21.5 -25.5q-11 -11 -18.5 -14t-21.5 -3q-5 0 -9.5 6t-4.5 18q0 13 1.5 33t4.5 42q1 9 8 44.5t17 86
t22.5 110t24.5 117t23 106t18 77.5q-16 -15 -40 -43t-51 -63.5t-54.5 -75.5t-49.5 -78q-26 -44 -46 -90.5t-36 -95.5q-14 -43 -20.5 -77.5t-7.5 -60.5q-4 -5 -12.5 -15t-19 -19.5t-21.5 -16.5t-19 -7q-6 0 -10 9.5t-4 26.5q0 24 9 58t29 79q23 54 54.5 111t81.5 132
q20 30 48.5 67.5t59.5 76t60.5 73.5t51.5 60q17 14 30 20t31 14q5 2 8 1.5t13 0.5q9 0 9 -10q0 -5 -3 -16t-8 -31.5t-12.5 -51t-17.5 -74.5q-12 -55 -25 -117.5t-23.5 -119.5t-18.5 -102.5t-11 -66.5q9 10 23 30t29.5 42t30 42.5t22.5 32.5q47 68 79.5 116t57 84t43 65
t37.5 59q22 36 35 55.5t20.5 30t12.5 14t12 8.5q13 8 31 11t31 3q9 0 11.5 -2.5t2.5 -7.5z" />
    <glyph glyph-name="afii10031" unicode="&#x41d;" horiz-adv-x="569" 
d="M583 687q0 -4 -5.5 -17.5t-13 -31t-15.5 -37.5t-14 -37q-9 -26 -18.5 -55.5t-17.5 -54.5q-10 -30 -18 -58h10q5 0 9 0.5t9 0.5q4 0 8 -1.5t4 -6.5q0 -19 -18 -27q-11 -5 -21 -6q-6 -1 -12 -1q-9 -33 -16 -64.5t-14 -63.5q-2 -11 -7.5 -43t-10.5 -75q-1 -12 -1.5 -19
t-1.5 -11.5t-2 -8.5t-3 -11q-3 -10 -7.5 -16.5t-12.5 -15.5q-14 -14 -23 -21t-20 -7q-2 0 -5 0.5t-5.5 5t-4 14.5t-1.5 28q0 7 2.5 25.5t6.5 44t10 56t13 62.5q3 15 8 35.5t10 38.5l11 44q-23 -2 -53.5 -3.5t-61 -3.5t-58 -4t-45.5 -5q-5 -15 -12 -38t-14.5 -51.5t-15.5 -60
t-15 -62.5q-3 -11 -5.5 -24.5t-4.5 -25.5q-3 -14 -4 -28q-1 -10 -9 -20q-7 -9 -15.5 -18t-22.5 -20q-9 -8 -18.5 -12t-14.5 -4q-9 0 -14 3t-5 12q0 17 25 118l13 52t21 78q4 15 9.5 35.5t13.5 47.5l-65 -13q-9 0 -10 12q0 10 5.5 18t22.5 15q11 5 30 9t33 6l69 232
q3 11 7 23.5t8 22.5q11 31 25.5 42t34.5 16q9 2 16.5 2.5t16.5 0.5q7 0 7 -9q0 -5 -10.5 -36t-31.5 -95q-8 -23 -17 -51t-17 -54.5t-14.5 -48t-8.5 -31.5q11 1 37 2.5t57.5 3t64 3t55.5 3.5q12 41 24 80q11 33 22 69t20 62q13 38 24.5 56t18.5 22q24 13 43 15q10 1 19 0
q3 0 5 -1.5t2 -7.5z" />
    <glyph glyph-name="afii10032" unicode="&#x41e;" horiz-adv-x="619" 
d="M639 545q1 -160 -121 -348q-32 -49 -69 -88.5t-77.5 -67.5t-83.5 -43.5t-85 -15.5q-75 0 -116.5 36.5t-42.5 112.5q0 42 11.5 88t32.5 93.5t49 94t61 89.5q18 24 40 48t45.5 45.5t47.5 40t47 31.5q21 12 39.5 17.5t31.5 5.5q23 11 39 14.5t39 3.5q25 0 45.5 -11.5
t35.5 -32.5t23 -50t8 -63zM547 507q0 62 -22.5 96t-60.5 35q-152 4 -261 -220q-30 -63 -48.5 -130.5t-18.5 -124.5q0 -56 27 -91t92 -35q23 0 48.5 9t51 25.5t49.5 39.5t45 52q23 33 41.5 73t31 84.5t19 92t6.5 94.5z" />
    <glyph glyph-name="afii10033" unicode="&#x41f;" horiz-adv-x="590" 
d="M277 647q-3 -5 -10 -25.5t-17 -50t-21.5 -67.5t-23.5 -78.5t-23 -82t-20 -78.5q-10 -42 -16 -67.5t-11 -47.5t-10 -44.5t-12 -58.5q-1 -5 -3.5 -13t-10.5 -16q-5 -6 -13 -13.5t-17.5 -14t-19 -11.5t-17.5 -5q-22 0 -22 14q0 6 7 35.5t17 68.5t21 81.5t20 73.5
q18 67 31.5 114.5t23 82t16.5 58t12.5 42.5t10.5 35.5t11 37.5q2 7 3.5 12t6.5 14q-9 1 -10 11q0 21 20 28q11 3 24 5t30 2h275l91 4q18 1 20 -11q0 -6 -9 -13q-5 -2 -11.5 -4.5t-16.5 -6.5q-16 -39 -34 -96q-16 -49 -38 -122.5t-49 -174.5q-12 -46 -18 -73t-9.5 -46t-6 -35
t-8.5 -40q-3 -11 -10 -24.5t-18 -25t-25 -19.5t-29 -8q-21 0 -22 14q0 4 3 17.5t7 30.5t9 34.5t8 29.5q24 91 47 174t43 152t35.5 121.5t23.5 82.5l-235 -3v0z" />
    <glyph glyph-name="afii10034" unicode="&#x420;" horiz-adv-x="524" 
d="M112 53q0 -7 -9 -20q-5 -8 -15 -17t-20.5 -17t-20.5 -13.5t-16 -5.5q-21 0 -22 14q0 5 1 11.5t4 17.5q9 33 20.5 76t25.5 91q14 50 24.5 86.5t21 72.5t23.5 79t31 106q10 32 17.5 61.5t12.5 53.5h-7.5t-8.5 1q-7 1 -8 11q0 11 20 18q11 4 34 8t47.5 7t47 5t32.5 2
q85 0 125 -32.5t40 -110.5q0 -35 -16 -73.5t-45 -69.5q-42 -45 -96 -69.5t-108 -24.5h-18.5t-14.5 2q-9 3 -9 17q0 13 22 13q5 0 11.5 -0.5t14.5 -0.5q31 0 64 10.5t60 33t44 57.5t17 83q0 66 -27 100t-83 34q-35 0 -57 -5q-2 -7 -2.5 -8.5t-4.5 -16t-14.5 -51t-31.5 -113.5
q-20 -71 -35 -127t-26 -98t-18.5 -71.5t-12.5 -47.5q-7 -28 -8 -44t-6 -35z" />
    <glyph glyph-name="afii10035" unicode="&#x421;" horiz-adv-x="483" 
d="M487 648q0 -22 -3 -41.5t-12 -31.5q-5 -7 -13.5 -13.5t-26.5 -12.5q-12 -4 -27 -4q-6 0 -7 7q5 14 9.5 30.5t4.5 35.5q0 28 -41 28q-45 0 -92 -35t-84.5 -94.5t-61.5 -138t-24 -165.5q0 -84 37 -131.5t107 -47.5q26 0 59 12t65 30q15 9 21 9q7 0 6 -15q0 -8 -40 -34
q-38 -25 -78.5 -40.5t-96.5 -15.5q-71 0 -113.5 46t-42.5 128q0 16 2 38.5t6.5 49t11.5 54.5t17 55q39 108 96.5 185t131.5 124q66 42 122 42q16 0 31 -2t25 -10q5 -5 8 -17t3 -25z" />
    <glyph glyph-name="afii10036" unicode="&#x422;" horiz-adv-x="366" 
d="M301 553q-6 -17 -14.5 -46.5t-21.5 -73.5q-24 -86 -48 -168q-9 -32 -18 -66.5t-18 -74.5q-2 -9 -3 -19t-3 -21q-4 -26 -8.5 -40.5t-12.5 -25.5q-5 -7 -14 -14.5t-19 -14t-19 -11t-15 -4.5q-22 0 -22 14q0 9 7.5 40t18 70t21.5 79.5t18 69.5q4 16 12.5 45.5t18.5 65t21 73
t20.5 69.5t16 54.5t8.5 28.5q3 9 4.5 16t4.5 16q2 6 6.5 14.5t10.5 16.5l-128 -2q-5 0 -15.5 -0.5t-22.5 -0.5t-22.5 -0.5t-13.5 -0.5q-18 0 -18 11q0 21 14 27q7 3 21.5 5t38.5 2q51 0 96 0.5t81 1.5t61.5 2t37.5 1l91 4q18 1 20 -11q0 -6 -10.5 -12t-28.5 -11
q-7 -2 -12.5 -3.5t-12 -3t-15.5 -3.5t-22 -3q-11 -2 -25 -1.5t-34 -0.5z" />
    <glyph glyph-name="afii10037" unicode="&#x423;" horiz-adv-x="477" 
d="M538 683q0 -15 -6.5 -34.5t-16 -39.5t-20 -39t-17.5 -32q-10 -37 -20.5 -78.5t-23.5 -79.5q-29 -87 -56 -155.5t-67 -120.5q-48 -60 -112.5 -92.5t-143.5 -32.5q-36 0 -59.5 8t-23.5 21q0 7 8 7t22 -7.5t38 -7.5q59 0 103 22.5t86 67.5q17 18 35.5 47t38.5 73t41.5 103.5
t44.5 137.5l-3 1q-12 -13 -32 -33.5t-45 -43.5t-54.5 -47.5t-60.5 -45.5q-13 -8 -37 -20.5t-50 -12.5q-14 0 -22 9t-8 25q0 8 2.5 21.5t7.5 28.5q14 42 24.5 75.5t19.5 59.5q17 53 27 86.5t15 54t6 30.5t1 16q0 10 -3.5 10.5t-6.5 0.5t-8.5 -2.5t-11 -5.5t-10.5 -5.5
t-7 -2.5q-5 0 -5 6q0 7 7 12t17 10q7 4 22 10.5t32 12.5t34.5 10.5t29.5 4.5q9 0 9 -12q0 -5 -3 -15.5t-7 -21.5q-17 -54 -31 -95t-27 -85q-6 -18 -13 -42.5t-13 -47t-10.5 -40.5t-4.5 -23q0 -8 3 -9.5t10 -1.5t23.5 9t37.5 24t44 35t44 43q49 52 76 103q8 28 15 51.5
t15 42.5q8 18 14.5 28.5t12.5 16.5q14 14 28 18.5t31 4.5q14 0 14 -16z" />
    <glyph glyph-name="afii10038" unicode="&#x424;" horiz-adv-x="817" 
d="M780 432q0 -63 -30.5 -122.5t-83 -105t-122.5 -73.5t-149 -28q-5 -19 -8 -41.5t-7 -36.5q-2 -6 -3.5 -10t-3.5 -9q-4 -9 -14 -21.5t-28 -25.5q-7 -5 -14 -7l-14 -4q-21 0 -22 14q0 4 3.5 18.5t8.5 34t10.5 42t10.5 43.5q-112 0 -177 50.5t-65 140.5q0 58 28.5 109.5
t79.5 92t121 67.5t153 36q12 40 24 72t16 37q6 7 14.5 13t33.5 11q6 1 14.5 1.5t15.5 0.5q3 0 5 -3.5t2 -5.5q0 -3 -7 -22t-15 -40q-10 -26 -21 -56h18q52 0 94 -9.5t71 -30.5t45 -53.5t16 -78.5zM694 434q0 37 -12 63t-32.5 42.5t-48.5 24.5t-61 8h-17q-21 -64 -40 -130
t-34.5 -125.5t-28 -107.5t-19.5 -77q61 0 114.5 22.5t93 62.5t62.5 95.5t23 121.5zM442 564q-68 -9 -121 -34t-90 -61t-56 -81.5t-19 -97.5q0 -75 41.5 -117.5t123.5 -44.5q23 106 56 218.5t65 217.5z" />
    <glyph glyph-name="afii10039" unicode="&#x425;" horiz-adv-x="509" 
d="M544 717q0 -5 -8.5 -21t-22.5 -38.5t-31.5 -49t-34.5 -52l-32 -48t-25 -36.5q-16 -23 -36 -51t-43 -60q19 -57 37 -110t44 -117q6 -14 13.5 -29t16 -27t16 -20.5t12.5 -10.5q-14 -35 -30 -50t-38 -15q-8 0 -15.5 7t-14 17.5t-12 23.5t-9.5 24q-11 30 -21.5 63t-19.5 65
t-17.5 60.5t-14.5 51.5q-15 -24 -36.5 -57t-44 -67.5t-44.5 -66.5t-37 -54q-20 -29 -34 -44t-27 -15q-14 0 -21.5 13.5t-7.5 27.5q18 10 35 29q3 3 18 18.5t40.5 47t62 81.5t83.5 122q-43 144 -63 218.5t-20 88.5q0 11 2 17t5 12q8 15 23 32t32 17q3 0 6 -13t6 -31t6 -36.5
t6 -29.5q7 -32 12.5 -57t11.5 -48.5t12 -48t15 -55.5q30 45 54.5 82.5t44.5 68.5q36 58 59.5 101t40.5 58q6 5 21 10t25 2z" />
    <glyph glyph-name="afii10040" unicode="&#x426;" horiz-adv-x="593" 
d="M497 607q21 65 26 72q10 11 29.5 19t49.5 8q5 0 6 -3t1 -6t-5 -16.5t-12 -32t-14.5 -39.5t-13.5 -40q-21 -67 -36.5 -117t-29 -98t-27 -101t-31.5 -127q-5 -23 -8 -48.5t-5 -33.5q16 5 29.5 7.5t30.5 2.5q13 0 13 -22q0 -14 -7.5 -36t-15.5 -44q-9 -24 -24 -54t-31 -56
t-30 -44t-21 -18q-8 0 -8 5q0 11 12.5 35.5t29.5 72.5q11 30 18.5 60.5t9.5 46.5q-30 -1 -67 -2q-32 -1 -76.5 -2.5t-98.5 -2.5q-39 -1 -76 -3.5t-64 -2.5q-22 0 -22 14q0 4 3.5 18l7.5 30t8 30.5t6 20.5q8 33 16 64t16.5 62.5t18 65.5t20.5 72q29 100 46.5 159.5t25.5 82.5
q21 67 26 72q11 11 30 19t49 8q7 0 7 -9q0 -3 -5 -16.5t-11.5 -32t-14.5 -39.5t-14 -40q-16 -50 -31 -97t-30 -98.5t-31 -111.5t-33 -137q-4 -17 -5.5 -38.5t-7.5 -38.5l-3 -9l219 3q25 113 49.5 207t45.5 166t36.5 121t23.5 72z" />
    <glyph glyph-name="afii10041" unicode="&#x427;" horiz-adv-x="469" 
d="M495 687q0 -5 -8 -28t-19 -54.5t-23.5 -67t-21.5 -65.5q-28 -90 -45.5 -151.5t-28 -102.5t-15.5 -66.5t-8 -44.5q-3 -23 -4 -30.5t-4 -17.5q-3 -11 -10.5 -22t-16.5 -19.5t-18.5 -13.5t-17.5 -5q-6 0 -11 7.5t-5 16.5v20t1 20t3 25t7 36q3 16 8.5 37t14.5 55t22.5 84
t34.5 124q-29 -24 -61 -44.5t-63 -34.5t-58.5 -22t-48.5 -8q-32 0 -46.5 18.5t-14.5 53.5q0 29 16 83.5t37 127.5q4 13 7.5 25t5.5 20q8 27 17 35q14 13 31 19.5t31 6.5q5 0 11.5 -0.5t6.5 -12.5q0 -6 -1.5 -13t-5.5 -17t-10.5 -26t-15.5 -40q-9 -23 -18 -49.5t-15.5 -51
t-11 -44.5t-4.5 -30q0 -22 9 -36t40 -14q16 0 40.5 10.5t51 28t51 39t39.5 42.5q16 39 27 70.5t19 55.5t15 40t15 25q2 3 13 9.5t25 6.5q13 0 19.5 -1t9 -2.5t2.5 -3.5v-3z" />
    <glyph glyph-name="afii10042" unicode="&#x428;" horiz-adv-x="791" 
d="M13 20q0 11 4.5 32.5t11.5 47.5q14 55 31.5 121t39.5 143q7 27 11.5 42.5t9.5 32t12.5 40.5t20.5 68q11 36 18 60t8 30q1 8 -1 13t-2 13q0 10 17 19q4 3 13.5 6.5t21.5 7.5t24.5 6.5t23.5 2.5q7 0 7 -9q0 -4 -5 -17.5t-11.5 -31.5t-14.5 -39t-14 -40q-29 -91 -59 -195.5
t-62 -232.5q-11 -42 -15.5 -67t-5.5 -33h176q2 5 6 19.5t10 40.5q14 56 31.5 122.5t39.5 141.5q14 48 28.5 95t25.5 80l16 48t17 49q8 21 32 37t49 16q7 0 7 -9q0 -3 -5 -16.5t-11.5 -32t-14.5 -40t-14 -39.5q-7 -21 -13 -39.5t-11.5 -35.5t-11 -35t-11.5 -39
q-17 -56 -28 -97.5t-19 -74t-13 -58t-9 -49.5q-3 -18 -4 -33t-10 -35q-3 -9 -11 -16l196 1q12 53 23 97t20 82q15 60 33 123.5t35 118.5t31.5 96t22.5 57q6 13 13.5 24.5t17.5 20.5q23 21 60 23q5 0 7 -9q-8 -18 -13.5 -31.5t-10.5 -24.5q-13 -33 -27.5 -71t-29.5 -84
t-31.5 -103t-32.5 -128q-11 -45 -20.5 -90.5t-20.5 -93.5q22 0 22 -11t-14 -19.5t-31 -8.5t-57 -1t-103 -3q-62 -2 -122 -4l-120 -4q-29 -1 -47.5 -2t-30.5 -1.5t-21 -0.5h-19q-36 0 -51 3.5t-15 23.5z" />
    <glyph glyph-name="afii10043" unicode="&#x429;" horiz-adv-x="797" 
d="M79 -7q-31 0 -48 4t-17 24q0 16 4.5 36.5t10.5 42.5q16 61 30 114.5t27.5 103.5t28 99.5t31.5 102.5q12 37 21 65.5t17 50.5q8 23 19 37q7 9 17 15t20.5 10t20.5 5.5t16 1.5q7 0 7 -9q0 -3 -9 -30t-22 -65t-28 -82.5t-26 -82.5q-17 -57 -34.5 -120t-32 -119t-24.5 -98.5
t-11 -58.5h176q2 5 6 19.5t10 40.5q14 56 31.5 121.5t39.5 142.5q23 79 43 144.5t44 127.5q8 20 32 36.5t49 16.5q7 0 7 -9q0 -3 -5 -16.5t-11.5 -32t-14.5 -39.5t-14 -40q-40 -120 -67.5 -223.5t-48.5 -204.5q-5 -21 -5 -34.5t-9 -33.5q-3 -9 -11 -16l196 1q12 53 22.5 98
t20.5 81q18 66 36.5 131t35.5 120t30.5 96.5t21.5 59.5q6 16 13.5 28t18.5 20q17 13 31.5 18t28.5 5q7 0 7 -9q0 -2 -3 -9.5t-7 -16.5t-8 -17.5t-6 -12.5q-11 -27 -27 -73.5t-33.5 -101t-34 -111.5t-27.5 -104t-21 -98.5t-21 -99.5q16 6 29 8.5t24 2.5q6 0 9.5 -4t3.5 -15
q0 -15 -9 -41.5t-20 -53.5q-27 -63 -46 -100.5t-34 -61.5q-8 -15 -18 -15q-5 0 -5 5q0 10 11 42.5t31 98.5q8 26 14.5 53t8.5 41h-56t-109 -2q-69 -2 -124 -4t-100 -3.5t-82.5 -2t-71.5 -0.5z" />
    <glyph glyph-name="afii10044" unicode="&#x42a;" horiz-adv-x="480" 
d="M126 132q-7 -25 -14 -52t-10 -46q5 -1 9 -1h21q24 0 53.5 3t52.5 12q30 11 56.5 31.5t46.5 48t31.5 61.5t11.5 73q0 60 -33 90t-94 30q-11 0 -28.5 -2t-38.5 -7zM201 413l28 4q12 2 27 3.5t29 1.5q83 0 131 -35t48 -111q0 -36 -13.5 -69.5t-36.5 -63.5t-54 -54.5
t-65 -42.5q-54 -29 -102.5 -41.5t-106.5 -12.5h-56q-15 0 -15 10q0 8 1.5 18t9.5 36q12 44 23 87q10 37 21.5 79.5t22.5 78.5q15 53 33.5 115.5t35.5 117.5l38 128q-8 -1 -25.5 -0.5t-41.5 -1.5q-5 -1 -16.5 -1h-23.5q-14 0 -30 -1q-27 -2 -27 12q0 13 28 23q14 5 28.5 7
t27.5 3q20 2 33.5 1t33.5 -1h21t17.5 0.5t18.5 1t24 2.5q7 1 12 2t10 1q8 0 8 -7q0 -4 -7.5 -20t-13.5 -36q-5 -16 -12 -36.5t-16.5 -48.5t-21 -64.5t-26.5 -84.5z" />
    <glyph glyph-name="afii10045" unicode="&#x42b;" horiz-adv-x="708" 
d="M126 132q-7 -25 -14 -52t-10 -46q5 0 12 -0.5t18 -0.5q25 0 54 3t52 12q30 11 56.5 31.5t46.5 48t31.5 61.5t11.5 73q0 120 -127 120q-11 0 -28.5 -2t-38.5 -7zM178 589q10 27 17 47t18 32q14 16 33 29t44 13q7 0 7 -9q0 -3 -5 -16t-12 -31.5t-15.5 -40t-14.5 -40.5
q-17 -53 -28.5 -88.5t-20.5 -71.5l28 4q12 2 27 3.5t29 1.5q83 0 131 -35t48 -111q0 -36 -13.5 -69.5t-36.5 -63.5t-54 -54.5t-65 -42.5q-54 -29 -102.5 -41.5t-106.5 -12.5h-56q-15 0 -15 10q0 8 1.5 17.5t9.5 36.5l67 245q30 109 52 184t33 104zM689 573q-8 -23 -18 -56.5
t-21.5 -74t-24.5 -84.5t-25 -88q-9 -32 -18.5 -69t-17.5 -72q-5 -22 -6.5 -37.5t-3.5 -26.5q-3 -19 -9 -29q-3 -5 -11.5 -14.5t-19.5 -19t-22 -16.5t-18 -7t-14.5 1.5t-7.5 12.5q0 4 3.5 19t8 33t9 35t6.5 25q14 56 31.5 121.5t39.5 142.5q12 43 26 90t26.5 87.5t21 69
t10.5 33.5q7 18 14 28.5t14 16.5t15 8.5t17 4.5t16.5 2.5t16.5 0.5q7 0 7 -9q0 -5 -12 -34.5t-33 -93.5z" />
    <glyph glyph-name="afii10046" unicode="&#x42c;" horiz-adv-x="480" 
d="M126 132q-7 -25 -14 -52t-10 -46q5 0 12 -0.5t18 -0.5q25 0 54 3t52 12q30 11 56.5 31.5t46.5 48t31.5 61.5t11.5 73q0 120 -127 120q-11 0 -28.5 -2t-38.5 -7zM178 589q10 27 17 47t18 32q14 16 33 29t44 13q7 0 7 -9q0 -3 -5 -16t-12 -31.5t-15.5 -40t-14.5 -40.5
q-17 -53 -28.5 -88.5t-20.5 -71.5l28 4q12 2 27 3.5t29 1.5q83 0 131 -35t48 -111q0 -36 -13.5 -69.5t-36.5 -63.5t-54 -54.5t-65 -42.5q-54 -29 -102.5 -41.5t-106.5 -12.5h-56q-15 0 -15 10q0 8 1.5 17.5t9.5 36.5l67 245q30 109 52 184t33 104z" />
    <glyph glyph-name="afii10047" unicode="&#x42d;" horiz-adv-x="575" 
d="M552 337q0 -9 -17 -16q-3 -2 -11.5 -3t-26.5 -6q-33 -76 -75.5 -137.5t-93 -105t-107.5 -67t-118 -23.5q-55 0 -87 18.5t-32 48.5q0 23 15.5 39.5t35.5 18.5q6 -43 29.5 -63.5t72.5 -20.5q43 0 86 17t82 51.5t71 88t53 127.5h-94t-94 -2q-13 0 -31.5 -1t-29.5 -1
q-6 0 -12.5 1t-6.5 6q0 18 30 29q14 5 40.5 8t50.5 3t52 -0.5t52 -0.5h55q3 9 6 25.5t6 34.5t4.5 35t1.5 27q0 51 -6 85t-18.5 53.5t-31.5 27.5t-46 8q-17 0 -49.5 -12.5t-66.5 -38.5q-3 -3 -9.5 -8.5t-13.5 -11.5t-13 -10.5t-8 -4.5q-9 0 -9 8t6 14q52 51 111 84.5
t125 33.5q46 0 79 -37.5t33 -119.5q0 -18 -2.5 -41.5t-7 -49t-10 -51.5t-12.5 -49h22q10 0 15 -1.5t5 -9.5z" />
    <glyph glyph-name="afii10048" unicode="&#x42e;" horiz-adv-x="835" 
d="M849 545q1 -160 -121 -348q-32 -49 -69 -88.5t-77.5 -67.5t-83.5 -43.5t-85 -15.5q-75 0 -114 36.5t-39 112.5q0 57 15.5 113t43.5 111q-14 -2 -34.5 -3.5t-38.5 -5.5l-45 -9q-9 -29 -26 -86.5t-32 -126.5q-6 -28 -7.5 -49.5t-12.5 -46.5q-11 -23 -34 -38.5t-40 -15.5
q-13 0 -17.5 4t-4.5 10q0 13 5 42.5t18 77.5q7 25 16.5 61t19.5 69q11 39 23 80q-51 -20 -67 -22q-9 0 -9 16q0 21 28 34q20 9 64 18q13 42 25 83q11 35 22.5 76t21.5 75q7 23 14.5 47t15.5 33l12.5 12.5t14 8.5t21.5 4.5t34 1.5q7 0 7 -9q-22 -67 -40 -127
q-16 -52 -32 -104.5t-25 -84.5l120 8q16 28 34 55t38 53q18 24 40 48t45.5 45.5t47.5 40t47 31.5q40 23 71 23q23 13 39 15.5t39 2.5q25 0 45.5 -11.5t35.5 -32.5t23 -50t8 -63zM757 507q0 62 -22.5 96t-60.5 35q-152 4 -261 -220q-30 -63 -45.5 -130.5t-15.5 -124.5
q0 -56 24 -91t89 -35q23 0 48.5 9t51 25.5t49.5 39.5t45 52q23 33 41.5 73t31 84.5t19 92t6.5 94.5z" />
    <glyph glyph-name="afii10049" unicode="&#x42f;" horiz-adv-x="615" 
d="M604 668q-3 -9 -6 -15q-21 -53 -35 -89.5t-25 -68t-20 -64t-21 -77.5q-11 -45 -18.5 -80.5t-15.5 -76.5q-15 -80 -15 -111q0 -12 -1 -22.5t-4 -19.5q-1 -4 -8.5 -12.5t-18 -17.5t-23 -15.5t-22.5 -6.5q-5 0 -10.5 2.5t-5.5 7.5v28t3 28q0 4 3 18.5t7.5 35.5t10 47
t10.5 53q12 62 28 139q-45 -9 -106 -53q-32 -23 -63 -51t-58.5 -59t-50.5 -64t-39 -64q-7 -13 -11.5 -23t-9.5 -16q-8 -14 -23.5 -28.5t-47.5 -14.5q-11 0 -15.5 7t-4.5 15q0 14 13 33t40 51q55 65 99 108.5t78.5 72.5t62 47.5t49.5 33.5q-79 2 -122.5 35.5t-43.5 86.5
q0 39 17.5 70.5t49 56.5t76.5 43t99 30q20 4 36 7t30.5 5t29.5 3t33 2q14 1 22.5 1.5t22.5 0.5q13 0 18 -6t6 -13zM503 636q-11 2 -26 5t-53 3q-23 0 -54 -9t-58.5 -30t-47 -55.5t-19.5 -85.5q0 -17 5 -32.5t17.5 -27t34 -18.5t53.5 -7q19 0 39.5 2.5t37.5 7.5l24 86
q11 37 23 80t24 81z" />
    <glyph glyph-name="afii10065" unicode="&#x430;" horiz-adv-x="471" 
d="M296 162q-69 -83 -116.5 -127t-85.5 -50q-33 0 -50.5 22t-17.5 63q0 65 29 128t78 115q48 51 99 82t107 45q20 5 42.5 7t30.5 2q12 0 20.5 -2.5t8.5 -8.5q0 -11 -10 -20q-5 -4 -12.5 -7t-16.5 -4q-8 0 -25.5 2.5t-31.5 2.5q-25 0 -46 -10q-22 -10 -44 -27t-42.5 -40
t-38.5 -50.5t-31 -58.5q-16 -38 -22.5 -69.5t-7.5 -62.5q0 -26 6.5 -35t16.5 -9q16 0 39.5 19t48.5 48.5t49.5 65t42.5 68.5q12 22 19.5 43.5t12.5 32.5q6 16 11.5 29t21.5 22q15 9 29 13t22 4q10 0 10 -9q-9 -23 -18 -49q-8 -22 -17 -48.5t-16 -52.5q-11 -42 -18 -84
t-7 -64q0 -11 3 -21t8 -16l9 -12q-1 -5 -9.5 -16.5t-19.5 -23.5t-23.5 -21t-21.5 -9q-13 0 -20.5 10t-7.5 40q0 21 2.5 45.5t5.5 46.5q4 26 8 51h-4z" />
    <glyph glyph-name="afii10066" unicode="&#x431;" horiz-adv-x="389" 
d="M166 599q-12 15 -16.5 27t-4.5 28q0 20 15.5 46t50.5 59q22 22 51 46t62 47.5t69 44t73 35.5q18 7 38 12.5t38.5 9.5t33 5.5t22.5 1.5q14 0 27 -2t13 -18q0 -4 -1 -11t-4 -13.5t-7.5 -11t-10.5 -4.5q-11 0 -23.5 3t-35.5 3q-44 0 -85.5 -13t-80.5 -34t-73.5 -48.5
t-63.5 -57.5q-20 -20 -29 -35t-9 -30q0 -13 3.5 -22t11.5 -20q17 -27 41 -56t45.5 -66.5t37 -86.5t15.5 -117q0 -12 -3 -33t-11.5 -48t-22 -58.5t-34.5 -64.5q-24 -38 -47.5 -63.5t-45.5 -40.5t-42 -21.5t-37 -6.5q-16 0 -34 5t-33 19.5t-25 40t-10 67.5q0 28 8 63
t23.5 72.5t39.5 75t56 71.5q15 16 34.5 34t30.5 21q11 0 11 -15q-6 -6 -12 -11l-11 -11t-10 -11q-45 -60 -67.5 -120t-22.5 -133q0 -37 6 -59t14.5 -34t18.5 -16t18 -4q29 0 53.5 19.5t47.5 64.5t31.5 94t8.5 103q0 44 -14.5 85t-35.5 77t-44.5 65.5t-41.5 50.5z" />
    <glyph glyph-name="afii10067" unicode="&#x432;" horiz-adv-x="429" 
d="M403 641q0 20 -5.5 29.5t-25.5 9.5q-26 0 -54.5 -33.5t-67.5 -104.5q-33 -61 -56.5 -111.5t-30.5 -82.5q17 11 45 32t70 62q16 16 38 41t41 53t32.5 56t13.5 49zM68 267q-4 -3 -8 -5q-10 -4 -15 -4q-4 0 -6 6q-1 3 -1 7q3 10 10 15t18 12l16 10q23 63 51 116.5t63 109.5
q62 99 123 156t109 59q28 1 43 -12t15 -43q0 -19 -7 -46t-30 -63q-13 -21 -29.5 -43t-38.5 -46t-50.5 -51t-65.5 -57q-29 -24 -57.5 -44.5t-53.5 -34.5q-9 -32 -15 -63q-6 -26 -10.5 -55.5t-4.5 -52.5q0 -53 9.5 -85.5t38.5 -32.5q30 0 52.5 14t46.5 44q15 19 24.5 41
t15 44.5t7.5 43t2 37.5q0 35 -10.5 52.5t-36.5 22.5q-11 2 -18.5 1t-16.5 0q-2 4 -3 5.5t0 6.5q11 13 33 27t39 20q13 1 29.5 -2t31 -14t24.5 -33.5t10 -61.5q0 -37 -22.5 -89.5t-68.5 -106.5q-90 -104 -169 -104q-32 0 -52 10t-30.5 28t-14 43t-3.5 55q0 23 4 51t9 53
q5 29 13 59z" />
    <glyph glyph-name="afii10068" unicode="&#x433;" horiz-adv-x="330" 
d="M185 156q-6 -17 -14 -38.5t-8 -34.5q0 -16 15 -17q12 0 30 11t35 25q2 2 5.5 4t6.5 2q4 0 3.5 -2.5t0.5 -5.5q0 -5 -13 -20.5t-35 -35.5q-7 -6 -18.5 -16t-25.5 -19.5t-29 -16.5t-29 -7q-16 0 -25.5 12.5t-9.5 35.5q0 13 5 33t9 31l76 213q11 32 16.5 51.5t5.5 24.5
q0 16 -8 16q-20 0 -42.5 -17t-44.5 -39l-6 -6t-5 -2q-4 0 -7 4t-3 9t2 8l4 6q8 9 17.5 18t28.5 25q40 33 75.5 46t46.5 13q23 0 23 -35q1 -20 -7.5 -54t-21.5 -69q-8 -21 -16 -44t-15 -43.5t-12.5 -38t-9.5 -27.5z" />
    <glyph glyph-name="afii10069" unicode="&#x434;" horiz-adv-x="432" 
d="M308 450q-19 -6 -52 -25.5t-65.5 -56.5t-56.5 -92.5t-24 -133.5q0 -30 5 -48.5t12.5 -28.5t17.5 -13.5t19 -3.5q25 0 58 27t69 94q35 64 50 144.5t15 168.5q0 115 -31 180.5t-86 65.5q-23 0 -52 -14.5t-54 -39.5q-7 -7 -14.5 -16t-13.5 -9q-5 0 -7 3.5t-2 7.5
q0 8 3.5 13.5t8.5 10.5q40 45 78 66t89 21q72 0 115.5 -69t43.5 -200q0 -84 -24 -168t-78 -174q-52 -87 -108 -131t-100 -44q-41 0 -68 28.5t-28 87.5q-2 63 30 137q23 52 56.5 95t68.5 74.5t69 50.5t58 23q12 -3 12 -15q0 -6 -4.5 -10t-9.5 -6z" />
    <glyph glyph-name="afii10070" unicode="&#x435;" horiz-adv-x="371" 
d="M126 246q24 5 43 13.5t51 31.5q43 31 55 58t12 47t-25 20q-17 0 -37 -13t-43 -42q-21 -28 -35 -57t-21 -58zM118 185q-2 -6 -2.5 -12.5t-0.5 -9.5q0 -63 22 -98t80 -35q15 0 31 4.5t29 10.5q15 6 29 15q6 -6 6 -19q0 -6 -13.5 -15.5t-35 -18.5t-48.5 -15.5t-53 -6.5
q-64 0 -99.5 37.5t-35.5 105.5q0 59 19 112.5t64 105.5q26 30 56.5 53t75.5 47q24 13 44.5 18t34.5 7q29 0 41 -7.5t12 -26.5q0 -9 -3.5 -23t-15 -33t-33 -42.5t-57.5 -51.5q-29 -23 -55 -39t-46 -27q-23 -12 -42 -20z" />
    <glyph glyph-name="afii10072" unicode="&#x436;" horiz-adv-x="672" 
d="M496 300q0 -15 -17 -19q-9 0 -25 -2.5t-51 -12.5q-6 -21 -11.5 -43.5t-9.5 -48.5l-11 -79q-2 -14 -4 -25t-7 -19q-14 -26 -30.5 -40.5t-23.5 -14.5t-12 4t-5 15q0 12 4 36.5t11 56t15.5 67.5t16.5 71l-86 -36q-14 -45 -36.5 -83t-50.5 -71q-53 -64 -97 -64q-26 0 -26 33
q0 10 7.5 26.5t21 37t33 42.5t42.5 43l44 40q2 6 5.5 19t6.5 29t5 33t2 31q0 51 -13.5 75.5t-43.5 24.5q-13 0 -26.5 -7.5t-24.5 -16.5q-13 -11 -25 -24q-3 -2 -6 -5t-8 -3q-7 0 -7 10q0 3 3 8t7 9q13 13 30.5 27.5t37 27t39.5 20.5t38 8q37 0 55.5 -23.5t18.5 -80.5
q0 -10 -1.5 -26t-4.5 -34.5t-8 -38.5t-11 -38q9 4 20.5 9.5t24 10.5t23.5 9.5t18 7.5q8 23 15 46q6 19 13 40t12 37q5 17 10.5 25.5t16.5 19.5q13 10 28 16.5t29 6.5q5 0 8 -9q-17 -41 -30 -74q-11 -29 -21.5 -55t-12.5 -33q15 3 29 6q12 2 25.5 4.5t22.5 2.5q8 0 8 -9z
M166 158q-14 -9 -30 -23.5t-30 -31t-23 -33t-9 -30.5q0 -8 8 -11q15 0 39.5 34t44.5 95zM647 424q-18 -14 -38.5 -44t-38 -70.5t-29 -88.5t-11.5 -99q0 -16 1.5 -31t6 -26.5t13 -18.5t21.5 -7q12 0 23.5 4.5t21.5 9.5q11 6 21 15q5 2 8.5 4t7.5 2q6 0 6 -10
q0 -4 -12.5 -15.5t-32 -23.5t-43.5 -21t-48 -9q-32 0 -53 23t-21 74q0 16 3 39.5t11 55.5q20 85 66 155t112 110q12 7 25 13t20 6q5 0 7 -6q2 -4 -0.5 -7.5t-6.5 -5.5q-6 -4 -16.5 -10.5t-23.5 -17.5z" />
    <glyph glyph-name="afii10073" unicode="&#x437;" horiz-adv-x="339" 
d="M328 411q0 -30 -15.5 -61t-38.5 -59t-50.5 -52t-51.5 -40q19 -8 35.5 -25.5t28.5 -41.5t19 -53.5t7 -61.5q0 -49 -16.5 -97t-44 -91.5t-64 -80t-76 -63.5t-80 -42.5t-76.5 -15.5q-47 0 -73.5 20.5t-26.5 71.5q0 38 27 72t62 59.5t67 40.5t43 15q7 0 7 -8q0 -6 -6 -10
t-23 -12q-42 -19 -72 -56t-30 -81q0 -13 3 -25t11 -21t21.5 -14.5t33.5 -5.5q36 0 76.5 23t75 64.5t57 99.5t22.5 129q0 37 -8.5 68.5t-21.5 55t-27.5 36.5t-26.5 13q-5 0 -9.5 2.5t-4.5 7.5q0 6 3 8t7 4q8 4 30.5 15.5t48.5 32.5q34 26 56 61.5t22 80.5q0 30 -13.5 43.5
t-47.5 13.5q-13 0 -27 -4t-27 -9.5t-24.5 -12t-18.5 -11.5q-6 -4 -13 -9t-15 -5t-10.5 2.5t-2.5 6.5q0 11 6 16t20 14q11 7 29.5 17t42 20t50 17t53.5 7q77 0 77 -69z" />
    <glyph glyph-name="afii10074" unicode="&#x438;" horiz-adv-x="477" 
d="M170 211q-4 -12 -8.5 -27t-9 -29t-7.5 -24.5t-3 -13.5q0 -4 1.5 -8t4.5 -4q5 0 18 12t35 38q26 31 45 55.5t36 48t33.5 47.5t37.5 55q14 21 22 38.5t27 34.5q12 11 24.5 17.5t23.5 12.5q10 4 18 4h10q6 1 8 -9q0 -3 -5.5 -18t-13.5 -37t-16.5 -46.5t-15.5 -46.5
q-6 -19 -10.5 -34.5t-8.5 -30.5t-8.5 -30.5t-8.5 -34.5q-5 -19 -9 -41.5t-7 -42.5q-4 -23 -7 -46q-1 -5 -1.5 -13t-4.5 -16q-1 -3 -8 -10q-2 -2 -9 -8t-16 -12t-17.5 -11t-12.5 -5q-5 0 -10.5 2.5t-5.5 7.5v10q0 6 3 26t7.5 47t10.5 57.5t12 57.5q4 18 10 39t11 39
q6 21 12 43q-19 -25 -40 -52q-18 -23 -40 -52t-45 -59q-15 -20 -30 -37.5t-26 -29.5t-19.5 -22t-17 -18.5t-18.5 -16t-23 -16.5q-11 -8 -19 -8.5t-13 -0.5q-27 0 -27 40q0 8 6 33.5t19 64.5l44 137q13 40 20 65t11 39.5t5 21t1 8.5q0 5 -1 8.5t-6 3.5t-14 -6t-14 -6
q-7 0 -8 12q0 5 28 23q37 23 62.5 31.5t39.5 8.5q8 0 8 -11q0 -8 -3.5 -27.5t-8.5 -36.5l-58 -191v0z" />
    <glyph glyph-name="afii10075" unicode="&#x439;" horiz-adv-x="477" 
d="M552 702q12 0 12 -16q0 -8 -9.5 -27.5t-29.5 -39.5q-27 -26 -53 -42t-50.5 -24.5t-47 -11.5t-41.5 -3q-24 0 -42 7t-18 18q0 4 1.5 10.5t3.5 11.5q5 14 15 30.5t27 16.5q6 0 9.5 -6.5t11.5 -14t23.5 -14t45.5 -6.5q18 0 37 8t35.5 20.5t28.5 29.5t17 35q4 18 24 18z
M170 211q-4 -12 -8.5 -27t-9 -29t-7.5 -24.5t-3 -13.5q0 -4 1.5 -8t4.5 -4q5 0 18 12t35 38q26 31 45 55.5t36 48t33.5 47.5t37.5 55q14 21 22 38.5t27 34.5q12 11 24.5 17.5t23.5 12.5q10 4 18 4h10q6 1 8 -9q0 -3 -5.5 -18t-13.5 -37t-16.5 -46.5t-15.5 -46.5
q-6 -19 -10.5 -34.5t-8.5 -30.5t-8.5 -30.5t-8.5 -34.5q-5 -19 -9 -41.5t-7 -42.5q-4 -23 -7 -46q-1 -5 -1.5 -13t-4.5 -16q-1 -3 -8 -10q-2 -2 -9 -8t-16 -12t-17.5 -11t-12.5 -5q-5 0 -10.5 2.5t-5.5 7.5v10q0 6 3 26t7.5 47t10.5 57.5t12 57.5q4 18 10 39t11 39
q6 21 12 43q-19 -25 -40 -52q-18 -23 -40 -52t-45 -59q-15 -20 -30 -37.5t-26 -29.5t-19.5 -22t-17 -18.5t-18.5 -16t-23 -16.5q-11 -8 -19 -8.5t-13 -0.5q-27 0 -27 40q0 8 6 33.5t19 64.5l44 137q13 40 20 65t11 39.5t5 21t1 8.5q0 5 -1 8.5t-6 3.5t-14 -6t-14 -6
q-7 0 -8 12q0 5 28 23q37 23 62.5 31.5t39.5 8.5q8 0 8 -11q0 -8 -3.5 -27.5t-8.5 -36.5l-58 -191v0z" />
    <glyph glyph-name="afii10076" unicode="&#x43a;" horiz-adv-x="442" 
d="M406 352q-13 -8 -30 -11q4 9 8 24t4 27q0 27 -8 27q-6 0 -17.5 -5t-27.5 -21t-32.5 -33.5t-30.5 -33.5q-17 -18 -32 -37q5 -14 15 -37t22.5 -48.5t26 -51.5t25.5 -47q23 -38 44.5 -58.5t38.5 -26.5q1 -2 -3 -9t-12.5 -14t-21.5 -12.5t-30 -5.5q-21 0 -38.5 13.5
t-37.5 45.5q-9 15 -25 45t-42 84q-14 30 -22 48t-11 26q-3 -12 -7 -23q-3 -10 -6.5 -21t-5.5 -20q-4 -14 -8 -30.5t-7 -30.5l-8 -34q-6 -26 -12 -37q-5 -10 -11 -16q-3 -3 -10.5 -7.5t-16 -8.5t-17 -6.5t-13.5 -2.5q-12 0 -16.5 3t-5.5 11q0 2 3.5 17.5t13.5 47.5
q9 30 17.5 59.5t16.5 58.5q15 50 27 91q5 18 10.5 35.5t9.5 32t7 25t4 14.5q1 5 1.5 8t0.5 8q0 6 -6 6q-7 0 -14 -3l-14 -6q-8 -4 -15 -9q-3 4 -4 8.5t-2 7.5q5 6 14.5 12t14.5 9q22 11 56 22t66 11q9 0 9 -9q-2 -10 -6 -20q-3 -8 -6.5 -18t-5.5 -18q-8 -23 -16 -49t-16 -49
q-9 -27 -17 -54q19 22 40 46q17 20 39 44.5t44 49.5q16 18 33.5 35t35 30t35 21t33.5 8q8 0 11.5 -4.5t5.5 -21.5v-17q0 -26 -12.5 -54t-32.5 -41z" />
    <glyph glyph-name="afii10077" unicode="&#x43b;" horiz-adv-x="410" 
d="M313 94q1 -6 2 -11t1.5 -11t0.5 -11q0 -7 -7.5 -18.5t-18.5 -23t-25 -19.5t-26 -8q-8 0 -14 3.5t-6 11.5q0 4 2 17.5t4.5 30.5l5 34t4.5 28q2 10 5 24t7.5 33t11 44.5t16.5 59.5q27 91 27 106q0 5 -2 7t-10 2q-17 0 -40.5 -21t-59.5 -67q-14 -17 -33.5 -45.5t-37.5 -61.5
t-30.5 -68.5t-12.5 -66.5q0 -19 3 -29q-12 -21 -30 -36t-33 -15q-12 0 -20 8.5t-8 27.5q0 43 102 199q25 39 50.5 73t47.5 61t40 45.5t29 26.5q27 20 50.5 32t49.5 12q6 0 11.5 -0.5t10 -3.5t7.5 -9.5t3 -19.5q0 -8 -4 -25.5t-11 -40.5t-14.5 -50t-15.5 -53.5t-14 -50
t-9 -40.5q-5 -27 -7 -47t-2 -34z" />
    <glyph glyph-name="afii10078" unicode="&#x43c;" horiz-adv-x="605" 
d="M515 94q0 -10 2 -16.5t2 -16.5q0 -7 -8 -18.5t-19 -23t-24 -19.5t-22 -8q-8 0 -16 2t-8 13q0 9 2 24t5 32q7 35 11.5 61.5t11.5 57.5l27 128l-3 1q-10 -14 -27.5 -39l-38.5 -55t-42 -60.5t-38 -55.5q-25 -36 -47.5 -65.5t-32.5 -39.5q-21 -12 -53 -12q-10 0 -10 19
q0 11 1 23.5t3 26.5q5 32 12 69t18 82q5 25 12 54t12 55q6 30 12 59l-4 2q-11 -8 -31.5 -29t-44.5 -56q-17 -24 -34 -53t-31 -59t-23 -59.5t-9 -54.5q0 -19 3 -29q-12 -21 -30 -36t-33 -15q-12 0 -22.5 8t-10.5 29q0 17 11 42.5t32 62.5q12 21 33 52.5t46.5 67.5t54 73.5
t55.5 71.5q23 29 36.5 44t17.5 19q10 9 18 11.5t19 5.5t20 4t20 1q9 0 9 -10q0 -2 -28 -108q-10 -36 -20.5 -80t-19 -82.5t-14 -65.5t-5.5 -30q0 -10 6 -13q7 4 22.5 25.5t36.5 52t45.5 66.5t47.5 70q12 18 24 36.5t24 35.5t24 30.5t24 21.5q8 5 14.5 9.5t15.5 7.5
q4 1 8.5 1.5t8.5 1.5t9 1q9 0 10 -10q-6 -15 -11 -33q-5 -16 -11 -38.5t-13 -48.5q-11 -40 -19.5 -76t-13.5 -64q-5 -27 -7 -46t-2 -35z" />
    <glyph glyph-name="afii10079" unicode="&#x43d;" horiz-adv-x="471" 
d="M147 416v6.5t-5 3.5t-14 -6t-14 -6q-7 0 -8 12q0 5 28 23q37 23 62.5 31.5t39.5 8.5q8 0 8 -11q0 -5 -2 -16t-5.5 -24.5t-7.5 -29t-8 -30.5q-5 -17 -10 -37t-10 -37q-5 -20 -11 -40l146 12q2 9 6 20q2 8 5.5 18.5t6.5 18.5q5 14 10.5 28.5t10.5 27.5t9 23t7 15
q10 17 33 28t43 11q4 0 6 -3t2 -6q0 -6 -4 -16t-8 -21q-6 -17 -12.5 -36t-12.5 -36q-7 -19 -14 -39l-7 -24h6q2 0 5 0.5t5 0.5q5 0 6 -3.5t1 -5.5q0 -13 -17 -21q-2 -2 -5.5 -2.5t-6.5 -1.5q-4 -1 -7 -2l-20 -84q-5 -18 -9.5 -44t-6.5 -51q-1 -8 -2 -15t-4 -12t-11.5 -13.5
t-19 -16.5t-20 -13.5t-14.5 -5.5q-8 0 -11.5 7.5t-3.5 15.5q0 5 1 17t3.5 27.5t5.5 32.5t7 34q2 5 6 23t9 38q5 23 13 50l-153 -20q-3 -8 -6 -17q-2 -8 -5 -16t-5 -15q-4 -13 -8 -27.5t-7 -27.5t-5 -23t-2 -13q0 -14 1 -21.5t1 -13.5q0 -5 -0.5 -8.5t-4.5 -8.5
q-4 -6 -14 -14.5t-22 -16.5t-24.5 -14t-22.5 -6q-8 0 -13 2.5t-5 10.5q0 7 2.5 20.5t6.5 30t9 35.5l10 38q12 43 28 94q-11 -2 -24 -4t-19 -2q-9 0 -9 14q0 12 17 22q8 5 22.5 9t25.5 6q12 43 23 77q4 15 8 29t7.5 26t5.5 20t2 10z" />
    <glyph glyph-name="afii10080" unicode="&#x43e;" horiz-adv-x="442" 
d="M135 -15q-48 0 -78 25.5t-31 76.5q-1 40 10 84t38 90q23 39 52 73t66 66q32 29 57 44t40 15q3 0 6.5 -0.5t6.5 -0.5h7q3 3 16 8t26 5q43 0 60.5 -30t17.5 -78q1 -106 -81 -234q-93 -144 -213 -144zM352 342q0 38 -12.5 59t-30.5 21q-4 0 -6 -1l-4 -2l-4 -2l-16 3
q-65 0 -122 -142q-23 -57 -34 -98.5t-11 -68.5q0 -41 16 -62t42 -21q29 0 60 20t58 67q15 25 26.5 58t20 65.5t13 60.5t4.5 43z" />
    <glyph glyph-name="afii10081" unicode="&#x43f;" horiz-adv-x="469" 
d="M404 221q-4 -16 -8 -33t-7.5 -32.5t-5.5 -27.5t-2 -19v-39q0 -8 -3 -12.5t-9 -12.5q-3 -4 -13 -12t-22 -16.5t-23 -14.5t-17 -6q-8 0 -12 4t-4 16q0 5 2.5 16t9.5 39q4 17 7.5 30.5t7 26.5t6.5 26.5t8 29.5q11 38 20.5 68.5t17.5 59.5q6 20 10 41t6 29q0 21 -8 22
q-11 0 -35 -19t-59 -65q-31 -39 -56 -80t-45 -82q-9 -19 -19.5 -45.5t-20.5 -55.5q-6 -18 -10 -29.5t-15 -24.5q-3 -3 -9.5 -7t-15 -8t-18 -6.5t-17.5 -2.5q-9 0 -13.5 5t-4.5 12q0 11 3 20t9 26q9 21 18 47q8 22 17 50t19 60q9 29 18 62t17 62t13.5 50t6.5 26q1 4 1.5 7
t0.5 6q0 5 -3 5.5t-6 0.5q-5 0 -13.5 -3.5t-16.5 -8.5q-10 -5 -19 -11q-3 -3 -6 -5q-6 -4 -8 -4q-4 0 -5.5 4t-1.5 7t9 11t22.5 17.5t30.5 18.5t32 15q18 7 30.5 10.5t35.5 3.5q9 0 9 -9q0 -5 -3 -24.5t-16 -64.5l-33 -116l3 -2q17 23 35 47q15 20 32.5 42.5t34.5 41.5
q9 10 20 21t21 20.5t17.5 16t9.5 7.5q16 10 32 15q24 9 49 9q19 0 20 -26q0 -9 -3.5 -27.5t-11.5 -47.5q-8 -28 -16 -55q-7 -23 -14.5 -50t-12.5 -50z" />
    <glyph glyph-name="afii10082" unicode="&#x440;" horiz-adv-x="486" 
d="M383 332q0 38 -5 63t-24 25q-22 0 -57.5 -30t-86.5 -99q-15 -20 -28.5 -46.5t-25 -55.5t-19.5 -57.5t-12 -52.5q6 -23 25 -38.5t56 -15.5q32 0 62 23q24 18 45 50t36.5 71t24.5 81.5t9 81.5zM469 371q0 -50 -15.5 -101.5t-41.5 -99t-60.5 -87t-71.5 -64.5
q-49 -32 -105 -34q-45 0 -73 18q-15 -53 -28.5 -101.5t-24 -89.5t-18 -71.5t-10.5 -46.5q-1 -5 -1 -14.5v-16.5q0 -8 -2 -13.5t-7 -13.5q-10 -15 -30 -28t-35 -13q-8 0 -14.5 7t-6.5 19q0 14 2.5 30.5t13.5 52.5l51 166l72 240l-19 -9q-8 2 -5 21q6 8 13 18q6 8 13 18t15 21
q7 24 16 53q8 25 16.5 58.5t18.5 73.5q2 11 2.5 18.5t1.5 12.5q0 15 -5 15q-7 0 -18 -6.5t-19 -6.5q-9 0 -9 10q0 7 7 11q12 7 40 23t60 29q8 3 14 3.5t13 0.5q10 0 10 -10q0 -8 -4.5 -26.5t-11 -41t-14 -45t-14.5 -38.5l5 -1q48 70 107 119q61 49 103 49q33 1 51 -24
t18 -85z" />
    <glyph glyph-name="afii10083" unicode="&#x441;" horiz-adv-x="365" 
d="M281 325q7 18 9.5 34.5t3.5 39.5q0 21 -23 21q-32 0 -61.5 -24t-52.5 -63t-36.5 -89t-13.5 -102q0 -54 22 -85q11 -15 27 -20.5t45 -5.5q20 0 37.5 7.5t34.5 17.5q10 7 17 7q5 0 9.5 -3t4.5 -14q0 -4 -13 -14t-36 -20.5t-54 -18.5t-67 -8q-49 0 -81 28.5t-33 88.5
q-1 140 107 261q24 27 50 47t50.5 33.5t46.5 20.5t37 7q9 0 19 -1.5t18.5 -5.5t13.5 -11.5t5 -19.5q0 -35 -8 -67q-2 -10 -8.5 -23.5t-17.5 -22.5q-17 -14 -31 -18.5t-21 -4.5t-8 6z" />
    <glyph glyph-name="afii10084" unicode="&#x442;" horiz-adv-x="684" 
d="M411 565q19 6 44 11t52 8.5t55.5 5.5t54.5 2q32 0 57.5 -5.5t25.5 -15.5t-13.5 -23.5t-31.5 -18.5q-10 3 -19.5 7t-22.5 7t-31.5 5t-45.5 2q-26 0 -61 -3.5t-73 -12.5q-16 -4 -33 -9.5t-32 -11t-26.5 -9.5t-14.5 -4q-7 0 -7 6q0 9 31.5 25t90.5 34zM608 202
q-5 -16 -9 -33t-8 -32t-6 -27t-2 -18q0 -17 2 -25.5t2 -16.5q0 -11 -14 -25q-21 -20 -41.5 -34.5t-35.5 -14.5q-16 0 -16 28q0 9 2 19.5t10 37.5l10 36q5 16 9.5 34t9.5 33q9 28 14 46t13 45q4 15 8.5 31t8 30.5t5.5 25.5t2 16q0 21 -11 22q-11 0 -41 -31q-16 -16 -34 -37.5
t-35 -45t-32 -46t-25 -41.5q-5 -10 -8.5 -16t-8.5 -23l-23 -70q-3 -14 -9 -23q-4 -5 -18 -20.5t-28 -24.5q-13 -8 -22 -8t-11.5 5.5t-2.5 13.5q0 6 4.5 21t12.5 43l35 115q6 20 12 41q5 17 11 38t11 38q5 18 10 39.5t6 26.5q0 12 -6 14q-8 0 -22 -11.5t-37 -33.5
q-17 -17 -33.5 -36t-32 -38.5t-29 -39t-23.5 -37.5q-11 -19 -22.5 -43.5t-22.5 -59.5q-3 -9 -5 -16.5t-4 -16.5q-3 -11 -5 -16.5t-7 -12.5q-3 -5 -9.5 -11t-14.5 -11t-17 -9t-18 -4q-13 0 -17.5 3t-5.5 11q0 8 5.5 31t11.5 43q5 19 11.5 41t12.5 41q6 22 13 43l46 167l6 30
q0 10 -6 10q-8 0 -17.5 -3.5t-17.5 -8.5q-10 -5 -19 -12q-5 0 -7 3t-2 6q0 7 10.5 14t22.5 14q33 19 48.5 26.5t30.5 12.5q10 4 21.5 6t19.5 2q3 0 6 -2t3 -7t-4 -26.5t-15 -62.5l-30 -118q19 23 32.5 39.5t25 30t24 26.5t29.5 31q35 35 58 55q5 5 14.5 10.5t21.5 10.5
t23.5 7.5t22.5 3.5q18 0 18 -27q0 -18 -4.5 -41t-11.5 -47t-14 -46t-11 -39h3q21 29 43.5 55t42.5 47.5t37 37t27 23.5q9 8 19 12t21 8q19 5 35 7q9 0 15 -12q1 -4 2 -9t1.5 -10.5t0.5 -12.5q0 -10 -0.5 -16.5t-2.5 -16.5q-1 -7 -5.5 -25t-11 -43t-14.5 -54.5t-17 -59.5z
" />
    <glyph glyph-name="afii10085" unicode="&#x443;" horiz-adv-x="477" 
d="M488 441q0 -9 -3.5 -21.5t-8.5 -29.5q-8 -25 -21.5 -49.5t-25.5 -44.5q-11 -36 -17 -58t-8 -30q-34 -121 -66 -211q-30 -87 -65.5 -161t-81.5 -130q-21 -25 -48.5 -48t-60.5 -40.5t-71.5 -28.5t-80.5 -11q-83 -2 -83 29q0 6 14 6q10 0 15.5 -0.5t10 -1.5t10.5 -1.5
t17 -0.5q64 0 116.5 24.5t97.5 79.5q20 24 50.5 81.5t65.5 145.5q31 78 54 145.5t40 118.5l-3 1q-13 -17 -35.5 -42.5t-49.5 -54t-55.5 -56t-52.5 -46.5q-9 -5 -16 -10t-15.5 -9t-19 -6.5t-25.5 -2.5q-10 0 -17 8t-7 31q0 10 5 29t13.5 44t18.5 53.5t20 57.5q7 22 12.5 38.5
l11 33t10.5 35t13 43.5q4 12 8 29t4 29q0 4 -1 8.5t-6 4.5t-11.5 -2.5t-12.5 -4.5l-14 -7q-2 0 -3 5.5t-3 8.5q0 1 5 5.5t13.5 9.5t18 10t18.5 8q22 8 37.5 12t26 5.5t16.5 1t10 -0.5q10 0 9 -9l-12 -39q-14 -38 -27 -78q-11 -34 -23.5 -73t-23.5 -72q-14 -44 -24.5 -75.5
t-10.5 -45.5q0 -9 10 -10q11 0 25 11t31 26q18 16 39.5 39t42.5 48.5t39.5 51.5t30.5 48l23 74q8 23 15 38.5t19 26.5q13 12 27.5 17t31.5 6q13 0 14 -16z" />
    <glyph glyph-name="afii10086" unicode="&#x444;" horiz-adv-x="663" 
d="M442 446q-26 -78 -49 -155q-10 -33 -20.5 -68t-20.5 -69.5t-18.5 -67.5t-15.5 -60q39 -5 82 15.5t79 60t59.5 95t23.5 121.5q0 60 -30 93t-90 35zM254 26q18 73 37 147q8 31 18 66t20.5 70t21.5 69.5t23 65.5q-55 -5 -96 -26t-76 -63q-67 -82 -67 -196q0 -59 31 -96
t88 -37zM223 -364q-3 -6 -6 -11.5t-6 -10.5q-9 -12 -20 -19q-9 -5 -24 -7q-20 0 -23 14q0 8 3 25.5t8.5 39.5l11.5 46t12 47q19 71 35.5 130.5t25.5 94.5q-91 0 -139.5 41t-48.5 122q0 131 106 230q48 43 104 69.5t126 37.5l39 116q16 49 29.5 78.5t24 47t19 25.5t14.5 14
q8 5 19.5 10t21.5 5q6 0 7.5 -1.5t1.5 -5.5t-3 -9t-5 -9q-11 -20 -21 -41.5t-19 -46.5q-18 -48 -32.5 -94t-27.5 -85q87 0 138 -34.5t51 -118.5q0 -60 -25 -119.5t-69.5 -108.5t-106.5 -81t-137 -38q-10 -37 -20 -76q-8 -33 -17.5 -73t-17.5 -77q-8 -38 -15 -70.5t-14 -56.5
z" />
    <glyph glyph-name="afii10087" unicode="&#x445;" horiz-adv-x="443" 
d="M431 489q4 -14 -9.5 -45t-32.5 -61q-7 -11 -21.5 -34t-34 -50.5t-41.5 -56.5t-44 -53q15 -42 27 -67t22 -40q26 -39 47 -42q-7 -26 -27 -44t-37 -18q-8 0 -17 5.5t-20.5 21.5t-26 44t-31.5 73q-42 -45 -82 -82q-54 -48 -77 -50q-14 0 -19 8q-2 3 -4 11.5t-1 18.5
q38 17 79.5 44.5t89.5 81.5q-15 46 -27 87t-19.5 73t-11.5 54t-4 30q0 16 21 37q11 11 25 19.5t25 9.5q7 -47 21 -113t34 -129q25 31 44.5 60.5t34 54.5t24 44t14.5 30q10 22 16 39.5t20 30.5q6 6 14.5 8.5t15.5 2.5q3 0 9 -2q2 -1 4 -1z" />
    <glyph glyph-name="afii10088" unicode="&#x446;" horiz-adv-x="508" 
d="M382 87v-14t4 -8q4 1 10 4q5 2 12 4.5t17 7.5q8 4 17 6.5t13 2.5q6 0 9 -6q0 -2 1 -5q0 -2 0.5 -4.5t0.5 -4.5q0 -6 -2 -20t-6.5 -33t-10.5 -41t-13 -44q-11 -30 -26 -59t-40 -66q-27 -40 -47 -59.5t-32 -26.5q-4 2 -8 6q8 11 26 41.5t32 64.5q12 29 22 59.5t17.5 57.5
t11.5 50t5 37q-26 -20 -49 -31q-21 -9 -33 -9q-18 0 -18 26q0 10 2.5 28t6.5 39.5t9.5 46t10.5 47.5q4 19 10 41t11 42q6 23 12 45q-19 -27 -39 -55q-18 -25 -40.5 -55t-45.5 -60q-15 -19 -32.5 -40.5t-28.5 -33.5q-14 -15 -24 -26.5t-18 -20.5q-5 -5 -13.5 -12t-22.5 -14
q-13 -5 -20 -7t-12 -2q-27 0 -27 40q0 8 5.5 33.5t19.5 64.5l49 144q13 40 20.5 65t11.5 39.5t4.5 21t0.5 8.5q0 5 -1 8.5t-6 3.5t-14 -6t-14 -6q-7 0 -8 12q0 5 28 23q37 23 62.5 31.5t39.5 8.5q8 0 8 -11t-3.5 -29t-8.5 -35l-58 -191q-4 -12 -9.5 -28t-11 -31.5t-9 -27
t-3.5 -14.5q0 -4 1.5 -8t4.5 -4q7 0 21.5 14t34 37t41.5 51.5t43 57.5t39.5 56t30.5 47q14 21 22 38.5t27 34.5q12 11 24.5 17.5t23.5 12.5q10 4 18 4h10q6 1 8 -9q0 -3 -5.5 -18t-13.5 -37t-16.5 -46.5t-15.5 -46.5q-6 -19 -10.5 -34.5t-9 -30.5t-8.5 -30.5t-8 -34.5
q-6 -27 -10.5 -55t-6.5 -39z" />
    <glyph glyph-name="afii10089" unicode="&#x447;" horiz-adv-x="434" 
d="M438 448q0 -4 -5 -17.5t-9 -22.5q-5 -13 -17.5 -51.5t-26.5 -85.5t-26.5 -95.5t-16.5 -81.5q-1 -7 2 -22q3 -12 3 -13q0 -6 -7 -18t-18.5 -24t-26 -21.5t-29.5 -9.5t-15 19q0 8 0.5 26t6.5 42q3 12 8 32.5t13.5 51t21 74t30.5 102.5q-7 -8 -21 -21t-33 -29t-42.5 -34
t-48.5 -34q-23 -14 -41.5 -20t-33.5 -6q-33 0 -34 46q0 11 4.5 32.5t12.5 56.5q4 15 9 33t8 32q0 2 0.5 4.5t0.5 4.5q0 3 1 5q2 11 -5 11q-5 0 -11.5 -2.5t-12.5 -5.5l-14 -8l-4 10q2 5 11.5 11t17.5 11q23 13 50 23t54 10q9 0 9 -9q-2 -9 -5 -20.5t-8 -26.5q-5 -18 -11 -37
t-11 -36.5t-8 -30.5t-3 -18q0 -19 3.5 -25.5t12.5 -6.5q10 0 29.5 11t43 29t47.5 42.5t42 51.5l19 28q5 8 10 14.5t13 11.5q11 8 27 12t26 4q8 0 8 -9z" />
    <glyph glyph-name="afii10090" unicode="&#x448;" horiz-adv-x="725" 
d="M146 397q1 2 1 4.5t1 4.5q0 3 1 6q1 8 -5 11q-4 0 -17 -6l-21 -10l-4 10q4 6 12.5 11.5t16.5 10.5q23 13 50 23t54 10q9 0 9 -9q-1 -7 -2.5 -14.5t-5 -22.5t-11 -41t-21.5 -69l-71 -221q0 -12 6 -12q2 0 13.5 11t29 30t39.5 45.5t46 58.5q35 48 62 86.5t54 79.5
q3 5 7 11.5t7 11.5q4 6 8 13q8 8 27 17.5t39 10.5q9 0 10 -10q-5 -14 -9 -26q-4 -11 -8 -23t-7 -23q-8 -25 -14.5 -46t-12.5 -41t-12.5 -41t-14.5 -46q-5 -14 -9.5 -31t-9.5 -31l-10 -34q0 -12 5 -12q3 0 9 4.5t14 12t16.5 15.5t15.5 16q22 24 39 44.5t33 40.5t31 41.5
t32 48.5l67 104q6 12 25 25q10 5 12 7q8 5 22 9.5t22 4.5q10 0 9 -9l-20 -52q-8 -23 -17 -48.5t-15 -47.5q-15 -57 -25 -108.5t-15 -86.5q-2 -8 -2.5 -16.5t-1.5 -16.5q-1 -9 -1 -18q0 -28 -30 -55q-20 -17 -48 -19h-10t-6 5t-2.5 11t-0.5 11q0 8 3 25t5 28q5 23 14 60
l18 74q11 42 23 90l-4 2q-17 -25 -29.5 -42.5t-26 -35t-29.5 -37t-41 -48.5q-28 -32 -53 -60t-46 -49q-13 -13 -33.5 -23.5t-34.5 -10.5q-11 0 -17.5 7.5t-6.5 30.5q0 4 1 11t2.5 14.5t3 14t2.5 9.5l84 239l-2 1q-32 -45 -59 -84q-12 -17 -24 -33.5t-22.5 -31.5t-19.5 -26.5
t-14 -17.5q-46 -56 -80 -90t-54 -45q-8 -5 -16.5 -7t-16.5 -4q-24 0 -25 39q0 13 7 41.5t17 56.5q43 123 63 194t25 88z" />
    <glyph glyph-name="afii10091" unicode="&#x449;" horiz-adv-x="759" 
d="M131 111q0 -12 6 -12q2 0 13.5 11t29 30t39.5 45.5t46 58.5q35 48 64.5 89.5t51.5 76.5q3 5 6.5 10t6.5 10q4 5 7 12q8 8 28 19.5t40 12.5q9 0 10 -10q-5 -14 -9 -26q-4 -11 -8 -23t-7 -23q-8 -25 -14.5 -46t-12.5 -41t-12.5 -41t-14.5 -46q-5 -14 -9.5 -31t-9.5 -31
l-10 -34q0 -12 5 -12q3 0 9 4.5t14 12t16.5 15.5t15.5 16q22 24 39 44.5t33 40.5t31 41.5t32 48.5l67 104q6 12 25 25q10 5 12 7q8 5 22 9.5t22 4.5q10 0 9 -9l-20 -52q-8 -23 -17 -48.5t-15 -47.5q-15 -57 -25 -108.5t-15 -86.5q-2 -15 -3 -28.5t-1 -19.5q0 -3 1 -6.5
t4 -3.5q6 0 16 5t23 11q8 4 16.5 6.5t16.5 2.5q6 0 9 -6l2 -14q0 -20 -6.5 -50t-20 -66.5t-34.5 -78.5t-51 -85q-48 -69 -67 -69l-8 6q32 43 61 112q38 91 52 195q-14 -11 -31 -18.5t-28 -12.5q-21 -9 -33 -9q-13 0 -15.5 15t-2.5 29q0 3 2 16t4 24q5 23 14 60l18 74
q11 42 23 90l-4 2q-17 -25 -29.5 -42.5t-26 -35t-29.5 -37t-41 -48.5q-28 -32 -53 -60t-46 -49q-13 -13 -33.5 -23.5t-34.5 -10.5q-11 0 -17.5 7.5t-6.5 30.5q0 4 1 11t2.5 14.5t3 14t2.5 9.5l84 239l-2 1q-32 -45 -59 -84q-12 -17 -24 -33.5t-22.5 -31.5t-19.5 -26.5
t-14 -17.5q-46 -56 -80 -90t-54 -45q-8 -5 -16.5 -7t-16.5 -4q-24 0 -25 39q0 13 7 41.5t17 56.5q43 120 63.5 191.5t23.5 85.5l3 15q1 8 -5 11q-4 0 -17 -6l-21 -10l-4 10q4 6 12.5 11.5t16.5 10.5q23 13 50 23t54 10q9 0 9 -9q-1 -7 -5 -22.5t-9.5 -35t-12 -42
t-12.5 -42.5z" />
    <glyph glyph-name="afii10092" unicode="&#x44a;" horiz-adv-x="437" 
d="M213 236q-9 -23 -17 -46q-7 -20 -13.5 -43t-11.5 -43q-3 -12 -5.5 -23t-2.5 -19q0 -19 7.5 -26.5t30.5 -7.5q19 0 41.5 13t42.5 36.5t33.5 55.5t13.5 71q0 25 -9 42.5t-32 17.5q-18 0 -38 -7t-40 -21zM214 422l-26 -6q-12 -2 -26.5 -5.5t-30.5 -5.5q-18 -3 -35.5 -4.5
t-25.5 -1.5q-6 0 -12 1.5t-7 6.5q0 9 6.5 20.5t18.5 16.5q7 3 13.5 2.5t14.5 -0.5q12 0 42.5 1t62.5 4q15 2 23.5 3t22.5 3l10.5 1.5t9.5 0.5q5 0 5.5 -3t0.5 -9q0 -3 -4.5 -17t-10.5 -31.5t-11.5 -34.5t-8.5 -25q-5 -17 -10 -31t-14 -38q26 17 55 27t58 10q75 0 75 -68
q0 -31 -12.5 -65.5t-37.5 -65.5q-20 -26 -45.5 -49t-67.5 -47q-29 -17 -58 -26t-50 -9q-60 0 -60 43q0 14 3 32q2 10 6.5 26.5t11 37t14.5 43t16 43.5q12 32 26.5 71t27.5 72q15 39 30 77z" />
    <glyph glyph-name="afii10093" unicode="&#x44b;" horiz-adv-x="586" 
d="M581 436q0 -6 -6 -21t-11 -29q-7 -19 -12 -32t-12 -32q-20 -56 -32 -101.5t-22 -94.5q-3 -14 -4.5 -24.5t-2.5 -24.5q-2 -20 -2.5 -34.5t-5.5 -25.5q-2 -3 -10.5 -10t-19.5 -14.5t-23.5 -13t-21.5 -5.5q-6 0 -12.5 3t-7.5 10q0 13 9.5 54t29.5 112q7 24 14 50q6 21 13 46
t14 45q10 31 19.5 60t15.5 46t10.5 24.5t15.5 15.5q8 5 15 7.5t17 2.5q17 0 24.5 -2t7.5 -12zM178 238q-5 -13 -9 -26q-4 -11 -8.5 -24t-7.5 -24q-9 -29 -17.5 -58t-8.5 -42q0 -19 8.5 -26t31.5 -7q16 0 38.5 10.5t43 32.5t35 54t14.5 76q0 25 -11 43.5t-36 18.5
q-17 0 -36.5 -8.5t-36.5 -19.5zM188 270q26 17 54 28t57 11q38 0 56.5 -16.5t19.5 -54.5q1 -67 -49 -130q-20 -26 -45.5 -50.5t-67.5 -48.5q-29 -17 -58 -24.5t-50 -7.5q-60 0 -60 43q0 23 8.5 65t34.5 116q3 9 9 26t12.5 37.5t13 42.5t12.5 41q2 7 4 15.5t4 16.5q2 9 4 19
l1 12q0 7 -5 7q-6 0 -13 -1.5t-12 -3.5q-6 -3 -12 -5q-8 0 -8 13q0 6 16 14.5t38 18.5q24 11 47.5 17t37.5 6q6 0 11 -2.5t5 -10.5q0 -9 -15 -55q-7 -23 -19 -57t-31 -82z" />
    <glyph glyph-name="afii10094" unicode="&#x44c;" horiz-adv-x="406" 
d="M178 238q-5 -13 -9 -26q-4 -11 -8.5 -24t-7.5 -24q-9 -29 -17.5 -58t-8.5 -42q0 -19 8.5 -26t31.5 -7q16 0 38.5 10.5t43 32.5t35 54t14.5 76q0 25 -11 43.5t-36 18.5q-17 0 -36.5 -8.5t-36.5 -19.5zM188 270q26 17 54 28t57 11q38 0 56.5 -16.5t19.5 -54.5
q1 -67 -49 -130q-20 -26 -45.5 -50.5t-67.5 -48.5q-29 -17 -58 -24.5t-50 -7.5q-60 0 -60 43q0 23 8.5 65t34.5 116q3 9 9 26t12.5 37.5t13 42.5t12.5 41q2 7 4 15.5t4 16.5q2 9 4 19l1 12q0 7 -5 7q-6 0 -13 -1.5t-12 -3.5q-6 -3 -12 -5q-8 0 -8 13q0 6 16 14.5t38 18.5
q24 11 47.5 17t37.5 6q6 0 11 -2.5t5 -10.5q0 -9 -15 -55q-7 -23 -19 -57t-31 -82z" />
    <glyph glyph-name="afii10095" unicode="&#x44d;" horiz-adv-x="442" 
d="M337 261q3 17 5 35.5t2 44.5q0 50 -16 68t-41 18q-38 0 -74.5 -22t-62.5 -49q-5 -6 -13 -6q-9 0 -9 8q0 7 2 13q1 3 3 5q19 20 40.5 38t46 32t52 22.5t59.5 8.5q18 0 36 -5t31.5 -17t22 -32t8.5 -50q0 -19 -5 -49t-13 -56q11 0 16 -4.5t5 -10.5q0 -12 -10 -19
q-6 -5 -11.5 -6t-13.5 -2q-17 -42 -39 -82t-59 -74q-44 -40 -87.5 -62.5t-86.5 -22.5q-47 0 -73 16.5t-26 44.5q0 24 14 46t36 28q4 -44 26 -66.5t53 -22.5q30 0 56.5 9.5t49.5 35.5q24 26 40.5 61.5t28.5 83.5l-85 -4l-92 -5q-17 -2 -17 8q0 6 9 11.5t18 8.5q12 4 27.5 6
t33.5 4q17 2 37 4t37 4q19 2 39 3z" />
    <glyph glyph-name="afii10096" unicode="&#x44e;" horiz-adv-x="681" 
d="M658 348q0 -114 -82 -236q-42 -63 -88.5 -95t-105.5 -32q-23 0 -43.5 7.5t-36 24t-24.5 43.5t-9 65q0 37 8.5 67.5t13.5 46.5q-7 -1 -12 -1t-10 -0.5t-10 -0.5q-9 -2 -19.5 -4t-19.5 -4q-11 -3 -21 -5l-19 -60q-4 -15 -8 -29q-3 -12 -6.5 -26.5t-5.5 -26.5q-4 -19 -4 -35
q0 -14 -4 -21q-2 -3 -11.5 -11t-22 -16t-25 -14.5t-19.5 -6.5q-11 0 -14 3t-4 11q0 3 1.5 12t3.5 20.5t4.5 24.5t5.5 25q4 19 11 42t13 44q7 24 15 49l-28 -12l-13 -3q-9 0 -10 14q0 12 17 22q18 9 45 15l12 38q5 16 10 34.5t10 34.5q5 17 10 35.5t5 24.5q0 3 -1 6t-4 3
q-11 0 -17 -3t-17 -6q-3 -1 -4.5 -2t-6.5 -1q-3 0 -5 3t-2 5q0 7 21.5 19t70.5 27q17 5 35.5 7.5t25.5 2.5q9 0 9 -9l-10 -30q-5 -13 -9.5 -28t-8.5 -27q-6 -18 -12.5 -39.5t-11.5 -39.5q-6 -22 -12 -43q9 2 20 4q8 2 18.5 3t18.5 3q5 1 11.5 1t12.5 1q6 0 13 1
q36 84 107 142q72 57 134 57q60 0 87 -27q27 -26 27 -94zM569 327q0 20 -1.5 38t-6.5 29q-12 35 -46 35q-32 0 -61 -26t-51 -68.5t-35.5 -95.5t-13.5 -105q0 -56 17.5 -82t43.5 -26q29 0 56 18.5t51 66.5q12 23 20.5 53t14.5 60.5t9 57.5t3 45z" />
    <glyph glyph-name="afii10097" unicode="&#x44f;" horiz-adv-x="432" 
d="M345 425q-6 2 -14 4q-7 2 -16.5 3t-21.5 1q-18 0 -39 -7.5t-38 -23.5t-28.5 -40t-11.5 -58q0 -7 3 -17t10.5 -19.5t21 -16t33.5 -6.5q22 0 36 3q8 2 14 4l51 173v0zM413 467q25 0 25 -17q0 -7 -3.5 -17t-10.5 -26.5t-16.5 -41t-21.5 -61.5q-14 -42 -23.5 -82t-15.5 -66
q-5 -26 -7.5 -47.5t-3.5 -39.5v-6t-2 -8q0 -7 -7.5 -19.5t-39.5 -35.5q-12 -9 -28 -9q-15 0 -15 10l1 9q0 5 1.5 17.5t3.5 29.5t5 35.5t6 35.5q2 12 5.5 26t6.5 27l8 30l-13 -3q-11 -2 -30.5 -10.5t-43 -23.5t-47.5 -37t-43 -52q-7 -10 -10.5 -20t-6.5 -19q-3 -19 -10 -27
q-5 -6 -14 -13.5t-19.5 -14t-21 -11t-18.5 -4.5q-14 0 -18.5 3t-4.5 11t8.5 25t28.5 44t43 48.5t44 38.5q12 10 26.5 19.5t29.5 18.5t29 16t25 12q-59 4 -90 30t-31 61q0 52 31 85.5t91 55.5q41 14 79.5 17.5t77.5 4.5z" />
    <glyph glyph-name="Delta" unicode="&#x394;" horiz-adv-x="612" 
d="M483 40l-194 472l-215 -472h409zM599 0h-586l306 677z" />
    <glyph glyph-name="Delta" unicode="&#x2206;" horiz-adv-x="612" 
d="M483 40l-194 472l-215 -472h409zM599 0h-586l306 677z" />
    <glyph glyph-name="approxequal" unicode="&#x2248;" horiz-adv-x="549" 
d="M535 267q-2 -63 -36 -98.5t-82 -35.5q-23 0 -74 15l-109 45q-75 31 -108 31q-34 0 -57.5 -21t-32.5 -69h-21q0 32 9 57t25 41.5t36.5 25.5t41.5 10q21 0 44 -6q49 -15 142 -54q24 -11 43.5 -17.5t33.5 -10.5q12 -4 32 -4q37 0 62 23t30 68h21zM535 507q-2 -63 -36 -98
t-82 -35q-25 0 -49 7q-26 8 -134 52q-75 31 -108 31q-34 0 -57.5 -21.5t-32.5 -67.5h-21q0 31 9.5 55.5t25.5 41.5t36.5 26t41.5 10q22 0 43 -7q26 -7 61 -20t81 -33q50 -22 77 -29q13 -3 32 -3q37 0 62 23t30 68h21z" />
    <glyph glyph-name="divide" unicode="&#xf7;" horiz-adv-x="549" 
d="M274 222q18 0 30.5 -12.5t12.5 -30.5q0 -17 -12.5 -30t-30.5 -13q-17 0 -30 13t-13 30q0 18 12.5 30.5t30.5 12.5zM538 312h-527v41h527v-41zM274 525q18 0 30.5 -12.5t12.5 -30.5q0 -17 -12.5 -29.5t-30.5 -12.5t-30.5 12.5t-12.5 29.5q0 18 12.5 30.5t30.5 12.5z" />
    <glyph glyph-name="greaterequal" unicode="&#x2265;" horiz-adv-x="549" 
d="M12 -34h525v-45h-525v45zM12 605l524 -223v-40l-524 -222v50l464 192l-464 193v50z" />
    <glyph glyph-name="hyphenminus" horiz-adv-x="303" 
d="M66 183q-7 0 -14.5 -1t-14 -0.5t-11 3t-4.5 8.5q0 15 7 23t17.5 11.5t24 4.5t25.5 1h101q13 0 28 0.5t28 1.5t22.5 1.5t12.5 0.5q13 0 16.5 -3.5t3.5 -7.5q0 -6 -8 -12t-20 -10.5t-26 -8.5t-26 -6q-13 -2 -40 -3l-54 -2q-32 -1 -68 -1z" />
    <glyph glyph-name="infinity" unicode="&#x221e;" horiz-adv-x="713" 
d="M305 288q-24 54 -55 79.5t-76 25.5q-26 0 -48 -9.5t-38 -27t-25.5 -42.5t-9.5 -55q0 -66 34 -104q34 -39 78 -39q46 0 82 42q24 29 58 130zM366 227q18 -39 35.5 -64t36 -39.5t38.5 -20t42 -5.5q30 0 56 11.5t44.5 32t29.5 50t11 65.5q0 73 -43 119q-42 47 -95 47
q-34 0 -59 -17t-45 -55q-13 -24 -51 -124zM319 326q33 76 72 105q40 30 109 30q77 0 133 -57q54 -56 54 -147q0 -88 -53 -147q-52 -58 -118 -58q-48 0 -90 36q-27 23 -74 104q-32 -61 -69 -87.5t-90 -26.5q-70 0 -118 50q-49 50 -49 130t45 130q45 49 105 49q43 0 74 -22
q31 -21 69 -89z" />
    <glyph glyph-name="lessequal" unicode="&#x2264;" horiz-adv-x="549" 
d="M12 -34h525v-45h-525v45zM536 120l-524 223v40l524 222v-50l-464 -192l464 -193v-50z" />
    <glyph glyph-name="nonbreakingspace" unicode="&#xa0;" horiz-adv-x="475" 
 />
    <glyph glyph-name="notequal" unicode="&#x2260;" horiz-adv-x="549" 
d="M12 399h294l103 261h39l-101 -261h190v-45h-208l-70 -181h278v-46h-296l-103 -258h-39l102 258h-189v46h207l71 181h-278v45z" />
    <glyph glyph-name="radical" unicode="&#x221a;" horiz-adv-x="549" 
d="M512 913h36l-152 -951l-242 498l-97 -44l-16 31l146 74l198 -402z" />
    <glyph glyph-name="tilde" unicode="&#x2dc;" horiz-adv-x="479" 
d="M481 670q-76 -103 -148 -103q-23 0 -46.5 11.5t-46 25.5t-41.5 25.5t-32 11.5q-28 0 -59 -15.5t-62 -52.5l-10 13q14 16 30 34.5t35.5 33.5t44 25t55.5 10q19 0 42.5 -11t47 -24.5t43 -24.5t29.5 -11q11 0 22.5 2t24 9t27 19.5t31.5 32.5l13 -11v0z" />
  </font>
</defs>
</svg>
